<svg xmlns="http://www.w3.org/2000/svg" xmlns:xlink="http://www.w3.org/1999/xlink" viewBox="0 0 500 329.674"><defs><style>.a{fill:none;}.b{fill:#ced0d6;}.c{fill:#1c3890;}.d{fill:#264bc0;}.e{fill:#fff;}.f{isolation:isolate;}.g{clip-path:url(#a);}.h{clip-path:url(#b);}.i{clip-path:url(#c);}.j{fill:#0a1330;}.k{clip-path:url(#d);}.l{clip-path:url(#e);}</style><clipPath id="a"><polygon class="a" points="46.427 211.888 46.485 191.383 191.576 275.151 191.518 295.657 46.427 211.888"/></clipPath><clipPath id="b"><polygon class="a" points="345.609 269.713 345.546 247.417 423.79 202.243 423.853 224.539 345.609 269.713"/></clipPath><clipPath id="c"><polygon class="a" points="139.635 139.396 114.732 124.924 224.26 61.687 249.164 76.159 139.635 139.396"/></clipPath><clipPath id="d"><polygon class="a" points="192.12 187.003 168.149 173.073 308.458 92.065 332.429 105.995 192.12 187.003"/></clipPath><clipPath id="e"><polygon class="a" points="277.426 222.806 249.719 206.705 367.395 138.765 395.102 154.866 277.426 222.806"/></clipPath></defs><path d="M489.413,173.044l-.033,11.6c-.016,5.414-3.574,10.82-10.684,14.951L271.443,320.035c-.526.3-1.067.6-1.616.879-.166.086-.336.168-.5.252q-.6.3-1.216.579c-.184.084-.367.168-.553.249q-.7.306-1.413.588c-.119.047-.234.1-.354.143q-.891.345-1.81.654c-.16.054-.322.1-.482.156q-.7.228-1.406.438l-.621.178c-.469.131-.941.255-1.417.375-.177.044-.352.091-.53.133q-.969.233-1.954.433c-.106.021-.214.039-.32.06q-.835.162-1.681.3c-.213.035-.427.068-.642.1q-.721.111-1.449.2c-.21.027-.421.055-.632.08q-.929.109-1.864.192c-.061.006-.121.013-.182.018-.684.058-1.37.1-2.058.137-.2.01-.4.016-.6.025q-.752.032-1.5.045c-.225,0-.45.008-.675.009q-.8.006-1.608-.009c-.16,0-.32,0-.479-.006q-1.032-.027-2.061-.086c-.163-.009-.325-.023-.488-.034-.53-.035-1.059-.075-1.587-.123q-.335-.031-.669-.066c-.5-.05-.99-.108-1.482-.17-.137-.017-.275-.029-.411-.047-.065-.009-.129-.021-.194-.03-.506-.069-1.008-.146-1.509-.228-.129-.021-.26-.039-.389-.061q-.93-.157-1.847-.346c14.466,6.652,35.525,6.115,48.834-1.62L489.32,203C503.541,194.732,503.548,181.37,489.413,173.044Z"/><path class="b" d="M201.479,203.136h0c-.111.039-.222.078-.335.115h0C201.257,203.214,201.368,203.175,201.479,203.136Z"/><path class="b" d="M200.253,203.507h0c-.067.017-.131.038-.2.054h0C200.122,203.545,200.186,203.524,200.253,203.507Z"/><path class="b" d="M288.243,73.953c-.221.158-.458.312-.71.46C287.785,74.265,288.022,74.111,288.243,73.953Z"/><path class="b" d="M135.306,163.337c-.057.026-.116.049-.174.074.058-.024.117-.048.174-.074Z"/><path class="b" d="M202.517,202.72h0c-.1.045-.2.086-.3.129h0C202.317,202.806,202.419,202.765,202.517,202.72Z"/><path class="b" d="M127.768,164.61c-.078-.005-.156-.014-.234-.019.078,0,.155.014.234.019Z"/><path class="b" d="M131.714,164.4c-.038.007-.077.011-.116.017.039,0,.077-.01.116-.017Z"/><path class="b" d="M288.857,73.463c-.126.112-.27.22-.411.328C288.587,73.683,288.731,73.575,288.857,73.463Z"/><path class="b" d="M134.268,163.752h0c-.111.039-.222.079-.335.115h0C134.046,163.831,134.157,163.791,134.268,163.752Z"/><path class="b" d="M123,163.631c-.139-.053-.271-.114-.406-.171.135.057.267.118.406.171Z"/><path class="b" d="M125.2,164.269l-.137-.028h0Z"/><path class="b" d="M126.585,164.5h0c-.133-.016-.265-.035-.4-.055h0C126.32,164.464,126.452,164.483,126.585,164.5Z"/><path class="b" d="M189.3,202.623c-.237-.114-.471-.232-.695-.36.224.128.457.246.695.36Z"/><path class="b" d="M289.95,72.161c.062-.1.129-.2.181-.307C290.079,71.958,290.012,72.059,289.95,72.161Z"/><path class="b" d="M289.068,73.254c.105-.1.215-.2.309-.307C289.283,73.052,289.173,73.152,289.068,73.254Z"/><path class="b" d="M289.561,72.715c.082-.1.169-.2.24-.306C289.73,72.513,289.643,72.613,289.561,72.715Z"/><path class="b" d="M123.8,163.907h0c-.2-.063-.4-.131-.6-.2h0C123.4,163.776,123.6,163.844,123.8,163.907Z"/><path class="b" d="M426.358,150.081h0c-.032.095-.076.189-.116.284C426.28,150.27,426.327,150.176,426.358,150.081Z"/><path class="b" d="M129.258,164.629h0c-.1,0-.2.008-.307.009h0C129.054,164.637,129.156,164.631,129.258,164.629Z"/><path class="b" d="M423.536,153.179c.253-.147.489-.3.71-.459C424.025,152.878,423.789,153.032,423.536,153.179Z"/><path class="b" d="M425.8,151.177c-.072.105-.16.206-.243.309C425.643,151.383,425.731,151.282,425.8,151.177Z"/><path class="b" d="M269,242.9c-.053.013-.1.029-.157.042h0C268.9,242.932,268.95,242.917,269,242.9Z"/><path class="b" d="M424.442,152.563c.144-.11.289-.219.418-.333C424.731,152.344,424.586,152.453,424.442,152.563Z"/><path class="b" d="M290.274,71.513h0l-.033.082Z"/><path class="b" d="M264.1,270.779l8.575-4.983a17.034,17.034,0,0,1-8.9-1.014c.369.019.74.029,1.11.026-.4,0-.789,0-1.183-.028-.08,0-.159-.014-.24-.019q-.474-.033-.943-.091c-.055-.007-.111-.009-.166-.016-.079-.011-.154-.028-.232-.039-.231-.035-.46-.073-.688-.117-.08-.015-.162-.024-.241-.041s-.128-.031-.194-.046c-.145-.031-.288-.066-.431-.1-.093-.023-.189-.042-.281-.067s-.157-.047-.237-.07c-.106-.031-.211-.062-.316-.1-.069-.021-.141-.04-.209-.062-.133-.044-.261-.093-.39-.14-.069-.025-.138-.048-.2-.074l-.078-.028q-.312-.122-.612-.258l-.065-.032-.152-.074c-.118-.057-.238-.113-.353-.173s-.229-.123-.341-.187l-41.1-23.588q-.1-.057-.2-.117c-.177-.107-.345-.216-.506-.329l-.014-.01-.061-.046c-.139-.1-.276-.2-.4-.306-.035-.029-.065-.06-.1-.09-.063-.053-.122-.107-.181-.161s-.123-.106-.179-.16-.087-.1-.133-.145c-.072-.075-.141-.15-.207-.226-.035-.04-.077-.079-.11-.12-.085-.1-.165-.209-.239-.315l-.007-.01c-.069-.1-.135-.2-.2-.3-.025-.043-.041-.087-.064-.129-.051-.093-.1-.186-.14-.279s-.087-.194-.123-.292-.065-.189-.093-.284c-.015-.053-.038-.1-.051-.157s-.021-.122-.033-.183-.02-.1-.027-.153a3.469,3.469,0,0,1-.042-.528l.036-12.641-4.513,2.638c-3.949,2.309-10.37,2.377-14.5.21-.137-.014-.276-.023-.413-.04-.055-.007-.111-.009-.166-.016-.078-.01-.153-.027-.231-.039-.232-.034-.461-.073-.689-.117-.079-.015-.161-.024-.241-.04-.065-.014-.128-.032-.193-.046-.145-.032-.287-.067-.43-.1-.094-.023-.19-.042-.283-.067s-.157-.048-.236-.071c-.106-.03-.211-.061-.315-.094-.07-.022-.141-.04-.21-.063-.133-.043-.26-.093-.39-.14-.068-.024-.137-.047-.2-.073l-.078-.028q-.312-.122-.612-.258l-.065-.032c-.05-.023-.1-.049-.149-.073-.119-.057-.24-.113-.355-.174s-.229-.122-.34-.186l-41.1-23.588c-.067-.038-.134-.077-.2-.117-.176-.107-.345-.217-.5-.329l-.014-.011c-.022-.015-.041-.031-.062-.046-.14-.1-.276-.2-.4-.3-.036-.03-.066-.061-.1-.09-.063-.054-.121-.108-.181-.162s-.123-.1-.179-.16-.087-.1-.133-.145c-.071-.074-.141-.149-.206-.225-.035-.041-.077-.079-.111-.12-.085-.1-.165-.21-.239-.316l-.006-.01c-.07-.1-.136-.2-.2-.3-.026-.042-.042-.086-.065-.129-.051-.092-.1-.186-.14-.279s-.086-.194-.123-.292-.065-.189-.092-.284c-.015-.053-.039-.1-.052-.157s-.021-.122-.032-.183-.02-.1-.028-.152a3.493,3.493,0,0,1-.042-.529l.034-12.027-3.465,2.025c-3.991,2.333-10.509,2.379-14.636.14-.05-.009-.1-.018-.148-.025q-.348-.051-.69-.117c-.08-.015-.161-.024-.24-.041s-.128-.031-.193-.045c-.145-.032-.288-.067-.432-.1-.093-.023-.189-.041-.281-.066s-.157-.048-.235-.071c-.107-.03-.213-.062-.318-.094-.069-.022-.14-.04-.209-.063-.132-.043-.259-.093-.389-.14l-.2-.073c-.025-.01-.052-.018-.078-.028q-.312-.123-.611-.258c-.023-.01-.043-.022-.065-.032l-.15-.073c-.119-.057-.239-.113-.355-.174s-.228-.123-.34-.187l-41.1-23.589-.2-.117c-.176-.107-.345-.217-.5-.329l-.015-.011c-.021-.015-.039-.03-.059-.045-.14-.1-.278-.2-.405-.306-.036-.03-.066-.061-.1-.09-.062-.054-.121-.108-.181-.162s-.123-.105-.179-.16-.087-.1-.133-.145c-.071-.075-.141-.149-.207-.225-.035-.041-.076-.08-.11-.121-.085-.1-.165-.209-.239-.315l-.006-.01c-.07-.1-.136-.2-.2-.3-.026-.042-.042-.086-.065-.129-.051-.093-.1-.186-.14-.28s-.086-.193-.123-.29-.065-.19-.093-.286c-.015-.052-.038-.1-.051-.156s-.021-.122-.032-.183-.02-.1-.028-.152a3.493,3.493,0,0,1-.042-.529l.017-5.953-29.245,17L226.972,270.778C237.218,276.693,253.927,276.693,264.1,270.779Z"/><polygon class="b" points="193.408 203.829 193.4 203.828 193.4 203.828 193.408 203.829"/><path class="b" d="M425.066,152.026c.107-.1.218-.205.313-.312C425.284,151.821,425.172,151.923,425.066,152.026Z"/><path class="b" d="M426.132,150.622c-.052.1-.12.207-.182.31C426.012,150.829,426.08,150.727,426.132,150.622Z"/><path class="b" d="M356.777,112.094c.081-.1.167-.2.237-.3C356.944,111.894,356.857,111.993,356.777,112.094Z"/><path class="b" d="M357.164,111.542c.061-.1.128-.2.18-.305C357.292,111.34,357.225,111.441,357.164,111.542Z"/><path class="b" d="M355.665,113.169c.139-.107.281-.213.406-.324C355.946,112.956,355.8,113.062,355.665,113.169Z"/><path class="b" d="M130.443,164.561c-.1.009-.2.018-.293.025h0C130.248,164.579,130.345,164.57,130.443,164.561Z"/><path class="b" d="M271.309,242.1l-.094.041.094-.041Z"/><path class="b" d="M356.59,112.329c-.093.105-.2.205-.308.307C356.387,112.534,356.5,112.434,356.59,112.329Z"/><path class="b" d="M357.452,110.977c.044-.1.092-.2.126-.308C357.544,110.773,357.5,110.874,357.452,110.977Z"/><path class="b" d="M354.748,113.794q.378-.222.709-.459Q355.126,113.572,354.748,113.794Z"/><path class="b" d="M266.535,243.321h0c-.128.013-.255.024-.384.033h0Q266.343,243.341,266.535,243.321Z"/><path class="b" d="M244.471,283.451h0c-.16,0-.32,0-.48-.007h0C244.151,283.449,244.311,283.448,244.471,283.451Z"/><path class="b" d="M235.59,282.661h0c-.131-.021-.263-.039-.393-.061h0C235.33,282.622,235.461,282.64,235.59,282.661Z"/><path class="b" d="M246.713,283.451c-.212,0-.424.008-.635.009h0C246.29,283.459,246.5,283.455,246.713,283.451Z"/><path class="b" d="M241.931,283.359h0c-.164-.01-.326-.023-.489-.034h0C241.605,283.336,241.767,283.349,241.931,283.359Z"/><path class="b" d="M223.18,279.05l-.232-.1.232.1Z"/><path class="b" d="M230.1,281.488c-.26-.07-.516-.147-.774-.221.258.074.514.151.774.221Z"/><path class="b" d="M228.159,280.921c-.167-.052-.332-.107-.5-.16.166.053.331.108.5.16Z"/><path class="b" d="M231.3,281.792c-.26-.064-.519-.128-.777-.195l.008,0C230.79,281.665,231.047,281.728,231.3,281.792Z"/><path class="b" d="M237.7,282.966h0c-.2-.026-.405-.049-.606-.077h0C237.3,282.917,237.5,282.94,237.7,282.966Z"/><path class="b" d="M248.859,283.38h0c-.2.011-.4.017-.6.026h0C248.457,283.4,248.658,283.391,248.859,283.38Z"/><path class="b" d="M482.452,154.329c-.215.17-.446.336-.671.5C482.006,154.665,482.237,154.5,482.452,154.329Z"/><path class="b" d="M8.274,155.05c-.1-.074-.2-.149-.3-.224.094.07.184.14.28.209Z"/><path class="b" d="M7.142,154.194c-.1-.082-.2-.166-.3-.249.1.08.188.16.287.238Z"/><path class="b" d="M9.573,155.935c-.127-.082-.246-.166-.37-.249.122.082.239.165.364.246Z"/><path class="b" d="M480.113,156q-.627.4-1.3.791Q479.486,156.4,480.113,156Z"/><path class="b" d="M483.332,153.6h0c-.138.119-.282.237-.425.355C483.05,153.832,483.2,153.715,483.332,153.6Z"/><path class="b" d="M481.324,155.175c-.25.179-.517.353-.779.528C480.807,155.528,481.074,155.354,481.324,155.175Z"/><path class="b" d="M192.711,203.711h0c-.145-.028-.291-.055-.434-.087h0C192.42,203.656,192.566,203.683,192.711,203.711Z"/><path class="b" d="M357.716,126.729l9.777-5.716a14.064,14.064,0,0,1,5.593-1.689l-15.324-8.847Z"/><path class="b" d="M260.634,242.907h0c-.174-.044-.348-.089-.518-.138h0C260.287,242.818,260.46,242.863,260.634,242.907Z"/><path class="b" d="M265.26,243.4h0Z"/><path class="b" d="M449.152,163.241l-22.6-13.05-.044,15.709,2.187,1.255c3.09,1.774,3.881,4.4,2.36,6.6Z"/><path class="b" d="M263.769,243.378h0c-.081,0-.16-.014-.241-.02h0C263.609,243.364,263.689,243.373,263.769,243.378Z"/><path class="b" d="M194.979,203.993h0c-.08,0-.159-.014-.239-.019h0C194.821,203.979,194.9,203.988,194.979,203.993Z"/><path class="b" d="M259,242.4c-.2-.077-.395-.162-.588-.247.193.085.387.17.588.247Z"/><path class="b" d="M261.154,243.026l-.089-.017h0Z"/><path class="b" d="M253.454,282.972c-.164.02-.327.043-.491.062h0C253.127,283.015,253.29,282.993,253.454,282.972Z"/><path class="b" d="M268.227,278.94h0c-.184.084-.368.168-.554.249h0C267.86,279.108,268.044,279.024,268.227,278.94Z"/><path class="b" d="M260.172,281.72c-.083.021-.165.043-.248.063l.247-.063Z"/><path class="b" d="M290.506,86.425l8.2-4.8A14.336,14.336,0,0,1,304.8,79.9l-14.251-8.228Z"/><path class="b" d="M266.261,279.777h0c-.118.047-.234.1-.353.143h0C266.027,279.874,266.143,279.824,266.261,279.777Z"/><path class="b" d="M269.7,278.235l-.253.126h0Z"/><path class="b" d="M225.163,279.879h0c-.139-.054-.274-.111-.411-.166h0C224.89,279.768,225.025,279.825,225.163,279.879Z"/><path class="b" d="M255.474,282.682l-.43.068h0Z"/><path class="b" d="M251.1,283.226l-.041,0,.041,0Z"/><path class="c" d="M21.043,131.544c-.092.059-.177.121-.267.181-.2.133-.4.266-.594.4-.116.082-.222.167-.334.25-.157.117-.318.233-.468.353-.114.09-.219.183-.33.275-.138.115-.28.229-.413.346-.107.094-.2.19-.307.286-.126.117-.256.233-.376.351-.1.1-.189.2-.283.3-.114.119-.232.237-.34.357-.091.1-.173.2-.26.306-.1.12-.208.239-.3.36-.083.1-.156.209-.235.314-.09.121-.185.242-.27.364s-.14.218-.211.327-.16.241-.233.363-.124.222-.185.333-.139.243-.2.366-.1.224-.156.336-.118.247-.17.372-.085.227-.128.341-.1.248-.138.373-.067.23-.1.345-.075.249-.106.375-.048.232-.072.348-.055.25-.075.376-.03.234-.044.351-.034.25-.044.375-.011.235-.016.353c-.164,4.035,2.4,8.106,7.707,11.168l18.26,10.543L225.4,55.494c.374-.218.76-.425,1.151-.626.119-.061.24-.12.36-.179q.428-.213.868-.413c.131-.06.261-.119.393-.177q.5-.217,1.015-.421c.083-.032.163-.067.246-.1q.638-.245,1.293-.465c.116-.039.233-.075.35-.113q.5-.162,1-.31l.442-.127c.336-.094.676-.182,1.017-.268.126-.031.25-.064.376-.094q.692-.165,1.4-.307l.251-.046q.588-.114,1.182-.212c.153-.025.307-.048.461-.072.345-.052.692-.1,1.04-.145.149-.019.3-.039.448-.056.461-.054.924-.1,1.388-.142l.075-.007c.49-.041.982-.072,1.474-.1.147-.007.294-.012.441-.018.357-.015.714-.025,1.072-.032l.48-.006c.391,0,.782,0,1.174.007.106,0,.213,0,.32,0q.738.018,1.475.062c.123.007.245.017.368.025q.561.037,1.12.088c.16.014.319.03.478.046q.54.055,1.075.124c.138.017.277.033.416.052q.581.08,1.156.175l.2.031q.673.115,1.337.251c.228.047.454.1.681.148.158.035.318.068.476.1.25.059.5.123.744.186.136.035.273.067.408.1.04.01.079.023.119.034.552.15,1.095.314,1.631.487.1.033.2.064.3.1q.747.249,1.468.527c.105.041.207.084.311.125q.559.224,1.1.465c.115.051.231.1.345.154.43.2.854.4,1.266.619q.477.251.937.514L449.152,163.241l18.5-10.753c5.073-2.948,7.6-6.832,7.6-10.717,0-.126-.008-.252-.014-.378,0-.1-.006-.194-.014-.291,0-.049-.008-.1-.013-.147-.009-.1-.023-.2-.036-.3s-.02-.178-.034-.267c-.006-.038-.011-.076-.017-.113-.016-.092-.038-.183-.056-.275-.027-.136-.052-.272-.086-.408-.025-.095-.054-.189-.081-.283-.01-.037-.021-.073-.031-.109-.033-.11-.061-.22-.1-.329s-.073-.2-.108-.292l-.039-.1c-.04-.106-.077-.213-.122-.32s-.091-.2-.136-.3c-.015-.033-.031-.065-.045-.1-.049-.1-.094-.209-.147-.312s-.109-.2-.164-.3l-.022-.04c-.065-.119-.128-.238-.2-.356q-.22-.369-.473-.732c-.036-.051-.077-.1-.114-.151-.141-.2-.287-.392-.443-.585l-.012-.014c-.115-.142-.238-.283-.361-.423-.059-.068-.115-.136-.176-.2-.1-.111-.21-.22-.318-.33s-.187-.2-.287-.3l-.007-.007-.011-.011c-.2-.2-.415-.394-.635-.588l-.186-.159-.023-.02c-.161-.137-.324-.273-.493-.408-.067-.054-.135-.107-.2-.161-.123-.1-.252-.19-.38-.284-.071-.052-.139-.1-.211-.157-.052-.038-.1-.076-.155-.113l-.007,0q-.374-.263-.769-.518c-.062-.04-.126-.079-.189-.118l-.008-.005c-.259-.163-.521-.325-.8-.483L262.65,12.689c-.306-.177-.619-.347-.936-.514-.413-.216-.837-.421-1.267-.619-.114-.053-.229-.1-.344-.154h0q-.543-.242-1.1-.465h0l-.31-.125h0q-.721-.279-1.468-.527h0c-.1-.034-.2-.066-.305-.1-.536-.174-1.079-.338-1.631-.488h0c-.04-.011-.079-.023-.119-.033h0c-.136-.037-.274-.069-.411-.1-.246-.064-.492-.127-.741-.186-.156-.037-.315-.07-.473-.1-.228-.05-.455-.1-.684-.148h0q-.665-.136-1.338-.251l-.095-.015-.1-.015q-.579-.1-1.163-.176c-.138-.019-.278-.035-.416-.053q-.536-.067-1.074-.123l-.17-.017-.308-.03c-.372-.034-.746-.062-1.119-.087l-.214-.015-.156-.011q-.736-.042-1.475-.062l-.32,0c-.391-.007-.782-.01-1.173-.007-.084,0-.167,0-.251,0l-.23,0c-.358.007-.715.017-1.072.032l-.367.015-.073,0c-.493.025-.984.056-1.474.1l-.076.008c-.464.039-.926.088-1.387.141-.15.018-.3.038-.449.057-.348.044-.694.093-1.039.145l-.378.059-.084.013q-.593.1-1.18.211l-.172.032-.08.015q-.7.141-1.4.307c-.126.03-.25.063-.375.094q-.513.128-1.017.268c-.148.041-.3.083-.443.127q-.505.147-1,.31c-.116.038-.234.073-.349.112-.437.148-.869.3-1.293.466-.083.032-.164.067-.247.1-.343.136-.681.275-1.014.421-.133.058-.263.117-.394.177q-.44.2-.867.412l-.2.1-.16.08c-.391.2-.777.408-1.151.626L21.964,130.98Q21.489,131.258,21.043,131.544Z"/><path class="d" d="M478.818,156.787,271.564,277.23c-.525.305-1.066.6-1.615.879-.167.086-.337.168-.5.252q-.6.3-1.217.579c-.183.084-.367.168-.553.249q-.7.3-1.413.588c-.118.047-.234.1-.353.143q-.893.344-1.811.654c-.159.054-.321.1-.481.156q-.7.228-1.407.438-.309.09-.621.177c-.468.132-.941.256-1.417.375-.176.045-.352.092-.53.134q-.969.233-1.954.432c-.106.022-.213.039-.319.06q-.836.163-1.682.3c-.213.035-.427.068-.641.1q-.721.109-1.45.2c-.21.027-.42.055-.632.08q-.929.11-1.864.192c-.061,0-.121.013-.182.018-.684.058-1.37.1-2.058.136-.2.011-.4.017-.6.026-.5.02-1,.036-1.5.045-.225,0-.45.008-.675.009q-.8.006-1.607-.009c-.16,0-.32,0-.48-.007q-1.032-.026-2.06-.085c-.164-.01-.326-.023-.489-.034q-.8-.052-1.586-.124-.336-.03-.669-.065-.744-.077-1.483-.17c-.2-.026-.4-.049-.605-.077-.5-.069-1.008-.146-1.509-.228-.129-.021-.26-.039-.389-.061q-.94-.161-1.87-.35c-.335-.069-.667-.144-1-.219-.208-.046-.417-.089-.623-.137-.394-.093-.784-.194-1.174-.3-.145-.038-.293-.072-.437-.111q-.755-.2-1.5-.427c-.149-.045-.3-.094-.444-.14q-.468-.145-.93-.3-1.049-.35-2.066-.742c-.138-.054-.273-.111-.41-.165q-.8-.318-1.573-.664c-.162-.072-.326-.143-.486-.217-.608-.28-1.207-.57-1.79-.876q-.672-.351-1.322-.725L10.97,156.789c-.387-.223-.758-.452-1.124-.682-.093-.059-.187-.116-.279-.175q-.559-.361-1.087-.732c-.078-.054-.151-.11-.227-.165q-.421-.3-.821-.612c-.1-.08-.2-.16-.3-.24-.239-.19-.469-.383-.7-.577-.1-.084-.2-.167-.3-.252-.309-.273-.61-.549-.895-.828l-.041-.042q-.426-.42-.818-.848c-.092-.1-.175-.2-.265-.306-.173-.2-.345-.394-.507-.593-.246-.3-.477-.61-.7-.918-.027-.037-.057-.074-.083-.111-.243-.346-.468-.7-.679-1.048-.1-.172-.194-.346-.289-.519-.083-.153-.172-.3-.25-.458-.09-.178-.167-.357-.249-.535-.07-.153-.146-.305-.209-.458-.076-.181-.139-.364-.206-.546-.056-.152-.118-.3-.169-.457-.061-.185-.109-.37-.161-.555-.043-.152-.092-.3-.129-.455-.074-.3-.135-.6-.187-.908-.014-.083-.025-.166-.037-.249-.035-.233-.064-.467-.085-.7-.009-.089-.018-.178-.024-.267-.022-.306-.036-.613-.035-.919v0h0L0,184.436c0,.308.014.615.036.922.006.089.015.178.023.267q.033.351.085.7c.013.083.024.166.038.249.05.293.107.585.177.877l.009.031c.037.152.087.3.13.455.052.185.1.37.161.555.05.154.113.306.17.459.066.182.129.363.2.543.065.155.141.309.211.463.081.177.158.354.247.531.078.154.168.307.252.46s.163.311.254.464c.01.018.024.036.034.053.21.352.435.7.678,1.048.027.038.058.076.086.114q.329.462.7.915c.019.023.034.047.053.07.144.176.3.349.454.524.089.1.173.2.265.305q.389.424.811.842c.017.016.031.033.048.049l0,0c.285.278.584.553.893.825.1.085.2.168.295.252.144.124.284.249.433.371.085.069.176.137.262.206s.2.161.306.24c.266.207.539.41.82.612.076.055.149.111.226.165l.076.055c.327.229.666.454,1.012.677.091.059.186.117.279.175.166.1.328.21.5.313.206.124.414.247.626.37L219.461,320.037q.63.363,1.282.706l.04.02c.583.305,1.182.6,1.789.875.063.029.122.062.185.09.1.045.2.083.3.127q.775.345,1.573.664c.1.038.188.082.285.12.041.016.084.029.125.045q1.017.393,2.067.743c.058.019.114.042.172.062.251.082.5.159.758.238.148.046.295.094.444.139q.729.221,1.47.421l.023.006c.15.04.3.076.454.115.385.1.769.2,1.159.291.205.048.414.091.621.137.3.068.6.139.909.2l.092.017c.619.126,1.242.244,1.87.35.129.022.26.04.389.061.5.082,1,.159,1.509.228.065.009.129.021.194.03.136.018.274.03.411.047.492.062.986.12,1.482.17q.335.035.669.066c.528.048,1.057.088,1.587.123.163.011.325.025.488.034q1.029.06,2.061.086c.159,0,.319,0,.479.006q.8.015,1.608.009c.225,0,.45,0,.675-.009q.752-.013,1.5-.045c.2-.009.4-.015.6-.025.688-.036,1.374-.079,2.058-.137.061,0,.121-.012.182-.018q.936-.081,1.864-.192c.211-.025.422-.053.632-.08q.728-.093,1.449-.2c.215-.033.429-.066.642-.1q.846-.14,1.681-.3c.106-.021.214-.039.32-.06q.986-.2,1.954-.433c.178-.042.353-.089.53-.133.476-.12.948-.244,1.417-.375l.621-.178q.709-.21,1.406-.438c.16-.052.322-.1.482-.156q.918-.31,1.81-.654c.12-.046.235-.1.354-.143q.716-.284,1.413-.588c.186-.081.369-.165.553-.249q.616-.281,1.216-.579c.169-.084.339-.166.5-.252.549-.283,1.09-.574,1.616-.879L478.7,199.592c7.11-4.131,10.668-9.537,10.684-14.951l.121-42.8C489.486,147.25,485.927,152.656,478.818,156.787Z"/><path class="c" d="M287.533,74.413,136.248,162.854c-.3.175-.616.333-.942.483-.1.045-.2.086-.3.129-.24.1-.485.2-.736.286-.111.039-.222.079-.335.115-.292.095-.59.18-.894.257-.066.017-.129.037-.2.053-.369.089-.747.163-1.129.226-.1.018-.209.03-.313.045-.287.042-.576.078-.868.106-.127.012-.255.023-.383.032-.3.022-.594.036-.892.043-.1,0-.2.008-.307.009q-.592,0-1.183-.028c-.08-.005-.159-.014-.239-.02q-.474-.033-.944-.091c-.133-.016-.265-.035-.4-.055-.232-.034-.461-.073-.69-.117-.144-.027-.289-.054-.432-.086s-.289-.067-.432-.1c-.174-.043-.346-.088-.517-.137-.106-.031-.212-.062-.317-.095-.2-.063-.4-.131-.6-.2-.068-.025-.138-.048-.2-.074q-.387-.148-.755-.318c-.05-.023-.1-.049-.149-.073-.238-.114-.472-.232-.7-.36L80.3,139.29c-.256-.146-.5-.3-.719-.457-.021-.014-.039-.03-.06-.045-.18-.129-.347-.261-.505-.4-.063-.053-.121-.107-.181-.161-.11-.1-.213-.2-.312-.306q-.108-.111-.207-.225a5.329,5.329,0,0,1-.349-.436l-.007-.009a4.784,4.784,0,0,1-.261-.433c-.051-.092-.1-.185-.14-.279s-.086-.194-.122-.291-.065-.19-.093-.285c-.032-.113-.062-.226-.084-.34-.009-.051-.02-.1-.027-.152a3.482,3.482,0,0,1-.042-.529l-.061,21.4a3.493,3.493,0,0,0,.042.529c.008.05.018.1.028.152s.018.122.032.183.036.1.051.156c.028.1.058.191.093.286s.078.194.123.29.089.187.14.28c.023.043.039.087.065.129.06.1.126.2.2.3l.006.01c.074.106.154.211.239.315.034.041.075.08.11.121.066.076.136.15.207.225.046.048.085.1.133.145s.121.107.179.16.119.108.181.162c.035.029.065.06.1.09.127.1.265.205.405.306.02.015.038.03.059.045l.015.011c.16.112.329.222.5.329l.2.117,41.1,23.589c.112.064.225.127.34.187s.236.117.355.174l.15.073c.022.01.042.022.065.032q.3.135.611.258c.026.01.053.018.078.028l.2.073c.13.047.257.1.389.14.069.023.14.041.209.063.1.032.211.064.318.094.078.023.155.049.235.071s.188.043.281.066c.144.036.287.071.432.1.065.014.128.032.193.045s.16.026.24.041q.342.066.69.117c.077.011.152.028.23.039.055.007.111.009.166.016q.47.059.944.091c.08,0,.159.015.239.019.394.023.789.031,1.184.028.1,0,.2-.006.306-.009.3-.007.6-.02.892-.042.129-.01.256-.021.384-.033q.436-.042.868-.1c.1-.016.209-.028.312-.045.382-.063.76-.137,1.13-.226.066-.016.13-.036.2-.053q.454-.115.893-.257c.113-.037.224-.076.335-.115q.377-.133.736-.286c.1-.043.2-.084.3-.13.326-.149.643-.307.943-.482L287.472,95.815a5.968,5.968,0,0,0,2.829-3.109,3.7,3.7,0,0,0,.191-1.151l.06-21.4C290.548,71.7,289.543,73.237,287.533,74.413Z"/><path class="e" d="M231.489,42.247c4.062-2.375,10.745-2.386,14.854-.028l41.1,23.59c4.109,2.358,4.15,6.229.089,8.6L136.248,162.854c-4.058,2.373-10.741,2.384-14.85.026L80.3,139.29c-4.109-2.358-4.151-6.229-.093-8.6Z"/><path class="c" d="M354.748,113.794,203.46,202.237a10.561,10.561,0,0,1-.943.483c-.1.045-.2.086-.3.129q-.36.153-.737.287c-.111.039-.222.078-.334.115-.292.094-.59.179-.892.256-.067.017-.131.038-.2.054-.37.088-.748.163-1.13.226-.1.017-.208.029-.312.044-.287.042-.577.078-.868.106-.128.012-.255.023-.383.032q-.446.033-.894.043c-.1,0-.2.008-.3.009q-.593,0-1.184-.028c-.079,0-.158-.014-.238-.019-.316-.023-.632-.053-.945-.092-.132-.016-.264-.035-.4-.054-.232-.035-.461-.074-.689-.117-.145-.028-.291-.055-.434-.087s-.288-.066-.431-.1c-.174-.043-.347-.088-.518-.137l-.315-.094c-.2-.064-.4-.131-.6-.2-.068-.025-.138-.048-.206-.074-.257-.1-.509-.2-.754-.317-.051-.024-.1-.05-.15-.074-.238-.114-.471-.232-.695-.36l-41.1-23.587c-.256-.147-.5-.3-.719-.457-.021-.015-.04-.032-.061-.047-.179-.128-.346-.26-.5-.4-.063-.053-.122-.107-.181-.161-.11-.1-.213-.2-.312-.306q-.108-.111-.207-.225a5.493,5.493,0,0,1-.349-.435l-.007-.01a4.539,4.539,0,0,1-.26-.432c-.051-.093-.1-.186-.141-.28s-.086-.194-.122-.291-.065-.189-.093-.285c-.032-.113-.062-.226-.084-.34-.009-.05-.02-.1-.027-.152a3.482,3.482,0,0,1-.042-.529l-.061,21.4a3.493,3.493,0,0,0,.042.529c.008.051.018.1.028.152s.018.122.032.183.037.1.052.157c.027.095.057.19.092.284s.078.2.123.292.089.187.14.279c.023.043.039.087.065.129.06.1.126.2.2.3l.006.01c.074.106.154.212.239.316.034.041.076.079.111.12.065.076.135.151.206.225.046.048.085.1.133.145s.121.107.179.16.118.108.181.162c.035.029.065.06.1.09.127.1.263.2.4.3.021.015.04.031.062.046l.014.011c.16.112.329.222.5.329.065.04.132.079.2.117l41.1,23.588c.111.064.225.126.34.186s.236.117.355.174c.05.024.1.05.149.073l.065.032q.3.137.612.258l.078.028c.067.026.136.049.2.073.13.047.257.1.39.14.069.023.14.041.21.063.1.033.209.064.315.094.079.023.156.049.236.071s.189.044.283.067c.143.035.285.07.43.1.065.014.128.032.193.046.08.016.162.025.241.04.228.044.457.083.689.117.078.012.153.029.231.039.055.007.111.009.166.016.313.039.627.069.944.091.08.006.159.015.239.02q.591.033,1.184.028c.1,0,.2-.007.3-.009.3-.008.6-.021.893-.043q.192-.014.384-.033c.291-.027.58-.063.867-.1.1-.015.209-.028.313-.045.382-.063.759-.137,1.129-.226.067-.016.131-.036.2-.053.3-.077.6-.162.892-.257.113-.036.223-.076.334-.115.252-.089.5-.184.737-.286.1-.043.2-.084.3-.129.325-.15.643-.308.942-.483L354.687,135.2c2.008-1.174,3.012-2.715,3.017-4.258l.06-21.4C357.76,111.079,356.756,112.62,354.748,113.794Z"/><path class="e" d="M298.708,81.63c4.058-2.372,10.741-2.384,14.85-.026l41.1,23.588c4.109,2.358,4.151,6.23.093,8.6L203.46,202.237c-4.058,2.373-10.742,2.384-14.851.026l-41.1-23.587c-4.109-2.359-4.151-6.23-.093-8.6Z"/><path d="M144.389,179.462l-8.2,4.8c-.3.175-.617.333-.943.482-.1.046-.2.087-.3.13q-.36.153-.736.286c-.111.039-.222.078-.335.115q-.438.141-.893.257c-.066.017-.13.037-.2.053-.37.089-.748.163-1.13.226-.1.017-.208.029-.312.045q-.432.063-.868.1c-.128.012-.255.023-.384.033-.3.022-.593.035-.892.042-.1,0-.2.009-.306.009-.395,0-.79,0-1.184-.028-.08,0-.159-.014-.239-.019q-.474-.033-.944-.091c-.055-.007-.111-.009-.166-.016l-.082-.014c4.127,2.239,10.645,2.193,14.636-.14l3.465-2.025Z"/><path d="M428.692,167.155l-2.187-1.255-.013,4.425c0,1.542-1.009,3.083-3.016,4.257L272.192,263.023c-.3.175-.618.334-.944.483-.1.045-.2.087-.3.13q-.36.153-.736.286c-.112.039-.222.079-.336.115-.291.1-.588.18-.891.257-.067.017-.131.037-.2.054q-.555.132-1.129.226c-.1.017-.209.029-.313.044-.288.042-.576.078-.868.106-.128.012-.255.023-.383.033q-.446.031-.892.042c-.1,0-.2.009-.308.009-.37,0-.741-.007-1.11-.026,4.127,1.778,10.014,1.586,13.722-.581l151.285-88.442C432.846,173.387,432.8,169.515,428.692,167.155Z"/><path class="c" d="M423.536,153.179,272.252,241.621a10.555,10.555,0,0,1-.943.482c-.1.046-.2.087-.3.13-.239.1-.485.2-.736.286-.111.04-.222.079-.335.116-.291.094-.589.179-.891.256-.067.017-.132.038-.2.054-.37.089-.747.163-1.129.226-.1.017-.209.03-.314.045-.287.042-.576.078-.867.1q-.192.02-.384.033c-.3.022-.593.035-.891.043-.1,0-.2.008-.308.009q-.592,0-1.183-.028c-.08,0-.16-.014-.24-.02-.316-.022-.631-.052-.943-.091-.134-.016-.266-.035-.4-.055q-.348-.051-.688-.116c-.146-.028-.291-.056-.435-.087s-.288-.067-.431-.1c-.174-.044-.347-.089-.518-.138-.106-.03-.212-.062-.316-.094-.2-.064-.4-.131-.6-.2-.068-.025-.137-.048-.2-.074-.257-.1-.509-.2-.754-.318-.052-.023-.1-.049-.152-.074-.237-.114-.471-.232-.694-.36l-41.1-23.587q-.382-.22-.718-.457c-.022-.015-.04-.031-.061-.046-.179-.128-.346-.261-.5-.4-.062-.053-.121-.107-.18-.161q-.165-.15-.313-.305c-.071-.075-.141-.149-.206-.225-.124-.144-.246-.288-.349-.435l-.007-.011a4.77,4.77,0,0,1-.261-.432c-.051-.092-.1-.185-.14-.279s-.086-.194-.122-.291-.066-.19-.093-.285c-.032-.113-.062-.226-.084-.34-.01-.05-.02-.1-.027-.152a3.617,3.617,0,0,1-.043-.529l-.06,21.4a3.469,3.469,0,0,0,.042.528c.007.051.018.1.027.153s.019.122.033.183.036.1.051.157c.028.095.058.19.093.284s.078.195.123.292.089.186.14.279c.023.042.039.086.064.129.061.1.127.2.2.3l.007.01c.074.106.154.211.239.315.033.041.075.08.11.12.066.076.135.151.207.226.046.048.085.1.133.145s.12.106.179.16.118.108.181.161c.035.03.065.061.1.09.128.1.265.205.4.306l.061.046.014.01c.161.113.329.222.506.329q.1.06.2.117l41.1,23.588c.112.064.225.126.341.187s.235.116.353.173l.152.074.065.032q.3.137.612.258l.078.028c.067.026.136.049.2.074.129.047.257.1.39.14.068.022.14.041.209.062.105.033.21.064.316.1.08.023.157.049.237.07s.188.044.281.067c.143.036.286.071.431.1.066.015.129.033.194.046s.161.026.241.041c.228.044.457.082.688.117.078.011.153.028.232.039.055.007.111.009.166.016q.47.058.943.091c.081,0,.16.015.24.019.394.023.788.031,1.183.028.1,0,.2-.006.308-.009q.447-.01.892-.042c.128-.01.255-.021.383-.033.292-.028.58-.064.868-.106.1-.015.209-.027.313-.044q.573-.094,1.129-.226c.068-.017.132-.037.2-.054.3-.077.6-.162.891-.257.114-.036.224-.076.336-.115q.377-.134.736-.286c.1-.043.2-.085.3-.13.326-.149.644-.308.944-.483l151.284-88.441c2.007-1.174,3.012-2.715,3.016-4.257l.061-21.4C426.548,150.465,425.544,152.005,423.536,153.179Z"/><path class="e" d="M367.493,121.013c4.058-2.372,10.742-2.384,14.851-.025l41.1,23.587c4.112,2.36,4.154,6.232.1,8.6L272.252,241.621c-4.061,2.374-10.745,2.386-14.857.025l-41.1-23.587c-4.109-2.358-4.151-6.23-.089-8.6Z"/><path d="M213.177,217.924,203.4,223.64c-.3.175-.617.333-.942.483-.1.045-.2.086-.3.129-.24.1-.485.2-.737.286-.111.039-.221.079-.334.115-.292.095-.589.18-.892.257-.067.017-.131.037-.2.053-.37.089-.747.163-1.129.226-.1.017-.209.03-.313.045-.287.042-.576.078-.867.1q-.192.019-.384.033c-.3.022-.595.035-.893.043-.1,0-.2.008-.3.009q-.593,0-1.184-.028c-.08,0-.159-.014-.239-.02-.178-.012-.354-.033-.531-.051,4.133,2.167,10.554,2.1,14.5-.21l4.513-2.638Z"/><path class="e" d="M478.652,126.677c14.4,8.314,14.476,21.794.166,30.11L271.564,277.23c-14.309,8.315-37.581,8.316-51.982,0L10.97,156.789C-3.429,148.476-3.5,135,10.8,126.68L218.057,6.237c14.31-8.316,37.583-8.315,51.982,0ZM264.1,270.779,467.655,152.488c10.179-5.916,10.125-15.594-.121-21.509L262.65,12.689c-10.246-5.916-26.955-5.916-37.134,0L21.964,130.98c-10.177,5.914-10.122,15.593.124,21.508l204.884,118.29c10.246,5.915,26.955,5.915,37.131,0"/><polygon points="77.145 150.396 77.17 141.633 40.349 163.031 47.9 167.391 77.145 150.396"/><path class="e" d="M478.652,127.2c14.4,8.314,14.476,21.794.166,30.11L271.564,277.755c-14.309,8.315-37.581,8.316-51.982,0L10.97,157.314C-3.429,149-3.5,135.52,10.8,127.205L218.057,6.762c14.31-8.316,37.583-8.315,51.982,0ZM264.1,271.3,467.655,153.013c10.179-5.915,10.125-15.594-.121-21.509L262.65,13.214C252.4,7.3,235.7,7.3,225.516,13.214L21.964,131.505c-10.177,5.914-10.122,15.593.124,21.509L226.972,271.3c10.246,5.916,26.955,5.915,37.131,0"/><g class="f"><g class="g"><polyline class="e" points="53.636 195.511 46.485 191.383 46.443 206.283 53.594 210.412 53.599 208.424 48.568 205.519 48.581 200.956 53.057 203.54 53.062 201.551 48.587 198.967 48.599 194.602 53.63 197.507 53.636 195.511"/><polyline class="e" points="65.247 205.324 63.032 204.045 60.939 206.849 58.728 201.56 56.328 200.174 59.624 208.081 56.294 211.971 58.51 213.25 60.609 210.45 62.813 215.735 65.214 217.121 61.917 209.236 65.247 205.324"/><path class="e" d="M73.34,219.88a5.5,5.5,0,0,1-1.511-1.343,7.175,7.175,0,0,1-1.152-2.047,6.661,6.661,0,0,1-.435-2.382,3.313,3.313,0,0,1,.447-1.865,1.482,1.482,0,0,1,1.159-.7,2.588,2.588,0,0,1,1.515.4,5.66,5.66,0,0,1,1.537,1.351,7.215,7.215,0,0,1,1.152,2.017,6.414,6.414,0,0,1,.428,2.356,3.426,3.426,0,0,1-.44,1.891,1.538,1.538,0,0,1-1.159.735,2.658,2.658,0,0,1-1.541-.412m.495-9.789a4.091,4.091,0,0,0-2.1-.655,2.173,2.173,0,0,0-1.479.52l0-1.739-2.12-1.224-.049,17.4,2.12,1.223.021-7.321a11.118,11.118,0,0,0,1.49,2.227,7.954,7.954,0,0,0,2.08,1.744,3.958,3.958,0,0,0,2.453.638,2.356,2.356,0,0,0,1.75-1.18,5.384,5.384,0,0,0,.641-2.812,10.193,10.193,0,0,0-.623-3.512,11.278,11.278,0,0,0-1.737-3.134,8.7,8.7,0,0,0-2.45-2.178"/><path class="e" d="M86.493,227.474a5.735,5.735,0,0,1-2.13-2.266,6.908,6.908,0,0,1-.841-3.432,3.726,3.726,0,0,1,.415-1.936,1.385,1.385,0,0,1,1.115-.7,2.7,2.7,0,0,1,1.521.43A5.633,5.633,0,0,1,88.1,220.9a6.962,6.962,0,0,1,1.133,2,6.71,6.71,0,0,1,.422,2.418,3.357,3.357,0,0,1-.453,1.921,1.483,1.483,0,0,1-1.166.679,2.823,2.823,0,0,1-1.54-.44m.118-10.007a4.945,4.945,0,0,0-2.665-.789,2.354,2.354,0,0,0-1.883,1.059,4.848,4.848,0,0,0-.7,2.793,10.033,10.033,0,0,0,.662,3.586,11.41,11.41,0,0,0,1.839,3.207,9.5,9.5,0,0,0,2.622,2.271,5,5,0,0,0,2.69.8,2.391,2.391,0,0,0,1.934-1.044,4.676,4.676,0,0,0,.718-2.775,9.852,9.852,0,0,0-.681-3.589,11.485,11.485,0,0,0-1.871-3.226,9.89,9.89,0,0,0-2.666-2.289"/><path class="e" d="M100.453,225.458a3.271,3.271,0,0,0-1.834-.551,1.589,1.589,0,0,0-1.243.686l0-1.717-2.126-1.227-.033,11.8,2.126,1.227.017-6.206c0-1.2.217-1.918.646-2.156s1.062-.121,1.892.358l.543.313.007-2.524"/><path class="e" d="M106.194,226.032l-2.139-1.235-.008,2.928-1.213-.7-.006,2,1.213.7-.018,6.522a5.39,5.39,0,0,0,.759,2.952,6.139,6.139,0,0,0,2.194,2.038l1.673.966,0-2.032-1.3-.752a2.451,2.451,0,0,1-.919-.825,2.105,2.105,0,0,1-.272-1.112l.019-6.522,2.5,1.441.006-1.995-2.5-1.442.008-2.927"/><polyline class="e" points="119.815 239.856 112.159 235.436 112.154 237.49 119.809 241.91 119.815 239.856"/><polyline class="e" points="126.274 237.471 124.154 236.247 124.112 251.126 126.232 252.35 126.274 237.471"/><path class="e" d="M142.789,249.9a3.827,3.827,0,0,0-2.128-.6,1.707,1.707,0,0,0-1.454.865,8.51,8.51,0,0,0-1.489-2.594,8.087,8.087,0,0,0-2.194-1.869,3.989,3.989,0,0,0-1.713-.577,1.8,1.8,0,0,0-1.324.366l0-1.349-2.126-1.228-.033,11.8,2.126,1.228.019-6.6c0-1.056.235-1.731.7-2.027s1.1-.209,1.893.248a4.928,4.928,0,0,1,1.881,1.931,5.711,5.711,0,0,1,.682,2.826l-.018,6.6,2.1,1.213.019-6.6c0-1.056.241-1.727.709-2.023s1.094-.213,1.892.248a4.943,4.943,0,0,1,1.881,1.931,5.751,5.751,0,0,1,.677,2.823l-.019,6.6,2.107,1.217.02-6.955a8.7,8.7,0,0,0-2.044-5.641,8.147,8.147,0,0,0-2.169-1.832"/><path class="e" d="M156.226,267.734a5.536,5.536,0,0,1-1.518-1.347,7.3,7.3,0,0,1-1.152-2.046,6.779,6.779,0,0,1-.428-2.378,3.383,3.383,0,0,1,.44-1.87,1.5,1.5,0,0,1,1.16-.705,2.615,2.615,0,0,1,1.521.408,5.66,5.66,0,0,1,1.537,1.351,7.215,7.215,0,0,1,1.152,2.017,6.568,6.568,0,0,1,.428,2.356,3.5,3.5,0,0,1-.44,1.891,1.54,1.54,0,0,1-1.16.735,2.645,2.645,0,0,1-1.54-.412m.5-9.789a4.122,4.122,0,0,0-2.109-.659,2.161,2.161,0,0,0-1.472.524l.005-1.739-2.126-1.227-.05,17.4,2.126,1.227.021-7.321a11.245,11.245,0,0,0,1.484,2.223,8.012,8.012,0,0,0,2.086,1.748,3.963,3.963,0,0,0,2.454.638,2.35,2.35,0,0,0,1.743-1.183,5.362,5.362,0,0,0,.647-2.808,10.167,10.167,0,0,0-.629-3.516,11.219,11.219,0,0,0-1.731-3.131,8.7,8.7,0,0,0-2.449-2.178"/><path class="e" d="M169.378,275.328a5.725,5.725,0,0,1-2.129-2.266,6.908,6.908,0,0,1-.841-3.432,3.66,3.66,0,0,1,.415-1.936,1.385,1.385,0,0,1,1.115-.7,2.689,2.689,0,0,1,1.514.426,5.655,5.655,0,0,1,1.531,1.332,6.986,6.986,0,0,1,1.133,2,6.825,6.825,0,0,1,.421,2.418,3.393,3.393,0,0,1-.453,1.921,1.47,1.47,0,0,1-1.172.676,2.808,2.808,0,0,1-1.534-.437m.118-10.007a4.922,4.922,0,0,0-2.664-.789,2.363,2.363,0,0,0-1.89,1.055,4.841,4.841,0,0,0-.7,2.793,10.024,10.024,0,0,0,.661,3.586,11.629,11.629,0,0,0,1.839,3.207,9.568,9.568,0,0,0,2.628,2.275,5.009,5.009,0,0,0,2.691.8A2.392,2.392,0,0,0,174,277.2a4.683,4.683,0,0,0,.718-2.775,9.873,9.873,0,0,0-.681-3.589,11.46,11.46,0,0,0-1.877-3.23,9.835,9.835,0,0,0-2.661-2.285"/><path class="e" d="M183.338,273.313a3.309,3.309,0,0,0-1.84-.556,1.632,1.632,0,0,0-1.243.686l0-1.716-2.119-1.224-.034,11.8,2.12,1.224.018-6.207c0-1.2.222-1.914.652-2.151s1.061-.122,1.891.357l.543.313.007-2.523"/><path class="e" d="M189.08,273.886l-2.139-1.235-.009,2.928-1.213-.7,0,2,1.213.7-.019,6.522a5.434,5.434,0,0,0,.753,2.948,6.192,6.192,0,0,0,2.2,2.042l1.673.966.006-2.032-1.3-.752a2.447,2.447,0,0,1-.918-.825,2.049,2.049,0,0,1-.272-1.112l.019-6.522,2.5,1.441.006-2-2.5-1.442.009-2.927"/></g></g><g class="f"><g class="h"><polyline class="e" points="354.585 243.801 345.551 249.017 345.556 251.012 349.023 249.011 349.06 261.893 351.179 260.67 351.143 247.787 354.591 245.796 354.585 243.801"/><path class="e" d="M363.238,241.7a6.582,6.582,0,0,0-1.837,1.568,8,8,0,0,0-1.235,2.116l0-1.709-2.12,1.224.034,11.789,2.119-1.223-.017-6.207a5.679,5.679,0,0,1,.638-2.9,5.054,5.054,0,0,1,1.887-1.825l.543-.313-.007-2.524"/><path class="e" d="M371.107,247.232a2.55,2.55,0,0,1-1.521.4,1.536,1.536,0,0,1-1.16-.734,3.421,3.421,0,0,1-.446-1.888,6.445,6.445,0,0,1,.434-2.36,7.27,7.27,0,0,1,1.139-2.009,5.6,5.6,0,0,1,1.531-1.347,2.663,2.663,0,0,1,1.528-.412,1.49,1.49,0,0,1,1.146.712,3.3,3.3,0,0,1,.447,1.866,6.661,6.661,0,0,1-.435,2.382,7.1,7.1,0,0,1-1.139,2.039,5.519,5.519,0,0,1-1.524,1.351m-.476-9.8a8.686,8.686,0,0,0-2.449,2.178,11.32,11.32,0,0,0-1.744,3.138,10.127,10.127,0,0,0-.636,3.519,5.29,5.29,0,0,0,.654,2.805,2.36,2.36,0,0,0,1.75,1.18,3.849,3.849,0,0,0,2.422-.62,8.026,8.026,0,0,0,2.118-1.781,10.017,10.017,0,0,0,1.471-2.238l0,1.753,2.138-1.235-.033-11.789-2.139,1.234,0,1.71a2.136,2.136,0,0,0-1.447-.524,4.129,4.129,0,0,0-2.115.67"/><path class="e" d="M385.038,239.189a2.556,2.556,0,0,1-1.521.4,1.535,1.535,0,0,1-1.159-.734,3.507,3.507,0,0,1-.441-1.892,6.551,6.551,0,0,1,.429-2.356,7.282,7.282,0,0,1,1.145-2.013,5.569,5.569,0,0,1,1.525-1.344,2.664,2.664,0,0,1,1.527-.411,1.49,1.49,0,0,1,1.147.712,3.308,3.308,0,0,1,.446,1.866,6.668,6.668,0,0,1-.434,2.382,7.143,7.143,0,0,1-1.139,2.039,5.522,5.522,0,0,1-1.525,1.351m5.215-16.944-2.145,1.238.016,5.694a2.066,2.066,0,0,0-1.562-.436,4.464,4.464,0,0,0-1.98.636,8.751,8.751,0,0,0-2.469,2.19,11.3,11.3,0,0,0-1.743,3.137,10.109,10.109,0,0,0-.636,3.52,5.265,5.265,0,0,0,.654,2.8,2.344,2.344,0,0,0,1.755,1.177,3.963,3.963,0,0,0,2.454-.638,7.92,7.92,0,0,0,2.112-1.778,9.357,9.357,0,0,0,1.439-2.242l0,1.776,2.145-1.239-.045-15.839"/><path class="e" d="M396.483,222.7l-2.126,1.228.034,11.789,2.126-1.227-.034-11.79m-1.06-4.083a2.931,2.931,0,0,0-1.355,2.348.924.924,0,0,0,.4.879.94.94,0,0,0,.966-.1,2.969,2.969,0,0,0,1.343-2.34.933.933,0,0,0-.4-.887.921.921,0,0,0-.953.1"/><path class="e" d="M405.76,217.15a7.378,7.378,0,0,0-1.723,1.406,8.353,8.353,0,0,0-1.331,1.9l0-1.342-2.12,1.224.034,11.789,2.119-1.223-.018-6.6a5.714,5.714,0,0,1,.695-2.834,5.031,5.031,0,0,1,1.888-1.935c.791-.457,1.418-.532,1.879-.24s.694.982.7,2.031l.018,6.595L410,226.709l-.02-6.955a4.44,4.44,0,0,0-.55-2.431,1.766,1.766,0,0,0-1.5-.847,4.3,4.3,0,0,0-2.172.674"/><path class="e" d="M418.583,219.821a2.55,2.55,0,0,1-1.521.4,1.538,1.538,0,0,1-1.159-.734,3.44,3.44,0,0,1-.441-1.892,6.436,6.436,0,0,1,.429-2.356,7.288,7.288,0,0,1,1.145-2.014,5.53,5.53,0,0,1,1.525-1.343,2.656,2.656,0,0,1,1.527-.411,1.487,1.487,0,0,1,1.147.712,3.306,3.306,0,0,1,.446,1.866,6.668,6.668,0,0,1-.434,2.382,7.143,7.143,0,0,1-1.139,2.039,5.5,5.5,0,0,1-1.525,1.35m-.475-9.8a8.694,8.694,0,0,0-2.45,2.179,11.272,11.272,0,0,0-1.743,3.137,10.109,10.109,0,0,0-.636,3.52,5.268,5.268,0,0,0,.654,2.8,2.341,2.341,0,0,0,1.755,1.176,3.954,3.954,0,0,0,2.454-.637,7.9,7.9,0,0,0,2.093-1.774,10.556,10.556,0,0,0,1.458-2.246l0,1.966a5.928,5.928,0,0,1-.784,3.069,5.641,5.641,0,0,1-2.072,2.1,3.013,3.013,0,0,1-1.892.518,1.175,1.175,0,0,1-1.038-.884l-2.107,1.216a2.129,2.129,0,0,0,1.573,2.142,4.955,4.955,0,0,0,3.47-.879,9.69,9.69,0,0,0,2.686-2.279,10.324,10.324,0,0,0,1.718-2.99,9.367,9.367,0,0,0,.585-3.249l-.034-11.98-2.139,1.235,0,1.709a2.025,2.025,0,0,0-1.446-.524,4.188,4.188,0,0,0-2.115.67"/></g></g><g class="f"><g class="i"><path class="j" d="M132.244,120.662l-2.931-1.7,1.6-.921a3.31,3.31,0,0,1,1.607-.487,2.809,2.809,0,0,1,1.474.384c.45.261.671.553.663.866s-.277.63-.813.94l-1.6.921m-2.508-3.306-3.046,1.758,8.748,5.083,1.449-.836-3.5-2.035,1.1-.634,5.531.862,1.718-.991-5.806-.852a1.439,1.439,0,0,0,.594-1.437,2.1,2.1,0,0,0-1.05-1.2,4.789,4.789,0,0,0-1.677-.567,5.811,5.811,0,0,0-1.992.062,6.589,6.589,0,0,0-2.066.782"/><path class="j" d="M141.268,116.091a1.23,1.23,0,0,1-.643-1.1,1.369,1.369,0,0,1,.8-1.014,4.011,4.011,0,0,1,1.868-.52,3.425,3.425,0,0,1,1.837.409l-3.863,2.23m-.983-2.856a3.293,3.293,0,0,0-1.376,1.3,1.524,1.524,0,0,0,.024,1.441,3.545,3.545,0,0,0,1.443,1.342,6.867,6.867,0,0,0,2.331.837,7.69,7.69,0,0,0,2.5.011,6.436,6.436,0,0,0,2.238-.771,2.754,2.754,0,0,0,1.447-1.548,1.655,1.655,0,0,0-.424-1.57l-1.558.9q.492.841-.676,1.515a3.879,3.879,0,0,1-1.868.5,4.031,4.031,0,0,1-1.951-.417l5.331-3.078a5.863,5.863,0,0,0-.659-.442,6.469,6.469,0,0,0-2.21-.781,7.224,7.224,0,0,0-2.406-.008,6.419,6.419,0,0,0-2.187.771"/><polyline class="j" points="145.165 107.794 143.722 108.627 153.034 114.038 154.477 113.205 145.165 107.794"/><path class="j" d="M151.777,106.732l-1.45.837,6.933,4.029,1.45-.837-6.933-4.029m-3.468-1.194a.559.559,0,0,0-.006,1.069,1.98,1.98,0,0,0,1.845,0,.629.629,0,0,0,.378-.527.65.65,0,0,0-.391-.531,1.831,1.831,0,0,0-.915-.229,1.8,1.8,0,0,0-.911.218"/><path class="j" d="M163.474,106.7a3.793,3.793,0,0,1-1.314.435,5.046,5.046,0,0,1-1.61-.025,4.62,4.62,0,0,1-1.556-.564,2.243,2.243,0,0,1-.943-.889,1,1,0,0,1-.014-.91,1.817,1.817,0,0,1,.768-.76,3.829,3.829,0,0,1,1.32-.438,4.966,4.966,0,0,1,1.584.018,4.477,4.477,0,0,1,1.537.553,2.334,2.334,0,0,1,.963.9,1.05,1.05,0,0,1,.033.921,1.81,1.81,0,0,1-.768.759m-6.219-3.258a2.744,2.744,0,0,0-1.216,1.216,1.579,1.579,0,0,0,.062,1.419,3.443,3.443,0,0,0,1.412,1.324,7.013,7.013,0,0,0,2.305.837,7.988,7.988,0,0,0,2.469.059,5.65,5.65,0,0,0,2.1-.679,2.9,2.9,0,0,0,1.12-1.028,1.388,1.388,0,0,0,.177-1.051l1.034.6,1.456-.84-6.933-4.029-1.456.84,1,.583a6.962,6.962,0,0,0-1.777.1,5.555,5.555,0,0,0-1.76.649"/><path class="j" d="M173.389,100.971a3.741,3.741,0,0,1-1.3.435,5.045,5.045,0,0,1-1.6-.019,4.606,4.606,0,0,1-1.556-.556,2.247,2.247,0,0,1-.943-.9,1.006,1.006,0,0,1-.02-.922,1.764,1.764,0,0,1,.748-.755,3.826,3.826,0,0,1,1.32-.446,4.834,4.834,0,0,1,1.578.007,4.444,4.444,0,0,1,1.537.546,2.343,2.343,0,0,1,.963.906,1.035,1.035,0,0,1,.039.933,1.83,1.83,0,0,1-.768.767M163.1,97.439l-1.443.833,9.312,5.412,1.443-.833-1.009-.586a6.482,6.482,0,0,0,1.8-.107,5.558,5.558,0,0,0,1.754-.645,2.653,2.653,0,0,0,1.2-1.232,1.6,1.6,0,0,0-.1-1.426,3.651,3.651,0,0,0-1.437-1.338,6.968,6.968,0,0,0-2.286-.826,7.509,7.509,0,0,0-2.431-.052,5.952,5.952,0,0,0-2.111.712,2.935,2.935,0,0,0-1.106,1.006,1.391,1.391,0,0,0-.184,1.062l-3.407-1.98"/><polyline class="j" points="172.574 91.969 171.131 92.802 180.443 98.214 181.886 97.38 172.574 91.969"/><path class="j" d="M181.606,92.8a1.248,1.248,0,0,1-.643-1.106,1.382,1.382,0,0,1,.8-1.013,4,4,0,0,1,1.868-.52,3.364,3.364,0,0,1,1.837.409l-3.863,2.23m-.983-2.857a3.291,3.291,0,0,0-1.375,1.3,1.522,1.522,0,0,0,.023,1.441,3.615,3.615,0,0,0,1.444,1.342,6.85,6.85,0,0,0,2.331.836,7.69,7.69,0,0,0,2.5.012,6.443,6.443,0,0,0,2.238-.771,2.755,2.755,0,0,0,1.447-1.548,1.655,1.655,0,0,0-.424-1.57l-1.558.9q.492.84-.677,1.515a3.886,3.886,0,0,1-1.867.5,4.1,4.1,0,0,1-1.952-.417l5.331-3.078a5.644,5.644,0,0,0-.659-.442,6.443,6.443,0,0,0-2.2-.785,7.233,7.233,0,0,0-2.412,0,6.414,6.414,0,0,0-2.187.77"/><path class="j" d="M199.534,85.876a3.816,3.816,0,0,1-1.313.435,5.047,5.047,0,0,1-1.61-.026,4.65,4.65,0,0,1-1.563-.56,2.224,2.224,0,0,1-.936-.892,1,1,0,0,1-.014-.911,1.775,1.775,0,0,1,.768-.759,3.735,3.735,0,0,1,1.313-.435,4.886,4.886,0,0,1,1.585.018,4.5,4.5,0,0,1,1.543.55,2.314,2.314,0,0,1,.956.9,1.027,1.027,0,0,1,.033.921,1.781,1.781,0,0,1-.762.756m-6.218-3.259a2.787,2.787,0,0,0-1.223,1.22,1.574,1.574,0,0,0,.069,1.416,3.43,3.43,0,0,0,1.405,1.327,7.015,7.015,0,0,0,2.312.833,7.82,7.82,0,0,0,2.462.063,5.669,5.669,0,0,0,2.111-.682,2.867,2.867,0,0,0,1.113-1.025,1.4,1.4,0,0,0,.184-1.054l1.034.6,1.456-.841-6.933-4.029-1.456.841,1,.582a7.1,7.1,0,0,0-1.782.1,5.472,5.472,0,0,0-1.754.645"/><path class="j" d="M203.5,76.738a2.653,2.653,0,0,0-.927.814,1.222,1.222,0,0,0-.241.911L201.539,78l-1.443.833,6.933,4.029,1.443-.833L204.6,79.779c-.622-.361-.944-.726-.955-1.1s.246-.723.782-1.032a3.339,3.339,0,0,1,1.785-.45,3.861,3.861,0,0,1,1.893.56l3.876,2.252,1.43-.825L209.316,76.8a5.907,5.907,0,0,0-1.975-.726,5.968,5.968,0,0,0-2.031,0,5.643,5.643,0,0,0-1.811.656"/><path class="j" d="M218.113,75.149a3.8,3.8,0,0,1-1.313.435,5.047,5.047,0,0,1-1.61-.026,4.62,4.62,0,0,1-1.556-.564,2.23,2.23,0,0,1-.943-.888,1,1,0,0,1-.014-.911,1.8,1.8,0,0,1,.768-.759,3.809,3.809,0,0,1,1.32-.439,5.087,5.087,0,0,1,1.584.019,4.443,4.443,0,0,1,1.537.553,2.329,2.329,0,0,1,.962.9,1.069,1.069,0,0,1,.033.922,1.8,1.8,0,0,1-.768.759m-4.607-6.812-1.456.84,3.343,1.943a6.717,6.717,0,0,0-1.846.155,5.717,5.717,0,0,0-1.639.608,2.812,2.812,0,0,0-1.235,1.228,1.591,1.591,0,0,0,.068,1.415,3.427,3.427,0,0,0,1.406,1.327,6.987,6.987,0,0,0,2.311.833,7.927,7.927,0,0,0,2.469.059,5.761,5.761,0,0,0,2.13-.693,2.808,2.808,0,0,0,1.106-1.021,1.314,1.314,0,0,0,.153-1.05l1.046.608,1.456-.841-9.312-5.411"/><polyline class="j" points="136.922 130.704 130.78 134.25 131.947 134.928 134.303 133.568 141.877 137.969 143.32 137.136 135.746 132.735 138.089 131.382 136.922 130.704"/><path class="j" d="M144.489,128.3a2.261,2.261,0,0,0-.947.892,1.1,1.1,0,0,0-.018.965l-1.008-.586-1.443.833,6.933,4.029,1.443-.833-3.647-2.119c-.7-.409-1.052-.782-1.051-1.113s.29-.668.859-1l.364-.21-1.485-.862"/><path class="j" d="M153.14,123.434l-1.443.834,3.863,2.245c.622.361.938.729.955,1.1s-.246.722-.789,1.035a3.342,3.342,0,0,1-1.778.447,3.873,3.873,0,0,1-1.893-.561l-3.863-2.245-1.43.826,4.078,2.37a5.818,5.818,0,0,0,1.982.723,6,6,0,0,0,2.036-.008,5.643,5.643,0,0,0,1.811-.656,2.637,2.637,0,0,0,.921-.818,1.173,1.173,0,0,0,.222-.907l.818.476,1.443-.833-6.933-4.03"/><path class="j" d="M158.236,120.36a3.476,3.476,0,0,0-1.151.973,1.123,1.123,0,0,0-.216.962,1.342,1.342,0,0,0,.683.782,3.091,3.091,0,0,0,1.455.424,5.334,5.334,0,0,0,1.471-.129c.465-.114,1.032-.28,1.695-.5a14.059,14.059,0,0,1,1.6-.439,1.34,1.34,0,0,1,.954.118.438.438,0,0,1,.258.542,1.459,1.459,0,0,1-.71.682,2.937,2.937,0,0,1-1.262.383,2.216,2.216,0,0,1-1.164-.181l-1.494.863a4.019,4.019,0,0,0,1.55.428,6.285,6.285,0,0,0,1.834-.126,6.076,6.076,0,0,0,1.767-.682,3.392,3.392,0,0,0,1.15-.973,1.089,1.089,0,0,0,.2-.958,1.41,1.41,0,0,0-.721-.8,3.153,3.153,0,0,0-1.442-.409,5.668,5.668,0,0,0-1.446.129c-.465.107-1.02.273-1.663.483q-.727.232-1.129.343a3.208,3.208,0,0,1-.79.11,1.264,1.264,0,0,1-.667-.151c-.235-.136-.323-.306-.258-.5s.276-.409.659-.63a2.687,2.687,0,0,1,1.192-.373,2.246,2.246,0,0,1,1.132.214l1.443-.833a4.5,4.5,0,0,0-2.409-.5,5.566,5.566,0,0,0-2.518.755"/><path class="j" d="M163.539,115.432l-1.456.84,1.726,1-.824.475,1.173.682.824-.475,3.838,2.23a3.682,3.682,0,0,0,1.988.557,4.216,4.216,0,0,0,1.945-.6l1.143-.66-1.193-.693-.887.512a1.726,1.726,0,0,1-.8.266,1.427,1.427,0,0,1-.737-.221l-3.837-2.231,1.7-.98-1.173-.682-1.7.98-1.725-1"/><path class="j" d="M173.048,115.24a1.266,1.266,0,0,1-.643-1.113,1.394,1.394,0,0,1,.807-1.01,4.005,4.005,0,0,1,1.855-.52,3.373,3.373,0,0,1,1.843.413l-3.862,2.23m-.983-2.864a3.318,3.318,0,0,0-1.376,1.309,1.49,1.49,0,0,0,.024,1.433,3.537,3.537,0,0,0,1.443,1.35,6.875,6.875,0,0,0,2.331.829,7.583,7.583,0,0,0,2.5.018,6.443,6.443,0,0,0,2.238-.777A2.775,2.775,0,0,0,180.673,115a1.653,1.653,0,0,0-.417-1.574l-1.558.9q.482.846-.677,1.515a3.874,3.874,0,0,1-1.874.494,4.056,4.056,0,0,1-1.958-.413l5.338-3.081a5.665,5.665,0,0,0-.659-.435,6.486,6.486,0,0,0-2.211-.789,7.372,7.372,0,0,0-2.4,0,6.453,6.453,0,0,0-2.193.767"/><path class="j" d="M186.794,110.728a3.729,3.729,0,0,1-1.314.428,5.047,5.047,0,0,1-1.61-.026,4.626,4.626,0,0,1-1.556-.557,2.227,2.227,0,0,1-.943-.895,1.045,1.045,0,0,1-.014-.911,1.848,1.848,0,0,1,.768-.752,3.726,3.726,0,0,1,1.314-.442,5.206,5.206,0,0,1,1.584.018,4.531,4.531,0,0,1,1.55.553,2.286,2.286,0,0,1,.949.9,1.021,1.021,0,0,1,.033.921,1.767,1.767,0,0,1-.761.763m-4.608-6.819-1.455.84,3.349,1.947a6.415,6.415,0,0,0-1.846.154,5.775,5.775,0,0,0-1.646.605,2.793,2.793,0,0,0-1.229,1.231,1.563,1.563,0,0,0,.062,1.412,3.46,3.46,0,0,0,1.412,1.331,6.936,6.936,0,0,0,2.306.829,7.779,7.779,0,0,0,2.475.063,5.858,5.858,0,0,0,2.123-.7,2.848,2.848,0,0,0,1.113-1.017,1.37,1.37,0,0,0,.152-1.051l1.04.605,1.456-.841-9.312-5.411"/><path class="j" d="M195.187,101.723l-2.854-1.659,1.6-.921A2.875,2.875,0,0,1,197,99.032c.457.265.672.546.651.844s-.315.608-.864.925l-1.6.922m-2.425-3.259-3.039,1.755,8.741,5.08,1.443-.834-3.546-2.06,1.6-.922a3.558,3.558,0,0,0,1.414-1.249,1.164,1.164,0,0,0,.051-1.139,2.313,2.313,0,0,0-.943-.918,4.74,4.74,0,0,0-1.665-.568,5.984,5.984,0,0,0-1.992.063,6.752,6.752,0,0,0-2.06.792"/><path class="j" d="M208.872,97.981a3.724,3.724,0,0,1-1.32.432,5.3,5.3,0,0,1-1.61-.026,4.608,4.608,0,0,1-1.549-.56,2.247,2.247,0,0,1-.95-.892,1.066,1.066,0,0,1-.014-.911,1.886,1.886,0,0,1,.774-.756,3.772,3.772,0,0,1,1.314-.442,5.206,5.206,0,0,1,1.584.018,4.535,4.535,0,0,1,1.544.557,2.307,2.307,0,0,1,.955.9,1.021,1.021,0,0,1,.033.921,1.774,1.774,0,0,1-.761.763m-6.218-3.266a2.735,2.735,0,0,0-1.216,1.224,1.587,1.587,0,0,0,.055,1.416,3.547,3.547,0,0,0,1.418,1.327,7.059,7.059,0,0,0,2.3.833,8.035,8.035,0,0,0,2.476.063,5.746,5.746,0,0,0,2.1-.686,2.9,2.9,0,0,0,1.12-1.021,1.455,1.455,0,0,0,.178-1.051l1.027.6,1.462-.844-6.933-4.029-1.462.844,1.009.587a6.952,6.952,0,0,0-1.776.1,5.4,5.4,0,0,0-1.76.641"/><path class="j" d="M212.844,88.832a2.255,2.255,0,0,0-.947.892,1.1,1.1,0,0,0-.019.966L210.87,90.1l-1.443.833,6.933,4.029,1.443-.833-3.647-2.12Q213.1,91.4,213.112,90.9c0-.332.284-.664.852-.992l.364-.21-1.484-.863"/><path class="j" d="M215.133,85.644l-1.455.84,1.725,1-.824.475,1.174.682.823-.475,3.838,2.23a3.653,3.653,0,0,0,2,.553,4.219,4.219,0,0,0,1.945-.6l1.136-.656L224.3,89l-.888.512a1.692,1.692,0,0,1-.8.262,1.429,1.429,0,0,1-.743-.217l-3.838-2.231,1.7-.98-1.174-.682-1.7.98-1.726-1"/><path class="j" d="M224.183,82.286a2.813,2.813,0,0,0-.934.818,1.231,1.231,0,0,0-.234.907l-.793-.461-1.449.837,6.933,4.029,1.449-.837-3.876-2.252c-.621-.361-.944-.726-.955-1.1s.253-.719.789-1.029a3.377,3.377,0,0,1,1.778-.453,3.861,3.861,0,0,1,1.893.56l3.876,2.252,1.43-.825-4.085-2.374a5.862,5.862,0,0,0-1.975-.727,5.962,5.962,0,0,0-2.03,0,5.552,5.552,0,0,0-1.817.653"/><path class="j" d="M233.753,80.192a1.269,1.269,0,0,1-.643-1.113,1.4,1.4,0,0,1,.808-1.01,3.987,3.987,0,0,1,1.855-.52,3.366,3.366,0,0,1,1.843.413l-3.863,2.23m-.983-2.864a3.329,3.329,0,0,0-1.376,1.308,1.491,1.491,0,0,0,.024,1.434,3.539,3.539,0,0,0,1.444,1.349,6.843,6.843,0,0,0,2.33.83,7.583,7.583,0,0,0,2.5.018,6.424,6.424,0,0,0,2.238-.778,2.767,2.767,0,0,0,1.447-1.54,1.65,1.65,0,0,0-.417-1.574l-1.558.9c.321.564.1,1.065-.677,1.515a3.882,3.882,0,0,1-1.874.494,4.052,4.052,0,0,1-1.957-.413l5.337-3.081a5.41,5.41,0,0,0-.653-.439,6.507,6.507,0,0,0-2.216-.785,7.372,7.372,0,0,0-2.4,0,6.458,6.458,0,0,0-2.194.767"/><path class="j" d="M242,72a2.244,2.244,0,0,0-.947.893,1.1,1.1,0,0,0-.018.965l-1.008-.586-1.45.837,6.933,4.029,1.45-.837-3.648-2.119c-.7-.409-1.058-.778-1.05-1.114s.29-.667.852-.991l.371-.214L242,72"/></g></g><g class="f"><g class="k"><polyline class="j" points="194.384 157.926 189.519 160.735 198.278 165.826 203.144 163.017 201.976 162.338 198.554 164.314 195.871 162.755 198.91 161 197.743 160.322 194.704 162.077 192.135 160.584 195.557 158.608 194.384 157.926"/><polyline class="j" points="204.108 154.428 202.602 155.298 203.537 157.484 199.677 156.986 198.043 157.93 203.817 158.674 204.976 161.959 206.483 161.089 205.547 158.903 209.407 159.401 211.041 158.457 205.28 157.72 204.108 154.428"/><path class="j" d="M215.429,154.609a3.708,3.708,0,0,1-1.3.434,4.931,4.931,0,0,1-1.6-.018,4.548,4.548,0,0,1-1.556-.557,2.258,2.258,0,0,1-.943-.895,1.027,1.027,0,0,1-.021-.922,1.772,1.772,0,0,1,.755-.752,3.925,3.925,0,0,1,1.314-.45,4.918,4.918,0,0,1,1.578.008,4.462,4.462,0,0,1,1.544.549,2.336,2.336,0,0,1,.955.9,1.032,1.032,0,0,1,.04.933,1.78,1.78,0,0,1-.768.767m-5.593-3.62a2.764,2.764,0,0,0-1.1,1.017,1.424,1.424,0,0,0-.2,1.047l-1.021-.594-1.443.834,10.231,5.945,1.443-.833-4.307-2.5a7.279,7.279,0,0,0,1.815-.121A5.348,5.348,0,0,0,217,155.15a2.652,2.652,0,0,0,1.2-1.231,1.583,1.583,0,0,0-.1-1.426,3.632,3.632,0,0,0-1.431-1.335,6.934,6.934,0,0,0-2.286-.825,7.477,7.477,0,0,0-2.431-.045,5.906,5.906,0,0,0-2.117.7"/><path class="j" d="M224.374,149.444a3.9,3.9,0,0,1-2.059.483,4.673,4.673,0,0,1-2.312-.671,2.494,2.494,0,0,1-.994-.9.93.93,0,0,1-.034-.892,1.845,1.845,0,0,1,.775-.748,3.761,3.761,0,0,1,1.294-.446,4.616,4.616,0,0,1,1.559.011,4.538,4.538,0,0,1,1.569.571,2.3,2.3,0,0,1,.981.925,1,1,0,0,1,0,.918,1.873,1.873,0,0,1-.78.752m-5.848-3.472a3.3,3.3,0,0,0-1.37,1.3,1.576,1.576,0,0,0-.021,1.467,3.28,3.28,0,0,0,1.4,1.36,6.749,6.749,0,0,0,2.344.829,7.644,7.644,0,0,0,2.507.008,6.508,6.508,0,0,0,2.238-.771A3.368,3.368,0,0,0,227,148.854a1.61,1.61,0,0,0,.053-1.493,3.212,3.212,0,0,0-1.4-1.367,6.679,6.679,0,0,0-2.337-.818,7.7,7.7,0,0,0-2.539.011,6.572,6.572,0,0,0-2.251.785"/><path class="j" d="M227.937,140.538a2.266,2.266,0,0,0-.954.9,1.1,1.1,0,0,0-.018.966l-1.008-.586-1.443.833,6.933,4.029,1.443-.833-3.648-2.12q-1.056-.614-1.043-1.117c0-.331.283-.663.852-.991l.37-.214-1.484-.863"/><path class="j" d="M230.226,137.35l-1.462.844,1.726,1-.817.471,1.167.679.817-.472,3.844,2.234a3.7,3.7,0,0,0,2,.553,4.212,4.212,0,0,0,1.944-.6l1.137-.656-1.193-.693-.881.508a1.723,1.723,0,0,1-.8.266,1.446,1.446,0,0,1-.737-.221l-3.844-2.234,1.692-.977-1.167-.678-1.692.976-1.726-1"/><polyline class="j" points="242.998 134.032 237.789 137.04 238.994 137.741 244.204 134.733 242.998 134.032"/><polyline class="j" points="243.788 129.417 242.345 130.25 251.092 135.333 252.535 134.5 243.788 129.417"/><path class="j" d="M256.725,123.917a2.612,2.612,0,0,0-1.075,1.055,1.148,1.148,0,0,0,.013,1.146,5.769,5.769,0,0,0-2.03,0,5.614,5.614,0,0,0-1.85.656,2.763,2.763,0,0,0-.927.815,1.242,1.242,0,0,0-.228.9l-.793-.461-1.449.837,6.933,4.029,1.449-.837-3.875-2.252c-.622-.361-.944-.726-.955-1.1s.252-.719.788-1.028a3.372,3.372,0,0,1,1.779-.454,3.867,3.867,0,0,1,1.893.56l3.875,2.253,1.431-.826-3.876-2.252q-.933-.541-.948-1.106t.788-1.029a3.353,3.353,0,0,1,1.772-.449,3.883,3.883,0,0,1,1.9.556l3.875,2.253,1.43-.826-4.091-2.378a5.925,5.925,0,0,0-4.012-.711,5.55,5.55,0,0,0-1.817.652"/><path class="j" d="M271.792,122.067a3.789,3.789,0,0,1-1.307.439,4.96,4.96,0,0,1-1.6-.019,4.538,4.538,0,0,1-1.549-.56,2.284,2.284,0,0,1-.95-.892,1.024,1.024,0,0,1-.02-.922,1.8,1.8,0,0,1,.761-.756,3.947,3.947,0,0,1,1.314-.449,4.971,4.971,0,0,1,1.572.011,4.347,4.347,0,0,1,1.543.549,2.272,2.272,0,0,1,.956.9,1.047,1.047,0,0,1,.045.929,1.764,1.764,0,0,1-.768.767m-5.6-3.616a2.778,2.778,0,0,0-1.1,1.017,1.409,1.409,0,0,0-.19,1.043l-1.021-.593-1.45.837,10.232,5.945,1.449-.836-4.307-2.5a7.218,7.218,0,0,0,1.808-.118,5.381,5.381,0,0,0,1.741-.631,2.616,2.616,0,0,0,1.2-1.231,1.565,1.565,0,0,0-.094-1.43,3.64,3.64,0,0,0-1.437-1.331,6.891,6.891,0,0,0-2.28-.829,7.426,7.426,0,0,0-2.437-.041,5.876,5.876,0,0,0-2.117.7"/><path class="j" d="M280.731,116.906a3.893,3.893,0,0,1-2.058.483,4.732,4.732,0,0,1-2.307-.674,2.44,2.44,0,0,1-.994-.9.933.933,0,0,1-.033-.892,1.811,1.811,0,0,1,.768-.744,3.771,3.771,0,0,1,1.3-.45,4.744,4.744,0,0,1,3.128.582,2.291,2.291,0,0,1,.981.926,1.016,1.016,0,0,1,0,.918,1.9,1.9,0,0,1-.787.755m-5.848-3.472a3.27,3.27,0,0,0-1.363,1.3,1.581,1.581,0,0,0-.027,1.471,3.287,3.287,0,0,0,1.405,1.356,6.853,6.853,0,0,0,2.337.833,7.658,7.658,0,0,0,2.514,0,6.478,6.478,0,0,0,2.232-.767,3.4,3.4,0,0,0,1.382-1.319,1.6,1.6,0,0,0,.046-1.489,3.151,3.151,0,0,0-1.392-1.372,6.7,6.7,0,0,0-2.344-.814,7.662,7.662,0,0,0-2.533.007,6.63,6.63,0,0,0-2.257.789"/><path class="j" d="M284.294,108a2.261,2.261,0,0,0-.947.892,1.1,1.1,0,0,0-.018.966l-1.009-.586-1.443.833,6.934,4.029,1.442-.833-3.647-2.119c-.7-.41-1.052-.782-1.05-1.114s.29-.667.858-1l.364-.21L284.294,108"/><path class="j" d="M286.584,104.812l-1.456.84,1.725,1-.823.475,1.167.679.824-.476,3.844,2.234a3.682,3.682,0,0,0,1.988.557,4.216,4.216,0,0,0,1.945-.6l1.143-.66-1.193-.693-.887.512a1.7,1.7,0,0,1-.8.262,1.453,1.453,0,0,1-.744-.217l-3.844-2.234,1.7-.981-1.167-.678-1.7.98-1.725-1"/><path class="j" d="M191.6,183.748l-2.616-3.192,5.489,1.533-2.873,1.659m-3.518-4.685-1.673.966,5.606,6.911,1.507-.87-1.157-1.4,3.691-2.131,2.42.675,1.52-.878-11.914-3.269"/><path class="j" d="M198.737,174.894a2.275,2.275,0,0,0-.96.892,1.117,1.117,0,0,0-.018.966l-1-.583-1.443.833,6.933,4.029,1.443-.833-3.654-2.123q-1.056-.613-1.044-1.117c0-.332.29-.66.859-.988l.37-.214-1.484-.862"/><path class="j" d="M209.89,175.3a3.9,3.9,0,0,1-2.058.483,4.677,4.677,0,0,1-2.313-.671,2.508,2.508,0,0,1-.994-.9.912.912,0,0,1-.033-.892,1.843,1.843,0,0,1,.768-.752,3.8,3.8,0,0,1,1.3-.443,4.732,4.732,0,0,1,3.127.583,2.258,2.258,0,0,1,.975.921.956.956,0,0,1,0,.918,1.862,1.862,0,0,1-.774.756m-5.848-3.473a3.379,3.379,0,0,0-1.375,1.3,1.59,1.59,0,0,0-.021,1.467,3.3,3.3,0,0,0,1.405,1.364,6.813,6.813,0,0,0,2.343.829,7.76,7.76,0,0,0,2.508.008,6.474,6.474,0,0,0,2.231-.775,3.387,3.387,0,0,0,1.382-1.312,1.646,1.646,0,0,0,.053-1.493,3.227,3.227,0,0,0-1.4-1.367,6.7,6.7,0,0,0-2.344-.822,7.807,7.807,0,0,0-2.539.011,6.7,6.7,0,0,0-2.245.788"/><path class="j" d="M216.351,164.856l-1.443.833,3.863,2.245c.615.358.932.726.955,1.1s-.252.719-.795,1.033a3.353,3.353,0,0,1-1.772.449,3.925,3.925,0,0,1-1.9-.556l-3.863-2.245-1.431.825,4.073,2.367a5.84,5.84,0,0,0,1.988.719,5.962,5.962,0,0,0,2.03,0,5.562,5.562,0,0,0,1.817-.66,2.678,2.678,0,0,0,.927-.814,1.2,1.2,0,0,0,.222-.907l.818.475,1.443-.833-6.933-4.029"/><path class="j" d="M222.545,161.148a2.844,2.844,0,0,0-.94.815,1.257,1.257,0,0,0-.234.906l-.787-.457-1.449.837,6.933,4.029,1.449-.837-3.876-2.252c-.621-.361-.944-.726-.961-1.106s.253-.719.789-1.028a3.368,3.368,0,0,1,1.778-.454,3.919,3.919,0,0,1,1.9.564l3.875,2.253,1.431-.826-4.092-2.378a5.9,5.9,0,0,0-1.975-.726,5.962,5.962,0,0,0-2.03,0,5.643,5.643,0,0,0-1.811.656"/><path class="j" d="M237.159,159.559a3.723,3.723,0,0,1-1.32.431,4.908,4.908,0,0,1-1.61-.025,4.587,4.587,0,0,1-1.556-.557,2.212,2.212,0,0,1-.936-.892,1,1,0,0,1-.014-.911,1.78,1.78,0,0,1,.768-.759,3.756,3.756,0,0,1,1.313-.435,4.853,4.853,0,0,1,1.584.019,4.472,4.472,0,0,1,1.544.549,2.291,2.291,0,0,1,.949.9.987.987,0,0,1,.033.922,1.761,1.761,0,0,1-.755.759m-4.607-6.812-1.456.841,3.343,1.942a6.555,6.555,0,0,0-1.847.155,5.7,5.7,0,0,0-1.638.608,2.82,2.82,0,0,0-1.236,1.228,1.583,1.583,0,0,0,.062,1.412,3.458,3.458,0,0,0,1.412,1.33,6.993,6.993,0,0,0,2.312.833,7.832,7.832,0,0,0,2.469.059,5.839,5.839,0,0,0,2.123-.7,2.829,2.829,0,0,0,1.113-1.018,1.344,1.344,0,0,0,.152-1.05l1.047.608,1.455-.841-9.311-5.411"/><polyline class="j" points="251.269 144.696 249.851 145.515 253.952 149.57 246.991 147.166 245.484 148.036 249.566 152.132 242.541 149.735 241.072 150.583 250.183 153.355 251.709 152.474 247.988 148.685 254.518 150.852 256.037 149.975 251.269 144.696"/><path class="j" d="M252.3,141.346l-1.442.833,9.311,5.411,1.443-.833-3.875-2.252c-.622-.361-.938-.73-.962-1.106s.253-.719.789-1.028a3.368,3.368,0,0,1,1.778-.454,3.919,3.919,0,0,1,1.9.564l3.875,2.252,1.431-.825-4.092-2.378a5.923,5.923,0,0,0-3.967-.745,5.339,5.339,0,0,0-1.76.627,3.038,3.038,0,0,0-1,.848,1.255,1.255,0,0,0-.254.933l-3.178-1.847"/><path class="j" d="M271.164,139.927a3.9,3.9,0,0,1-2.059.482,4.708,4.708,0,0,1-2.306-.674,2.514,2.514,0,0,1-1-.9.928.928,0,0,1-.033-.892,1.837,1.837,0,0,1,.768-.752,3.889,3.889,0,0,1,1.307-.446,4.75,4.75,0,0,1,1.559.011,4.67,4.67,0,0,1,1.562.575,2.346,2.346,0,0,1,.981.918.975.975,0,0,1,0,.918,1.912,1.912,0,0,1-.78.76m-5.848-3.473a3.374,3.374,0,0,0-1.376,1.3,1.614,1.614,0,0,0-.021,1.467,3.317,3.317,0,0,0,1.412,1.361,6.787,6.787,0,0,0,2.337.833,7.84,7.84,0,0,0,2.507.007,6.5,6.5,0,0,0,2.232-.774,3.426,3.426,0,0,0,1.388-1.316,1.64,1.64,0,0,0,.047-1.489,3.231,3.231,0,0,0-1.4-1.368,6.736,6.736,0,0,0-2.343-.822,7.911,7.911,0,0,0-2.533.008,6.752,6.752,0,0,0-2.251.792"/><polyline class="j" points="270.374 130.91 268.925 131.747 278.237 137.158 279.686 136.322 270.374 130.91"/><path class="j" d="M279.407,131.743a1.253,1.253,0,0,1-.65-1.109,1.4,1.4,0,0,1,.808-1.01,3.987,3.987,0,0,1,1.855-.52,3.43,3.43,0,0,1,1.849.409l-3.862,2.23m-.984-2.857a3.341,3.341,0,0,0-1.381,1.305,1.527,1.527,0,0,0,.023,1.434,3.6,3.6,0,0,0,1.45,1.346,6.891,6.891,0,0,0,2.331.837,7.761,7.761,0,0,0,2.494.014,6.48,6.48,0,0,0,2.239-.777,2.773,2.773,0,0,0,1.446-1.541,1.638,1.638,0,0,0-.417-1.574l-1.558.9q.492.84-.677,1.515a3.871,3.871,0,0,1-1.867.5,4.041,4.041,0,0,1-1.958-.42l5.331-3.078a5.41,5.41,0,0,0-.653-.439,6.452,6.452,0,0,0-2.21-.782,7.218,7.218,0,0,0-2.405-.007,6.451,6.451,0,0,0-2.188.77"/><polyline class="j" points="297.787 117.839 296.37 118.657 300.471 122.712 293.51 120.309 292.003 121.179 296.091 125.27 289.066 122.874 287.591 123.726 296.708 126.494 298.227 125.617 294.507 121.827 301.037 123.995 302.556 123.118 297.787 117.839"/><path class="j" d="M308.578,118.326a3.9,3.9,0,0,1-2.058.482,4.724,4.724,0,0,1-2.313-.67,2.509,2.509,0,0,1-.994-.9.928.928,0,0,1-.033-.892,1.837,1.837,0,0,1,.768-.752,3.889,3.889,0,0,1,1.307-.446,4.75,4.75,0,0,1,1.559.011,4.67,4.67,0,0,1,1.562.575,2.346,2.346,0,0,1,.981.918,1,1,0,0,1,0,.918,1.915,1.915,0,0,1-.781.76m-5.848-3.473a3.374,3.374,0,0,0-1.376,1.3,1.614,1.614,0,0,0-.021,1.467,3.3,3.3,0,0,0,1.4,1.364,6.827,6.827,0,0,0,2.344.83,7.726,7.726,0,0,0,2.507.007,6.5,6.5,0,0,0,2.232-.774,3.426,3.426,0,0,0,1.388-1.316,1.64,1.64,0,0,0,.047-1.489,3.231,3.231,0,0,0-1.4-1.368,6.736,6.736,0,0,0-2.343-.822,7.87,7.87,0,0,0-2.54.011,6.7,6.7,0,0,0-2.244.789"/><path class="j" d="M312.141,109.42a2.288,2.288,0,0,0-.96.892,1.141,1.141,0,0,0-.018.966l-1-.583-1.443.833,6.933,4.029,1.443-.833L313.44,112.6q-1.056-.614-1.044-1.117c.009-.335.3-.664.859-.988l.37-.214-1.484-.862"/><polyline class="j" points="313.535 105.992 312.092 106.825 321.404 112.236 322.846 111.403 313.535 105.992"/><path class="j" d="M327.617,107.333a3.744,3.744,0,0,1-1.32.432,4.936,4.936,0,0,1-1.61-.026,4.587,4.587,0,0,1-1.556-.557,2.215,2.215,0,0,1-.937-.892,1,1,0,0,1-.014-.91,1.788,1.788,0,0,1,.768-.76,3.768,3.768,0,0,1,1.314-.435,5,5,0,0,1,1.584.019,4.493,4.493,0,0,1,1.544.549,2.291,2.291,0,0,1,.949.9,1.008,1.008,0,0,1,.033.922,1.756,1.756,0,0,1-.755.759m-4.607-6.812-1.456.841L324.9,103.3a6.552,6.552,0,0,0-1.847.155,5.768,5.768,0,0,0-1.639.608,2.8,2.8,0,0,0-1.235,1.228,1.564,1.564,0,0,0,.062,1.412,3.452,3.452,0,0,0,1.412,1.33,7.016,7.016,0,0,0,2.312.834,7.711,7.711,0,0,0,2.469.058,5.845,5.845,0,0,0,2.123-.7,2.843,2.843,0,0,0,1.113-1.018,1.367,1.367,0,0,0,.152-1.05l1.047.608,1.455-.84-9.311-5.412"/></g></g><g class="f"><g class="l"><polyline class="j" points="285.24 186.851 279.098 190.397 280.271 191.079 282.627 189.719 290.201 194.12 291.644 193.287 284.07 188.886 286.413 187.533 285.24 186.851"/><path class="j" d="M288.461,184.337l-1.442.833,9.311,5.411,1.443-.833L293.9,187.5q-.933-.542-.949-1.106c-.017-.372.24-.719.782-1.032a3.374,3.374,0,0,1,1.778-.446,3.874,3.874,0,0,1,1.9.557l3.876,2.252,1.43-.826-4.091-2.377a5.909,5.909,0,0,0-1.975-.727,5.717,5.717,0,0,0-1.986-.014,5.241,5.241,0,0,0-1.766.623,3.033,3.033,0,0,0-1,.855,1.274,1.274,0,0,0-.253.932l-3.185-1.85"/><path class="j" d="M302.371,182.354a1.274,1.274,0,0,1-.642-1.106,1.39,1.39,0,0,1,.807-1.017,4.024,4.024,0,0,1,1.861-.517,3.364,3.364,0,0,1,1.837.41l-3.863,2.23m-.976-2.861a3.319,3.319,0,0,0-1.382,1.305,1.543,1.543,0,0,0,.023,1.442,3.614,3.614,0,0,0,1.444,1.341,6.96,6.96,0,0,0,2.331.837,7.69,7.69,0,0,0,2.5.011,6.492,6.492,0,0,0,2.244-.774A2.785,2.785,0,0,0,310,182.114a1.686,1.686,0,0,0-.417-1.574l-1.558.9q.472.84-.683,1.511a3.915,3.915,0,0,1-1.874.5,4.084,4.084,0,0,1-1.952-.416l5.332-3.078a4.689,4.689,0,0,0-.653-.439,6.476,6.476,0,0,0-2.211-.789,7.368,7.368,0,0,0-2.412,0,6.48,6.48,0,0,0-2.18.766"/><path class="j" d="M320.74,175.173a3.741,3.741,0,0,1-1.3.435,4.959,4.959,0,0,1-1.6-.018,4.456,4.456,0,0,1-1.556-.557,2.195,2.195,0,0,1-.943-.9,1,1,0,0,1-.021-.921,1.769,1.769,0,0,1,.749-.756,3.958,3.958,0,0,1,1.32-.446,4.834,4.834,0,0,1,1.578.007,4.465,4.465,0,0,1,1.537.546,2.344,2.344,0,0,1,.963.907,1.033,1.033,0,0,1,.039.932,1.83,1.83,0,0,1-.768.767m-10.29-3.531-1.443.833,9.312,5.411,1.443-.833-1.009-.586a6.407,6.407,0,0,0,1.8-.107,5.558,5.558,0,0,0,1.754-.645,2.647,2.647,0,0,0,1.2-1.231,1.582,1.582,0,0,0-.1-1.427,3.665,3.665,0,0,0-1.437-1.338,6.974,6.974,0,0,0-2.287-.826,7.613,7.613,0,0,0-2.43-.051,5.951,5.951,0,0,0-2.111.711,2.859,2.859,0,0,0-1.1,1.01,1.336,1.336,0,0,0-.184,1.062l-3.413-1.983"/><path class="j" d="M324.724,169.448a1.274,1.274,0,0,1-.643-1.105,1.4,1.4,0,0,1,.808-1.018,4.02,4.02,0,0,1,1.861-.516,3.375,3.375,0,0,1,1.837.409l-3.863,2.23m-.977-2.86a3.338,3.338,0,0,0-1.382,1.305,1.519,1.519,0,0,0,.031,1.438,3.528,3.528,0,0,0,1.437,1.345,6.846,6.846,0,0,0,2.337.833,7.648,7.648,0,0,0,2.494.015,6.5,6.5,0,0,0,2.245-.774,2.775,2.775,0,0,0,1.447-1.541,1.666,1.666,0,0,0-.418-1.574l-1.558.9c.315.561.09,1.066-.683,1.512a3.86,3.86,0,0,1-1.867.5,4.056,4.056,0,0,1-1.958-.413l5.338-3.081a5.773,5.773,0,0,0-.66-.435,6.463,6.463,0,0,0-2.21-.789,7.368,7.368,0,0,0-2.412,0,6.487,6.487,0,0,0-2.181.767"/><path class="j" d="M331.862,161.9a3.435,3.435,0,0,0-1.144.969,1.106,1.106,0,0,0-.222.966,1.362,1.362,0,0,0,.683.774,3.144,3.144,0,0,0,1.455.431,5.251,5.251,0,0,0,1.471-.136q.7-.171,1.7-.5a13.378,13.378,0,0,1,1.593-.442,1.357,1.357,0,0,1,.954.118.447.447,0,0,1,.264.546,1.474,1.474,0,0,1-.716.678,2.951,2.951,0,0,1-1.263.391,2.241,2.241,0,0,1-1.157-.185l-1.494.863a4.024,4.024,0,0,0,1.538.428,6.373,6.373,0,0,0,3.613-.808,3.343,3.343,0,0,0,1.144-.969,1.106,1.106,0,0,0,.2-.962,1.428,1.428,0,0,0-.727-.808,3.2,3.2,0,0,0-1.436-.4,5.333,5.333,0,0,0-1.452.133c-.465.106-1.02.265-1.657.479-.491.158-.867.273-1.135.339a3.207,3.207,0,0,1-.783.114,1.267,1.267,0,0,1-.674-.155c-.235-.136-.317-.3-.258-.505a1.319,1.319,0,0,1,.652-.626,2.725,2.725,0,0,1,1.2-.373,2.2,2.2,0,0,1,1.126.211l1.442-.834a4.541,4.541,0,0,0-2.409-.5,5.57,5.57,0,0,0-2.518.763"/><path class="j" d="M337.172,156.971l-1.462.844,1.725,1-.823.476,1.167.678.824-.475,3.837,2.23a3.68,3.68,0,0,0,2,.553,4.16,4.16,0,0,0,1.951-.6l1.136-.656-1.2-.7-.881.509a1.7,1.7,0,0,1-.8.269,1.454,1.454,0,0,1-.743-.225l-3.837-2.23,1.692-.977L340.589,157l-1.692.977-1.725-1"/><path class="j" d="M276.555,218.18a3.815,3.815,0,0,1-1.307.431,4.959,4.959,0,0,1-1.6-.018,4.57,4.57,0,0,1-1.55-.553,2.267,2.267,0,0,1-.949-.9,1.013,1.013,0,0,1-.014-.917,1.724,1.724,0,0,1,.748-.756,3.786,3.786,0,0,1,1.32-.446,4.84,4.84,0,0,1,1.579.007,4.408,4.408,0,0,1,1.536.546,2.327,2.327,0,0,1,.956.9,1.032,1.032,0,0,1,.04.933,1.747,1.747,0,0,1-.762.77m-5.593-3.62a2.844,2.844,0,0,0-1.106,1.014,1.455,1.455,0,0,0-.2,1.047l-1.021-.594-1.443.833,10.231,5.946,1.443-.833-4.3-2.5a7.721,7.721,0,0,0,1.814-.122,5.485,5.485,0,0,0,1.735-.634,2.709,2.709,0,0,0,1.209-1.227,1.573,1.573,0,0,0-.106-1.431,3.617,3.617,0,0,0-1.431-1.334,6.958,6.958,0,0,0-2.286-.826,7.61,7.61,0,0,0-2.431-.044,5.9,5.9,0,0,0-2.111.7"/><path class="j" d="M280.092,209.289a2.276,2.276,0,0,0-.953.888,1.12,1.12,0,0,0-.018.966l-1.008-.586-1.443.833,6.933,4.029,1.443-.833-3.648-2.12c-.7-.409-1.052-.781-1.05-1.113s.3-.663.865-.991l.364-.211-1.485-.862"/><path class="j" d="M291.253,209.694a3.922,3.922,0,0,1-2.065.487,4.717,4.717,0,0,1-2.306-.675,2.474,2.474,0,0,1-.994-.9.912.912,0,0,1-.034-.892,1.805,1.805,0,0,1,.762-.748,3.8,3.8,0,0,1,1.307-.446,4.617,4.617,0,0,1,1.559.011,4.522,4.522,0,0,1,1.569.571,2.265,2.265,0,0,1,.975.922,1,1,0,0,1,0,.918,1.878,1.878,0,0,1-.774.755m-5.855-3.468a3.345,3.345,0,0,0-1.369,1.3,1.581,1.581,0,0,0-.027,1.471,3.307,3.307,0,0,0,1.411,1.36,6.848,6.848,0,0,0,2.331.83,7.807,7.807,0,0,0,2.52.007,6.467,6.467,0,0,0,2.232-.774,3.387,3.387,0,0,0,1.382-1.312,1.635,1.635,0,0,0,.046-1.5,3.187,3.187,0,0,0-1.392-1.364,6.847,6.847,0,0,0-2.344-.822,7.724,7.724,0,0,0-2.539.011,6.75,6.75,0,0,0-2.251.793"/><path class="j" d="M300.306,204.467a3.744,3.744,0,0,1-1.32.432,5.047,5.047,0,0,1-1.61-.026,4.608,4.608,0,0,1-1.549-.56,2.228,2.228,0,0,1-.944-.889,1,1,0,0,1-.014-.91,1.817,1.817,0,0,1,.768-.76,3.713,3.713,0,0,1,1.32-.438,5.041,5.041,0,0,1,1.578.014,4.528,4.528,0,0,1,1.544.557,2.317,2.317,0,0,1,.956.9,1.027,1.027,0,0,1,.033.921,1.8,1.8,0,0,1-.762.763m-4.614-6.815-1.455.84,3.349,1.946a6.627,6.627,0,0,0-1.84.151,5.806,5.806,0,0,0-1.646.612,2.779,2.779,0,0,0-1.228,1.224,1.587,1.587,0,0,0,.055,1.416,3.481,3.481,0,0,0,1.418,1.327,6.934,6.934,0,0,0,2.3.833,7.829,7.829,0,0,0,2.482.059,5.787,5.787,0,0,0,2.117-.693,2.891,2.891,0,0,0,1.119-1.021,1.357,1.357,0,0,0,.146-1.047l1.04.6,1.456-.84-9.312-5.411"/><path class="j" d="M307.182,193.774l-1.443.833,3.863,2.245c.622.361.938.73.955,1.109s-.253.719-.789,1.029a3.377,3.377,0,0,1-1.778.453,3.919,3.919,0,0,1-1.9-.564l-3.863-2.245-1.43.826,4.079,2.37a5.813,5.813,0,0,0,1.981.723,6,6,0,0,0,2.037-.008,5.643,5.643,0,0,0,1.811-.656,2.813,2.813,0,0,0,.934-.818,1.26,1.26,0,0,0,.221-.907l.812.472,1.443-.833-6.933-4.029"/><path class="j" d="M312.8,190.408a3.178,3.178,0,0,0-1.338,1.279,1.545,1.545,0,0,0,.043,1.423,3.576,3.576,0,0,0,1.45,1.346,6.9,6.9,0,0,0,2.312.84,7.591,7.591,0,0,0,2.469.037,6.3,6.3,0,0,0,2.219-.767A2.768,2.768,0,0,0,321.41,193a1.7,1.7,0,0,0-.545-1.633l-1.558.9c.462.579.274,1.113-.562,1.6a3.625,3.625,0,0,1-2.039.45,5.029,5.029,0,0,1-2.275-.716c-.748-.435-1.153-.869-1.22-1.315s.2-.837.789-1.176a3.314,3.314,0,0,1,1.345-.439,3.846,3.846,0,0,1,1.412.118l1.558-.9a6.706,6.706,0,0,0-2.83-.342,6.479,6.479,0,0,0-2.69.862"/><path class="j" d="M318.417,185.3l-1.455.841,1.719,1-.824.475,1.174.682.823-.475,3.838,2.23a3.683,3.683,0,0,0,1.989.557,4.145,4.145,0,0,0,1.944-.6l1.143-.66-1.193-.693-.887.512a1.7,1.7,0,0,1-.8.262,1.433,1.433,0,0,1-.744-.217l-3.837-2.231,1.7-.98-1.173-.682-1.7.98-1.719-1"/><path class="j" d="M329.675,180.787l-1.443.833,6.933,4.029,1.443-.833-6.933-4.029m-3.462-1.19a.652.652,0,0,0-.4.538.644.644,0,0,0,.391.531,1.982,1.982,0,0,0,1.846,0,.629.629,0,0,0,.378-.527c0-.207-.131-.38-.391-.531a1.752,1.752,0,0,0-.915-.229,1.8,1.8,0,0,0-.912.218"/><path class="j" d="M335.875,177.083a2.831,2.831,0,0,0-.94.814,1.244,1.244,0,0,0-.24.911l-.793-.461-1.443.833,6.933,4.029,1.443-.833-3.876-2.252q-.923-.537-.948-1.106t.788-1.029a3.353,3.353,0,0,1,1.772-.449,3.932,3.932,0,0,1,1.9.556l3.875,2.253,1.431-.826-4.086-2.374a5.752,5.752,0,0,0-1.981-.722,5.83,5.83,0,0,0-2.024,0,5.5,5.5,0,0,0-1.811.656"/><polyline class="j" points="349.626 167.174 343.484 170.72 344.651 171.399 347.007 170.038 354.581 174.44 356.024 173.607 348.45 169.205 350.793 167.852 349.626 167.174"/><path class="j" d="M357.2,164.771a2.264,2.264,0,0,0-.953.888,1.113,1.113,0,0,0-.018.966l-1.009-.586-1.443.833,6.933,4.029,1.443-.833-3.647-2.12c-.7-.409-1.052-.781-1.05-1.113s.3-.663.864-.991l.364-.211-1.484-.862"/><path class="j" d="M368.443,165.128a3.664,3.664,0,0,1-1.313.428,5.047,5.047,0,0,1-1.61-.026,4.631,4.631,0,0,1-1.556-.556,2.2,2.2,0,0,1-.937-.892.982.982,0,0,1-.014-.911,1.772,1.772,0,0,1,.761-.756,3.644,3.644,0,0,1,1.32-.438,5.041,5.041,0,0,1,1.578.014,4.544,4.544,0,0,1,1.55.553,2.3,2.3,0,0,1,.95.9,1.027,1.027,0,0,1,.033.921,1.765,1.765,0,0,1-.762.763m-6.212-3.262a2.784,2.784,0,0,0-1.222,1.22,1.587,1.587,0,0,0,.055,1.416,3.547,3.547,0,0,0,1.418,1.327,7.056,7.056,0,0,0,2.3.833,7.91,7.91,0,0,0,2.475.063,5.752,5.752,0,0,0,2.1-.686,2.9,2.9,0,0,0,1.119-1.021,1.5,1.5,0,0,0,.184-1.054l1.028.6,1.455-.841-6.933-4.029-1.455.841,1.008.586a7.179,7.179,0,0,0-1.782.1,5.351,5.351,0,0,0-1.754.645"/><path class="j" d="M377.918,159.658a3.67,3.67,0,0,1-1.314.428A5.041,5.041,0,0,1,375,160.06a4.483,4.483,0,0,1-1.556-.557,2.141,2.141,0,0,1-.937-.892,1,1,0,0,1-.021-.907,1.815,1.815,0,0,1,.768-.759,3.682,3.682,0,0,1,1.32-.439,5.072,5.072,0,0,1,1.578.015,4.531,4.531,0,0,1,1.55.553,2.286,2.286,0,0,1,.949.9,1.021,1.021,0,0,1,.033.921,1.785,1.785,0,0,1-.761.763m-4.607-6.819-1.456.84,3.349,1.946a6.716,6.716,0,0,0-1.846.155,5.8,5.8,0,0,0-1.639.608,2.778,2.778,0,0,0-1.235,1.228,1.585,1.585,0,0,0,.055,1.415,3.533,3.533,0,0,0,1.418,1.327,7.061,7.061,0,0,0,2.3.834,7.829,7.829,0,0,0,2.482.059,5.79,5.79,0,0,0,2.123-.7,2.87,2.87,0,0,0,1.113-1.018,1.392,1.392,0,0,0,.152-1.05l1.041.6,1.455-.84-9.311-5.411"/><path class="j" d="M382.349,153.675a1.251,1.251,0,0,1-.649-1.109,1.394,1.394,0,0,1,.807-1.01,4,4,0,0,1,1.855-.52,3.421,3.421,0,0,1,1.85.409l-3.863,2.23m-.983-2.856a3.293,3.293,0,0,0-1.376,1.3,1.513,1.513,0,0,0,.018,1.437,3.579,3.579,0,0,0,1.449,1.346,6.829,6.829,0,0,0,2.325.833,7.693,7.693,0,0,0,2.5.018,6.482,6.482,0,0,0,2.238-.777,2.8,2.8,0,0,0,1.453-1.545,1.655,1.655,0,0,0-.424-1.57l-1.557.9q.49.842-.677,1.515a3.9,3.9,0,0,1-1.874.494,3.981,3.981,0,0,1-1.951-.416l5.331-3.078a5.614,5.614,0,0,0-.653-.439,6.512,6.512,0,0,0-2.217-.785,7.289,7.289,0,0,0-2.4,0,6.426,6.426,0,0,0-2.187.771"/></g></g></svg>