<svg xmlns="http://www.w3.org/2000/svg" xmlns:xlink="http://www.w3.org/1999/xlink" viewBox="0 0 500 329.674"><defs><style>.a{fill:none;}.b{fill:#ced0d6;}.c{fill:#0e1c48;}.d{fill:#132660;}.e{fill:#fff;}.f{isolation:isolate;}.g{clip-path:url(#a);}.h{clip-path:url(#b);}.i{clip-path:url(#c);}.j{fill:#0a1330;}.k{clip-path:url(#d);}.l{clip-path:url(#e);}</style><clipPath id="a"><polygon class="a" points="103.055 242.911 103.118 220.828 140.123 242.194 140.061 264.276 103.055 242.911"/></clipPath><clipPath id="b"><polygon class="a" points="347.815 262.266 347.77 246.236 414.375 207.782 414.42 223.812 347.815 262.266"/></clipPath><clipPath id="c"><polygon class="a" points="129.168 148.451 102.038 132.685 235.222 55.791 262.352 71.557 129.168 148.451"/></clipPath><clipPath id="d"><polygon class="a" points="206.374 183.271 178.165 166.878 295.42 99.181 323.628 115.574 206.374 183.271"/></clipPath><clipPath id="e"><polygon class="a" points="266.787 224.541 241.858 210.054 377.162 131.936 402.09 146.423 266.787 224.541"/></clipPath></defs><path d="M489.413,173.044l-.033,11.6c-.016,5.414-3.574,10.82-10.684,14.951L271.443,320.035c-.526.3-1.067.6-1.616.879-.166.086-.336.168-.5.252q-.6.3-1.216.579c-.184.084-.367.168-.553.249q-.7.306-1.413.588c-.119.047-.234.1-.354.143q-.891.345-1.81.654c-.16.054-.322.1-.482.156q-.7.228-1.406.438l-.621.178c-.469.131-.941.255-1.417.375-.177.044-.352.091-.53.133q-.969.233-1.954.433c-.106.021-.214.039-.32.06q-.835.162-1.681.3c-.213.035-.427.068-.642.1q-.721.111-1.449.2c-.21.027-.421.055-.632.08q-.929.109-1.864.192c-.061.006-.121.013-.182.018-.684.058-1.37.1-2.058.137-.2.01-.4.016-.6.025q-.752.032-1.5.045c-.225,0-.45.008-.675.009q-.8.006-1.608-.009c-.16,0-.32,0-.479-.006q-1.032-.027-2.061-.086c-.163-.009-.325-.023-.488-.034-.53-.035-1.059-.075-1.587-.123q-.335-.031-.669-.066c-.5-.05-.99-.108-1.482-.17-.137-.017-.275-.029-.411-.047-.065-.009-.129-.021-.194-.03-.506-.069-1.008-.146-1.509-.228-.129-.021-.26-.039-.389-.061q-.93-.157-1.847-.346c14.466,6.652,35.525,6.115,48.834-1.62L489.32,203C503.541,194.732,503.548,181.37,489.413,173.044Z"/><path class="b" d="M201.479,203.136h0c-.111.039-.222.078-.335.115h0C201.257,203.214,201.368,203.175,201.479,203.136Z"/><path class="b" d="M200.253,203.507h0c-.067.017-.131.038-.2.054h0C200.122,203.545,200.186,203.524,200.253,203.507Z"/><path class="b" d="M288.243,73.953c-.221.158-.458.312-.71.46C287.785,74.265,288.022,74.111,288.243,73.953Z"/><path class="b" d="M135.306,163.337c-.057.026-.116.049-.174.074.058-.024.117-.048.174-.074Z"/><path class="b" d="M202.517,202.72h0c-.1.045-.2.086-.3.129h0C202.317,202.806,202.419,202.765,202.517,202.72Z"/><path class="b" d="M127.768,164.61c-.078-.005-.156-.014-.234-.019.078,0,.155.014.234.019Z"/><path class="b" d="M131.714,164.4c-.038.007-.077.011-.116.017.039,0,.077-.01.116-.017Z"/><path class="b" d="M288.857,73.463c-.126.112-.27.22-.411.328C288.587,73.683,288.731,73.575,288.857,73.463Z"/><path class="b" d="M134.268,163.752h0c-.111.039-.222.079-.335.115h0C134.046,163.831,134.157,163.791,134.268,163.752Z"/><path class="b" d="M123,163.631c-.139-.053-.271-.114-.406-.171.135.057.267.118.406.171Z"/><path class="b" d="M125.2,164.269l-.137-.028h0Z"/><path class="b" d="M126.585,164.5h0c-.133-.016-.265-.035-.4-.055h0C126.32,164.464,126.452,164.483,126.585,164.5Z"/><path class="b" d="M189.3,202.623c-.237-.114-.471-.232-.695-.36.224.128.457.246.695.36Z"/><path class="b" d="M289.95,72.161c.062-.1.129-.2.181-.307C290.079,71.958,290.012,72.059,289.95,72.161Z"/><path class="b" d="M289.068,73.254c.105-.1.215-.2.309-.307C289.283,73.052,289.173,73.152,289.068,73.254Z"/><path class="b" d="M289.561,72.715c.082-.1.169-.2.24-.306C289.73,72.513,289.643,72.613,289.561,72.715Z"/><path class="b" d="M123.8,163.907h0c-.2-.063-.4-.131-.6-.2h0C123.4,163.776,123.6,163.844,123.8,163.907Z"/><path class="b" d="M426.358,150.081h0c-.032.095-.076.189-.116.284C426.28,150.27,426.327,150.176,426.358,150.081Z"/><path class="b" d="M129.258,164.629h0c-.1,0-.2.008-.307.009h0C129.054,164.637,129.156,164.631,129.258,164.629Z"/><path class="b" d="M423.536,153.179c.253-.147.489-.3.71-.459C424.025,152.878,423.789,153.032,423.536,153.179Z"/><path class="b" d="M425.8,151.177c-.072.105-.16.206-.243.309C425.643,151.383,425.731,151.282,425.8,151.177Z"/><path class="b" d="M269,242.9c-.053.013-.1.029-.157.042h0C268.9,242.932,268.95,242.917,269,242.9Z"/><path class="b" d="M424.442,152.563c.144-.11.289-.219.418-.333C424.731,152.344,424.586,152.453,424.442,152.563Z"/><path class="b" d="M290.274,71.513h0l-.033.082Z"/><path class="b" d="M264.1,270.779l8.575-4.983a17.034,17.034,0,0,1-8.9-1.014c.369.019.74.029,1.11.026-.4,0-.789,0-1.183-.028-.08,0-.159-.014-.24-.019q-.474-.033-.943-.091c-.055-.007-.111-.009-.166-.016-.079-.011-.154-.028-.232-.039-.231-.035-.46-.073-.688-.117-.08-.015-.162-.024-.241-.041s-.128-.031-.194-.046c-.145-.031-.288-.066-.431-.1-.093-.023-.189-.042-.281-.067s-.157-.047-.237-.07c-.106-.031-.211-.062-.316-.1-.069-.021-.141-.04-.209-.062-.133-.044-.261-.093-.39-.14-.069-.025-.138-.048-.2-.074l-.078-.028q-.312-.122-.612-.258l-.065-.032-.152-.074c-.118-.057-.238-.113-.353-.173s-.229-.123-.341-.187l-41.1-23.588q-.1-.057-.2-.117c-.177-.107-.345-.216-.506-.329l-.014-.01-.061-.046c-.139-.1-.276-.2-.4-.306-.035-.029-.065-.06-.1-.09-.063-.053-.122-.107-.181-.161s-.123-.106-.179-.16-.087-.1-.133-.145c-.072-.075-.141-.15-.207-.226-.035-.04-.077-.079-.11-.12-.085-.1-.165-.209-.239-.315l-.007-.01c-.069-.1-.135-.2-.2-.3-.025-.043-.041-.087-.064-.129-.051-.093-.1-.186-.14-.279s-.087-.194-.123-.292-.065-.189-.093-.284c-.015-.053-.038-.1-.051-.157s-.021-.122-.033-.183-.02-.1-.027-.153a3.469,3.469,0,0,1-.042-.528l.036-12.641-4.513,2.638c-3.949,2.309-10.37,2.377-14.5.21-.137-.014-.276-.023-.413-.04-.055-.007-.111-.009-.166-.016-.078-.01-.153-.027-.231-.039-.232-.034-.461-.073-.689-.117-.079-.015-.161-.024-.241-.04-.065-.014-.128-.032-.193-.046-.145-.032-.287-.067-.43-.1-.094-.023-.19-.042-.283-.067s-.157-.048-.236-.071c-.106-.03-.211-.061-.315-.094-.07-.022-.141-.04-.21-.063-.133-.043-.26-.093-.39-.14-.068-.024-.137-.047-.2-.073l-.078-.028q-.312-.122-.612-.258l-.065-.032c-.05-.023-.1-.049-.149-.073-.119-.057-.24-.113-.355-.174s-.229-.122-.34-.186l-41.1-23.588c-.067-.038-.134-.077-.2-.117-.176-.107-.345-.217-.5-.329l-.014-.011c-.022-.015-.041-.031-.062-.046-.14-.1-.276-.2-.4-.3-.036-.03-.066-.061-.1-.09-.063-.054-.121-.108-.181-.162s-.123-.1-.179-.16-.087-.1-.133-.145c-.071-.074-.141-.149-.206-.225-.035-.041-.077-.079-.111-.12-.085-.1-.165-.21-.239-.316l-.006-.01c-.07-.1-.136-.2-.2-.3-.026-.042-.042-.086-.065-.129-.051-.092-.1-.186-.14-.279s-.086-.194-.123-.292-.065-.189-.092-.284c-.015-.053-.039-.1-.052-.157s-.021-.122-.032-.183-.02-.1-.028-.152a3.493,3.493,0,0,1-.042-.529l.034-12.027-3.465,2.025c-3.991,2.333-10.509,2.379-14.636.14-.05-.009-.1-.018-.148-.025q-.348-.051-.69-.117c-.08-.015-.161-.024-.24-.041s-.128-.031-.193-.045c-.145-.032-.288-.067-.432-.1-.093-.023-.189-.041-.281-.066s-.157-.048-.235-.071c-.107-.03-.213-.062-.318-.094-.069-.022-.14-.04-.209-.063-.132-.043-.259-.093-.389-.14l-.2-.073c-.025-.01-.052-.018-.078-.028q-.312-.123-.611-.258c-.023-.01-.043-.022-.065-.032l-.15-.073c-.119-.057-.239-.113-.355-.174s-.228-.123-.34-.187l-41.1-23.589-.2-.117c-.176-.107-.345-.217-.5-.329l-.015-.011c-.021-.015-.039-.03-.059-.045-.14-.1-.278-.2-.405-.306-.036-.03-.066-.061-.1-.09-.062-.054-.121-.108-.181-.162s-.123-.105-.179-.16-.087-.1-.133-.145c-.071-.075-.141-.149-.207-.225-.035-.041-.076-.08-.11-.121-.085-.1-.165-.209-.239-.315l-.006-.01c-.07-.1-.136-.2-.2-.3-.026-.042-.042-.086-.065-.129-.051-.093-.1-.186-.14-.28s-.086-.193-.123-.29-.065-.19-.093-.286c-.015-.052-.038-.1-.051-.156s-.021-.122-.032-.183-.02-.1-.028-.152a3.493,3.493,0,0,1-.042-.529l.017-5.953-29.245,17L226.972,270.778C237.218,276.693,253.927,276.693,264.1,270.779Z"/><polygon class="b" points="193.408 203.829 193.4 203.828 193.4 203.828 193.408 203.829"/><path class="b" d="M425.066,152.026c.107-.1.218-.205.313-.312C425.284,151.821,425.172,151.923,425.066,152.026Z"/><path class="b" d="M426.132,150.622c-.052.1-.12.207-.182.31C426.012,150.829,426.08,150.727,426.132,150.622Z"/><path class="b" d="M356.777,112.094c.081-.1.167-.2.237-.3C356.944,111.894,356.857,111.993,356.777,112.094Z"/><path class="b" d="M357.164,111.542c.061-.1.128-.2.18-.305C357.292,111.34,357.225,111.441,357.164,111.542Z"/><path class="b" d="M355.665,113.169c.139-.107.281-.213.406-.324C355.946,112.956,355.8,113.062,355.665,113.169Z"/><path class="b" d="M130.443,164.561c-.1.009-.2.018-.293.025h0C130.248,164.579,130.345,164.57,130.443,164.561Z"/><path class="b" d="M271.309,242.1l-.094.041.094-.041Z"/><path class="b" d="M356.59,112.329c-.093.105-.2.205-.308.307C356.387,112.534,356.5,112.434,356.59,112.329Z"/><path class="b" d="M357.452,110.977c.044-.1.092-.2.126-.308C357.544,110.773,357.5,110.874,357.452,110.977Z"/><path class="b" d="M354.748,113.794q.378-.222.709-.459Q355.126,113.572,354.748,113.794Z"/><path class="b" d="M266.535,243.321h0c-.128.013-.255.024-.384.033h0Q266.343,243.341,266.535,243.321Z"/><path class="b" d="M244.471,283.451h0c-.16,0-.32,0-.48-.007h0C244.151,283.449,244.311,283.448,244.471,283.451Z"/><path class="b" d="M235.59,282.661h0c-.131-.021-.263-.039-.393-.061h0C235.33,282.622,235.461,282.64,235.59,282.661Z"/><path class="b" d="M246.713,283.451c-.212,0-.424.008-.635.009h0C246.29,283.459,246.5,283.455,246.713,283.451Z"/><path class="b" d="M241.931,283.359h0c-.164-.01-.326-.023-.489-.034h0C241.605,283.336,241.767,283.349,241.931,283.359Z"/><path class="b" d="M223.18,279.05l-.232-.1.232.1Z"/><path class="b" d="M230.1,281.488c-.26-.07-.516-.147-.774-.221.258.074.514.151.774.221Z"/><path class="b" d="M228.159,280.921c-.167-.052-.332-.107-.5-.16.166.053.331.108.5.16Z"/><path class="b" d="M231.3,281.792c-.26-.064-.519-.128-.777-.195l.008,0C230.79,281.665,231.047,281.728,231.3,281.792Z"/><path class="b" d="M237.7,282.966h0c-.2-.026-.405-.049-.606-.077h0C237.3,282.917,237.5,282.94,237.7,282.966Z"/><path class="b" d="M248.859,283.38h0c-.2.011-.4.017-.6.026h0C248.457,283.4,248.658,283.391,248.859,283.38Z"/><path class="b" d="M482.452,154.329c-.215.17-.446.336-.671.5C482.006,154.665,482.237,154.5,482.452,154.329Z"/><path class="b" d="M8.274,155.05c-.1-.074-.2-.149-.3-.224.094.07.184.14.28.209Z"/><path class="b" d="M7.142,154.194c-.1-.082-.2-.166-.3-.249.1.08.188.16.287.238Z"/><path class="b" d="M9.573,155.935c-.127-.082-.246-.166-.37-.249.122.082.239.165.364.246Z"/><path class="b" d="M480.113,156q-.627.4-1.3.791Q479.486,156.4,480.113,156Z"/><path class="b" d="M483.332,153.6h0c-.138.119-.282.237-.425.355C483.05,153.832,483.2,153.715,483.332,153.6Z"/><path class="b" d="M481.324,155.175c-.25.179-.517.353-.779.528C480.807,155.528,481.074,155.354,481.324,155.175Z"/><path class="b" d="M192.711,203.711h0c-.145-.028-.291-.055-.434-.087h0C192.42,203.656,192.566,203.683,192.711,203.711Z"/><path class="b" d="M357.716,126.729l9.777-5.716a14.064,14.064,0,0,1,5.593-1.689l-15.324-8.847Z"/><path class="b" d="M260.634,242.907h0c-.174-.044-.348-.089-.518-.138h0C260.287,242.818,260.46,242.863,260.634,242.907Z"/><path class="b" d="M265.26,243.4h0Z"/><path class="b" d="M449.152,163.241l-22.6-13.05-.044,15.709,2.187,1.255c3.09,1.774,3.881,4.4,2.36,6.6Z"/><path class="b" d="M263.769,243.378h0c-.081,0-.16-.014-.241-.02h0C263.609,243.364,263.689,243.373,263.769,243.378Z"/><path class="b" d="M194.979,203.993h0c-.08,0-.159-.014-.239-.019h0C194.821,203.979,194.9,203.988,194.979,203.993Z"/><path class="b" d="M259,242.4c-.2-.077-.395-.162-.588-.247.193.085.387.17.588.247Z"/><path class="b" d="M261.154,243.026l-.089-.017h0Z"/><path class="b" d="M253.454,282.972c-.164.02-.327.043-.491.062h0C253.127,283.015,253.29,282.993,253.454,282.972Z"/><path class="b" d="M268.227,278.94h0c-.184.084-.368.168-.554.249h0C267.86,279.108,268.044,279.024,268.227,278.94Z"/><path class="b" d="M260.172,281.72c-.083.021-.165.043-.248.063l.247-.063Z"/><path class="b" d="M290.506,86.425l8.2-4.8A14.336,14.336,0,0,1,304.8,79.9l-14.251-8.228Z"/><path class="b" d="M266.261,279.777h0c-.118.047-.234.1-.353.143h0C266.027,279.874,266.143,279.824,266.261,279.777Z"/><path class="b" d="M269.7,278.235l-.253.126h0Z"/><path class="b" d="M225.163,279.879h0c-.139-.054-.274-.111-.411-.166h0C224.89,279.768,225.025,279.825,225.163,279.879Z"/><path class="b" d="M255.474,282.682l-.43.068h0Z"/><path class="b" d="M251.1,283.226l-.041,0,.041,0Z"/><path class="c" d="M21.043,131.544c-.092.059-.177.121-.267.181-.2.133-.4.266-.594.4-.116.082-.222.167-.334.25-.157.117-.318.233-.468.353-.114.09-.219.183-.33.275-.138.115-.28.229-.413.346-.107.094-.2.19-.307.286-.126.117-.256.233-.376.351-.1.1-.189.2-.283.3-.114.119-.232.237-.34.357-.091.1-.173.2-.26.306-.1.12-.208.239-.3.36-.083.1-.156.209-.235.314-.09.121-.185.242-.27.364s-.14.218-.211.327-.16.241-.233.363-.124.222-.185.333-.139.243-.2.366-.1.224-.156.336-.118.247-.17.372-.085.227-.128.341-.1.248-.138.373-.067.23-.1.345-.075.249-.106.375-.048.232-.072.348-.055.25-.075.376-.03.234-.044.351-.034.25-.044.375-.011.235-.016.353c-.164,4.035,2.4,8.106,7.707,11.168l18.26,10.543L225.4,55.494c.374-.218.76-.425,1.151-.626.119-.061.24-.12.36-.179q.428-.213.868-.413c.131-.06.261-.119.393-.177q.5-.217,1.015-.421c.083-.032.163-.067.246-.1q.638-.245,1.293-.465c.116-.039.233-.075.35-.113q.5-.162,1-.31l.442-.127c.336-.094.676-.182,1.017-.268.126-.031.25-.064.376-.094q.692-.165,1.4-.307l.251-.046q.588-.114,1.182-.212c.153-.025.307-.048.461-.072.345-.052.692-.1,1.04-.145.149-.019.3-.039.448-.056.461-.054.924-.1,1.388-.142l.075-.007c.49-.041.982-.072,1.474-.1.147-.007.294-.012.441-.018.357-.015.714-.025,1.072-.032l.48-.006c.391,0,.782,0,1.174.007.106,0,.213,0,.32,0q.738.018,1.475.062c.123.007.245.017.368.025q.561.037,1.12.088c.16.014.319.03.478.046q.54.055,1.075.124c.138.017.277.033.416.052q.581.08,1.156.175l.2.031q.673.115,1.337.251c.228.047.454.1.681.148.158.035.318.068.476.1.25.059.5.123.744.186.136.035.273.067.408.1.04.01.079.023.119.034.552.15,1.095.314,1.631.487.1.033.2.064.3.1q.747.249,1.468.527c.105.041.207.084.311.125q.559.224,1.1.465c.115.051.231.1.345.154.43.2.854.4,1.266.619q.477.251.937.514L449.152,163.241l18.5-10.753c5.073-2.948,7.6-6.832,7.6-10.717,0-.126-.008-.252-.014-.378,0-.1-.006-.194-.014-.291,0-.049-.008-.1-.013-.147-.009-.1-.023-.2-.036-.3s-.02-.178-.034-.267c-.006-.038-.011-.076-.017-.113-.016-.092-.038-.183-.056-.275-.027-.136-.052-.272-.086-.408-.025-.095-.054-.189-.081-.283-.01-.037-.021-.073-.031-.109-.033-.11-.061-.22-.1-.329s-.073-.2-.108-.292l-.039-.1c-.04-.106-.077-.213-.122-.32s-.091-.2-.136-.3c-.015-.033-.031-.065-.045-.1-.049-.1-.094-.209-.147-.312s-.109-.2-.164-.3l-.022-.04c-.065-.119-.128-.238-.2-.356q-.22-.369-.473-.732c-.036-.051-.077-.1-.114-.151-.141-.2-.287-.392-.443-.585l-.012-.014c-.115-.142-.238-.283-.361-.423-.059-.068-.115-.136-.176-.2-.1-.111-.21-.22-.318-.33s-.187-.2-.287-.3l-.007-.007-.011-.011c-.2-.2-.415-.394-.635-.588l-.186-.159-.023-.02c-.161-.137-.324-.273-.493-.408-.067-.054-.135-.107-.2-.161-.123-.1-.252-.19-.38-.284-.071-.052-.139-.1-.211-.157-.052-.038-.1-.076-.155-.113l-.007,0q-.374-.263-.769-.518c-.062-.04-.126-.079-.189-.118l-.008-.005c-.259-.163-.521-.325-.8-.483L262.65,12.689c-.306-.177-.619-.347-.936-.514-.413-.216-.837-.421-1.267-.619-.114-.053-.229-.1-.344-.154h0q-.543-.242-1.1-.465h0l-.31-.125h0q-.721-.279-1.468-.527h0c-.1-.034-.2-.066-.305-.1-.536-.174-1.079-.338-1.631-.488h0c-.04-.011-.079-.023-.119-.033h0c-.136-.037-.274-.069-.411-.1-.246-.064-.492-.127-.741-.186-.156-.037-.315-.07-.473-.1-.228-.05-.455-.1-.684-.148h0q-.665-.136-1.338-.251l-.095-.015-.1-.015q-.579-.1-1.163-.176c-.138-.019-.278-.035-.416-.053q-.536-.067-1.074-.123l-.17-.017-.308-.03c-.372-.034-.746-.062-1.119-.087l-.214-.015-.156-.011q-.736-.042-1.475-.062l-.32,0c-.391-.007-.782-.01-1.173-.007-.084,0-.167,0-.251,0l-.23,0c-.358.007-.715.017-1.072.032l-.367.015-.073,0c-.493.025-.984.056-1.474.1l-.076.008c-.464.039-.926.088-1.387.141-.15.018-.3.038-.449.057-.348.044-.694.093-1.039.145l-.378.059-.084.013q-.593.1-1.18.211l-.172.032-.08.015q-.7.141-1.4.307c-.126.03-.25.063-.375.094q-.513.128-1.017.268c-.148.041-.3.083-.443.127q-.505.147-1,.31c-.116.038-.234.073-.349.112-.437.148-.869.3-1.293.466-.083.032-.164.067-.247.1-.343.136-.681.275-1.014.421-.133.058-.263.117-.394.177q-.44.2-.867.412l-.2.1-.16.08c-.391.2-.777.408-1.151.626L21.964,130.98Q21.489,131.258,21.043,131.544Z"/><path class="d" d="M478.818,156.787,271.564,277.23c-.525.305-1.066.6-1.615.879-.167.086-.337.168-.5.252q-.6.3-1.217.579c-.183.084-.367.168-.553.249q-.7.3-1.413.588c-.118.047-.234.1-.353.143q-.893.344-1.811.654c-.159.054-.321.1-.481.156q-.7.228-1.407.438-.309.09-.621.177c-.468.132-.941.256-1.417.375-.176.045-.352.092-.53.134q-.969.233-1.954.432c-.106.022-.213.039-.319.06q-.836.163-1.682.3c-.213.035-.427.068-.641.1q-.721.109-1.45.2c-.21.027-.42.055-.632.08q-.929.11-1.864.192c-.061,0-.121.013-.182.018-.684.058-1.37.1-2.058.136-.2.011-.4.017-.6.026-.5.02-1,.036-1.5.045-.225,0-.45.008-.675.009q-.8.006-1.607-.009c-.16,0-.32,0-.48-.007q-1.032-.026-2.06-.085c-.164-.01-.326-.023-.489-.034q-.8-.052-1.586-.124-.336-.03-.669-.065-.744-.077-1.483-.17c-.2-.026-.4-.049-.605-.077-.5-.069-1.008-.146-1.509-.228-.129-.021-.26-.039-.389-.061q-.94-.161-1.87-.35c-.335-.069-.667-.144-1-.219-.208-.046-.417-.089-.623-.137-.394-.093-.784-.194-1.174-.3-.145-.038-.293-.072-.437-.111q-.755-.2-1.5-.427c-.149-.045-.3-.094-.444-.14q-.468-.145-.93-.3-1.049-.35-2.066-.742c-.138-.054-.273-.111-.41-.165q-.8-.318-1.573-.664c-.162-.072-.326-.143-.486-.217-.608-.28-1.207-.57-1.79-.876q-.672-.351-1.322-.725L10.97,156.789c-.387-.223-.758-.452-1.124-.682-.093-.059-.187-.116-.279-.175q-.559-.361-1.087-.732c-.078-.054-.151-.11-.227-.165q-.421-.3-.821-.612c-.1-.08-.2-.16-.3-.24-.239-.19-.469-.383-.7-.577-.1-.084-.2-.167-.3-.252-.309-.273-.61-.549-.895-.828l-.041-.042q-.426-.42-.818-.848c-.092-.1-.175-.2-.265-.306-.173-.2-.345-.394-.507-.593-.246-.3-.477-.61-.7-.918-.027-.037-.057-.074-.083-.111-.243-.346-.468-.7-.679-1.048-.1-.172-.194-.346-.289-.519-.083-.153-.172-.3-.25-.458-.09-.178-.167-.357-.249-.535-.07-.153-.146-.305-.209-.458-.076-.181-.139-.364-.206-.546-.056-.152-.118-.3-.169-.457-.061-.185-.109-.37-.161-.555-.043-.152-.092-.3-.129-.455-.074-.3-.135-.6-.187-.908-.014-.083-.025-.166-.037-.249-.035-.233-.064-.467-.085-.7-.009-.089-.018-.178-.024-.267-.022-.306-.036-.613-.035-.919v0h0L0,184.436c0,.308.014.615.036.922.006.089.015.178.023.267q.033.351.085.7c.013.083.024.166.038.249.05.293.107.585.177.877l.009.031c.037.152.087.3.13.455.052.185.1.37.161.555.05.154.113.306.17.459.066.182.129.363.2.543.065.155.141.309.211.463.081.177.158.354.247.531.078.154.168.307.252.46s.163.311.254.464c.01.018.024.036.034.053.21.352.435.7.678,1.048.027.038.058.076.086.114q.329.462.7.915c.019.023.034.047.053.07.144.176.3.349.454.524.089.1.173.2.265.305q.389.424.811.842c.017.016.031.033.048.049l0,0c.285.278.584.553.893.825.1.085.2.168.295.252.144.124.284.249.433.371.085.069.176.137.262.206s.2.161.306.24c.266.207.539.41.82.612.076.055.149.111.226.165l.076.055c.327.229.666.454,1.012.677.091.059.186.117.279.175.166.1.328.21.5.313.206.124.414.247.626.37L219.461,320.037q.63.363,1.282.706l.04.02c.583.305,1.182.6,1.789.875.063.029.122.062.185.09.1.045.2.083.3.127q.775.345,1.573.664c.1.038.188.082.285.12.041.016.084.029.125.045q1.017.393,2.067.743c.058.019.114.042.172.062.251.082.5.159.758.238.148.046.295.094.444.139q.729.221,1.47.421l.023.006c.15.04.3.076.454.115.385.1.769.2,1.159.291.205.048.414.091.621.137.3.068.6.139.909.2l.092.017c.619.126,1.242.244,1.87.35.129.022.26.04.389.061.5.082,1,.159,1.509.228.065.009.129.021.194.03.136.018.274.03.411.047.492.062.986.12,1.482.17q.335.035.669.066c.528.048,1.057.088,1.587.123.163.011.325.025.488.034q1.029.06,2.061.086c.159,0,.319,0,.479.006q.8.015,1.608.009c.225,0,.45,0,.675-.009q.752-.013,1.5-.045c.2-.009.4-.015.6-.025.688-.036,1.374-.079,2.058-.137.061,0,.121-.012.182-.018q.936-.081,1.864-.192c.211-.025.422-.053.632-.08q.728-.093,1.449-.2c.215-.033.429-.066.642-.1q.846-.14,1.681-.3c.106-.021.214-.039.32-.06q.986-.2,1.954-.433c.178-.042.353-.089.53-.133.476-.12.948-.244,1.417-.375l.621-.178q.709-.21,1.406-.438c.16-.052.322-.1.482-.156q.918-.31,1.81-.654c.12-.046.235-.1.354-.143q.716-.284,1.413-.588c.186-.081.369-.165.553-.249q.616-.281,1.216-.579c.169-.084.339-.166.5-.252.549-.283,1.09-.574,1.616-.879L478.7,199.592c7.11-4.131,10.668-9.537,10.684-14.951l.121-42.8C489.486,147.25,485.927,152.656,478.818,156.787Z"/><path class="c" d="M287.533,74.413,136.248,162.854c-.3.175-.616.333-.942.483-.1.045-.2.086-.3.129-.24.1-.485.2-.736.286-.111.039-.222.079-.335.115-.292.095-.59.18-.894.257-.066.017-.129.037-.2.053-.369.089-.747.163-1.129.226-.1.018-.209.03-.313.045-.287.042-.576.078-.868.106-.127.012-.255.023-.383.032-.3.022-.594.036-.892.043-.1,0-.2.008-.307.009q-.592,0-1.183-.028c-.08-.005-.159-.014-.239-.02q-.474-.033-.944-.091c-.133-.016-.265-.035-.4-.055-.232-.034-.461-.073-.69-.117-.144-.027-.289-.054-.432-.086s-.289-.067-.432-.1c-.174-.043-.346-.088-.517-.137-.106-.031-.212-.062-.317-.095-.2-.063-.4-.131-.6-.2-.068-.025-.138-.048-.2-.074q-.387-.148-.755-.318c-.05-.023-.1-.049-.149-.073-.238-.114-.472-.232-.7-.36L80.3,139.29c-.256-.146-.5-.3-.719-.457-.021-.014-.039-.03-.06-.045-.18-.129-.347-.261-.505-.4-.063-.053-.121-.107-.181-.161-.11-.1-.213-.2-.312-.306q-.108-.111-.207-.225a5.329,5.329,0,0,1-.349-.436l-.007-.009a4.784,4.784,0,0,1-.261-.433c-.051-.092-.1-.185-.14-.279s-.086-.194-.122-.291-.065-.19-.093-.285c-.032-.113-.062-.226-.084-.34-.009-.051-.02-.1-.027-.152a3.482,3.482,0,0,1-.042-.529l-.061,21.4a3.493,3.493,0,0,0,.042.529c.008.05.018.1.028.152s.018.122.032.183.036.1.051.156c.028.1.058.191.093.286s.078.194.123.29.089.187.14.28c.023.043.039.087.065.129.06.1.126.2.2.3l.006.01c.074.106.154.211.239.315.034.041.075.08.11.121.066.076.136.15.207.225.046.048.085.1.133.145s.121.107.179.16.119.108.181.162c.035.029.065.06.1.09.127.1.265.205.405.306.02.015.038.03.059.045l.015.011c.16.112.329.222.5.329l.2.117,41.1,23.589c.112.064.225.127.34.187s.236.117.355.174l.15.073c.022.01.042.022.065.032q.3.135.611.258c.026.01.053.018.078.028l.2.073c.13.047.257.1.389.14.069.023.14.041.209.063.1.032.211.064.318.094.078.023.155.049.235.071s.188.043.281.066c.144.036.287.071.432.1.065.014.128.032.193.045s.16.026.24.041q.342.066.69.117c.077.011.152.028.23.039.055.007.111.009.166.016q.47.059.944.091c.08,0,.159.015.239.019.394.023.789.031,1.184.028.1,0,.2-.006.306-.009.3-.007.6-.02.892-.042.129-.01.256-.021.384-.033q.436-.042.868-.1c.1-.016.209-.028.312-.045.382-.063.76-.137,1.13-.226.066-.016.13-.036.2-.053q.454-.115.893-.257c.113-.037.224-.076.335-.115q.377-.133.736-.286c.1-.043.2-.084.3-.13.326-.149.643-.307.943-.482L287.472,95.815a5.968,5.968,0,0,0,2.829-3.109,3.7,3.7,0,0,0,.191-1.151l.06-21.4C290.548,71.7,289.543,73.237,287.533,74.413Z"/><path class="e" d="M231.489,42.247c4.062-2.375,10.745-2.386,14.854-.028l41.1,23.59c4.109,2.358,4.15,6.229.089,8.6L136.248,162.854c-4.058,2.373-10.741,2.384-14.85.026L80.3,139.29c-4.109-2.358-4.151-6.229-.093-8.6Z"/><path class="c" d="M354.748,113.794,203.46,202.237a10.561,10.561,0,0,1-.943.483c-.1.045-.2.086-.3.129q-.36.153-.737.287c-.111.039-.222.078-.334.115-.292.094-.59.179-.892.256-.067.017-.131.038-.2.054-.37.088-.748.163-1.13.226-.1.017-.208.029-.312.044-.287.042-.577.078-.868.106-.128.012-.255.023-.383.032q-.446.033-.894.043c-.1,0-.2.008-.3.009q-.593,0-1.184-.028c-.079,0-.158-.014-.238-.019-.316-.023-.632-.053-.945-.092-.132-.016-.264-.035-.4-.054-.232-.035-.461-.074-.689-.117-.145-.028-.291-.055-.434-.087s-.288-.066-.431-.1c-.174-.043-.347-.088-.518-.137l-.315-.094c-.2-.064-.4-.131-.6-.2-.068-.025-.138-.048-.206-.074-.257-.1-.509-.2-.754-.317-.051-.024-.1-.05-.15-.074-.238-.114-.471-.232-.695-.36l-41.1-23.587c-.256-.147-.5-.3-.719-.457-.021-.015-.04-.032-.061-.047-.179-.128-.346-.26-.5-.4-.063-.053-.122-.107-.181-.161-.11-.1-.213-.2-.312-.306q-.108-.111-.207-.225a5.493,5.493,0,0,1-.349-.435l-.007-.01a4.539,4.539,0,0,1-.26-.432c-.051-.093-.1-.186-.141-.28s-.086-.194-.122-.291-.065-.189-.093-.285c-.032-.113-.062-.226-.084-.34-.009-.05-.02-.1-.027-.152a3.482,3.482,0,0,1-.042-.529l-.061,21.4a3.493,3.493,0,0,0,.042.529c.008.051.018.1.028.152s.018.122.032.183.037.1.052.157c.027.095.057.19.092.284s.078.2.123.292.089.187.14.279c.023.043.039.087.065.129.06.1.126.2.2.3l.006.01c.074.106.154.212.239.316.034.041.076.079.111.12.065.076.135.151.206.225.046.048.085.1.133.145s.121.107.179.16.118.108.181.162c.035.029.065.06.1.09.127.1.263.2.4.3.021.015.04.031.062.046l.014.011c.16.112.329.222.5.329.065.04.132.079.2.117l41.1,23.588c.111.064.225.126.34.186s.236.117.355.174c.05.024.1.05.149.073l.065.032q.3.137.612.258l.078.028c.067.026.136.049.2.073.13.047.257.1.39.14.069.023.14.041.21.063.1.033.209.064.315.094.079.023.156.049.236.071s.189.044.283.067c.143.035.285.07.43.1.065.014.128.032.193.046.08.016.162.025.241.04.228.044.457.083.689.117.078.012.153.029.231.039.055.007.111.009.166.016.313.039.627.069.944.091.08.006.159.015.239.02q.591.033,1.184.028c.1,0,.2-.007.3-.009.3-.008.6-.021.893-.043q.192-.014.384-.033c.291-.027.58-.063.867-.1.1-.015.209-.028.313-.045.382-.063.759-.137,1.129-.226.067-.016.131-.036.2-.053.3-.077.6-.162.892-.257.113-.036.223-.076.334-.115.252-.089.5-.184.737-.286.1-.043.2-.084.3-.129.325-.15.643-.308.942-.483L354.687,135.2c2.008-1.174,3.012-2.715,3.017-4.258l.06-21.4C357.76,111.079,356.756,112.62,354.748,113.794Z"/><path class="e" d="M298.708,81.63c4.058-2.372,10.741-2.384,14.85-.026l41.1,23.588c4.109,2.358,4.151,6.23.093,8.6L203.46,202.237c-4.058,2.373-10.742,2.384-14.851.026l-41.1-23.587c-4.109-2.359-4.151-6.23-.093-8.6Z"/><path d="M144.389,179.462l-8.2,4.8c-.3.175-.617.333-.943.482-.1.046-.2.087-.3.13q-.36.153-.736.286c-.111.039-.222.078-.335.115q-.438.141-.893.257c-.066.017-.13.037-.2.053-.37.089-.748.163-1.13.226-.1.017-.208.029-.312.045q-.432.063-.868.1c-.128.012-.255.023-.384.033-.3.022-.593.035-.892.042-.1,0-.2.009-.306.009-.395,0-.79,0-1.184-.028-.08,0-.159-.014-.239-.019q-.474-.033-.944-.091c-.055-.007-.111-.009-.166-.016l-.082-.014c4.127,2.239,10.645,2.193,14.636-.14l3.465-2.025Z"/><path d="M428.692,167.155l-2.187-1.255-.013,4.425c0,1.542-1.009,3.083-3.016,4.257L272.192,263.023c-.3.175-.618.334-.944.483-.1.045-.2.087-.3.13q-.36.153-.736.286c-.112.039-.222.079-.336.115-.291.1-.588.18-.891.257-.067.017-.131.037-.2.054q-.555.132-1.129.226c-.1.017-.209.029-.313.044-.288.042-.576.078-.868.106-.128.012-.255.023-.383.033q-.446.031-.892.042c-.1,0-.2.009-.308.009-.37,0-.741-.007-1.11-.026,4.127,1.778,10.014,1.586,13.722-.581l151.285-88.442C432.846,173.387,432.8,169.515,428.692,167.155Z"/><path class="c" d="M423.536,153.179,272.252,241.621a10.555,10.555,0,0,1-.943.482c-.1.046-.2.087-.3.13-.239.1-.485.2-.736.286-.111.04-.222.079-.335.116-.291.094-.589.179-.891.256-.067.017-.132.038-.2.054-.37.089-.747.163-1.129.226-.1.017-.209.03-.314.045-.287.042-.576.078-.867.1q-.192.02-.384.033c-.3.022-.593.035-.891.043-.1,0-.2.008-.308.009q-.592,0-1.183-.028c-.08,0-.16-.014-.24-.02-.316-.022-.631-.052-.943-.091-.134-.016-.266-.035-.4-.055q-.348-.051-.688-.116c-.146-.028-.291-.056-.435-.087s-.288-.067-.431-.1c-.174-.044-.347-.089-.518-.138-.106-.03-.212-.062-.316-.094-.2-.064-.4-.131-.6-.2-.068-.025-.137-.048-.2-.074-.257-.1-.509-.2-.754-.318-.052-.023-.1-.049-.152-.074-.237-.114-.471-.232-.694-.36l-41.1-23.587q-.382-.22-.718-.457c-.022-.015-.04-.031-.061-.046-.179-.128-.346-.261-.5-.4-.062-.053-.121-.107-.18-.161q-.165-.15-.313-.305c-.071-.075-.141-.149-.206-.225-.124-.144-.246-.288-.349-.435l-.007-.011a4.77,4.77,0,0,1-.261-.432c-.051-.092-.1-.185-.14-.279s-.086-.194-.122-.291-.066-.19-.093-.285c-.032-.113-.062-.226-.084-.34-.01-.05-.02-.1-.027-.152a3.617,3.617,0,0,1-.043-.529l-.06,21.4a3.469,3.469,0,0,0,.042.528c.007.051.018.1.027.153s.019.122.033.183.036.1.051.157c.028.095.058.19.093.284s.078.195.123.292.089.186.14.279c.023.042.039.086.064.129.061.1.127.2.2.3l.007.01c.074.106.154.211.239.315.033.041.075.08.11.12.066.076.135.151.207.226.046.048.085.1.133.145s.12.106.179.16.118.108.181.161c.035.03.065.061.1.09.128.1.265.205.4.306l.061.046.014.01c.161.113.329.222.506.329q.1.06.2.117l41.1,23.588c.112.064.225.126.341.187s.235.116.353.173l.152.074.065.032q.3.137.612.258l.078.028c.067.026.136.049.2.074.129.047.257.1.39.14.068.022.14.041.209.062.105.033.21.064.316.1.08.023.157.049.237.07s.188.044.281.067c.143.036.286.071.431.1.066.015.129.033.194.046s.161.026.241.041c.228.044.457.082.688.117.078.011.153.028.232.039.055.007.111.009.166.016q.47.058.943.091c.081,0,.16.015.24.019.394.023.788.031,1.183.028.1,0,.2-.006.308-.009q.447-.01.892-.042c.128-.01.255-.021.383-.033.292-.028.58-.064.868-.106.1-.015.209-.027.313-.044q.573-.094,1.129-.226c.068-.017.132-.037.2-.054.3-.077.6-.162.891-.257.114-.036.224-.076.336-.115q.377-.134.736-.286c.1-.043.2-.085.3-.13.326-.149.644-.308.944-.483l151.284-88.441c2.007-1.174,3.012-2.715,3.016-4.257l.061-21.4C426.548,150.465,425.544,152.005,423.536,153.179Z"/><path class="e" d="M367.493,121.013c4.058-2.372,10.742-2.384,14.851-.025l41.1,23.587c4.112,2.36,4.154,6.232.1,8.6L272.252,241.621c-4.061,2.374-10.745,2.386-14.857.025l-41.1-23.587c-4.109-2.358-4.151-6.23-.089-8.6Z"/><path d="M213.177,217.924,203.4,223.64c-.3.175-.617.333-.942.483-.1.045-.2.086-.3.129-.24.1-.485.2-.737.286-.111.039-.221.079-.334.115-.292.095-.589.18-.892.257-.067.017-.131.037-.2.053-.37.089-.747.163-1.129.226-.1.017-.209.03-.313.045-.287.042-.576.078-.867.1q-.192.019-.384.033c-.3.022-.595.035-.893.043-.1,0-.2.008-.3.009q-.593,0-1.184-.028c-.08,0-.159-.014-.239-.02-.178-.012-.354-.033-.531-.051,4.133,2.167,10.554,2.1,14.5-.21l4.513-2.638Z"/><path class="e" d="M478.652,126.677c14.4,8.314,14.476,21.794.166,30.11L271.564,277.23c-14.309,8.315-37.581,8.316-51.982,0L10.97,156.789C-3.429,148.476-3.5,135,10.8,126.68L218.057,6.237c14.31-8.316,37.583-8.315,51.982,0ZM264.1,270.779,467.655,152.488c10.179-5.916,10.125-15.594-.121-21.509L262.65,12.689c-10.246-5.916-26.955-5.916-37.134,0L21.964,130.98c-10.177,5.914-10.122,15.593.124,21.508l204.884,118.29c10.246,5.915,26.955,5.915,37.131,0"/><polygon points="77.145 150.396 77.17 141.633 40.349 163.031 47.9 167.391 77.145 150.396"/><path class="e" d="M478.652,127.2c14.4,8.314,14.476,21.794.166,30.11L271.564,277.755c-14.309,8.315-37.581,8.316-51.982,0L10.97,157.314C-3.429,149-3.5,135.52,10.8,127.205L218.057,6.762c14.31-8.316,37.583-8.315,51.982,0ZM264.1,271.3,467.655,153.013c10.179-5.915,10.125-15.594-.121-21.509L262.65,13.214C252.4,7.3,235.7,7.3,225.516,13.214L21.964,131.505c-10.177,5.914-10.122,15.593.124,21.509L226.972,271.3c10.246,5.916,26.955,5.915,37.131,0"/><g class="f"><g class="g"><polyline class="e" points="113.45 228.396 111.324 227.168 111.306 233.551 105.215 230.034 105.233 223.652 103.113 222.428 103.071 237.306 105.191 238.53 105.209 232.023 111.3 235.539 111.282 242.047 113.408 243.274 113.45 228.396"/><path class="e" d="M122.09,246.354A5.59,5.59,0,0,1,120.572,245a7.467,7.467,0,0,1-1.145-2.065,6.772,6.772,0,0,1-.435-2.4,3.216,3.216,0,0,1,.447-1.852,1.465,1.465,0,0,1,1.146-.69,2.677,2.677,0,0,1,1.527.419,5.443,5.443,0,0,1,1.525,1.351,7.412,7.412,0,0,1,1.145,2.035,6.572,6.572,0,0,1,.429,2.371,3.367,3.367,0,0,1-.441,1.877,1.5,1.5,0,0,1-1.153.716,2.6,2.6,0,0,1-1.527-.412m-.418-10.316a4.047,4.047,0,0,0-2.448-.649,2.318,2.318,0,0,0-1.762,1.114,5.13,5.13,0,0,0-.647,2.779,10.321,10.321,0,0,0,.629,3.545,11.568,11.568,0,0,0,1.737,3.192,8.383,8.383,0,0,0,2.418,2.175,4.15,4.15,0,0,0,2.127.67,2.1,2.1,0,0,0,1.473-.539l0,1.754,2.145,1.238.034-11.8-2.146-1.238L125.222,240a9.953,9.953,0,0,0-1.439-2.191,7.885,7.885,0,0,0-2.111-1.77"/><path class="e" d="M133.591,243.111l-2.12-1.224L131.431,256c0,.44-.091.7-.277.8s-.486.006-.92-.245l-.728-.42-.006,2.054,1.1.634q1.436.829,2.192.487c.506-.23.757-.929.76-2.081l.04-14.108m-1.027-5.282a.957.957,0,0,0-.972-.113.935.935,0,0,0-.393.891,2.625,2.625,0,0,0,.387,1.332,2.669,2.669,0,0,0,.969,1.008.817.817,0,0,0,1.345-.781,2.91,2.91,0,0,0-1.336-2.337"/><path class="e" d="M139.816,246.705l-2.126-1.228-.04,14.108c0,.44-.091.7-.271.8s-.492,0-.926-.248l-.722-.417-.006,2.054,1.1.634c.951.55,1.686.717,2.185.483s.764-.925.767-2.077l.04-14.108m-1.034-5.286a.825.825,0,0,0-1.364.778,2.648,2.648,0,0,0,.393,1.336,2.607,2.607,0,0,0,.963,1,.817.817,0,0,0,1.345-.781,2.915,2.915,0,0,0-1.337-2.337"/></g></g><g class="f"><g class="h"><path class="e" d="M357.886,241.358l-2.126,1.228.027,9.478a5.7,5.7,0,0,1-.765,2.992,5.875,5.875,0,0,1-2.169,2.112,2.282,2.282,0,0,1-2.154.384c-.519-.267-.776-.97-.78-2.1l-.027-9.479-2.119,1.224.026,9.435a4.438,4.438,0,0,0,.68,2.7,2.068,2.068,0,0,0,1.818.832,5.538,5.538,0,0,0,2.543-.844,10.5,10.5,0,0,0,4.392-5.041,9,9,0,0,0,.681-3.487l-.027-9.435"/><path class="e" d="M374.373,234.735a7.779,7.779,0,0,0-2.118,1.854,8.221,8.221,0,0,0-1.451,2.543,1.767,1.767,0,0,0-1.492-.88,4.193,4.193,0,0,0-2.2.674,7.3,7.3,0,0,0-1.717,1.4,8.536,8.536,0,0,0-1.318,1.9l0-1.35-2.12,1.224.034,11.79,2.12-1.224-.019-6.588a5.693,5.693,0,0,1,.7-2.834,4.977,4.977,0,0,1,1.888-1.935c.791-.457,1.418-.539,1.879-.24s.694.974.7,2.03l.018,6.588,2.107-1.216-.018-6.588a5.664,5.664,0,0,1,.689-2.83,4.982,4.982,0,0,1,1.887-1.935q1.2-.692,1.886-.244c.461.3.693.974.7,2.03l.019,6.589,2.107-1.217-.02-6.955a4.363,4.363,0,0,0-.557-2.419,1.823,1.823,0,0,0-1.518-.843,4.263,4.263,0,0,0-2.172.681"/><path class="e" d="M387.806,226.979a6.7,6.7,0,0,0-1.837,1.56,8.3,8.3,0,0,0-1.235,2.117l0-1.71-2.119,1.224.033,11.79,2.12-1.224-.018-6.207a5.7,5.7,0,0,1,.638-2.9,5.038,5.038,0,0,1,1.888-1.817l.543-.313-.008-2.524"/><path class="e" d="M395.675,232.511a2.546,2.546,0,0,1-1.521.393A1.521,1.521,0,0,1,393,232.17a3.484,3.484,0,0,1-.44-1.892,6.556,6.556,0,0,1,.428-2.356,7.288,7.288,0,0,1,1.145-2.014,5.528,5.528,0,0,1,1.525-1.335,2.583,2.583,0,0,1,1.527-.412,1.527,1.527,0,0,1,1.153.7,3.383,3.383,0,0,1,.44,1.87,6.772,6.772,0,0,1-.428,2.385,7.486,7.486,0,0,1-1.145,2.043,5.6,5.6,0,0,1-1.525,1.351m-.475-9.8a8.676,8.676,0,0,0-2.45,2.171,11.342,11.342,0,0,0-1.743,3.145,10.065,10.065,0,0,0-.636,3.513,5.294,5.294,0,0,0,.654,2.811,2.366,2.366,0,0,0,1.749,1.173,3.845,3.845,0,0,0,2.422-.612,8.19,8.19,0,0,0,2.125-1.785,10.124,10.124,0,0,0,1.464-2.242l0,1.754,2.145-1.239-.033-11.79-2.145,1.239,0,1.709a2.142,2.142,0,0,0-1.446-.524,4.207,4.207,0,0,0-2.115.677"/><path class="e" d="M407.109,211.977l-2.126,1.227.045,15.832,2.126-1.227-.019-6.589a5.677,5.677,0,0,1,.689-2.83,4.989,4.989,0,0,1,1.888-1.934c.8-.461,1.424-.544,1.886-.244s.693.974.7,2.03l.019,6.588,2.107-1.216-.02-6.955a4.557,4.557,0,0,0-.538-2.431,1.8,1.8,0,0,0-1.46-.876,3.946,3.946,0,0,0-2.1.637,7.877,7.877,0,0,0-1.819,1.454,8.469,8.469,0,0,0-1.363,1.948l-.015-5.414"/></g></g><g class="f"><g class="i"><polyline class="j" points="107.829 130.421 102.971 133.227 111.731 138.317 116.589 135.512 115.416 134.83 112 136.802 109.323 135.247 112.362 133.492 111.189 132.81 108.15 134.565 105.587 133.076 109.003 131.103 107.829 130.421"/><polyline class="j" points="117.561 126.92 116.054 127.79 116.99 129.975 113.13 129.478 111.495 130.421 117.269 131.166 118.428 134.451 119.935 133.581 118.999 131.395 122.859 131.892 124.494 130.949 118.726 130.208 117.561 126.92"/><path class="j" d="M128.881,127.1a3.783,3.783,0,0,1-1.307.439,5.136,5.136,0,0,1-1.6-.019,4.553,4.553,0,0,1-1.55-.56,2.259,2.259,0,0,1-.95-.892,1.025,1.025,0,0,1-.02-.921,1.793,1.793,0,0,1,.755-.76,3.826,3.826,0,0,1,1.32-.446,4.807,4.807,0,0,1,1.578.008,4.406,4.406,0,0,1,1.531.549,2.366,2.366,0,0,1,.969.9,1.035,1.035,0,0,1,.039.933,1.834,1.834,0,0,1-.768.766m-5.593-3.62a2.831,2.831,0,0,0-1.106,1.014,1.462,1.462,0,0,0-.2,1.047l-1.015-.59-1.443.833,10.225,5.942,1.443-.833-4.3-2.5a7.673,7.673,0,0,0,1.815-.122,5.29,5.29,0,0,0,1.741-.63,2.652,2.652,0,0,0,1.2-1.231,1.6,1.6,0,0,0-.1-1.427,3.677,3.677,0,0,0-1.444-1.334,6.857,6.857,0,0,0-2.273-.826,7.655,7.655,0,0,0-2.437-.048,5.9,5.9,0,0,0-2.111.7"/><path class="j" d="M132.865,121.376a1.266,1.266,0,0,1-.643-1.106,1.4,1.4,0,0,1,.808-1.018,3.953,3.953,0,0,1,1.861-.516,3.375,3.375,0,0,1,1.837.409l-3.863,2.231m-.977-2.861a3.334,3.334,0,0,0-1.381,1.3,1.5,1.5,0,0,0,.03,1.438,3.522,3.522,0,0,0,1.437,1.345,6.877,6.877,0,0,0,2.337.833,7.538,7.538,0,0,0,2.494.015,6.5,6.5,0,0,0,2.245-.774,2.74,2.74,0,0,0,1.44-1.545,1.656,1.656,0,0,0-.417-1.574l-1.558.9q.482.846-.677,1.515a3.911,3.911,0,0,1-1.873.5,4.1,4.1,0,0,1-1.952-.416l5.331-3.078a4.784,4.784,0,0,0-.659-.443,6.464,6.464,0,0,0-2.2-.785,7.286,7.286,0,0,0-2.412,0,6.357,6.357,0,0,0-2.181.767"/><path class="j" d="M141.121,113.185a2.282,2.282,0,0,0-.96.892,1.163,1.163,0,0,0-.018.966l-1-.583-1.443.833,6.933,4.029,1.443-.833-3.654-2.123q-1.056-.614-1.044-1.117c.009-.335.3-.663.859-.988l.37-.214-1.484-.862"/><path class="j" d="M144.893,111.139l-1.443.833L150.383,116l1.443-.833-6.933-4.029m-3.468-1.194a.64.64,0,0,0-.391.534.631.631,0,0,0,.385.535,2.006,2.006,0,0,0,1.846,0,.622.622,0,0,0,.378-.527.631.631,0,0,0-.385-.535,1.8,1.8,0,0,0-.921-.225,1.778,1.778,0,0,0-.912.218"/><path class="j" d="M151.547,110.59a1.264,1.264,0,0,1-.643-1.106,1.39,1.39,0,0,1,.807-1.017,3.945,3.945,0,0,1,1.861-.516,3.355,3.355,0,0,1,1.837.409l-3.862,2.23m-.977-2.861a3.344,3.344,0,0,0-1.382,1.305,1.5,1.5,0,0,0,.03,1.438,3.535,3.535,0,0,0,1.437,1.345,6.871,6.871,0,0,0,2.337.833,7.544,7.544,0,0,0,2.5.015,6.492,6.492,0,0,0,2.244-.774,2.741,2.741,0,0,0,1.441-1.544,1.658,1.658,0,0,0-.418-1.574l-1.557.9q.481.846-.677,1.515a3.915,3.915,0,0,1-1.874.5,4.08,4.08,0,0,1-1.951-.416l5.331-3.078a4.828,4.828,0,0,0-.66-.443,6.459,6.459,0,0,0-2.2-.785,7.26,7.26,0,0,0-2.412,0,6.369,6.369,0,0,0-2.181.766"/><path class="j" d="M159.789,102.406a2.712,2.712,0,0,0-.933.819,1.242,1.242,0,0,0-.241.91l-.793-.46-1.443.833,6.933,4.029,1.443-.833-3.875-2.253q-.933-.541-.949-1.106c-.023-.376.246-.722.782-1.032a3.347,3.347,0,0,1,1.785-.449,3.914,3.914,0,0,1,1.893.56l3.876,2.252,1.43-.826-4.091-2.377a5.876,5.876,0,0,0-4.006-.723,5.667,5.667,0,0,0-1.811.656"/><path class="j" d="M168.313,97.485a3.147,3.147,0,0,0-1.337,1.28,1.514,1.514,0,0,0,.049,1.426,3.523,3.523,0,0,0,1.437,1.346,6.968,6.968,0,0,0,2.324.84,7.464,7.464,0,0,0,2.463.033,6.308,6.308,0,0,0,2.225-.763,2.732,2.732,0,0,0,1.447-1.563,1.674,1.674,0,0,0-.531-1.633l-1.558.9c.455.582.267,1.109-.569,1.592a3.6,3.6,0,0,1-2.039.45,5.045,5.045,0,0,1-2.281-.712c-.742-.431-1.147-.873-1.214-1.319s.195-.833.789-1.176a3.428,3.428,0,0,1,1.345-.439,3.923,3.923,0,0,1,1.412.118l1.558-.9a6.766,6.766,0,0,0-2.83-.343,6.5,6.5,0,0,0-2.69.862"/><path class="j" d="M177.839,95.41A1.244,1.244,0,0,1,177.2,94.3a1.369,1.369,0,0,1,.8-1.014,3.956,3.956,0,0,1,1.861-.516,3.362,3.362,0,0,1,1.837.409l-3.862,2.23m-.977-2.86a3.332,3.332,0,0,0-1.382,1.305,1.517,1.517,0,0,0,.03,1.437,3.536,3.536,0,0,0,1.437,1.346,6.914,6.914,0,0,0,2.337.833,7.767,7.767,0,0,0,2.5.014,6.472,6.472,0,0,0,2.244-.774,2.729,2.729,0,0,0,1.441-1.544,1.641,1.641,0,0,0-.418-1.574l-1.557.9q.49.841-.677,1.515a3.853,3.853,0,0,1-1.868.5,4.052,4.052,0,0,1-1.957-.413l5.337-3.082a5.773,5.773,0,0,0-.659-.442,6.469,6.469,0,0,0-2.21-.781,7.305,7.305,0,0,0-2.406-.008,6.434,6.434,0,0,0-2.187.771"/><path class="j" d="M191.591,90.9a3.837,3.837,0,0,1-1.313.435,5.047,5.047,0,0,1-1.61-.026,4.623,4.623,0,0,1-1.563-.561,2.221,2.221,0,0,1-.937-.892,1,1,0,0,1-.013-.91,1.778,1.778,0,0,1,.767-.759,3.748,3.748,0,0,1,1.314-.435,4.966,4.966,0,0,1,1.584.018,4.493,4.493,0,0,1,1.544.549,2.321,2.321,0,0,1,.956.9,1.049,1.049,0,0,1,.033.922,1.781,1.781,0,0,1-.762.756m-4.607-6.813-1.456.841,3.343,1.943a6.722,6.722,0,0,0-1.847.154,5.738,5.738,0,0,0-1.639.609,2.8,2.8,0,0,0-1.235,1.227,1.552,1.552,0,0,0,.069,1.416,3.43,3.43,0,0,0,1.405,1.327,7.015,7.015,0,0,0,2.312.833,7.74,7.74,0,0,0,2.469.059,5.768,5.768,0,0,0,2.129-.693,2.811,2.811,0,0,0,1.107-1.021,1.315,1.315,0,0,0,.152-1.051l1.047.608,1.455-.84-9.311-5.412"/><path class="j" d="M198.416,78a4.067,4.067,0,0,0-1.69,1.637,2.122,2.122,0,0,0-.042,1.868,3.912,3.912,0,0,0,1.7,1.685,8.1,8.1,0,0,0,2.9.992,10.255,10.255,0,0,0,3.22-.015,8.193,8.193,0,0,0,2.844-.973,3.86,3.86,0,0,0,1.581-1.508,2.084,2.084,0,0,0,.168-1.677,3.051,3.051,0,0,0-1.15-1.511l-1.116-.649-4.852,2.8,1.141.664,3.308-1.91a1.791,1.791,0,0,1,.876,1.552c-.048.535-.471,1.029-1.256,1.482a5.569,5.569,0,0,1-1.945.675,6.629,6.629,0,0,1-2.189-.03,6.207,6.207,0,0,1-2.051-.748,3.166,3.166,0,0,1-1.273-1.183,1.351,1.351,0,0,1-.037-1.265,2.725,2.725,0,0,1,1.164-1.128,5.144,5.144,0,0,1,1.741-.615,5.562,5.562,0,0,1,1.941.025l1.737-1a9.385,9.385,0,0,0-3.537-.214A8.553,8.553,0,0,0,198.416,78"/><path class="j" d="M210.426,73.171a2.288,2.288,0,0,0-.96.892,1.167,1.167,0,0,0-.018.966l-1-.582L207,75.28l6.933,4.029,1.443-.833-3.653-2.123q-1.058-.615-1.044-1.117c.008-.336.3-.664.858-.988l.37-.214-1.484-.863"/><path class="j" d="M221.58,73.581a3.9,3.9,0,0,1-2.059.482,4.708,4.708,0,0,1-2.306-.674,2.514,2.514,0,0,1-1-.9.944.944,0,0,1-.033-.892,1.837,1.837,0,0,1,.768-.752,3.889,3.889,0,0,1,1.307-.446,4.833,4.833,0,0,1,1.559.011,4.67,4.67,0,0,1,1.562.575,2.376,2.376,0,0,1,.988.922,1.016,1.016,0,0,1,0,.918,2,2,0,0,1-.787.756m-5.848-3.473a3.374,3.374,0,0,0-1.376,1.3,1.619,1.619,0,0,0-.014,1.471,3.266,3.266,0,0,0,1.4,1.36,6.788,6.788,0,0,0,2.344.83,7.84,7.84,0,0,0,2.507.007,6.539,6.539,0,0,0,2.238-.77,3.419,3.419,0,0,0,1.382-1.32,1.64,1.64,0,0,0,.047-1.489,3.231,3.231,0,0,0-1.4-1.368,6.679,6.679,0,0,0-2.337-.818,7.921,7.921,0,0,0-2.539,0,6.752,6.752,0,0,0-2.251.792"/><path class="j" d="M228.041,63.134l-1.443.833,3.863,2.245c.621.361.937.73.954,1.1s-.252.719-.794,1.032a3.367,3.367,0,0,1-1.772.45,3.861,3.861,0,0,1-1.893-.56l-3.863-2.245-1.431.825,4.073,2.367a5.752,5.752,0,0,0,1.981.722,5.977,5.977,0,0,0,2.037-.007,5.55,5.55,0,0,0,1.817-.652,2.649,2.649,0,0,0,.921-.819,1.205,1.205,0,0,0,.222-.907l.818.476,1.443-.833-6.933-4.029"/><path class="j" d="M240.185,62.839a3.783,3.783,0,0,1-1.307.439,5.081,5.081,0,0,1-1.6-.019,4.577,4.577,0,0,1-1.549-.56,2.265,2.265,0,0,1-.95-.892,1.006,1.006,0,0,1-.02-.922,1.791,1.791,0,0,1,.755-.759,3.812,3.812,0,0,1,1.32-.446,4.834,4.834,0,0,1,1.578.007,4.428,4.428,0,0,1,1.531.55,2.349,2.349,0,0,1,.968.9,1.03,1.03,0,0,1,.04.932,1.83,1.83,0,0,1-.768.767m-5.593-3.62a2.842,2.842,0,0,0-1.107,1.014,1.466,1.466,0,0,0-.2,1.047l-1.015-.59-1.443.833,10.225,5.942,1.443-.833-4.3-2.5a7.852,7.852,0,0,0,1.808-.118,5.368,5.368,0,0,0,1.748-.634,2.652,2.652,0,0,0,1.2-1.231,1.6,1.6,0,0,0-.1-1.427,3.677,3.677,0,0,0-1.444-1.334,6.857,6.857,0,0,0-2.273-.826,7.661,7.661,0,0,0-2.438-.048,5.9,5.9,0,0,0-2.11.7"/><polyline class="j" points="120.992 140.334 119.549 141.167 128.289 146.246 132.708 143.696 131.553 143.025 128.578 144.742 120.992 140.334"/><path class="j" d="M131.738,139.523a1.288,1.288,0,0,1-.649-1.11,1.42,1.42,0,0,1,.814-1.013,3.987,3.987,0,0,1,1.855-.52,3.366,3.366,0,0,1,1.843.413l-3.863,2.23m-.983-2.864a3.288,3.288,0,0,0-1.375,1.308,1.518,1.518,0,0,0,.017,1.438,3.621,3.621,0,0,0,1.45,1.345,6.816,6.816,0,0,0,2.324.833,7.624,7.624,0,0,0,2.508.015,6.441,6.441,0,0,0,2.238-.778,2.787,2.787,0,0,0,1.447-1.54,1.672,1.672,0,0,0-.424-1.571l-1.558.9c.328.56.1,1.065-.67,1.511a3.926,3.926,0,0,1-1.881.5,4.1,4.1,0,0,1-1.951-.417l5.331-3.078a5.655,5.655,0,0,0-.653-.439,6.5,6.5,0,0,0-2.21-.788,7.3,7.3,0,0,0-2.406,0,6.383,6.383,0,0,0-2.187.763"/><path class="j" d="M145.484,135.011a3.718,3.718,0,0,1-1.319.431,5.231,5.231,0,0,1-1.61-.026,4.57,4.57,0,0,1-1.55-.56,2.247,2.247,0,0,1-.95-.892,1.047,1.047,0,0,1-.007-.914,1.837,1.837,0,0,1,.768-.752,3.739,3.739,0,0,1,1.313-.442,5.212,5.212,0,0,1,1.585.018,4.481,4.481,0,0,1,1.543.557,2.3,2.3,0,0,1,.956.895,1.029,1.029,0,0,1,.033.922,1.782,1.782,0,0,1-.762.763m-6.218-3.266a2.74,2.74,0,0,0-1.216,1.224,1.588,1.588,0,0,0,.056,1.415,3.533,3.533,0,0,0,1.418,1.327,7.028,7.028,0,0,0,2.3.833,7.966,7.966,0,0,0,2.475.063,5.708,5.708,0,0,0,2.1-.686,2.882,2.882,0,0,0,1.119-1.021,1.447,1.447,0,0,0,.178-1.05l1.028.6,1.462-.844-6.933-4.029-1.462.844L142.8,131a7,7,0,0,0-1.776.1,5.353,5.353,0,0,0-1.76.641"/><path class="j" d="M154.959,129.541a3.723,3.723,0,0,1-1.32.431,5.041,5.041,0,0,1-1.609-.026,4.613,4.613,0,0,1-1.55-.56,2.247,2.247,0,0,1-.95-.892,1.045,1.045,0,0,1-.014-.911,1.875,1.875,0,0,1,.775-.755,3.778,3.778,0,0,1,1.313-.443,5.213,5.213,0,0,1,1.585.019,4.5,4.5,0,0,1,1.543.556,2.3,2.3,0,0,1,.956.9,1.029,1.029,0,0,1,.033.922,1.8,1.8,0,0,1-.762.763m-4.613-6.816-1.456.84,3.349,1.947a6.459,6.459,0,0,0-1.84.151,5.848,5.848,0,0,0-1.652.608,2.8,2.8,0,0,0-1.228,1.231,1.6,1.6,0,0,0,.062,1.412A3.461,3.461,0,0,0,149,130.241a6.874,6.874,0,0,0,2.3.833,8,8,0,0,0,2.475.063,5.839,5.839,0,0,0,2.123-.7,2.862,2.862,0,0,0,1.119-1.021,1.357,1.357,0,0,0,.146-1.047l1.041.6,1.455-.841-9.311-5.411"/><path class="j" d="M159.39,123.558a1.254,1.254,0,0,1-.649-1.11,1.4,1.4,0,0,1,.808-1.01,3.985,3.985,0,0,1,1.854-.519,3.437,3.437,0,0,1,1.85.409l-3.863,2.23M158.4,120.7a3.33,3.33,0,0,0-1.376,1.309,1.511,1.511,0,0,0,.024,1.434,3.542,3.542,0,0,0,1.443,1.349,6.877,6.877,0,0,0,2.331.83,7.722,7.722,0,0,0,2.5.018,6.465,6.465,0,0,0,2.238-.778,2.772,2.772,0,0,0,1.447-1.541,1.654,1.654,0,0,0-.417-1.574l-1.558.9q.492.84-.677,1.515a3.9,3.9,0,0,1-1.874.494,4.031,4.031,0,0,1-1.951-.417l5.331-3.078a5.533,5.533,0,0,0-.653-.438,6.529,6.529,0,0,0-2.216-.786,7.405,7.405,0,0,0-2.4,0,6.459,6.459,0,0,0-2.193.766"/><path class="j" d="M167.633,115.367a2.261,2.261,0,0,0-.947.892,1.1,1.1,0,0,0-.018.966l-1.008-.586-1.443.833,6.933,4.029,1.443-.833-3.648-2.12c-.7-.409-1.052-.781-1.05-1.113s.29-.667.859-1l.363-.21-1.484-.863"/><path class="j" d="M170.084,108.5l-1.494.862a4.155,4.155,0,0,0,1.026,3.038,11.385,11.385,0,0,0,3.319,2.765,18.9,18.9,0,0,0,4.585,1.887,17.824,17.824,0,0,0,4.909.649l1.494-.863-.14-.081a20.782,20.782,0,0,1-5.093-.66,17.021,17.021,0,0,1-4.356-1.74,10.2,10.2,0,0,1-3.1-2.654,4.511,4.511,0,0,1-1.007-3.122l-.139-.081"/><polyline class="j" points="184.544 103.641 182.999 104.534 186.779 110.295 176.832 108.094 175.274 108.994 184.015 114.073 185.458 113.24 179.47 109.761 188.158 111.681 189.161 111.102 185.854 106.074 191.842 109.554 193.285 108.721 184.544 103.641"/><path class="j" d="M195.463,99.432l-1.449.837,3.863,2.245c.621.361.944.726.955,1.1s-.246.722-.783,1.032a3.352,3.352,0,0,1-1.784.45,3.862,3.862,0,0,1-1.893-.561l-3.863-2.245-1.43.826,4.078,2.37a5.8,5.8,0,0,0,1.982.723,6,6,0,0,0,2.036-.008,5.643,5.643,0,0,0,1.811-.656,2.7,2.7,0,0,0,.928-.822,1.158,1.158,0,0,0,.215-.9l.818.476,1.449-.837-6.933-4.029"/><path class="j" d="M198.207,95.849l-1.456.84,1.726,1-.824.476,1.174.681.823-.475,3.838,2.23a3.677,3.677,0,0,0,1.989.557,4.216,4.216,0,0,0,1.944-.6l1.143-.66-1.193-.693-.887.512a1.671,1.671,0,0,1-.8.262,1.376,1.376,0,0,1-.743-.217l-3.838-2.231,1.7-.98-1.173-.682-1.7.981-1.725-1"/><path class="j" d="M212.766,96.166a3.723,3.723,0,0,1-1.32.431,5.018,5.018,0,0,1-1.61-.026,4.625,4.625,0,0,1-1.556-.556,2.229,2.229,0,0,1-.943-.9,1.039,1.039,0,0,1-.014-.91,1.849,1.849,0,0,1,.774-.756,3.731,3.731,0,0,1,1.307-.439,5.087,5.087,0,0,1,1.585.019,4.51,4.51,0,0,1,1.55.553,2.285,2.285,0,0,1,.949.9,1.008,1.008,0,0,1,.033.922,1.761,1.761,0,0,1-.755.759M206.541,92.9a2.777,2.777,0,0,0-1.216,1.223,1.583,1.583,0,0,0,.062,1.412A3.453,3.453,0,0,0,206.8,96.87a6.938,6.938,0,0,0,2.305.829,7.837,7.837,0,0,0,2.469.067,5.727,5.727,0,0,0,2.1-.686,2.873,2.873,0,0,0,1.12-1.021,1.467,1.467,0,0,0,.184-1.054l1.027.6,1.456-.84-6.933-4.03-1.456.841,1.009.586a7.11,7.11,0,0,0-1.783.1,5.378,5.378,0,0,0-1.76.642"/><polyline class="j" points="222.694 83.71 221.27 84.532 225.377 88.591 218.41 86.184 216.903 87.054 220.997 91.149 213.966 88.749 212.497 89.597 221.608 92.369 223.127 91.492 219.413 87.706 225.936 89.87 227.456 88.993 222.694 83.71"/><path class="j" d="M233.573,84.153a3.711,3.711,0,0,1-1.319.431,5.047,5.047,0,0,1-1.61-.026,4.613,4.613,0,0,1-1.55-.56,2.244,2.244,0,0,1-.949-.892,1.038,1.038,0,0,1-.014-.911,1.878,1.878,0,0,1,.774-.755A3.778,3.778,0,0,1,230.218,81a5.213,5.213,0,0,1,1.585.019,4.5,4.5,0,0,1,1.543.556,2.3,2.3,0,0,1,.956.9,1.029,1.029,0,0,1,.033.922,1.8,1.8,0,0,1-.762.763m-6.224-3.263a2.738,2.738,0,0,0-1.21,1.22,1.59,1.59,0,0,0,.056,1.416,3.461,3.461,0,0,0,1.418,1.327,6.89,6.89,0,0,0,2.3.833,8,8,0,0,0,2.475.063,5.73,5.73,0,0,0,2.1-.682,2.937,2.937,0,0,0,1.126-1.025,1.451,1.451,0,0,0,.177-1.05l1.028.6,1.456-.841-6.933-4.029-1.456.841,1.008.586a7.048,7.048,0,0,0-1.776.1,5.457,5.457,0,0,0-1.766.645"/><polyline class="j" points="233.193 74.893 231.75 75.726 241.062 81.137 242.505 80.304 233.193 74.893"/><polyline class="j" points="237.426 72.449 235.977 73.286 245.288 78.697 246.738 77.86 237.426 72.449"/><path class="j" d="M244.031,71.391l-1.443.833,6.933,4.029,1.443-.833-6.933-4.029M240.57,70.2a.663.663,0,0,0-.4.531.644.644,0,0,0,.392.538,1.98,1.98,0,0,0,1.839,0,.556.556,0,0,0,0-1.058,1.977,1.977,0,0,0-1.832-.008"/><path class="j" d="M242.882,66.47l-1.494.863.139.081a19.735,19.735,0,0,1,5.387.593,17.748,17.748,0,0,1,4.578,1.8,9.913,9.913,0,0,1,2.983,2.532A4.94,4.94,0,0,1,255.6,75.3l.139.081,1.494-.863a4.26,4.26,0,0,0-1.1-2.849,11.591,11.591,0,0,0-3.25-2.658,19.314,19.314,0,0,0-4.756-1.935,18.165,18.165,0,0,0-5.246-.6"/></g></g><g class="f"><g class="k"><polyline class="j" points="192.78 159.513 187.915 162.322 196.675 167.413 201.54 164.604 200.373 163.925 196.957 165.897 194.274 164.338 197.313 162.584 196.146 161.905 193.107 163.66 190.538 162.167 193.954 160.195 192.78 159.513"/><path class="j" d="M200.092,157.275a3.1,3.1,0,0,0-1.331,1.283,1.545,1.545,0,0,0,.043,1.423,3.536,3.536,0,0,0,1.437,1.346,6.955,6.955,0,0,0,2.325.84,7.547,7.547,0,0,0,2.462.033,6.325,6.325,0,0,0,2.226-.763,2.767,2.767,0,0,0,1.453-1.559,1.7,1.7,0,0,0-.538-1.637l-1.558.9c.461.578.268,1.109-.569,1.592a3.6,3.6,0,0,1-2.039.45,5.02,5.02,0,0,1-2.274-.715c-.742-.432-1.153-.87-1.215-1.313s.2-.833.79-1.175a3.386,3.386,0,0,1,1.339-.443,4,4,0,0,1,1.412.118l1.558-.9a6.743,6.743,0,0,0-2.83-.343,6.575,6.575,0,0,0-2.691.862"/><path class="j" d="M214.579,155.76a3.894,3.894,0,0,1-2.059.483,4.708,4.708,0,0,1-2.306-.674,2.514,2.514,0,0,1-1-.9.944.944,0,0,1-.033-.892,1.848,1.848,0,0,1,.774-.748,3.835,3.835,0,0,1,1.3-.45,4.833,4.833,0,0,1,1.559.011,4.67,4.67,0,0,1,1.562.575,2.376,2.376,0,0,1,.988.922,1.016,1.016,0,0,1,0,.918,1.918,1.918,0,0,1-.787.755m-5.848-3.472a3.3,3.3,0,0,0-1.37,1.3,1.593,1.593,0,0,0-.02,1.467,3.289,3.289,0,0,0,1.405,1.357,6.752,6.752,0,0,0,2.337.833,7.755,7.755,0,0,0,2.507.007,6.539,6.539,0,0,0,2.238-.77,3.394,3.394,0,0,0,1.382-1.32,1.619,1.619,0,0,0,.047-1.489,3.209,3.209,0,0,0-1.4-1.368,6.679,6.679,0,0,0-2.337-.818,7.77,7.77,0,0,0-2.533.007,6.67,6.67,0,0,0-2.257.789"/><path class="j" d="M218.129,146.862a2.824,2.824,0,0,0-.934.818,1.234,1.234,0,0,0-.234.907l-.793-.461-1.449.837,6.933,4.029,1.449-.837-3.875-2.252c-.622-.361-.945-.726-.955-1.1s.252-.719.788-1.029a3.379,3.379,0,0,1,1.778-.453,3.867,3.867,0,0,1,1.894.56l3.875,2.253,1.431-.826-4.092-2.378a5.938,5.938,0,0,0-1.975-.726,5.826,5.826,0,0,0-2.024.008,5.55,5.55,0,0,0-1.817.652"/><path class="j" d="M232.654,145.325a3.906,3.906,0,0,1-2.059.483,4.673,4.673,0,0,1-2.312-.671,2.5,2.5,0,0,1-.994-.9.944.944,0,0,1-.033-.892,1.843,1.843,0,0,1,.774-.749,3.782,3.782,0,0,1,1.294-.446,4.642,4.642,0,0,1,1.559.011,4.561,4.561,0,0,1,1.569.572,2.3,2.3,0,0,1,.981.925,1.009,1.009,0,0,1,.008.914,1.926,1.926,0,0,1-.787.756m-5.848-3.473a3.3,3.3,0,0,0-1.37,1.305,1.576,1.576,0,0,0-.02,1.467,3.268,3.268,0,0,0,1.4,1.361,6.769,6.769,0,0,0,2.344.829,7.644,7.644,0,0,0,2.507.008,6.508,6.508,0,0,0,2.238-.771,3.374,3.374,0,0,0,1.376-1.316,1.61,1.61,0,0,0,.053-1.493,3.207,3.207,0,0,0-1.4-1.367,6.681,6.681,0,0,0-2.337-.819,7.751,7.751,0,0,0-2.539.011,6.614,6.614,0,0,0-2.251.785"/><path class="j" d="M241.126,133.584a2.584,2.584,0,0,0-1.068,1.051,1.171,1.171,0,0,0,.006,1.15,5.735,5.735,0,0,0-2.024-.007,5.594,5.594,0,0,0-1.849.656,2.75,2.75,0,0,0-.927.814,1.225,1.225,0,0,0-.234.907l-.793-.461-1.443.834,6.933,4.029,1.443-.833-3.876-2.253q-.933-.541-.948-1.106t.788-1.028a3.353,3.353,0,0,1,1.772-.45,3.884,3.884,0,0,1,1.9.557l3.875,2.252,1.43-.826-3.875-2.252c-.622-.361-.938-.73-.955-1.1s.252-.719.795-1.032a3.365,3.365,0,0,1,1.772-.45,3.87,3.87,0,0,1,1.9.557l3.876,2.252,1.43-.826-4.091-2.377a5.857,5.857,0,0,0-1.988-.719,5.788,5.788,0,0,0-2.03.011,5.556,5.556,0,0,0-1.818.652"/><path class="j" d="M248.283,129.585l-1.443.833,6.933,4.029,1.443-.833-6.933-4.029m-3.462-1.191c-.261.151-.4.325-.4.531a.63.63,0,0,0,.385.534,1.811,1.811,0,0,0,.928.229,1.848,1.848,0,0,0,.918-.228.634.634,0,0,0,.384-.524.643.643,0,0,0-.391-.538,1.8,1.8,0,0,0-.922-.225,1.74,1.74,0,0,0-.905.221"/><path class="j" d="M253.9,126.212a3.075,3.075,0,0,0-1.331,1.283,1.524,1.524,0,0,0,.043,1.423,3.522,3.522,0,0,0,1.437,1.345,6.93,6.93,0,0,0,2.324.841,7.5,7.5,0,0,0,2.463.033,6.328,6.328,0,0,0,2.225-.763,2.783,2.783,0,0,0,1.454-1.56,1.716,1.716,0,0,0-.538-1.636l-1.558.9c.455.583.267,1.11-.569,1.593a3.6,3.6,0,0,1-2.039.449,5.031,5.031,0,0,1-2.281-.711c-.742-.431-1.147-.874-1.208-1.316s.2-.833.789-1.176a3.39,3.39,0,0,1,1.339-.442,3.957,3.957,0,0,1,1.412.118l1.558-.9a6.835,6.835,0,0,0-2.83-.343,6.577,6.577,0,0,0-2.69.863"/><path class="j" d="M272.647,122.235a3.652,3.652,0,0,1-1.307.431,5.047,5.047,0,0,1-1.61-.026,4.646,4.646,0,0,1-1.556-.556,2.235,2.235,0,0,1-.943-.9,1,1,0,0,1-.014-.911,1.848,1.848,0,0,1,.768-.752,3.727,3.727,0,0,1,1.313-.442,5.12,5.12,0,0,1,1.585.018,4.521,4.521,0,0,1,1.543.55,2.3,2.3,0,0,1,.956.9,1.027,1.027,0,0,1,.033.921,1.782,1.782,0,0,1-.768.76m-6.212-3.263a2.774,2.774,0,0,0-1.216,1.224,1.551,1.551,0,0,0,.056,1.416,3.54,3.54,0,0,0,1.418,1.327,7.084,7.084,0,0,0,2.3.833,7.87,7.87,0,0,0,2.469.059,5.664,5.664,0,0,0,2.11-.682,2.81,2.81,0,0,0,1.113-1.025,1.426,1.426,0,0,0,.184-1.054l1.034.6,1.456-.841-6.933-4.029-1.456.841,1.009.586a6.835,6.835,0,0,0-1.783.1,5.376,5.376,0,0,0-1.76.641"/><path class="j" d="M276.619,113.093a2.813,2.813,0,0,0-.934.818,1.242,1.242,0,0,0-.24.911l-.793-.461-1.443.833,6.933,4.029,1.443-.833-3.876-2.252q-.933-.543-.948-1.106t.788-1.029a3.332,3.332,0,0,1,1.772-.449,3.883,3.883,0,0,1,1.9.556l3.875,2.253,1.43-.826-4.091-2.378a5.828,5.828,0,0,0-1.981-.722,5.723,5.723,0,0,0-2.018,0,5.552,5.552,0,0,0-1.817.653"/><path class="j" d="M291.233,111.5a3.691,3.691,0,0,1-1.314.435,5.012,5.012,0,0,1-1.609-.026,4.631,4.631,0,0,1-1.556-.556,2.226,2.226,0,0,1-.944-.9,1.022,1.022,0,0,1-.014-.911,1.851,1.851,0,0,1,.775-.755,3.725,3.725,0,0,1,1.307-.439,5.084,5.084,0,0,1,1.584.019,4.511,4.511,0,0,1,1.544.549,2.292,2.292,0,0,1,.955.9,1.021,1.021,0,0,1,.033.921,1.767,1.767,0,0,1-.761.756m-4.607-6.812-1.456.84,3.349,1.947a6.381,6.381,0,0,0-1.846.155,5.786,5.786,0,0,0-1.646.6,2.79,2.79,0,0,0-1.228,1.231,1.522,1.522,0,0,0,.062,1.412,3.456,3.456,0,0,0,1.411,1.331,6.962,6.962,0,0,0,2.306.829,7.6,7.6,0,0,0,2.469.059,5.75,5.75,0,0,0,2.129-.693,2.736,2.736,0,0,0,1.107-1.021,1.317,1.317,0,0,0,.152-1.05l1.047.608,1.455-.841-9.311-5.411"/><polyline class="j" points="195.65 175.367 194.207 176.2 202.955 181.284 207.373 178.733 206.212 178.058 203.237 179.776 195.65 175.367"/><path class="j" d="M208.848,169.849l-1.443.833,3.863,2.245c.616.358.932.726.955,1.1s-.252.719-.8,1.032a3.365,3.365,0,0,1-1.772.45,3.909,3.909,0,0,1-1.893-.56l-3.863-2.245-1.43.826,4.072,2.366a5.818,5.818,0,0,0,1.982.723,6,6,0,0,0,2.036-.008,5.515,5.515,0,0,0,1.811-.656,2.657,2.657,0,0,0,.928-.814,1.179,1.179,0,0,0,.221-.907l.818.475,1.443-.833-6.933-4.029"/><polyline class="j" points="216.88 165.212 215.373 166.082 216.303 168.264 212.449 167.77 210.815 168.714 216.589 169.458 217.748 172.743 219.255 171.873 218.319 169.687 222.179 170.185 223.813 169.241 218.045 168.5 216.88 165.212"/><path class="j" d="M225.161,160.431l-1.443.833,3.863,2.245c.615.358.932.726.955,1.1s-.252.719-.795,1.032a3.365,3.365,0,0,1-1.772.45,3.909,3.909,0,0,1-1.893-.56l-3.863-2.245-1.43.825,4.072,2.367a5.818,5.818,0,0,0,1.982.723,6,6,0,0,0,2.036-.008,5.515,5.515,0,0,0,1.811-.656,2.665,2.665,0,0,0,.927-.815,1.174,1.174,0,0,0,.222-.906l.818.475,1.443-.833-6.933-4.029"/><path class="j" d="M231.368,156.715a2.281,2.281,0,0,0-.954.889,1.118,1.118,0,0,0-.018.965l-1-.582-1.443.833,6.933,4.029,1.443-.833-3.653-2.123c-.705-.409-1.053-.782-1.051-1.113s.3-.664.865-.992l.364-.21-1.484-.863"/><polyline class="j" points="239.98 151.875 238.486 152.738 241.733 156.984 234.483 155.049 232.874 155.978 242.444 158.352 244.395 161.128 245.889 160.265 239.98 151.875"/><path class="j" d="M249.8,148.772l-2.861-1.663,1.6-.921a2.88,2.88,0,0,1,3.062-.107c.457.265.671.545.651.844s-.309.612-.852.925l-1.6.922m-2.432-3.263-3.045,1.759,8.747,5.083,1.449-.837-3.552-2.064,1.6-.922a3.559,3.559,0,0,0,1.413-1.242,1.172,1.172,0,0,0,.051-1.146,2.331,2.331,0,0,0-.943-.918,4.756,4.756,0,0,0-1.67-.564,5.811,5.811,0,0,0-1.992.062,6.7,6.7,0,0,0-2.054.789"/><path class="j" d="M263.476,145.026a3.724,3.724,0,0,1-1.32.432,4.936,4.936,0,0,1-1.61-.026,4.587,4.587,0,0,1-1.556-.557,2.215,2.215,0,0,1-.937-.892,1,1,0,0,1-.014-.91,1.793,1.793,0,0,1,.768-.76,3.782,3.782,0,0,1,1.314-.435,5,5,0,0,1,1.584.019,4.48,4.48,0,0,1,1.543.549,2.289,2.289,0,0,1,.95.9,1.006,1.006,0,0,1,.033.921,1.756,1.756,0,0,1-.755.759m-6.219-3.258a2.779,2.779,0,0,0-1.222,1.22,1.564,1.564,0,0,0,.062,1.412,3.46,3.46,0,0,0,1.412,1.331,7.037,7.037,0,0,0,2.312.833,7.789,7.789,0,0,0,2.462.062,5.726,5.726,0,0,0,2.1-.685,2.877,2.877,0,0,0,1.119-1.021,1.471,1.471,0,0,0,.185-1.055l1.034.6,1.455-.84-6.933-4.029-1.456.84,1,.583a7.015,7.015,0,0,0-1.783.1,5.48,5.48,0,0,0-1.754.645"/><path class="j" d="M266.86,136.224a3.151,3.151,0,0,0-1.337,1.279,1.5,1.5,0,0,0,.043,1.423,3.582,3.582,0,0,0,1.443,1.349,6.978,6.978,0,0,0,2.324.84,7.465,7.465,0,0,0,2.463.034,6.3,6.3,0,0,0,2.219-.767,2.743,2.743,0,0,0,1.453-1.559,1.7,1.7,0,0,0-.538-1.637l-1.557.9c.454.583.273,1.114-.563,1.6a3.626,3.626,0,0,1-2.045.454,5.087,5.087,0,0,1-2.275-.715c-.748-.435-1.147-.874-1.221-1.316s.2-.837.8-1.18a3.271,3.271,0,0,1,1.339-.435,3.788,3.788,0,0,1,1.419.115l1.557-.9a6.781,6.781,0,0,0-2.83-.343,6.516,6.516,0,0,0-2.69.863"/><polyline class="j" points="271.587 130.871 270.144 131.705 279.456 137.116 280.898 136.283 277.911 134.547 283.478 134.794 285.432 133.666 278.75 133.511 278.498 129.637 276.494 130.794 276.997 134.016 271.587 130.871"/><path class="j" d="M289.334,130.1a3.67,3.67,0,0,1-1.314.428,4.936,4.936,0,0,1-1.61-.026,4.606,4.606,0,0,1-1.556-.556,2.223,2.223,0,0,1-.937-.893.98.98,0,0,1-.013-.91,1.772,1.772,0,0,1,.761-.756,3.763,3.763,0,0,1,1.32-.438,4.966,4.966,0,0,1,1.584.018,4.513,4.513,0,0,1,1.544.549,2.292,2.292,0,0,1,.949.9,1,1,0,0,1,.033.921,1.762,1.762,0,0,1-.761.763m-6.212-3.262a2.775,2.775,0,0,0-1.223,1.22,1.59,1.59,0,0,0,.056,1.416,3.54,3.54,0,0,0,1.418,1.327,7.132,7.132,0,0,0,2.305.837,7.988,7.988,0,0,0,2.469.059,5.745,5.745,0,0,0,2.1-.686,2.9,2.9,0,0,0,1.12-1.021,1.5,1.5,0,0,0,.184-1.054l1.034.6,1.455-.84-6.933-4.029-1.455.84,1,.583a7.189,7.189,0,0,0-1.783.1,5.466,5.466,0,0,0-1.753.645"/><path class="j" d="M298.808,124.627a3.658,3.658,0,0,1-1.313.428,5,5,0,0,1-1.616-.022,4.584,4.584,0,0,1-1.55-.561,2.23,2.23,0,0,1-.943-.888,1,1,0,0,1-.014-.911,1.821,1.821,0,0,1,.768-.759,3.809,3.809,0,0,1,1.32-.439,5,5,0,0,1,1.584.019,4.443,4.443,0,0,1,1.537.553,2.3,2.3,0,0,1,.956.9,1.006,1.006,0,0,1,.033.921,1.8,1.8,0,0,1-.762.763m-6.211-3.262a2.753,2.753,0,0,0-1.223,1.22A1.588,1.588,0,0,0,291.43,124a3.527,3.527,0,0,0,1.418,1.327,7.109,7.109,0,0,0,2.305.837,7.874,7.874,0,0,0,2.476.056,5.79,5.79,0,0,0,2.123-.7,2.745,2.745,0,0,0,1.094-1.014,1.469,1.469,0,0,0,.165-1.05l1.154.671c.672.39,1.007.792,1,1.2s-.3.789-.878,1.124a4.35,4.35,0,0,1-1.62.546,3.681,3.681,0,0,1-1.584-.1l-1.43.825a5.445,5.445,0,0,0,2.861.428,7.459,7.459,0,0,0,3.016-.977,3.361,3.361,0,0,0,1.407-1.3,1.429,1.429,0,0,0-.011-1.36,3.208,3.208,0,0,0-1.3-1.228l-7.041-4.091-1.462.844,1,.582a6.681,6.681,0,0,0-1.776.1,5.581,5.581,0,0,0-1.753.645"/><path class="j" d="M303.24,118.644a1.252,1.252,0,0,1-.65-1.109,1.4,1.4,0,0,1,.808-1.01,4,4,0,0,1,1.855-.52,3.439,3.439,0,0,1,1.849.409l-3.862,2.23m-.983-2.856a3.287,3.287,0,0,0-1.376,1.3,1.516,1.516,0,0,0,.017,1.437,3.67,3.67,0,0,0,1.45,1.346,6.9,6.9,0,0,0,2.331.837,7.718,7.718,0,0,0,2.5.011,6.428,6.428,0,0,0,2.232-.774,2.808,2.808,0,0,0,1.453-1.545,1.655,1.655,0,0,0-.424-1.57l-1.558.9q.492.841-.677,1.515a3.883,3.883,0,0,1-1.867.5,4.043,4.043,0,0,1-1.958-.42l5.332-3.078a5.549,5.549,0,0,0-.654-.439,6.43,6.43,0,0,0-2.21-.781,7.192,7.192,0,0,0-2.4-.008,6.419,6.419,0,0,0-2.187.771"/><path class="j" d="M310.378,111.1a3.537,3.537,0,0,0-1.151.966,1.116,1.116,0,0,0-.222.965,1.351,1.351,0,0,0,.683.782,3.133,3.133,0,0,0,1.461.427,5.2,5.2,0,0,0,1.471-.136c.459-.111,1.026-.276,1.689-.5a13.923,13.923,0,0,1,1.6-.438,1.357,1.357,0,0,1,.954.118.438.438,0,0,1,.258.542c-.065.221-.3.446-.7.678a2.938,2.938,0,0,1-1.268.387,2.238,2.238,0,0,1-1.164-.181l-1.494.863a4,4,0,0,0,1.55.427,6.242,6.242,0,0,0,3.607-.81,3.435,3.435,0,0,0,1.151-.966,1.126,1.126,0,0,0,.2-.962,1.48,1.48,0,0,0-.733-.8,3.159,3.159,0,0,0-1.436-.413,5.562,5.562,0,0,0-1.452.133c-.465.107-1.013.269-1.657.486-.485.155-.867.266-1.135.34a3.256,3.256,0,0,1-.79.11,1.252,1.252,0,0,1-.667-.151c-.235-.136-.323-.306-.258-.5s.276-.409.659-.63a2.721,2.721,0,0,1,1.205-.373,2.223,2.223,0,0,1,1.119.214l1.443-.833a4.533,4.533,0,0,0-2.41-.5,5.565,5.565,0,0,0-2.511.76"/></g></g><g class="f"><g class="l"><path class="j" d="M256.1,211.727l-2.728-1.585,1.9-1.1a3.377,3.377,0,0,1,1.549-.461,2.616,2.616,0,0,1,1.468.335c.419.244.608.517.562.815s-.309.583-.8.866l-1.953,1.128m-3.9-2.267-2.5-1.452,1.788-1.032a3.2,3.2,0,0,1,1.441-.45,2.367,2.367,0,0,1,1.322.31c.4.232.576.49.53.766s-.321.553-.794.826L252.2,209.46m-1.758-3.24-3.358,1.939,8.747,5.083,3.525-2.034a3.373,3.373,0,0,0,1.221-1.066,1.166,1.166,0,0,0,.165-1.072,1.815,1.815,0,0,0-.854-.9,4.3,4.3,0,0,0-1.887-.527,4.4,4.4,0,0,0-1.949.265,1.253,1.253,0,0,0,.35-1.061,1.566,1.566,0,0,0-.86-.966,3.834,3.834,0,0,0-1.461-.472,5.506,5.506,0,0,0-1.789.092,6.187,6.187,0,0,0-1.85.715"/><path class="j" d="M261.639,205.151a1.241,1.241,0,0,1-.643-1.106,1.368,1.368,0,0,1,.8-1.013,4.015,4.015,0,0,1,1.862-.516,3.377,3.377,0,0,1,1.843.405l-3.863,2.23m-.983-2.857a3.344,3.344,0,0,0-1.382,1.3,1.556,1.556,0,0,0,.03,1.438,3.549,3.549,0,0,0,1.444,1.342,6.833,6.833,0,0,0,2.331.836,7.733,7.733,0,0,0,2.494.015,6.5,6.5,0,0,0,2.245-.774,2.773,2.773,0,0,0,1.446-1.541,1.664,1.664,0,0,0-.417-1.574l-1.558.9c.321.556.1,1.061-.683,1.511a3.874,3.874,0,0,1-1.867.5,4.032,4.032,0,0,1-1.952-.417l5.331-3.078a5.533,5.533,0,0,0-.653-.438,6.49,6.49,0,0,0-2.216-.786,7.443,7.443,0,0,0-2.406-.007,6.565,6.565,0,0,0-2.187.77"/><path class="j" d="M268.777,197.606a3.473,3.473,0,0,0-1.151.973,1.077,1.077,0,0,0-.215.962,1.323,1.323,0,0,0,.677.778,3.115,3.115,0,0,0,1.461.427,5.151,5.151,0,0,0,1.464-.132q.7-.173,1.7-.5a13.192,13.192,0,0,1,1.594-.442,1.351,1.351,0,0,1,.954.117.447.447,0,0,1,.264.546,1.468,1.468,0,0,1-.717.678,2.916,2.916,0,0,1-1.256.387,2.214,2.214,0,0,1-1.163-.18l-1.494.862a3.932,3.932,0,0,0,1.544.424,5.989,5.989,0,0,0,1.833-.125,6.121,6.121,0,0,0,1.773-.678,3.4,3.4,0,0,0,1.151-.974,1.113,1.113,0,0,0,.2-.958,1.426,1.426,0,0,0-.728-.807,3.119,3.119,0,0,0-1.436-.406,5.463,5.463,0,0,0-1.445.129c-.465.107-1.02.266-1.664.483-.484.155-.86.269-1.134.339a3.224,3.224,0,0,1-.784.115,1.282,1.282,0,0,1-.673-.155c-.235-.137-.317-.3-.258-.5a1.343,1.343,0,0,1,.658-.631,2.756,2.756,0,0,1,1.205-.372,2.219,2.219,0,0,1,1.119.214l1.443-.833a4.534,4.534,0,0,0-2.409-.5,5.553,5.553,0,0,0-2.512.76"/><path class="j" d="M274.081,192.677l-1.456.841,1.725,1-.823.476,1.167.678.824-.476,3.837,2.231a3.665,3.665,0,0,0,1.989.556,4.167,4.167,0,0,0,1.951-.6l1.143-.66-1.2-.7-.888.512a1.656,1.656,0,0,1-.79.265,1.405,1.405,0,0,1-.75-.221l-3.838-2.23,1.7-.981L277.5,192.7l-1.7.981-1.725-1"/><polyline class="j" points="286.511 193.532 284.94 194.439 287.516 196.979 288.455 196.437 286.511 193.532"/><path class="j" d="M289.718,183.414a4,4,0,0,0-1.683,1.64,2.079,2.079,0,0,0-.042,1.869,3.942,3.942,0,0,0,1.7,1.685,8.272,8.272,0,0,0,2.9.991,10.471,10.471,0,0,0,3.22-.015,8.316,8.316,0,0,0,2.838-.976,4.009,4.009,0,0,0,1.824-1.84,1.987,1.987,0,0,0-.351-2.046l-1.737,1a1.151,1.151,0,0,1,.089,1.146,2.547,2.547,0,0,1-1.075,1.01,5.485,5.485,0,0,1-1.951.671,6.669,6.669,0,0,1-2.195-.04,6.237,6.237,0,0,1-2.083-.76,3.238,3.238,0,0,1-1.311-1.212,1.341,1.341,0,0,1-.056-1.268,2.751,2.751,0,0,1,1.17-1.125,5.209,5.209,0,0,1,1.748-.619,5.524,5.524,0,0,1,1.979.055l1.736-1a9.279,9.279,0,0,0-3.537-.214,8.523,8.523,0,0,0-3.188,1.047"/><path class="j" d="M307.136,182.308a3.9,3.9,0,0,1-2.058.483,4.739,4.739,0,0,1-2.313-.671,2.508,2.508,0,0,1-.994-.9.947.947,0,0,1-.033-.892,1.837,1.837,0,0,1,.768-.752,3.853,3.853,0,0,1,1.307-.446,4.8,4.8,0,0,1,1.559.011,4.649,4.649,0,0,1,1.562.575,2.369,2.369,0,0,1,.988.921,1.035,1.035,0,0,1,0,.918,1.926,1.926,0,0,1-.787.756m-5.848-3.473a3.389,3.389,0,0,0-1.376,1.3,1.619,1.619,0,0,0-.014,1.471,3.28,3.28,0,0,0,1.4,1.36,6.764,6.764,0,0,0,2.343.829,7.76,7.76,0,0,0,2.508.008,6.555,6.555,0,0,0,2.238-.771,3.371,3.371,0,0,0,1.375-1.316,1.625,1.625,0,0,0,.053-1.493,3.227,3.227,0,0,0-1.4-1.367,6.686,6.686,0,0,0-2.338-.819,7.873,7.873,0,0,0-2.545.008,6.7,6.7,0,0,0-2.245.788"/><path class="j" d="M315.609,170.567a2.659,2.659,0,0,0-1.075,1.047,1.173,1.173,0,0,0,.019,1.15,5.792,5.792,0,0,0-2.03,0,5.444,5.444,0,0,0-1.849.656,2.764,2.764,0,0,0-.928.814,1.234,1.234,0,0,0-.234.907l-.793-.461-1.443.834,6.933,4.029,1.443-.833-3.876-2.253q-.932-.542-.948-1.106c-.017-.372.24-.718.782-1.032a3.389,3.389,0,0,1,1.785-.449,3.917,3.917,0,0,1,1.893.56l3.876,2.252,1.43-.826-3.876-2.252c-.621-.361-.938-.73-.955-1.1s.246-.723.789-1.036a3.371,3.371,0,0,1,1.778-.446,3.874,3.874,0,0,1,1.9.557l3.875,2.252,1.431-.826-4.092-2.377a5.932,5.932,0,0,0-4.011-.712,5.629,5.629,0,0,0-1.824.656"/><path class="j" d="M321.366,164.15q-1.37.79-1.459,1.482c-.066.457.306.917,1.1,1.378l.5.288-.823.475,1.167.679.823-.476,5.766,3.351,1.456-.841-5.766-3.35,1.29-.745-1.167-.678-1.29.744-.5-.287c-.4-.232-.6-.45-.575-.645s.237-.424.678-.679l-1.2-.7"/><path class="j" d="M335.241,166.081a3.893,3.893,0,0,1-2.058.483,4.739,4.739,0,0,1-2.313-.671,2.5,2.5,0,0,1-.994-.9.933.933,0,0,1-.033-.892,1.848,1.848,0,0,1,.768-.752,3.8,3.8,0,0,1,1.3-.442,4.616,4.616,0,0,1,1.559.011,4.546,4.546,0,0,1,1.569.571,2.3,2.3,0,0,1,.981.925,1,1,0,0,1,0,.918,1.87,1.87,0,0,1-.781.752m-5.848-3.472a3.378,3.378,0,0,0-1.375,1.3,1.6,1.6,0,0,0-.015,1.471,3.275,3.275,0,0,0,1.4,1.36,6.773,6.773,0,0,0,2.343.83,7.732,7.732,0,0,0,2.508.007,6.535,6.535,0,0,0,2.238-.77,3.38,3.38,0,0,0,1.376-1.316A1.652,1.652,0,0,0,337.92,164a3.232,3.232,0,0,0-1.4-1.368,6.677,6.677,0,0,0-2.338-.818,7.845,7.845,0,0,0-2.545.007,6.7,6.7,0,0,0-2.245.789"/><path class="j" d="M338.8,157.175a2.275,2.275,0,0,0-.953.9,1.1,1.1,0,0,0-.018.966l-1.009-.586-1.443.833,6.933,4.029,1.443-.833-3.647-2.12q-1.065-.618-1.044-1.117c0-.331.29-.667.852-.991l.371-.214-1.485-.863"/><path class="j" d="M341.094,153.987l-1.462.844,1.725,1-.817.472,1.167.678.818-.472,3.837,2.23a3.671,3.671,0,0,0,2,.553,4.16,4.16,0,0,0,1.951-.6l1.143-.66-1.2-.7-.887.513a1.73,1.73,0,0,1-.8.269,1.445,1.445,0,0,1-.744-.225l-3.837-2.23,1.7-.981-1.167-.678-1.7.981-1.726-1"/><path class="j" d="M355.647,154.3a3.814,3.814,0,0,1-1.314.435,5.018,5.018,0,0,1-1.61-.026,4.623,4.623,0,0,1-1.562-.56,2.215,2.215,0,0,1-.937-.892,1,1,0,0,1-.014-.91,1.838,1.838,0,0,1,.768-.76,3.754,3.754,0,0,1,1.314-.435,5,5,0,0,1,1.584.019,4.5,4.5,0,0,1,1.543.549,2.3,2.3,0,0,1,.956.9,1.023,1.023,0,0,1,.033.922,1.765,1.765,0,0,1-.761.755m-6.219-3.258a2.779,2.779,0,0,0-1.222,1.22,1.553,1.553,0,0,0,.068,1.415A3.427,3.427,0,0,0,349.68,155a7,7,0,0,0,2.311.833,7.686,7.686,0,0,0,2.463.063,5.646,5.646,0,0,0,2.11-.682,2.776,2.776,0,0,0,1.113-1.025,1.43,1.43,0,0,0,.185-1.054l1.033.6,1.456-.84-6.933-4.03-1.456.841,1.009.586a6.879,6.879,0,0,0-1.783.1,5.378,5.378,0,0,0-1.76.642"/><path class="j" d="M365.562,148.576a3.776,3.776,0,0,1-1.307.438,4.959,4.959,0,0,1-1.6-.018,4.569,4.569,0,0,1-1.556-.557,2.254,2.254,0,0,1-.943-.9,1,1,0,0,1-.021-.921,1.8,1.8,0,0,1,.755-.759,3.921,3.921,0,0,1,1.314-.443,4.807,4.807,0,0,1,1.578.008,4.327,4.327,0,0,1,1.537.545,2.279,2.279,0,0,1,.962.907,1.032,1.032,0,0,1,.04.933,1.806,1.806,0,0,1-.762.763m-10.3-3.528-1.443.833,9.312,5.411,1.443-.833-1.009-.586a6.692,6.692,0,0,0,1.8-.107,5.587,5.587,0,0,0,1.754-.645,2.625,2.625,0,0,0,1.2-1.231,1.565,1.565,0,0,0-.094-1.43,3.675,3.675,0,0,0-1.443-1.335,6.948,6.948,0,0,0-2.28-.829,7.626,7.626,0,0,0-2.437-.048,5.932,5.932,0,0,0-2.111.711,2.872,2.872,0,0,0-1.1,1.01,1.354,1.354,0,0,0-.184,1.062l-3.413-1.983"/><polyline class="j" points="364.741 139.578 363.298 140.411 372.61 145.822 374.053 144.989 364.741 139.578"/><path class="j" d="M373.773,140.411a1.256,1.256,0,0,1-.637-1.11,1.372,1.372,0,0,1,.8-1.014,4.02,4.02,0,0,1,1.861-.516,3.366,3.366,0,0,1,1.837.41l-3.863,2.23m-.977-2.861a3.344,3.344,0,0,0-1.382,1.3,1.538,1.538,0,0,0,.03,1.438,3.535,3.535,0,0,0,1.437,1.345,6.851,6.851,0,0,0,2.338.833,7.761,7.761,0,0,0,2.494.015,6.5,6.5,0,0,0,2.245-.774,2.779,2.779,0,0,0,1.447-1.541,1.666,1.666,0,0,0-.418-1.574l-1.558.9c.315.56.1,1.061-.683,1.511a3.874,3.874,0,0,1-1.867.5,4.054,4.054,0,0,1-1.958-.413l5.338-3.082a5.675,5.675,0,0,0-.654-.439,6.51,6.51,0,0,0-2.216-.785,7.414,7.414,0,0,0-2.406-.007,6.565,6.565,0,0,0-2.187.77"/><path class="j" d="M269.138,221.743a3.723,3.723,0,0,1-1.32.431,5.263,5.263,0,0,1-1.61-.026,4.586,4.586,0,0,1-1.549-.56,2.221,2.221,0,0,1-.944-.888,1.025,1.025,0,0,1-.014-.911,1.815,1.815,0,0,1,.768-.759,3.682,3.682,0,0,1,1.32-.439,5.042,5.042,0,0,1,1.578.015,4.486,4.486,0,0,1,1.544.557,2.306,2.306,0,0,1,.955.895,1.026,1.026,0,0,1,.034.922,1.793,1.793,0,0,1-.762.763m-6.212-3.262a2.746,2.746,0,0,0-1.222,1.22,1.585,1.585,0,0,0,.055,1.415,3.54,3.54,0,0,0,1.418,1.327,7.036,7.036,0,0,0,2.3.833,7.887,7.887,0,0,0,2.476.063,5.739,5.739,0,0,0,2.1-.686,2.889,2.889,0,0,0,1.119-1.021,1.452,1.452,0,0,0,.178-1.05l1.027.6,1.456-.841-6.933-4.029-1.456.841,1.009.586a7.043,7.043,0,0,0-1.776.1,5.4,5.4,0,0,0-1.754.646"/><path class="j" d="M273.1,212.605a2.809,2.809,0,0,0-.934.811,1.223,1.223,0,0,0-.24.91l-.793-.461-1.443.833,6.933,4.03,1.443-.834-3.876-2.252c-.615-.357-.931-.726-.954-1.1s.252-.719.8-1.032a3.363,3.363,0,0,1,1.771-.45,3.919,3.919,0,0,1,1.9.557l3.876,2.252,1.43-.826-4.085-2.374a5.945,5.945,0,0,0-4-.722,5.6,5.6,0,0,0-1.818.66"/><path class="j" d="M287.717,211.016a3.671,3.671,0,0,1-1.313.428,5.047,5.047,0,0,1-1.61-.026,4.49,4.49,0,0,1-1.556-.557,2.141,2.141,0,0,1-.937-.892.993.993,0,0,1-.02-.907,1.8,1.8,0,0,1,.768-.759,3.669,3.669,0,0,1,1.32-.439,5.072,5.072,0,0,1,1.578.015,4.526,4.526,0,0,1,1.549.553,2.294,2.294,0,0,1,.95.9,1.029,1.029,0,0,1,.033.922,1.782,1.782,0,0,1-.762.763M283.11,204.2l-1.456.84L285,206.983a6.677,6.677,0,0,0-1.846.155,5.8,5.8,0,0,0-1.639.608,2.789,2.789,0,0,0-1.235,1.228,1.588,1.588,0,0,0,.056,1.415,3.527,3.527,0,0,0,1.418,1.327,7.044,7.044,0,0,0,2.3.834,7.823,7.823,0,0,0,2.481.059,5.777,5.777,0,0,0,2.123-.7,2.866,2.866,0,0,0,1.114-1.018,1.4,1.4,0,0,0,.152-1.05l1.04.6,1.456-.84L283.11,204.2"/><polyline class="j" points="297.861 196.327 296.418 197.16 302.933 200.945 292.077 199.666 290.634 200.499 299.387 205.586 300.83 204.753 294.303 200.96 305.172 202.247 306.615 201.414 297.861 196.327"/><path class="j" d="M306.348,196.835a1.252,1.252,0,0,1-.649-1.109,1.393,1.393,0,0,1,.807-1.01,3.99,3.99,0,0,1,1.855-.52,3.412,3.412,0,0,1,1.85.409l-3.863,2.23m-.983-2.857a3.344,3.344,0,0,0-1.382,1.3,1.525,1.525,0,0,0,.024,1.434,3.542,3.542,0,0,0,1.443,1.349,6.848,6.848,0,0,0,2.331.83,7.693,7.693,0,0,0,2.5.018,6.482,6.482,0,0,0,2.238-.777,2.775,2.775,0,0,0,1.447-1.541,1.641,1.641,0,0,0-.418-1.574l-1.558.9q.492.84-.676,1.515a3.888,3.888,0,0,1-1.874.494,3.981,3.981,0,0,1-1.951-.416l5.331-3.078a5.614,5.614,0,0,0-.653-.439,6.512,6.512,0,0,0-2.217-.785,7.372,7.372,0,0,0-2.4,0,6.438,6.438,0,0,0-2.187.77"/><path class="j" d="M320.094,192.323a3.724,3.724,0,0,1-1.32.432,5.047,5.047,0,0,1-1.61-.026,4.626,4.626,0,0,1-1.556-.557,2.2,2.2,0,0,1-.937-.892,1,1,0,0,1-.014-.91,1.788,1.788,0,0,1,.768-.76,3.661,3.661,0,0,1,1.314-.435,4.952,4.952,0,0,1,1.578.015,4.531,4.531,0,0,1,1.55.553,2.292,2.292,0,0,1,.949.9,1,1,0,0,1,.033.921,1.756,1.756,0,0,1-.755.759m-6.218-3.258a2.776,2.776,0,0,0-1.223,1.22,1.564,1.564,0,0,0,.062,1.412,3.452,3.452,0,0,0,1.412,1.33,6.94,6.94,0,0,0,2.305.83,7.725,7.725,0,0,0,2.469.066,5.726,5.726,0,0,0,2.1-.685,2.887,2.887,0,0,0,1.12-1.021,1.471,1.471,0,0,0,.184-1.055l1.027.6,1.456-.84-6.933-4.029-1.456.84,1.009.586a7.066,7.066,0,0,0-1.783.1,5.324,5.324,0,0,0-1.753.645"/><path class="j" d="M324.072,183.178a2.252,2.252,0,0,0-.953.888,1.117,1.117,0,0,0-.019.966l-1.008-.586-1.449.837,6.933,4.029,1.449-.837-3.647-2.12c-.7-.409-1.059-.777-1.05-1.113s.3-.663.858-.988l.37-.213-1.484-.863"/><path class="j" d="M330.271,183.023a1.254,1.254,0,0,1-.649-1.109,1.4,1.4,0,0,1,.807-1.01,3.994,3.994,0,0,1,1.855-.52,3.41,3.41,0,0,1,1.85.409l-3.863,2.23m-.983-2.857a3.291,3.291,0,0,0-1.375,1.3,1.511,1.511,0,0,0,.017,1.437,3.643,3.643,0,0,0,1.45,1.346,6.816,6.816,0,0,0,2.324.833,7.721,7.721,0,0,0,2.5.018,6.483,6.483,0,0,0,2.238-.778,2.806,2.806,0,0,0,1.454-1.544,1.655,1.655,0,0,0-.424-1.57l-1.558.9q.492.84-.677,1.515a3.9,3.9,0,0,1-1.874.494,3.97,3.97,0,0,1-1.951-.417l5.331-3.078a5.533,5.533,0,0,0-.653-.438,6.5,6.5,0,0,0-2.217-.785,7.262,7.262,0,0,0-2.4,0,6.454,6.454,0,0,0-2.187.77"/><path class="j" d="M337.409,175.478a3.447,3.447,0,0,0-1.151.965,1.115,1.115,0,0,0-.221.966,1.351,1.351,0,0,0,.683.782,3.087,3.087,0,0,0,1.455.423,5.206,5.206,0,0,0,1.477-.132c.459-.111,1.026-.277,1.689-.5a13.934,13.934,0,0,1,1.606-.442,1.34,1.34,0,0,1,.948.121c.241.141.335.321.258.542s-.3.446-.7.679a2.974,2.974,0,0,1-1.269.387,2.265,2.265,0,0,1-1.163-.181l-1.494.863a4,4,0,0,0,1.55.427,6.184,6.184,0,0,0,1.84-.129,6.059,6.059,0,0,0,1.766-.682,3.511,3.511,0,0,0,1.151-.966,1.148,1.148,0,0,0,.2-.962,1.478,1.478,0,0,0-.734-.8,3.142,3.142,0,0,0-1.435-.413,5.519,5.519,0,0,0-1.452.133c-.465.106-1.014.269-1.658.486-.49.151-.867.266-1.134.339a3.265,3.265,0,0,1-.79.111,1.264,1.264,0,0,1-.667-.151c-.235-.137-.323-.306-.258-.5s.275-.409.659-.631a2.656,2.656,0,0,1,1.2-.372,2.219,2.219,0,0,1,1.119.214l1.443-.833a4.508,4.508,0,0,0-2.409-.5,5.553,5.553,0,0,0-2.512.76"/><path class="j" d="M342.713,170.549l-1.456.841,1.719,1-.823.476,1.173.682.824-.476,3.837,2.231a3.686,3.686,0,0,0,1.989.556,4.145,4.145,0,0,0,1.944-.6l1.143-.659-1.192-.693-.888.512a1.7,1.7,0,0,1-.8.262,1.387,1.387,0,0,1-.743-.218l-3.838-2.23,1.7-.981-1.174-.682-1.7.981-1.719-1"/><polyline class="j" points="357.749 161.765 356.3 162.602 360.049 164.78 355.912 167.169 352.163 164.99 350.713 165.827 359.454 170.907 360.904 170.07 357.079 167.847 361.216 165.459 365.041 167.681 366.49 166.845 357.749 161.765"/><path class="j" d="M371.171,162.834a3.9,3.9,0,0,1-2.058.483,4.717,4.717,0,0,1-2.306-.675,2.5,2.5,0,0,1-1-.9.928.928,0,0,1-.033-.892,1.843,1.843,0,0,1,.768-.752,3.853,3.853,0,0,1,1.307-.446,4.7,4.7,0,0,1,1.559.011,4.61,4.61,0,0,1,1.562.575,2.344,2.344,0,0,1,.982.918,1,1,0,0,1,0,.918,1.913,1.913,0,0,1-.781.759m-5.848-3.472a3.378,3.378,0,0,0-1.375,1.3,1.59,1.59,0,0,0-.021,1.467,3.307,3.307,0,0,0,1.411,1.36,6.719,6.719,0,0,0,2.331.829,7.771,7.771,0,0,0,2.514.012,6.513,6.513,0,0,0,2.231-.775,3.435,3.435,0,0,0,1.389-1.316,1.624,1.624,0,0,0,.04-1.492,3.187,3.187,0,0,0-1.392-1.364,6.721,6.721,0,0,0-2.344-.822,7.77,7.77,0,0,0-2.533.007,6.761,6.761,0,0,0-2.251.793"/><path class="j" d="M371.271,154.061l-1.455.84,1.719,1-.824.476,1.174.682.823-.476,3.838,2.23a3.677,3.677,0,0,0,1.989.557,4.2,4.2,0,0,0,1.944-.6l1.143-.66-1.193-.693-.887.513a1.693,1.693,0,0,1-.8.261,1.427,1.427,0,0,1-.743-.217l-3.838-2.23,1.7-.981-1.173-.682-1.7.981-1.719-1"/><path class="j" d="M380.78,153.862a1.254,1.254,0,0,1-.649-1.11,1.408,1.408,0,0,1,.808-1.01,4.041,4.041,0,0,1,1.861-.523,3.387,3.387,0,0,1,1.843.413l-3.863,2.23m-.983-2.857a3.284,3.284,0,0,0-1.375,1.3,1.515,1.515,0,0,0,.017,1.438,3.634,3.634,0,0,0,1.45,1.345,6.816,6.816,0,0,0,2.324.833,7.624,7.624,0,0,0,2.508.015,6.43,6.43,0,0,0,2.231-.774,2.8,2.8,0,0,0,1.454-1.544,1.656,1.656,0,0,0-.424-1.571l-1.558.9q.492.84-.677,1.515a3.92,3.92,0,0,1-1.874.494,4.032,4.032,0,0,1-1.951-.417l5.331-3.078a5.655,5.655,0,0,0-.653-.439,6.633,6.633,0,0,0-2.21-.788,7.3,7.3,0,0,0-2.406,0,6.393,6.393,0,0,0-2.187.77"/><polyline class="j" points="384.671 145.56 383.228 146.393 392.54 151.805 393.983 150.972 384.671 145.56"/><path class="j" d="M392.145,143.876a3.465,3.465,0,0,0-1.151.966,1.118,1.118,0,0,0-.215.962,1.352,1.352,0,0,0,.683.781,3.124,3.124,0,0,0,1.448.428,5.327,5.327,0,0,0,1.477-.133c.466-.114,1.033-.28,1.7-.5a14.275,14.275,0,0,1,1.6-.439,1.357,1.357,0,0,1,.954.118.438.438,0,0,1,.258.542c-.065.221-.3.446-.711.682a2.908,2.908,0,0,1-1.262.383,2.224,2.224,0,0,1-1.163-.18l-1.494.862a4.014,4.014,0,0,0,1.55.428,6.163,6.163,0,0,0,1.833-.125,6.093,6.093,0,0,0,1.767-.682,3.532,3.532,0,0,0,1.157-.97,1.136,1.136,0,0,0,.2-.958,1.44,1.44,0,0,0-.728-.808,3.174,3.174,0,0,0-1.442-.409,5.566,5.566,0,0,0-1.452.133c-.458.1-1.013.269-1.651.483-.49.151-.867.265-1.134.339a3.265,3.265,0,0,1-.79.111,1.274,1.274,0,0,1-.667-.152c-.235-.136-.323-.306-.258-.5s.276-.409.659-.63a2.628,2.628,0,0,1,1.2-.369,2.2,2.2,0,0,1,1.125.211l1.443-.834a4.517,4.517,0,0,0-2.409-.5,5.566,5.566,0,0,0-2.518.763"/></g></g></svg>