<svg xmlns="http://www.w3.org/2000/svg" xmlns:xlink="http://www.w3.org/1999/xlink" viewBox="0 0 500 329.674"><defs><style>.a{fill:none;}.b{fill:#ced0d6;}.c{fill:#080e24;}.d{fill:#0a1330;}.e{fill:#fff;}.f{isolation:isolate;}.g{clip-path:url(#a);}.h{clip-path:url(#b);}.i{clip-path:url(#c);}.j{clip-path:url(#d);}.k{clip-path:url(#e);}</style><clipPath id="a"><polygon class="a" points="83.99 226.651 84.037 209.982 158.297 252.856 158.25 269.525 83.99 226.651"/></clipPath><clipPath id="b"><polygon class="a" points="333.124 271.778 333.076 255.102 427.429 200.628 427.476 217.304 333.124 271.778"/></clipPath><clipPath id="c"><polygon class="a" points="124.702 148.105 99.774 133.618 239.508 52.942 264.437 67.429 124.702 148.105"/></clipPath><clipPath id="d"><polygon class="a" points="195.059 185.375 170.536 171.124 306.006 92.91 330.528 107.161 195.059 185.375"/></clipPath><clipPath id="e"><polygon class="a" points="266.655 228.783 238.948 212.682 377.329 132.787 405.036 148.889 266.655 228.783"/></clipPath></defs><path d="M489.413,173.044l-.033,11.6c-.016,5.414-3.574,10.82-10.684,14.951L271.443,320.035c-.526.3-1.067.6-1.616.879-.166.086-.336.168-.5.252q-.6.3-1.216.579c-.184.084-.367.168-.553.249q-.7.306-1.413.588c-.119.047-.234.1-.354.143q-.891.345-1.81.654c-.16.054-.322.1-.482.156q-.7.228-1.406.438l-.621.178c-.469.131-.941.255-1.417.375-.177.044-.352.091-.53.133q-.969.233-1.954.433c-.106.021-.214.039-.32.06q-.835.162-1.681.3c-.213.035-.427.068-.642.1q-.721.111-1.449.2c-.21.027-.421.055-.632.08q-.929.109-1.864.192c-.061.006-.121.013-.182.018-.684.058-1.37.1-2.058.137-.2.01-.4.016-.6.025q-.752.032-1.5.045c-.225,0-.45.008-.675.009q-.8.006-1.608-.009c-.16,0-.32,0-.479-.006q-1.032-.027-2.061-.086c-.163-.009-.325-.023-.488-.034-.53-.035-1.059-.075-1.587-.123q-.335-.031-.669-.066c-.5-.05-.99-.108-1.482-.17-.137-.017-.275-.029-.411-.047-.065-.009-.129-.021-.194-.03-.506-.069-1.008-.146-1.509-.228-.129-.021-.26-.039-.389-.061q-.93-.157-1.847-.346c14.466,6.652,35.525,6.115,48.834-1.62L489.32,203C503.541,194.732,503.548,181.37,489.413,173.044Z"/><path class="b" d="M201.479,203.136h0c-.111.039-.222.078-.335.115h0C201.257,203.214,201.368,203.175,201.479,203.136Z"/><path class="b" d="M200.253,203.507h0c-.067.017-.131.038-.2.054h0C200.122,203.545,200.186,203.524,200.253,203.507Z"/><path class="b" d="M288.243,73.953c-.221.158-.458.312-.71.46C287.785,74.265,288.022,74.111,288.243,73.953Z"/><path class="b" d="M135.306,163.337c-.057.026-.116.049-.174.074.058-.024.117-.048.174-.074Z"/><path class="b" d="M202.517,202.72h0c-.1.045-.2.086-.3.129h0C202.317,202.806,202.419,202.765,202.517,202.72Z"/><path class="b" d="M127.768,164.61c-.078-.005-.156-.014-.234-.019.078,0,.155.014.234.019Z"/><path class="b" d="M131.714,164.4c-.038.007-.077.011-.116.017.039,0,.077-.01.116-.017Z"/><path class="b" d="M288.857,73.463c-.126.112-.27.22-.411.328C288.587,73.683,288.731,73.575,288.857,73.463Z"/><path class="b" d="M134.268,163.752h0c-.111.039-.222.079-.335.115h0C134.046,163.831,134.157,163.791,134.268,163.752Z"/><path class="b" d="M123,163.631c-.139-.053-.271-.114-.406-.171.135.057.267.118.406.171Z"/><path class="b" d="M125.2,164.269l-.137-.028h0Z"/><path class="b" d="M126.585,164.5h0c-.133-.016-.265-.035-.4-.055h0C126.32,164.464,126.452,164.483,126.585,164.5Z"/><path class="b" d="M189.3,202.623c-.237-.114-.471-.232-.695-.36.224.128.457.246.695.36Z"/><path class="b" d="M289.95,72.161c.062-.1.129-.2.181-.307C290.079,71.958,290.012,72.059,289.95,72.161Z"/><path class="b" d="M289.068,73.254c.105-.1.215-.2.309-.307C289.283,73.052,289.173,73.152,289.068,73.254Z"/><path class="b" d="M289.561,72.715c.082-.1.169-.2.24-.306C289.73,72.513,289.643,72.613,289.561,72.715Z"/><path class="b" d="M123.8,163.907h0c-.2-.063-.4-.131-.6-.2h0C123.4,163.776,123.6,163.844,123.8,163.907Z"/><path class="b" d="M426.358,150.081h0c-.032.095-.076.189-.116.284C426.28,150.27,426.327,150.176,426.358,150.081Z"/><path class="b" d="M129.258,164.629h0c-.1,0-.2.008-.307.009h0C129.054,164.637,129.156,164.631,129.258,164.629Z"/><path class="b" d="M423.536,153.179c.253-.147.489-.3.71-.459C424.025,152.878,423.789,153.032,423.536,153.179Z"/><path class="b" d="M425.8,151.177c-.072.105-.16.206-.243.309C425.643,151.383,425.731,151.282,425.8,151.177Z"/><path class="b" d="M269,242.9c-.053.013-.1.029-.157.042h0C268.9,242.932,268.95,242.917,269,242.9Z"/><path class="b" d="M424.442,152.563c.144-.11.289-.219.418-.333C424.731,152.344,424.586,152.453,424.442,152.563Z"/><path class="b" d="M290.274,71.513h0l-.033.082Z"/><path class="b" d="M264.1,270.779l8.575-4.983a17.034,17.034,0,0,1-8.9-1.014c.369.019.74.029,1.11.026-.4,0-.789,0-1.183-.028-.08,0-.159-.014-.24-.019q-.474-.033-.943-.091c-.055-.007-.111-.009-.166-.016-.079-.011-.154-.028-.232-.039-.231-.035-.46-.073-.688-.117-.08-.015-.162-.024-.241-.041s-.128-.031-.194-.046c-.145-.031-.288-.066-.431-.1-.093-.023-.189-.042-.281-.067s-.157-.047-.237-.07c-.106-.031-.211-.062-.316-.1-.069-.021-.141-.04-.209-.062-.133-.044-.261-.093-.39-.14-.069-.025-.138-.048-.2-.074l-.078-.028q-.312-.122-.612-.258l-.065-.032-.152-.074c-.118-.057-.238-.113-.353-.173s-.229-.123-.341-.187l-41.1-23.588q-.1-.057-.2-.117c-.177-.107-.345-.216-.506-.329l-.014-.01-.061-.046c-.139-.1-.276-.2-.4-.306-.035-.029-.065-.06-.1-.09-.063-.053-.122-.107-.181-.161s-.123-.106-.179-.16-.087-.1-.133-.145c-.072-.075-.141-.15-.207-.226-.035-.04-.077-.079-.11-.12-.085-.1-.165-.209-.239-.315l-.007-.01c-.069-.1-.135-.2-.2-.3-.025-.043-.041-.087-.064-.129-.051-.093-.1-.186-.14-.279s-.087-.194-.123-.292-.065-.189-.093-.284c-.015-.053-.038-.1-.051-.157s-.021-.122-.033-.183-.02-.1-.027-.153a3.469,3.469,0,0,1-.042-.528l.036-12.641-4.513,2.638c-3.949,2.309-10.37,2.377-14.5.21-.137-.014-.276-.023-.413-.04-.055-.007-.111-.009-.166-.016-.078-.01-.153-.027-.231-.039-.232-.034-.461-.073-.689-.117-.079-.015-.161-.024-.241-.04-.065-.014-.128-.032-.193-.046-.145-.032-.287-.067-.43-.1-.094-.023-.19-.042-.283-.067s-.157-.048-.236-.071c-.106-.03-.211-.061-.315-.094-.07-.022-.141-.04-.21-.063-.133-.043-.26-.093-.39-.14-.068-.024-.137-.047-.2-.073l-.078-.028q-.312-.122-.612-.258l-.065-.032c-.05-.023-.1-.049-.149-.073-.119-.057-.24-.113-.355-.174s-.229-.122-.34-.186l-41.1-23.588c-.067-.038-.134-.077-.2-.117-.176-.107-.345-.217-.5-.329l-.014-.011c-.022-.015-.041-.031-.062-.046-.14-.1-.276-.2-.4-.3-.036-.03-.066-.061-.1-.09-.063-.054-.121-.108-.181-.162s-.123-.1-.179-.16-.087-.1-.133-.145c-.071-.074-.141-.149-.206-.225-.035-.041-.077-.079-.111-.12-.085-.1-.165-.21-.239-.316l-.006-.01c-.07-.1-.136-.2-.2-.3-.026-.042-.042-.086-.065-.129-.051-.092-.1-.186-.14-.279s-.086-.194-.123-.292-.065-.189-.092-.284c-.015-.053-.039-.1-.052-.157s-.021-.122-.032-.183-.02-.1-.028-.152a3.493,3.493,0,0,1-.042-.529l.034-12.027-3.465,2.025c-3.991,2.333-10.509,2.379-14.636.14-.05-.009-.1-.018-.148-.025q-.348-.051-.69-.117c-.08-.015-.161-.024-.24-.041s-.128-.031-.193-.045c-.145-.032-.288-.067-.432-.1-.093-.023-.189-.041-.281-.066s-.157-.048-.235-.071c-.107-.03-.213-.062-.318-.094-.069-.022-.14-.04-.209-.063-.132-.043-.259-.093-.389-.14l-.2-.073c-.025-.01-.052-.018-.078-.028q-.312-.123-.611-.258c-.023-.01-.043-.022-.065-.032l-.15-.073c-.119-.057-.239-.113-.355-.174s-.228-.123-.34-.187l-41.1-23.589-.2-.117c-.176-.107-.345-.217-.5-.329l-.015-.011c-.021-.015-.039-.03-.059-.045-.14-.1-.278-.2-.405-.306-.036-.03-.066-.061-.1-.09-.062-.054-.121-.108-.181-.162s-.123-.105-.179-.16-.087-.1-.133-.145c-.071-.075-.141-.149-.207-.225-.035-.041-.076-.08-.11-.121-.085-.1-.165-.209-.239-.315l-.006-.01c-.07-.1-.136-.2-.2-.3-.026-.042-.042-.086-.065-.129-.051-.093-.1-.186-.14-.28s-.086-.193-.123-.29-.065-.19-.093-.286c-.015-.052-.038-.1-.051-.156s-.021-.122-.032-.183-.02-.1-.028-.152a3.493,3.493,0,0,1-.042-.529l.017-5.953-29.245,17L226.972,270.778C237.218,276.693,253.927,276.693,264.1,270.779Z"/><polygon class="b" points="193.408 203.829 193.4 203.828 193.4 203.828 193.408 203.829"/><path class="b" d="M425.066,152.026c.107-.1.218-.205.313-.312C425.284,151.821,425.172,151.923,425.066,152.026Z"/><path class="b" d="M426.132,150.622c-.052.1-.12.207-.182.31C426.012,150.829,426.08,150.727,426.132,150.622Z"/><path class="b" d="M356.777,112.094c.081-.1.167-.2.237-.3C356.944,111.894,356.857,111.993,356.777,112.094Z"/><path class="b" d="M357.164,111.542c.061-.1.128-.2.18-.305C357.292,111.34,357.225,111.441,357.164,111.542Z"/><path class="b" d="M355.665,113.169c.139-.107.281-.213.406-.324C355.946,112.956,355.8,113.062,355.665,113.169Z"/><path class="b" d="M130.443,164.561c-.1.009-.2.018-.293.025h0C130.248,164.579,130.345,164.57,130.443,164.561Z"/><path class="b" d="M271.309,242.1l-.094.041.094-.041Z"/><path class="b" d="M356.59,112.329c-.093.105-.2.205-.308.307C356.387,112.534,356.5,112.434,356.59,112.329Z"/><path class="b" d="M357.452,110.977c.044-.1.092-.2.126-.308C357.544,110.773,357.5,110.874,357.452,110.977Z"/><path class="b" d="M354.748,113.794q.378-.222.709-.459Q355.126,113.572,354.748,113.794Z"/><path class="b" d="M266.535,243.321h0c-.128.013-.255.024-.384.033h0Q266.343,243.341,266.535,243.321Z"/><path class="b" d="M244.471,283.451h0c-.16,0-.32,0-.48-.007h0C244.151,283.449,244.311,283.448,244.471,283.451Z"/><path class="b" d="M235.59,282.661h0c-.131-.021-.263-.039-.393-.061h0C235.33,282.622,235.461,282.64,235.59,282.661Z"/><path class="b" d="M246.713,283.451c-.212,0-.424.008-.635.009h0C246.29,283.459,246.5,283.455,246.713,283.451Z"/><path class="b" d="M241.931,283.359h0c-.164-.01-.326-.023-.489-.034h0C241.605,283.336,241.767,283.349,241.931,283.359Z"/><path class="b" d="M223.18,279.05l-.232-.1.232.1Z"/><path class="b" d="M230.1,281.488c-.26-.07-.516-.147-.774-.221.258.074.514.151.774.221Z"/><path class="b" d="M228.159,280.921c-.167-.052-.332-.107-.5-.16.166.053.331.108.5.16Z"/><path class="b" d="M231.3,281.792c-.26-.064-.519-.128-.777-.195l.008,0C230.79,281.665,231.047,281.728,231.3,281.792Z"/><path class="b" d="M237.7,282.966h0c-.2-.026-.405-.049-.606-.077h0C237.3,282.917,237.5,282.94,237.7,282.966Z"/><path class="b" d="M248.859,283.38h0c-.2.011-.4.017-.6.026h0C248.457,283.4,248.658,283.391,248.859,283.38Z"/><path class="b" d="M482.452,154.329c-.215.17-.446.336-.671.5C482.006,154.665,482.237,154.5,482.452,154.329Z"/><path class="b" d="M8.274,155.05c-.1-.074-.2-.149-.3-.224.094.07.184.14.28.209Z"/><path class="b" d="M7.142,154.194c-.1-.082-.2-.166-.3-.249.1.08.188.16.287.238Z"/><path class="b" d="M9.573,155.935c-.127-.082-.246-.166-.37-.249.122.082.239.165.364.246Z"/><path class="b" d="M480.113,156q-.627.4-1.3.791Q479.486,156.4,480.113,156Z"/><path class="b" d="M483.332,153.6h0c-.138.119-.282.237-.425.355C483.05,153.832,483.2,153.715,483.332,153.6Z"/><path class="b" d="M481.324,155.175c-.25.179-.517.353-.779.528C480.807,155.528,481.074,155.354,481.324,155.175Z"/><path class="b" d="M192.711,203.711h0c-.145-.028-.291-.055-.434-.087h0C192.42,203.656,192.566,203.683,192.711,203.711Z"/><path class="b" d="M357.716,126.729l9.777-5.716a14.064,14.064,0,0,1,5.593-1.689l-15.324-8.847Z"/><path class="b" d="M260.634,242.907h0c-.174-.044-.348-.089-.518-.138h0C260.287,242.818,260.46,242.863,260.634,242.907Z"/><path class="b" d="M265.26,243.4h0Z"/><path class="b" d="M449.152,163.241l-22.6-13.05-.044,15.709,2.187,1.255c3.09,1.774,3.881,4.4,2.36,6.6Z"/><path class="b" d="M263.769,243.378h0c-.081,0-.16-.014-.241-.02h0C263.609,243.364,263.689,243.373,263.769,243.378Z"/><path class="b" d="M194.979,203.993h0c-.08,0-.159-.014-.239-.019h0C194.821,203.979,194.9,203.988,194.979,203.993Z"/><path class="b" d="M259,242.4c-.2-.077-.395-.162-.588-.247.193.085.387.17.588.247Z"/><path class="b" d="M261.154,243.026l-.089-.017h0Z"/><path class="b" d="M253.454,282.972c-.164.02-.327.043-.491.062h0C253.127,283.015,253.29,282.993,253.454,282.972Z"/><path class="b" d="M268.227,278.94h0c-.184.084-.368.168-.554.249h0C267.86,279.108,268.044,279.024,268.227,278.94Z"/><path class="b" d="M260.172,281.72c-.083.021-.165.043-.248.063l.247-.063Z"/><path class="b" d="M290.506,86.425l8.2-4.8A14.336,14.336,0,0,1,304.8,79.9l-14.251-8.228Z"/><path class="b" d="M266.261,279.777h0c-.118.047-.234.1-.353.143h0C266.027,279.874,266.143,279.824,266.261,279.777Z"/><path class="b" d="M269.7,278.235l-.253.126h0Z"/><path class="b" d="M225.163,279.879h0c-.139-.054-.274-.111-.411-.166h0C224.89,279.768,225.025,279.825,225.163,279.879Z"/><path class="b" d="M255.474,282.682l-.43.068h0Z"/><path class="b" d="M251.1,283.226l-.041,0,.041,0Z"/><path class="c" d="M21.043,131.544c-.092.059-.177.121-.267.181-.2.133-.4.266-.594.4-.116.082-.222.167-.334.25-.157.117-.318.233-.468.353-.114.09-.219.183-.33.275-.138.115-.28.229-.413.346-.107.094-.2.19-.307.286-.126.117-.256.233-.376.351-.1.1-.189.2-.283.3-.114.119-.232.237-.34.357-.091.1-.173.2-.26.306-.1.12-.208.239-.3.36-.083.1-.156.209-.235.314-.09.121-.185.242-.27.364s-.14.218-.211.327-.16.241-.233.363-.124.222-.185.333-.139.243-.2.366-.1.224-.156.336-.118.247-.17.372-.085.227-.128.341-.1.248-.138.373-.067.23-.1.345-.075.249-.106.375-.048.232-.072.348-.055.25-.075.376-.03.234-.044.351-.034.25-.044.375-.011.235-.016.353c-.164,4.035,2.4,8.106,7.707,11.168l18.26,10.543L225.4,55.494c.374-.218.76-.425,1.151-.626.119-.061.24-.12.36-.179q.428-.213.868-.413c.131-.06.261-.119.393-.177q.5-.217,1.015-.421c.083-.032.163-.067.246-.1q.638-.245,1.293-.465c.116-.039.233-.075.35-.113q.5-.162,1-.31l.442-.127c.336-.094.676-.182,1.017-.268.126-.031.25-.064.376-.094q.692-.165,1.4-.307l.251-.046q.588-.114,1.182-.212c.153-.025.307-.048.461-.072.345-.052.692-.1,1.04-.145.149-.019.3-.039.448-.056.461-.054.924-.1,1.388-.142l.075-.007c.49-.041.982-.072,1.474-.1.147-.007.294-.012.441-.018.357-.015.714-.025,1.072-.032l.48-.006c.391,0,.782,0,1.174.007.106,0,.213,0,.32,0q.738.018,1.475.062c.123.007.245.017.368.025q.561.037,1.12.088c.16.014.319.03.478.046q.54.055,1.075.124c.138.017.277.033.416.052q.581.08,1.156.175l.2.031q.673.115,1.337.251c.228.047.454.1.681.148.158.035.318.068.476.1.25.059.5.123.744.186.136.035.273.067.408.1.04.01.079.023.119.034.552.15,1.095.314,1.631.487.1.033.2.064.3.1q.747.249,1.468.527c.105.041.207.084.311.125q.559.224,1.1.465c.115.051.231.1.345.154.43.2.854.4,1.266.619q.477.251.937.514L449.152,163.241l18.5-10.753c5.073-2.948,7.6-6.832,7.6-10.717,0-.126-.008-.252-.014-.378,0-.1-.006-.194-.014-.291,0-.049-.008-.1-.013-.147-.009-.1-.023-.2-.036-.3s-.02-.178-.034-.267c-.006-.038-.011-.076-.017-.113-.016-.092-.038-.183-.056-.275-.027-.136-.052-.272-.086-.408-.025-.095-.054-.189-.081-.283-.01-.037-.021-.073-.031-.109-.033-.11-.061-.22-.1-.329s-.073-.2-.108-.292l-.039-.1c-.04-.106-.077-.213-.122-.32s-.091-.2-.136-.3c-.015-.033-.031-.065-.045-.1-.049-.1-.094-.209-.147-.312s-.109-.2-.164-.3l-.022-.04c-.065-.119-.128-.238-.2-.356q-.22-.369-.473-.732c-.036-.051-.077-.1-.114-.151-.141-.2-.287-.392-.443-.585l-.012-.014c-.115-.142-.238-.283-.361-.423-.059-.068-.115-.136-.176-.2-.1-.111-.21-.22-.318-.33s-.187-.2-.287-.3l-.007-.007-.011-.011c-.2-.2-.415-.394-.635-.588l-.186-.159-.023-.02c-.161-.137-.324-.273-.493-.408-.067-.054-.135-.107-.2-.161-.123-.1-.252-.19-.38-.284-.071-.052-.139-.1-.211-.157-.052-.038-.1-.076-.155-.113l-.007,0q-.374-.263-.769-.518c-.062-.04-.126-.079-.189-.118l-.008-.005c-.259-.163-.521-.325-.8-.483L262.65,12.689c-.306-.177-.619-.347-.936-.514-.413-.216-.837-.421-1.267-.619-.114-.053-.229-.1-.344-.154h0q-.543-.242-1.1-.465h0l-.31-.125h0q-.721-.279-1.468-.527h0c-.1-.034-.2-.066-.305-.1-.536-.174-1.079-.338-1.631-.488h0c-.04-.011-.079-.023-.119-.033h0c-.136-.037-.274-.069-.411-.1-.246-.064-.492-.127-.741-.186-.156-.037-.315-.07-.473-.1-.228-.05-.455-.1-.684-.148h0q-.665-.136-1.338-.251l-.095-.015-.1-.015q-.579-.1-1.163-.176c-.138-.019-.278-.035-.416-.053q-.536-.067-1.074-.123l-.17-.017-.308-.03c-.372-.034-.746-.062-1.119-.087l-.214-.015-.156-.011q-.736-.042-1.475-.062l-.32,0c-.391-.007-.782-.01-1.173-.007-.084,0-.167,0-.251,0l-.23,0c-.358.007-.715.017-1.072.032l-.367.015-.073,0c-.493.025-.984.056-1.474.1l-.076.008c-.464.039-.926.088-1.387.141-.15.018-.3.038-.449.057-.348.044-.694.093-1.039.145l-.378.059-.084.013q-.593.1-1.18.211l-.172.032-.08.015q-.7.141-1.4.307c-.126.03-.25.063-.375.094q-.513.128-1.017.268c-.148.041-.3.083-.443.127q-.505.147-1,.31c-.116.038-.234.073-.349.112-.437.148-.869.3-1.293.466-.083.032-.164.067-.247.1-.343.136-.681.275-1.014.421-.133.058-.263.117-.394.177q-.44.2-.867.412l-.2.1-.16.08c-.391.2-.777.408-1.151.626L21.964,130.98Q21.489,131.258,21.043,131.544Z"/><path class="d" d="M478.818,156.787,271.564,277.23c-.525.305-1.066.6-1.615.879-.167.086-.337.168-.5.252q-.6.3-1.217.579c-.183.084-.367.168-.553.249q-.7.3-1.413.588c-.118.047-.234.1-.353.143q-.893.344-1.811.654c-.159.054-.321.1-.481.156q-.7.228-1.407.438-.309.09-.621.177c-.468.132-.941.256-1.417.375-.176.045-.352.092-.53.134q-.969.233-1.954.432c-.106.022-.213.039-.319.06q-.836.163-1.682.3c-.213.035-.427.068-.641.1q-.721.109-1.45.2c-.21.027-.42.055-.632.08q-.929.11-1.864.192c-.061,0-.121.013-.182.018-.684.058-1.37.1-2.058.136-.2.011-.4.017-.6.026-.5.02-1,.036-1.5.045-.225,0-.45.008-.675.009q-.8.006-1.607-.009c-.16,0-.32,0-.48-.007q-1.032-.026-2.06-.085c-.164-.01-.326-.023-.489-.034q-.8-.052-1.586-.124-.336-.03-.669-.065-.744-.077-1.483-.17c-.2-.026-.4-.049-.605-.077-.5-.069-1.008-.146-1.509-.228-.129-.021-.26-.039-.389-.061q-.94-.161-1.87-.35c-.335-.069-.667-.144-1-.219-.208-.046-.417-.089-.623-.137-.394-.093-.784-.194-1.174-.3-.145-.038-.293-.072-.437-.111q-.755-.2-1.5-.427c-.149-.045-.3-.094-.444-.14q-.468-.145-.93-.3-1.049-.35-2.066-.742c-.138-.054-.273-.111-.41-.165q-.8-.318-1.573-.664c-.162-.072-.326-.143-.486-.217-.608-.28-1.207-.57-1.79-.876q-.672-.351-1.322-.725L10.97,156.789c-.387-.223-.758-.452-1.124-.682-.093-.059-.187-.116-.279-.175q-.559-.361-1.087-.732c-.078-.054-.151-.11-.227-.165q-.421-.3-.821-.612c-.1-.08-.2-.16-.3-.24-.239-.19-.469-.383-.7-.577-.1-.084-.2-.167-.3-.252-.309-.273-.61-.549-.895-.828l-.041-.042q-.426-.42-.818-.848c-.092-.1-.175-.2-.265-.306-.173-.2-.345-.394-.507-.593-.246-.3-.477-.61-.7-.918-.027-.037-.057-.074-.083-.111-.243-.346-.468-.7-.679-1.048-.1-.172-.194-.346-.289-.519-.083-.153-.172-.3-.25-.458-.09-.178-.167-.357-.249-.535-.07-.153-.146-.305-.209-.458-.076-.181-.139-.364-.206-.546-.056-.152-.118-.3-.169-.457-.061-.185-.109-.37-.161-.555-.043-.152-.092-.3-.129-.455-.074-.3-.135-.6-.187-.908-.014-.083-.025-.166-.037-.249-.035-.233-.064-.467-.085-.7-.009-.089-.018-.178-.024-.267-.022-.306-.036-.613-.035-.919v0h0L0,184.436c0,.308.014.615.036.922.006.089.015.178.023.267q.033.351.085.7c.013.083.024.166.038.249.05.293.107.585.177.877l.009.031c.037.152.087.3.13.455.052.185.1.37.161.555.05.154.113.306.17.459.066.182.129.363.2.543.065.155.141.309.211.463.081.177.158.354.247.531.078.154.168.307.252.46s.163.311.254.464c.01.018.024.036.034.053.21.352.435.7.678,1.048.027.038.058.076.086.114q.329.462.7.915c.019.023.034.047.053.07.144.176.3.349.454.524.089.1.173.2.265.305q.389.424.811.842c.017.016.031.033.048.049l0,0c.285.278.584.553.893.825.1.085.2.168.295.252.144.124.284.249.433.371.085.069.176.137.262.206s.2.161.306.24c.266.207.539.41.82.612.076.055.149.111.226.165l.076.055c.327.229.666.454,1.012.677.091.059.186.117.279.175.166.1.328.21.5.313.206.124.414.247.626.37L219.461,320.037q.63.363,1.282.706l.04.02c.583.305,1.182.6,1.789.875.063.029.122.062.185.09.1.045.2.083.3.127q.775.345,1.573.664c.1.038.188.082.285.12.041.016.084.029.125.045q1.017.393,2.067.743c.058.019.114.042.172.062.251.082.5.159.758.238.148.046.295.094.444.139q.729.221,1.47.421l.023.006c.15.04.3.076.454.115.385.1.769.2,1.159.291.205.048.414.091.621.137.3.068.6.139.909.2l.092.017c.619.126,1.242.244,1.87.35.129.022.26.04.389.061.5.082,1,.159,1.509.228.065.009.129.021.194.03.136.018.274.03.411.047.492.062.986.12,1.482.17q.335.035.669.066c.528.048,1.057.088,1.587.123.163.011.325.025.488.034q1.029.06,2.061.086c.159,0,.319,0,.479.006q.8.015,1.608.009c.225,0,.45,0,.675-.009q.752-.013,1.5-.045c.2-.009.4-.015.6-.025.688-.036,1.374-.079,2.058-.137.061,0,.121-.012.182-.018q.936-.081,1.864-.192c.211-.025.422-.053.632-.08q.728-.093,1.449-.2c.215-.033.429-.066.642-.1q.846-.14,1.681-.3c.106-.021.214-.039.32-.06q.986-.2,1.954-.433c.178-.042.353-.089.53-.133.476-.12.948-.244,1.417-.375l.621-.178q.709-.21,1.406-.438c.16-.052.322-.1.482-.156q.918-.31,1.81-.654c.12-.046.235-.1.354-.143q.716-.284,1.413-.588c.186-.081.369-.165.553-.249q.616-.281,1.216-.579c.169-.084.339-.166.5-.252.549-.283,1.09-.574,1.616-.879L478.7,199.592c7.11-4.131,10.668-9.537,10.684-14.951l.121-42.8C489.486,147.25,485.927,152.656,478.818,156.787Z"/><path class="c" d="M287.533,74.413,136.248,162.854c-.3.175-.616.333-.942.483-.1.045-.2.086-.3.129-.24.1-.485.2-.736.286-.111.039-.222.079-.335.115-.292.095-.59.18-.894.257-.066.017-.129.037-.2.053-.369.089-.747.163-1.129.226-.1.018-.209.03-.313.045-.287.042-.576.078-.868.106-.127.012-.255.023-.383.032-.3.022-.594.036-.892.043-.1,0-.2.008-.307.009q-.592,0-1.183-.028c-.08-.005-.159-.014-.239-.02q-.474-.033-.944-.091c-.133-.016-.265-.035-.4-.055-.232-.034-.461-.073-.69-.117-.144-.027-.289-.054-.432-.086s-.289-.067-.432-.1c-.174-.043-.346-.088-.517-.137-.106-.031-.212-.062-.317-.095-.2-.063-.4-.131-.6-.2-.068-.025-.138-.048-.2-.074q-.387-.148-.755-.318c-.05-.023-.1-.049-.149-.073-.238-.114-.472-.232-.7-.36L80.3,139.29c-.256-.146-.5-.3-.719-.457-.021-.014-.039-.03-.06-.045-.18-.129-.347-.261-.505-.4-.063-.053-.121-.107-.181-.161-.11-.1-.213-.2-.312-.306q-.108-.111-.207-.225a5.329,5.329,0,0,1-.349-.436l-.007-.009a4.784,4.784,0,0,1-.261-.433c-.051-.092-.1-.185-.14-.279s-.086-.194-.122-.291-.065-.19-.093-.285c-.032-.113-.062-.226-.084-.34-.009-.051-.02-.1-.027-.152a3.482,3.482,0,0,1-.042-.529l-.061,21.4a3.493,3.493,0,0,0,.042.529c.008.05.018.1.028.152s.018.122.032.183.036.1.051.156c.028.1.058.191.093.286s.078.194.123.29.089.187.14.28c.023.043.039.087.065.129.06.1.126.2.2.3l.006.01c.074.106.154.211.239.315.034.041.075.08.11.121.066.076.136.15.207.225.046.048.085.1.133.145s.121.107.179.16.119.108.181.162c.035.029.065.06.1.09.127.1.265.205.405.306.02.015.038.03.059.045l.015.011c.16.112.329.222.5.329l.2.117,41.1,23.589c.112.064.225.127.34.187s.236.117.355.174l.15.073c.022.01.042.022.065.032q.3.135.611.258c.026.01.053.018.078.028l.2.073c.13.047.257.1.389.14.069.023.14.041.209.063.1.032.211.064.318.094.078.023.155.049.235.071s.188.043.281.066c.144.036.287.071.432.1.065.014.128.032.193.045s.16.026.24.041q.342.066.69.117c.077.011.152.028.23.039.055.007.111.009.166.016q.47.059.944.091c.08,0,.159.015.239.019.394.023.789.031,1.184.028.1,0,.2-.006.306-.009.3-.007.6-.02.892-.042.129-.01.256-.021.384-.033q.436-.042.868-.1c.1-.016.209-.028.312-.045.382-.063.76-.137,1.13-.226.066-.016.13-.036.2-.053q.454-.115.893-.257c.113-.037.224-.076.335-.115q.377-.133.736-.286c.1-.043.2-.084.3-.13.326-.149.643-.307.943-.482L287.472,95.815a5.968,5.968,0,0,0,2.829-3.109,3.7,3.7,0,0,0,.191-1.151l.06-21.4C290.548,71.7,289.543,73.237,287.533,74.413Z"/><path class="e" d="M231.489,42.247c4.062-2.375,10.745-2.386,14.854-.028l41.1,23.59c4.109,2.358,4.15,6.229.089,8.6L136.248,162.854c-4.058,2.373-10.741,2.384-14.85.026L80.3,139.29c-4.109-2.358-4.151-6.229-.093-8.6Z"/><path class="c" d="M354.748,113.794,203.46,202.237a10.561,10.561,0,0,1-.943.483c-.1.045-.2.086-.3.129q-.36.153-.737.287c-.111.039-.222.078-.334.115-.292.094-.59.179-.892.256-.067.017-.131.038-.2.054-.37.088-.748.163-1.13.226-.1.017-.208.029-.312.044-.287.042-.577.078-.868.106-.128.012-.255.023-.383.032q-.446.033-.894.043c-.1,0-.2.008-.3.009q-.593,0-1.184-.028c-.079,0-.158-.014-.238-.019-.316-.023-.632-.053-.945-.092-.132-.016-.264-.035-.4-.054-.232-.035-.461-.074-.689-.117-.145-.028-.291-.055-.434-.087s-.288-.066-.431-.1c-.174-.043-.347-.088-.518-.137l-.315-.094c-.2-.064-.4-.131-.6-.2-.068-.025-.138-.048-.206-.074-.257-.1-.509-.2-.754-.317-.051-.024-.1-.05-.15-.074-.238-.114-.471-.232-.695-.36l-41.1-23.587c-.256-.147-.5-.3-.719-.457-.021-.015-.04-.032-.061-.047-.179-.128-.346-.26-.5-.4-.063-.053-.122-.107-.181-.161-.11-.1-.213-.2-.312-.306q-.108-.111-.207-.225a5.493,5.493,0,0,1-.349-.435l-.007-.01a4.539,4.539,0,0,1-.26-.432c-.051-.093-.1-.186-.141-.28s-.086-.194-.122-.291-.065-.189-.093-.285c-.032-.113-.062-.226-.084-.34-.009-.05-.02-.1-.027-.152a3.482,3.482,0,0,1-.042-.529l-.061,21.4a3.493,3.493,0,0,0,.042.529c.008.051.018.1.028.152s.018.122.032.183.037.1.052.157c.027.095.057.19.092.284s.078.2.123.292.089.187.14.279c.023.043.039.087.065.129.06.1.126.2.2.3l.006.01c.074.106.154.212.239.316.034.041.076.079.111.12.065.076.135.151.206.225.046.048.085.1.133.145s.121.107.179.16.118.108.181.162c.035.029.065.06.1.09.127.1.263.2.4.3.021.015.04.031.062.046l.014.011c.16.112.329.222.5.329.065.04.132.079.2.117l41.1,23.588c.111.064.225.126.34.186s.236.117.355.174c.05.024.1.05.149.073l.065.032q.3.137.612.258l.078.028c.067.026.136.049.2.073.13.047.257.1.39.14.069.023.14.041.21.063.1.033.209.064.315.094.079.023.156.049.236.071s.189.044.283.067c.143.035.285.07.43.1.065.014.128.032.193.046.08.016.162.025.241.04.228.044.457.083.689.117.078.012.153.029.231.039.055.007.111.009.166.016.313.039.627.069.944.091.08.006.159.015.239.02q.591.033,1.184.028c.1,0,.2-.007.3-.009.3-.008.6-.021.893-.043q.192-.014.384-.033c.291-.027.58-.063.867-.1.1-.015.209-.028.313-.045.382-.063.759-.137,1.129-.226.067-.016.131-.036.2-.053.3-.077.6-.162.892-.257.113-.036.223-.076.334-.115.252-.089.5-.184.737-.286.1-.043.2-.084.3-.129.325-.15.643-.308.942-.483L354.687,135.2c2.008-1.174,3.012-2.715,3.017-4.258l.06-21.4C357.76,111.079,356.756,112.62,354.748,113.794Z"/><path class="e" d="M298.708,81.63c4.058-2.372,10.741-2.384,14.85-.026l41.1,23.588c4.109,2.358,4.151,6.23.093,8.6L203.46,202.237c-4.058,2.373-10.742,2.384-14.851.026l-41.1-23.587c-4.109-2.359-4.151-6.23-.093-8.6Z"/><path d="M144.389,179.462l-8.2,4.8c-.3.175-.617.333-.943.482-.1.046-.2.087-.3.13q-.36.153-.736.286c-.111.039-.222.078-.335.115q-.438.141-.893.257c-.066.017-.13.037-.2.053-.37.089-.748.163-1.13.226-.1.017-.208.029-.312.045q-.432.063-.868.1c-.128.012-.255.023-.384.033-.3.022-.593.035-.892.042-.1,0-.2.009-.306.009-.395,0-.79,0-1.184-.028-.08,0-.159-.014-.239-.019q-.474-.033-.944-.091c-.055-.007-.111-.009-.166-.016l-.082-.014c4.127,2.239,10.645,2.193,14.636-.14l3.465-2.025Z"/><path d="M428.692,167.155l-2.187-1.255-.013,4.425c0,1.542-1.009,3.083-3.016,4.257L272.192,263.023c-.3.175-.618.334-.944.483-.1.045-.2.087-.3.13q-.36.153-.736.286c-.112.039-.222.079-.336.115-.291.1-.588.18-.891.257-.067.017-.131.037-.2.054q-.555.132-1.129.226c-.1.017-.209.029-.313.044-.288.042-.576.078-.868.106-.128.012-.255.023-.383.033q-.446.031-.892.042c-.1,0-.2.009-.308.009-.37,0-.741-.007-1.11-.026,4.127,1.778,10.014,1.586,13.722-.581l151.285-88.442C432.846,173.387,432.8,169.515,428.692,167.155Z"/><path class="c" d="M423.536,153.179,272.252,241.621a10.555,10.555,0,0,1-.943.482c-.1.046-.2.087-.3.13-.239.1-.485.2-.736.286-.111.04-.222.079-.335.116-.291.094-.589.179-.891.256-.067.017-.132.038-.2.054-.37.089-.747.163-1.129.226-.1.017-.209.03-.314.045-.287.042-.576.078-.867.1q-.192.02-.384.033c-.3.022-.593.035-.891.043-.1,0-.2.008-.308.009q-.592,0-1.183-.028c-.08,0-.16-.014-.24-.02-.316-.022-.631-.052-.943-.091-.134-.016-.266-.035-.4-.055q-.348-.051-.688-.116c-.146-.028-.291-.056-.435-.087s-.288-.067-.431-.1c-.174-.044-.347-.089-.518-.138-.106-.03-.212-.062-.316-.094-.2-.064-.4-.131-.6-.2-.068-.025-.137-.048-.2-.074-.257-.1-.509-.2-.754-.318-.052-.023-.1-.049-.152-.074-.237-.114-.471-.232-.694-.36l-41.1-23.587q-.382-.22-.718-.457c-.022-.015-.04-.031-.061-.046-.179-.128-.346-.261-.5-.4-.062-.053-.121-.107-.18-.161q-.165-.15-.313-.305c-.071-.075-.141-.149-.206-.225-.124-.144-.246-.288-.349-.435l-.007-.011a4.77,4.77,0,0,1-.261-.432c-.051-.092-.1-.185-.14-.279s-.086-.194-.122-.291-.066-.19-.093-.285c-.032-.113-.062-.226-.084-.34-.01-.05-.02-.1-.027-.152a3.617,3.617,0,0,1-.043-.529l-.06,21.4a3.469,3.469,0,0,0,.042.528c.007.051.018.1.027.153s.019.122.033.183.036.1.051.157c.028.095.058.19.093.284s.078.195.123.292.089.186.14.279c.023.042.039.086.064.129.061.1.127.2.2.3l.007.01c.074.106.154.211.239.315.033.041.075.08.11.12.066.076.135.151.207.226.046.048.085.1.133.145s.12.106.179.16.118.108.181.161c.035.03.065.061.1.09.128.1.265.205.4.306l.061.046.014.01c.161.113.329.222.506.329q.1.06.2.117l41.1,23.588c.112.064.225.126.341.187s.235.116.353.173l.152.074.065.032q.3.137.612.258l.078.028c.067.026.136.049.2.074.129.047.257.1.39.14.068.022.14.041.209.062.105.033.21.064.316.1.08.023.157.049.237.07s.188.044.281.067c.143.036.286.071.431.1.066.015.129.033.194.046s.161.026.241.041c.228.044.457.082.688.117.078.011.153.028.232.039.055.007.111.009.166.016q.47.058.943.091c.081,0,.16.015.24.019.394.023.788.031,1.183.028.1,0,.2-.006.308-.009q.447-.01.892-.042c.128-.01.255-.021.383-.033.292-.028.58-.064.868-.106.1-.015.209-.027.313-.044q.573-.094,1.129-.226c.068-.017.132-.037.2-.054.3-.077.6-.162.891-.257.114-.036.224-.076.336-.115q.377-.134.736-.286c.1-.043.2-.085.3-.13.326-.149.644-.308.944-.483l151.284-88.441c2.007-1.174,3.012-2.715,3.016-4.257l.061-21.4C426.548,150.465,425.544,152.005,423.536,153.179Z"/><path class="e" d="M367.493,121.013c4.058-2.372,10.742-2.384,14.851-.025l41.1,23.587c4.112,2.36,4.154,6.232.1,8.6L272.252,241.621c-4.061,2.374-10.745,2.386-14.857.025l-41.1-23.587c-4.109-2.358-4.151-6.23-.089-8.6Z"/><path d="M213.177,217.924,203.4,223.64c-.3.175-.617.333-.942.483-.1.045-.2.086-.3.129-.24.1-.485.2-.737.286-.111.039-.221.079-.334.115-.292.095-.589.18-.892.257-.067.017-.131.037-.2.053-.37.089-.747.163-1.129.226-.1.017-.209.03-.313.045-.287.042-.576.078-.867.1q-.192.019-.384.033c-.3.022-.595.035-.893.043-.1,0-.2.008-.3.009q-.593,0-1.184-.028c-.08,0-.159-.014-.239-.02-.178-.012-.354-.033-.531-.051,4.133,2.167,10.554,2.1,14.5-.21l4.513-2.638Z"/><path class="e" d="M478.652,126.677c14.4,8.314,14.476,21.794.166,30.11L271.564,277.23c-14.309,8.315-37.581,8.316-51.982,0L10.97,156.789C-3.429,148.476-3.5,135,10.8,126.68L218.057,6.237c14.31-8.316,37.583-8.315,51.982,0ZM264.1,270.779,467.655,152.488c10.179-5.916,10.125-15.594-.121-21.509L262.65,12.689c-10.246-5.916-26.955-5.916-37.134,0L21.964,130.98c-10.177,5.914-10.122,15.593.124,21.508l204.884,118.29c10.246,5.915,26.955,5.915,37.131,0"/><path class="e" d="M478.652,127.2c14.4,8.314,14.476,21.794.166,30.11L271.564,277.755c-14.309,8.315-37.581,8.316-51.982,0L10.97,157.314C-3.429,149-3.5,135.52,10.8,127.205L218.057,6.762c14.31-8.316,37.583-8.315,51.982,0ZM264.1,271.3,467.655,153.013c10.179-5.915,10.125-15.594-.121-21.509L262.65,13.214C252.4,7.3,235.7,7.3,225.516,13.214L21.964,131.505c-10.177,5.914-10.122,15.593.124,21.509L226.972,271.3c10.246,5.916,26.955,5.915,37.131,0"/><polygon points="77.145 150.396 77.17 141.633 40.349 163.031 47.9 167.391 77.145 150.396"/><g class="f"><g class="g"><path class="e" d="M88.522,213.982a5.654,5.654,0,0,0-2.332-.832,1.817,1.817,0,0,0-1.569.579,2.864,2.864,0,0,0-.561,1.924,5.75,5.75,0,0,0,.549,2.544,8.135,8.135,0,0,0,1.35,2.014c.523.566,1.211,1.229,2.053,1.972.67.585,1.193,1.071,1.576,1.461a6.084,6.084,0,0,1,.943,1.279,2.9,2.9,0,0,1,.379,1.439c0,.638-.207,1.048-.617,1.216a2.041,2.041,0,0,1-1.719-.383,4.578,4.578,0,0,1-1.646-1.567,4.28,4.28,0,0,1-.653-1.964L84,222.351a6.176,6.176,0,0,0,.588,2.588,9.013,9.013,0,0,0,1.636,2.437,9.9,9.9,0,0,0,2.342,1.881,4.694,4.694,0,0,0,2.4.766,1.862,1.862,0,0,0,1.55-.722,2.911,2.911,0,0,0,.542-1.833,5.822,5.822,0,0,0-.562-2.58,8.436,8.436,0,0,0-1.375-2.051c-.542-.584-1.237-1.258-2.092-2.023-.651-.574-1.155-1.049-1.531-1.442a6.048,6.048,0,0,1-.917-1.221,2.7,2.7,0,0,1-.361-1.34q0-1,.579-1.209a1.9,1.9,0,0,1,1.5.327,4.775,4.775,0,0,1,1.62,1.516,3.736,3.736,0,0,1,.667,1.781l2.343,1.353a7.416,7.416,0,0,0-1.32-3.731,9.23,9.23,0,0,0-3.08-2.866"/><path class="e" d="M98.389,227.806a1.842,1.842,0,0,1,.938-1.633,2.038,2.038,0,0,1,1.879.284,5.887,5.887,0,0,1,2.028,1.979,4.991,4.991,0,0,1,.837,2.651l-5.682-3.281m2.919-3.355a4.844,4.844,0,0,0-2.677-.789,2.222,2.222,0,0,0-1.813,1.084,5.273,5.273,0,0,0-.648,2.83,10.085,10.085,0,0,0,.649,3.579,11.289,11.289,0,0,0,1.82,3.2,9.516,9.516,0,0,0,2.634,2.278,4.1,4.1,0,0,0,3.03.713,2.441,2.441,0,0,0,1.693-1.69l-2.292-1.323c-.476.82-1.282.906-2.425.246a5.682,5.682,0,0,1-2.009-2.012,5.97,5.97,0,0,1-.906-2.8l7.84,4.527a7.5,7.5,0,0,0,.08-1.152,9.563,9.563,0,0,0-.623-3.395,10.881,10.881,0,0,0-1.769-3.064,9.435,9.435,0,0,0-2.584-2.226"/><path class="e" d="M114.888,232.291a3.317,3.317,0,0,0-1.84-.555,1.653,1.653,0,0,0-1.243.686l0-1.71-2.12-1.223-.033,11.789,2.12,1.224.017-6.206c0-1.2.223-1.915.652-2.152s1.062-.114,1.892.365l.543.313.007-2.531"/><polyline class="e" points="127.274 239.64 125.02 238.339 122.088 246.273 119.203 234.981 116.937 233.672 120.792 247.707 123.326 249.17 127.274 239.64"/><path class="e" d="M132.3,242.541l-2.119-1.223-.034,11.789,2.12,1.224.033-11.79m-1.027-5.288a.952.952,0,0,0-.972-.113.94.94,0,0,0-.392.89,2.641,2.641,0,0,0,.386,1.34,2.721,2.721,0,0,0,.969,1.008.818.818,0,0,0,1.345-.789,2.907,2.907,0,0,0-1.336-2.336"/><path class="e" d="M140.72,247.205a4.606,4.606,0,0,0-2.613-.752,2.242,2.242,0,0,0-1.781,1.1,5.256,5.256,0,0,0-.654,2.827,10.292,10.292,0,0,0,.636,3.571,11.118,11.118,0,0,0,1.769,3.167,9.278,9.278,0,0,0,2.609,2.263,4.072,4.072,0,0,0,3.055.7,2.483,2.483,0,0,0,1.687-1.884l-2.292-1.323c-.4,1.011-1.219,1.155-2.444.448a5.279,5.279,0,0,1-2.072-2.262,7.411,7.411,0,0,1-.764-3.425,3.133,3.133,0,0,1,.78-2.518c.513-.409,1.21-.359,2.078.142a4.88,4.88,0,0,1,1.544,1.384,5.635,5.635,0,0,1,.89,1.88l2.292,1.324a9.95,9.95,0,0,0-1.639-3.849,9.68,9.68,0,0,0-3.081-2.8"/><path class="e" d="M150.372,257.819a1.844,1.844,0,0,1,.939-1.633,2.045,2.045,0,0,1,1.879.284,5.887,5.887,0,0,1,2.028,1.979,4.991,4.991,0,0,1,.837,2.651l-5.683-3.281m2.92-3.355a4.844,4.844,0,0,0-2.678-.789,2.22,2.22,0,0,0-1.812,1.084,5.264,5.264,0,0,0-.648,2.83,10.085,10.085,0,0,0,.649,3.579,11.286,11.286,0,0,0,1.819,3.2,9.534,9.534,0,0,0,2.635,2.278,4.093,4.093,0,0,0,3.029.713,2.44,2.44,0,0,0,1.694-1.69l-2.293-1.323c-.475.82-1.281.906-2.424.246a5.7,5.7,0,0,1-2.009-2.012,5.974,5.974,0,0,1-.906-2.8l7.84,4.527a7.507,7.507,0,0,0,.08-1.152,9.585,9.585,0,0,0-.623-3.395,10.818,10.818,0,0,0-1.763-3.06,9.508,9.508,0,0,0-2.59-2.23"/></g></g><g class="f"><g class="h"><path class="e" d="M337.569,253.927a9.689,9.689,0,0,0-2.329,1.859,8.3,8.3,0,0,0-1.56,2.378,6.374,6.374,0,0,0-.549,2.565,2.564,2.564,0,0,0,.561,1.91,1.739,1.739,0,0,0,1.357.443,11.414,11.414,0,0,0,2.058-.4,10.981,10.981,0,0,1,1.579-.353,1.353,1.353,0,0,1,.947.18,1.114,1.114,0,0,1,.387,1,3.57,3.57,0,0,1-.609,1.931,4.878,4.878,0,0,1-1.716,1.6,1.83,1.83,0,0,1-1.649.327,1.317,1.317,0,0,1-.662-1.2l-2.273,1.312a2.687,2.687,0,0,0,.6,1.91,1.952,1.952,0,0,0,1.645.535,5.609,5.609,0,0,0,2.344-.825,9.3,9.3,0,0,0,3.933-4.5,6.442,6.442,0,0,0,.53-2.444,2.578,2.578,0,0,0-.574-1.932,1.8,1.8,0,0,0-1.383-.458,12.488,12.488,0,0,0-2.1.395,11.934,11.934,0,0,1-1.534.334,1.422,1.422,0,0,1-.922-.166,1,1,0,0,1-.367-.912,3.331,3.331,0,0,1,.571-1.88,4.466,4.466,0,0,1,1.492-1.391,2.04,2.04,0,0,1,1.623-.364,1.049,1.049,0,0,1,.675,1.007l2.343-1.353c-.087-1.207-.536-1.939-1.336-2.2a3.982,3.982,0,0,0-3.087.7"/><path class="e" d="M350.439,259.657a1.962,1.962,0,0,1-2.135.19c-.571-.362-.854-1.183-.858-2.452a6.966,6.966,0,0,1,.4-2.408,6.69,6.69,0,0,1,1.107-1.976,5.543,5.543,0,0,1,1.518-1.325,2.763,2.763,0,0,1,1.527-.434,1.418,1.418,0,0,1,1.14.68,3.478,3.478,0,0,1,.434,1.924,6.661,6.661,0,0,1-.44,2.444,7.284,7.284,0,0,1-1.158,2.021,5.879,5.879,0,0,1-1.538,1.336m.061-10.11a9.875,9.875,0,0,0-2.66,2.286,11.388,11.388,0,0,0-1.871,3.226,9.86,9.86,0,0,0-.681,3.582,4.98,4.98,0,0,0,.68,2.811,2.323,2.323,0,0,0,1.844,1.081,4.7,4.7,0,0,0,2.633-.756,10.054,10.054,0,0,0,2.686-2.314,11.771,11.771,0,0,0,1.922-3.263,9.722,9.722,0,0,0,.7-3.6,4.839,4.839,0,0,0-.7-2.786,2.334,2.334,0,0,0-1.883-1.058,4.958,4.958,0,0,0-2.671.792"/><polyline class="e" points="361.254 239.481 359.134 240.705 359.179 256.537 361.298 255.313 361.254 239.481"/><path class="e" d="M374.66,235.789l-2.126,1.228.019,6.573a5.678,5.678,0,0,1-.689,2.831,4.989,4.989,0,0,1-1.888,1.934c-.8.461-1.424.544-1.886.244s-.693-.974-.7-2.03L367.375,240l-2.1,1.213.019,6.933a4.359,4.359,0,0,0,.557,2.427,1.8,1.8,0,0,0,1.512.839,4.273,4.273,0,0,0,2.172-.673,7.288,7.288,0,0,0,1.723-1.414,8.134,8.134,0,0,0,1.305-1.9l0,1.387,2.126-1.228-.033-11.79"/><path class="e" d="M381.228,229.058l-2.145,1.239.008,2.934-1.207.7.006,1.988,1.207-.7.018,6.53c0,1.159.261,1.841.773,2.059a2.615,2.615,0,0,0,2.2-.5l1.679-.97-.006-2.032-1.3.752c-.441.254-.747.336-.927.248s-.269-.358-.271-.8l-.018-6.529,2.5-1.441,0-1.989-2.5,1.442-.008-2.935"/><path class="e" d="M389.115,227.444l-2.126,1.227.033,11.79,2.126-1.227-.033-11.79m-1.06-4.083a2.636,2.636,0,0,0-.963,1,2.672,2.672,0,0,0-.393,1.343.825.825,0,0,0,1.364.778,2.609,2.609,0,0,0,.95-1,2.673,2.673,0,0,0,.393-1.344.934.934,0,0,0-.4-.886.92.92,0,0,0-.952.1"/><path class="e" d="M397.692,232.376a1.959,1.959,0,0,1-2.135.189c-.571-.361-.854-1.182-.858-2.452a6.983,6.983,0,0,1,.4-2.407,6.686,6.686,0,0,1,1.108-1.977,5.56,5.56,0,0,1,1.518-1.325,2.761,2.761,0,0,1,1.527-.433,1.422,1.422,0,0,1,1.14.679,3.553,3.553,0,0,1,.434,1.925,6.78,6.78,0,0,1-.44,2.444,7.2,7.2,0,0,1-1.165,2.024,5.82,5.82,0,0,1-1.531,1.333m.061-10.11a9.888,9.888,0,0,0-2.66,2.285,11.278,11.278,0,0,0-1.871,3.226,9.847,9.847,0,0,0-.681,3.582,4.984,4.984,0,0,0,.679,2.812,2.331,2.331,0,0,0,1.845,1.081,4.713,4.713,0,0,0,2.633-.756,10.059,10.059,0,0,0,2.686-2.315,11.757,11.757,0,0,0,1.922-3.263,9.7,9.7,0,0,0,.7-3.6,4.832,4.832,0,0,0-.7-2.786,2.335,2.335,0,0,0-1.883-1.059,4.951,4.951,0,0,0-2.671.793"/><path class="e" d="M411.576,214.285a7.384,7.384,0,0,0-1.723,1.4,8.349,8.349,0,0,0-1.325,1.9l0-1.35-2.126,1.227.034,11.79,2.126-1.227-.019-6.588a5.678,5.678,0,0,1,.689-2.831,4.989,4.989,0,0,1,1.888-1.934c.791-.458,1.424-.544,1.885-.244s.694.974.7,2.03l.019,6.588,2.1-1.213-.02-6.955a4.469,4.469,0,0,0-.544-2.426,1.792,1.792,0,0,0-1.5-.851,4.289,4.289,0,0,0-2.172.681"/><path class="e" d="M423.349,207.488a8.846,8.846,0,0,0-2.08,1.649,7.7,7.7,0,0,0-1.382,2.033,4.875,4.875,0,0,0-.481,2,1.859,1.859,0,0,0,.536,1.55,1.7,1.7,0,0,0,1.26.323,13.224,13.224,0,0,0,1.886-.376,8.132,8.132,0,0,1,1.745-.3c.364,0,.551.226.552.666a2.246,2.246,0,0,1-.489,1.3,4.394,4.394,0,0,1-1.391,1.2,1.828,1.828,0,0,1-1.425.316.913.913,0,0,1-.629-.893l-2.2,1.268a2.241,2.241,0,0,0,.6,1.594,1.96,1.96,0,0,0,1.523.5,4.96,4.96,0,0,0,2.172-.747,8.71,8.71,0,0,0,2.074-1.653,7.522,7.522,0,0,0,1.369-2.033,5.018,5.018,0,0,0,.474-2.074,1.544,1.544,0,0,0-1.783-1.829,11.024,11.024,0,0,0-1.834.361c-.563.141-.984.23-1.272.272a1.18,1.18,0,0,1-.729-.079.641.641,0,0,1-.3-.623,2.069,2.069,0,0,1,.444-1.226,3.974,3.974,0,0,1,1.282-1.1,1.7,1.7,0,0,1,1.361-.315c.34.12.526.431.566.937l2.12-1.224c-.055-1.137-.441-1.84-1.151-2.113a3.482,3.482,0,0,0-2.825.617"/></g></g><g class="f"><g class="i"><path class="d" d="M140.176,118.125l-2.623-3.2,5.5,1.537-2.873,1.659m-3.525-4.689-1.672.966,5.606,6.911,1.506-.869-1.156-1.405,3.69-2.131,2.421.675,1.519-.877-11.914-3.27"/><polyline class="d" points="142.95 109.16 141.507 109.993 150.819 115.405 152.262 114.571 142.95 109.16"/><polyline class="d" points="147.183 106.716 145.734 107.553 155.046 112.964 156.495 112.127 147.183 106.716"/><polyline class="d" points="155.592 101.861 154.149 102.694 163.461 108.106 164.904 107.273 161.922 105.54 167.483 105.784 169.437 104.656 162.756 104.501 162.504 100.627 160.499 101.784 161.003 105.006 155.592 101.861"/><path class="d" d="M165.875,98.68l-1.449.837,6.933,4.029,1.449-.837-6.933-4.029M162.4,97.49a.64.64,0,0,0-.391.534.653.653,0,0,0,.392.531,1.983,1.983,0,0,0,1.839,0,.636.636,0,0,0,.385-.531.651.651,0,0,0-.392-.531,1.831,1.831,0,0,0-.915-.229,1.8,1.8,0,0,0-.918.222"/><path class="d" d="M172.062,94.976a2.687,2.687,0,0,0-.927.814,1.221,1.221,0,0,0-.241.911l-.792-.461-1.443.833,6.933,4.029,1.443-.833-3.876-2.252q-.933-.543-.948-1.106c-.024-.376.239-.719.782-1.032a3.332,3.332,0,0,1,1.778-.446,3.879,3.879,0,0,1,1.9.556l3.876,2.253,1.43-.826-4.091-2.378a5.945,5.945,0,0,0-4-.722,5.724,5.724,0,0,0-1.818.66"/><path class="d" d="M186.676,93.387a3.726,3.726,0,0,1-1.307.431,5.019,5.019,0,0,1-1.61-.026,4.623,4.623,0,0,1-1.562-.56,2.215,2.215,0,0,1-.937-.892.982.982,0,0,1-.014-.911,1.779,1.779,0,0,1,.762-.755,3.789,3.789,0,0,1,1.32-.439,4.967,4.967,0,0,1,1.584.019,4.472,4.472,0,0,1,1.544.549,2.311,2.311,0,0,1,.955.9,1.045,1.045,0,0,1,.033.922,1.792,1.792,0,0,1-.768.759m-4.6-6.816-1.456.841,3.343,1.942a6.861,6.861,0,0,0-1.847.155,5.738,5.738,0,0,0-1.639.608,2.789,2.789,0,0,0-1.235,1.228,1.579,1.579,0,0,0,.062,1.419,3.513,3.513,0,0,0,1.412,1.323,7.109,7.109,0,0,0,2.3.837,7.873,7.873,0,0,0,2.476.055,5.708,5.708,0,0,0,2.129-.693,2.845,2.845,0,0,0,1.107-1.021,1.34,1.34,0,0,0,.152-1.05l1.047.608,1.455-.841-9.311-5.411"/><path class="d" d="M189.544,84.883a3.44,3.44,0,0,0-1.145.969,1.09,1.09,0,0,0-.222.966,1.356,1.356,0,0,0,.677.778,3.115,3.115,0,0,0,1.461.427,5.332,5.332,0,0,0,1.471-.136c.459-.11,1.026-.276,1.695-.494a13.182,13.182,0,0,1,1.6-.446,1.34,1.34,0,0,1,.948.122c.247.144.335.32.264.538a1.426,1.426,0,0,1-.71.682,2.935,2.935,0,0,1-1.262.391,2.275,2.275,0,0,1-1.158-.185l-1.494.863a3.862,3.862,0,0,0,1.538.428,6.156,6.156,0,0,0,1.84-.13,6.092,6.092,0,0,0,1.773-.678,3.384,3.384,0,0,0,1.144-.969,1.123,1.123,0,0,0,.2-.962,1.482,1.482,0,0,0-.734-.8A3.1,3.1,0,0,0,196,85.834a5.418,5.418,0,0,0-1.458.129c-.459.11-1.014.269-1.651.483-.491.158-.867.273-1.135.339a3.124,3.124,0,0,1-.79.118,1.266,1.266,0,0,1-.667-.159c-.235-.136-.329-.3-.264-.5a1.351,1.351,0,0,1,.659-.63,2.721,2.721,0,0,1,1.2-.373,2.174,2.174,0,0,1,1.118.214l1.45-.837a4.588,4.588,0,0,0-2.409-.5,5.589,5.589,0,0,0-2.518.763"/><path class="d" d="M207.893,81.138a3.915,3.915,0,0,1-2.059.483,4.72,4.72,0,0,1-2.306-.675,2.52,2.52,0,0,1-1-.9.944.944,0,0,1-.033-.892,1.828,1.828,0,0,1,.767-.752,3.859,3.859,0,0,1,1.308-.446,4.777,4.777,0,0,1,1.559.011,4.628,4.628,0,0,1,1.562.575,2.365,2.365,0,0,1,.987.921,1.013,1.013,0,0,1,0,.918,1.991,1.991,0,0,1-.787.756m-5.848-3.473a3.376,3.376,0,0,0-1.376,1.3,1.62,1.62,0,0,0-.015,1.47,3.286,3.286,0,0,0,1.406,1.357,6.77,6.77,0,0,0,2.337.833,7.84,7.84,0,0,0,2.507.007,6.518,6.518,0,0,0,2.238-.77,3.394,3.394,0,0,0,1.382-1.32,1.64,1.64,0,0,0,.047-1.489,3.237,3.237,0,0,0-1.4-1.368,6.679,6.679,0,0,0-2.337-.818,7.921,7.921,0,0,0-2.539,0,6.774,6.774,0,0,0-2.251.792"/><path class="d" d="M208.076,71.089q-1.369.791-1.459,1.482c-.06.453.307.918,1.1,1.379l.495.287-.824.476,1.167.678.824-.476,5.766,3.351,1.455-.84-5.766-3.351,1.3-.748-1.167-.679-1.3.749-.5-.288c-.4-.232-.595-.45-.581-.649s.244-.42.684-.674l-1.2-.7"/><polyline class="d" points="117.29 142.126 115.847 142.959 124.588 148.038 126.031 147.205 117.29 142.126"/><path class="d" d="M125.292,139.468a2.824,2.824,0,0,0-.934.818,1.234,1.234,0,0,0-.234.907l-.793-.461-1.449.837,6.933,4.029,1.449-.837-3.876-2.252c-.621-.361-.944-.726-.954-1.1s.252-.719.788-1.029a3.377,3.377,0,0,1,1.778-.453,3.861,3.861,0,0,1,1.893.56l3.876,2.253,1.43-.826-4.085-2.374a5.86,5.86,0,0,0-1.975-.726,5.962,5.962,0,0,0-2.03,0,5.528,5.528,0,0,0-1.817.652"/><path class="d" d="M133.3,134.846a3.413,3.413,0,0,0-1.145.969,1.115,1.115,0,0,0-.221.966,1.34,1.34,0,0,0,.683.781,3.077,3.077,0,0,0,1.455.424,5.25,5.25,0,0,0,1.477-.133c.458-.11,1.026-.276,1.689-.5a13.764,13.764,0,0,1,1.6-.439,1.341,1.341,0,0,1,.954.118.439.439,0,0,1,.258.542,1.447,1.447,0,0,1-.7.678,2.946,2.946,0,0,1-1.269.387,2.22,2.22,0,0,1-1.164-.18l-1.494.862a4.007,4.007,0,0,0,1.551.428,6.314,6.314,0,0,0,1.833-.125,6.175,6.175,0,0,0,1.773-.686,3.39,3.39,0,0,0,1.145-.97,1.1,1.1,0,0,0,.2-.962,1.453,1.453,0,0,0-.728-.8,3.126,3.126,0,0,0-1.436-.412,5.516,5.516,0,0,0-1.451.132c-.465.107-1.014.269-1.664.483-.484.155-.861.269-1.128.343a3.265,3.265,0,0,1-.79.111,1.274,1.274,0,0,1-.667-.152c-.235-.136-.323-.306-.259-.5s.276-.409.66-.63a2.7,2.7,0,0,1,1.2-.376,2.274,2.274,0,0,1,1.125.218l1.443-.834a4.492,4.492,0,0,0-2.409-.5,5.571,5.571,0,0,0-2.518.756"/><path class="d" d="M144.962,128.244l-1.443.833,3.863,2.245q.933.541.949,1.1c.023.376-.24.719-.783,1.033a3.328,3.328,0,0,1-1.778.446,3.881,3.881,0,0,1-1.9-.557l-3.863-2.245-1.431.826,4.079,2.37a5.819,5.819,0,0,0,1.988.719,5.962,5.962,0,0,0,2.03,0,5.667,5.667,0,0,0,1.811-.656,2.707,2.707,0,0,0,.928-.822,1.193,1.193,0,0,0,.221-.907l.818.476,1.443-.833-6.933-4.029"/><path class="d" d="M151.169,124.528a2.272,2.272,0,0,0-.954.9,1.1,1.1,0,0,0-.018.965l-1.008-.586-1.443.833,6.933,4.029,1.443-.833-3.648-2.119q-1.056-.613-1.043-1.117c0-.332.29-.667.852-.992l.37-.214-1.484-.862"/><path class="d" d="M162.418,124.889a3.723,3.723,0,0,1-1.32.431,5.046,5.046,0,0,1-1.61-.025,4.588,4.588,0,0,1-1.549-.561,2.247,2.247,0,0,1-.95-.892,1.043,1.043,0,0,1-.014-.91,1.865,1.865,0,0,1,.775-.756,3.771,3.771,0,0,1,1.313-.442,5.3,5.3,0,0,1,1.584.018,4.5,4.5,0,0,1,1.544.557,2.3,2.3,0,0,1,.956.9,1.047,1.047,0,0,1,.033.921,1.806,1.806,0,0,1-.762.763m-6.225-3.262a2.774,2.774,0,0,0-1.216,1.224,1.6,1.6,0,0,0,.062,1.411,3.453,3.453,0,0,0,1.412,1.331,6.937,6.937,0,0,0,2.306.83,7.955,7.955,0,0,0,2.468.066,5.727,5.727,0,0,0,2.1-.686,2.873,2.873,0,0,0,1.12-1.021,1.436,1.436,0,0,0,.184-1.054l1.027.6,1.456-.84-6.933-4.029-1.456.84,1.009.586a6.931,6.931,0,0,0-1.782.1,5.383,5.383,0,0,0-1.761.642"/><path class="d" d="M166.377,115.747a2.763,2.763,0,0,0-.927.815,1.221,1.221,0,0,0-.241.911l-.793-.461-1.443.833,6.933,4.029,1.443-.833-3.875-2.252c-.622-.362-.938-.73-.955-1.1s.252-.718.795-1.032a3.373,3.373,0,0,1,1.771-.45,3.879,3.879,0,0,1,1.894.561l3.875,2.252,1.437-.829-4.085-2.374a5.915,5.915,0,0,0-4.012-.719,5.55,5.55,0,0,0-1.817.652"/><path class="d" d="M174.9,110.826a3.118,3.118,0,0,0-1.325,1.279,1.534,1.534,0,0,0,.036,1.427,3.555,3.555,0,0,0,1.45,1.345,6.906,6.906,0,0,0,2.312.841,7.568,7.568,0,0,0,2.475.033,6.266,6.266,0,0,0,2.213-.763,2.8,2.8,0,0,0,1.46-1.563,1.712,1.712,0,0,0-.545-1.633l-1.558.9c.462.578.274,1.113-.562,1.6a3.615,3.615,0,0,1-2.039.449,5.056,5.056,0,0,1-2.275-.715c-.748-.435-1.159-.873-1.22-1.316s.2-.836.789-1.176a3.4,3.4,0,0,1,1.339-.442,3.9,3.9,0,0,1,1.412.118l1.558-.9a6.706,6.706,0,0,0-2.817-.343,6.54,6.54,0,0,0-2.7.862"/><path class="d" d="M184.439,108.751a1.252,1.252,0,0,1-.649-1.11,1.4,1.4,0,0,1,.807-1.01,4.044,4.044,0,0,1,1.861-.523,3.426,3.426,0,0,1,1.844.413l-3.863,2.23m-.989-2.86a3.278,3.278,0,0,0-1.37,1.3,1.515,1.515,0,0,0,.018,1.438,3.559,3.559,0,0,0,1.449,1.346,6.85,6.85,0,0,0,2.325.833,7.645,7.645,0,0,0,2.507.014,6.408,6.408,0,0,0,2.232-.774,2.806,2.806,0,0,0,1.453-1.544,1.67,1.67,0,0,0-.424-1.571l-1.557.9q.49.84-.677,1.515a3.915,3.915,0,0,1-1.874.494,4.031,4.031,0,0,1-1.951-.417l5.331-3.078a5.618,5.618,0,0,0-.653-.438,6.512,6.512,0,0,0-2.217-.785,7.262,7.262,0,0,0-2.4,0,6.445,6.445,0,0,0-2.193.767"/><path class="d" d="M194.36,97.5a3.868,3.868,0,0,0-1.285,1.088,1.256,1.256,0,0,0-.2,1.12,1.979,1.979,0,0,0,.942.984,4,4,0,0,0,1.69.546,5.708,5.708,0,0,0,1.642-.111q.765-.177,1.855-.542c.581-.195,1.046-.339,1.4-.427a4.033,4.033,0,0,1,1.07-.125,2,2,0,0,1,.978.265c.381.221.545.479.5.781s-.3.594-.8.881a3.06,3.06,0,0,1-1.492.435,2.952,2.952,0,0,1-1.379-.283l-1.546.892a4.271,4.271,0,0,0,1.728.538,6.425,6.425,0,0,0,1.993-.137,6.786,6.786,0,0,0,1.9-.744,3.294,3.294,0,0,0,1.273-1.147,1.28,1.28,0,0,0,.095-1.157,1.993,1.993,0,0,0-.9-.944,3.924,3.924,0,0,0-1.715-.545,5.61,5.61,0,0,0-1.668.11c-.529.122-1.16.3-1.906.55-.555.18-1.014.32-1.364.405a3.922,3.922,0,0,1-1.032.125,1.817,1.817,0,0,1-.909-.239c-.4-.233-.57-.479-.517-.752a1.264,1.264,0,0,1,.7-.771,3.238,3.238,0,0,1,1.447-.438,2.5,2.5,0,0,1,1.271.213l1.6-.921a5.012,5.012,0,0,0-2.651-.49,6.256,6.256,0,0,0-2.728.84"/><path class="d" d="M210.814,96.948a3.881,3.881,0,0,1-2.058.483,4.721,4.721,0,0,1-2.313-.671,2.513,2.513,0,0,1-1-.907.949.949,0,0,1-.033-.892,1.893,1.893,0,0,1,.775-.748,3.871,3.871,0,0,1,1.294-.446,4.694,4.694,0,0,1,1.559.011,4.54,4.54,0,0,1,1.575.575,2.269,2.269,0,0,1,.975.921.978.978,0,0,1,0,.918,1.886,1.886,0,0,1-.774.756m-5.855-3.476a3.364,3.364,0,0,0-1.369,1.305,1.556,1.556,0,0,0-.021,1.467,3.305,3.305,0,0,0,1.405,1.364,6.75,6.75,0,0,0,2.338.825,7.653,7.653,0,0,0,2.513.011,6.465,6.465,0,0,0,2.232-.774,3.387,3.387,0,0,0,1.382-1.312,1.655,1.655,0,0,0,.047-1.5,3.207,3.207,0,0,0-1.393-1.364,6.7,6.7,0,0,0-2.343-.822,7.7,7.7,0,0,0-2.54.011,6.719,6.719,0,0,0-2.251.785"/><polyline class="d" points="210.012 87.931 208.569 88.765 217.881 94.176 219.324 93.343 210.012 87.931"/><path class="d" d="M221.5,84.054l-1.449.836,3.863,2.245c.622.362.944.726.955,1.1s-.246.723-.782,1.033a3.347,3.347,0,0,1-1.785.449,3.861,3.861,0,0,1-1.893-.56l-3.863-2.245-1.43.826,4.078,2.37a5.818,5.818,0,0,0,1.982.723,6,6,0,0,0,2.036-.008,5.658,5.658,0,0,0,1.811-.656,2.707,2.707,0,0,0,.928-.822,1.158,1.158,0,0,0,.215-.9l.818.475,1.449-.836L221.5,84.054"/><path class="d" d="M224.245,80.471l-1.455.84,1.725,1-.824.475,1.174.682.823-.475,3.838,2.23a3.678,3.678,0,0,0,1.989.556,4.2,4.2,0,0,0,1.944-.6l1.143-.66-1.193-.693-.887.512a1.679,1.679,0,0,1-.8.262,1.378,1.378,0,0,1-.743-.218l-3.838-2.23,1.7-.98-1.173-.682-1.7.98-1.726-1"/><path class="d" d="M231.327,78.381l-1.443.833,6.933,4.029,1.443-.833-6.933-4.029m-3.461-1.191a.653.653,0,0,0-.4.531.645.645,0,0,0,.392.538,1.8,1.8,0,0,0,.921.225,1.777,1.777,0,0,0,.918-.229.556.556,0,0,0,0-1.058,1.981,1.981,0,0,0-1.832-.007"/><path class="d" d="M242.941,78.4a3.9,3.9,0,0,1-2.058.483,4.755,4.755,0,0,1-2.306-.675,2.519,2.519,0,0,1-1-.906.951.951,0,0,1-.033-.893,1.876,1.876,0,0,1,.768-.744,3.9,3.9,0,0,1,1.3-.45,4.832,4.832,0,0,1,1.559.011,4.675,4.675,0,0,1,1.575.575,2.265,2.265,0,0,1,.975.922,1,1,0,0,1,0,.918,1.888,1.888,0,0,1-.781.759m-5.854-3.476a3.338,3.338,0,0,0-1.363,1.3,1.581,1.581,0,0,0-.027,1.471,3.313,3.313,0,0,0,1.411,1.36,6.877,6.877,0,0,0,2.331.83,7.723,7.723,0,0,0,2.52.007,6.47,6.47,0,0,0,2.226-.77,3.419,3.419,0,0,0,1.388-1.316,1.627,1.627,0,0,0,.04-1.493,3.139,3.139,0,0,0-1.386-1.368,6.74,6.74,0,0,0-2.35-.818,7.662,7.662,0,0,0-2.533.007,6.771,6.771,0,0,0-2.257.789"/><path class="d" d="M246.485,69.5a2.75,2.75,0,0,0-.927.814,1.222,1.222,0,0,0-.241.911l-.793-.461-1.442.833,6.933,4.029,1.443-.833-3.876-2.252c-.622-.361-.938-.73-.955-1.1s.252-.719.795-1.032a3.365,3.365,0,0,1,1.772-.45,3.867,3.867,0,0,1,1.893.56l3.876,2.253,1.43-.826-4.085-2.374a5.874,5.874,0,0,0-4-.723,5.549,5.549,0,0,0-1.818.653"/><path class="d" d="M254.492,64.874a3.441,3.441,0,0,0-1.145.97,1.135,1.135,0,0,0-.222.966,1.377,1.377,0,0,0,.683.781,3.083,3.083,0,0,0,1.455.424,5.373,5.373,0,0,0,1.477-.133c.459-.11,1.026-.276,1.689-.5a13.987,13.987,0,0,1,1.607-.443,1.327,1.327,0,0,1,.947.122c.241.14.336.321.265.538a1.468,1.468,0,0,1-.711.682,2.938,2.938,0,0,1-1.268.387,2.247,2.247,0,0,1-1.158-.184l-1.494.862a3.9,3.9,0,0,0,1.544.432,6.458,6.458,0,0,0,1.84-.129,6.093,6.093,0,0,0,1.767-.682,3.4,3.4,0,0,0,1.145-.97,1.1,1.1,0,0,0,.2-.962,1.451,1.451,0,0,0-.727-.8,3.139,3.139,0,0,0-1.436-.413,5.562,5.562,0,0,0-1.452.133c-.465.107-1.013.269-1.663.483-.485.155-.861.269-1.122.339a3.129,3.129,0,0,1-.8.114,1.24,1.24,0,0,1-.661-.154c-.235-.137-.33-.3-.265-.5s.276-.409.659-.63a2.707,2.707,0,0,1,1.2-.376,2.228,2.228,0,0,1,1.125.217l1.443-.833a4.446,4.446,0,0,0-2.409-.5,5.579,5.579,0,0,0-2.518.755"/></g></g><g class="f"><g class="j"><path class="d" d="M209.524,149.136a4.057,4.057,0,0,0-1.683,1.64,2.1,2.1,0,0,0-.042,1.869,3.881,3.881,0,0,0,1.7,1.684,8.1,8.1,0,0,0,2.9.992,10.347,10.347,0,0,0,3.22-.015,8.3,8.3,0,0,0,2.838-.977,4,4,0,0,0,1.824-1.839,2,2,0,0,0-.352-2.046l-1.736,1a1.14,1.14,0,0,1,.082,1.15,2.486,2.486,0,0,1-1.062,1.01,5.531,5.531,0,0,1-1.957.667,6.669,6.669,0,0,1-2.195-.04,6.233,6.233,0,0,1-2.084-.76,3.255,3.255,0,0,1-1.31-1.213,1.343,1.343,0,0,1-.057-1.268,2.765,2.765,0,0,1,1.171-1.124,5.112,5.112,0,0,1,1.741-.615,5.459,5.459,0,0,1,1.985.051l1.737-1a9.39,9.39,0,0,0-3.531-.21,8.556,8.556,0,0,0-3.194,1.044"/><path class="d" d="M217.182,144.192l-1.443.833,9.312,5.412,1.443-.833-3.876-2.253c-.621-.361-.937-.729-.954-1.1s.252-.719.8-1.032a3.373,3.373,0,0,1,1.771-.45,3.879,3.879,0,0,1,1.894.561L230,147.58l1.437-.829-4.092-2.378a5.916,5.916,0,0,0-1.975-.726,5.749,5.749,0,0,0-1.992-.011,5.23,5.23,0,0,0-1.766.623,3.043,3.043,0,0,0-.991.851,1.249,1.249,0,0,0-.253.933l-3.185-1.851"/><path class="d" d="M231.092,142.209a1.25,1.25,0,0,1-.643-1.106,1.377,1.377,0,0,1,.808-1.01,3.986,3.986,0,0,1,1.855-.519,3.383,3.383,0,0,1,1.843.405l-3.863,2.23m-.983-2.857a3.222,3.222,0,0,0-1.369,1.305,1.518,1.518,0,0,0,.017,1.438,3.549,3.549,0,0,0,1.444,1.342,6.863,6.863,0,0,0,2.331.837,7.649,7.649,0,0,0,2.494.014,6.5,6.5,0,0,0,2.245-.774,2.81,2.81,0,0,0,1.453-1.544,1.67,1.67,0,0,0-.424-1.571l-1.558.9c.328.56.1,1.061-.683,1.511a3.886,3.886,0,0,1-1.867.5,4.032,4.032,0,0,1-1.952-.417l5.331-3.078a5.533,5.533,0,0,0-.653-.438,6.49,6.49,0,0,0-2.216-.786,7.289,7.289,0,0,0-2.4,0,6.457,6.457,0,0,0-2.194.766"/><path class="d" d="M244.838,137.7a3.686,3.686,0,0,1-1.313.435,5.046,5.046,0,0,1-1.61-.025,4.593,4.593,0,0,1-1.55-.561,2.244,2.244,0,0,1-.949-.892,1.017,1.017,0,0,1-.014-.91,1.862,1.862,0,0,1,.774-.756,3.778,3.778,0,0,1,1.313-.442,5.089,5.089,0,0,1,1.585.018,4.5,4.5,0,0,1,1.537.553,2.317,2.317,0,0,1,.962.9,1.029,1.029,0,0,1,.033.922,1.81,1.81,0,0,1-.768.759m-6.218-3.258a2.763,2.763,0,0,0-1.216,1.224,1.56,1.56,0,0,0,.062,1.411,3.447,3.447,0,0,0,1.412,1.331,6.972,6.972,0,0,0,2.305.83,7.8,7.8,0,0,0,2.463.062,5.652,5.652,0,0,0,2.11-.682,2.8,2.8,0,0,0,1.113-1.024,1.379,1.379,0,0,0,.184-1.055l1.034.6,1.456-.84-6.933-4.029-1.456.84,1.008.586a6.566,6.566,0,0,0-1.782.1,5.378,5.378,0,0,0-1.76.642"/><path class="d" d="M254.754,131.973a3.781,3.781,0,0,1-1.308.438,4.931,4.931,0,0,1-1.6-.018,4.538,4.538,0,0,1-1.549-.56,2.284,2.284,0,0,1-.95-.892,1.024,1.024,0,0,1-.02-.922,1.8,1.8,0,0,1,.761-.756,3.924,3.924,0,0,1,1.314-.449,4.946,4.946,0,0,1,1.578.007,4.426,4.426,0,0,1,1.537.553,2.342,2.342,0,0,1,.962.9,1.032,1.032,0,0,1,.04.933,1.775,1.775,0,0,1-.768.767m-5.593-3.62a2.744,2.744,0,0,0-1.1,1.017,1.4,1.4,0,0,0-.2,1.047l-1.021-.593-1.443.833,10.231,5.946,1.443-.833-4.307-2.5a7.331,7.331,0,0,0,1.815-.122,5.322,5.322,0,0,0,1.74-.63,2.656,2.656,0,0,0,1.2-1.232,1.583,1.583,0,0,0-.1-1.426A3.639,3.639,0,0,0,256,128.522a6.931,6.931,0,0,0-2.287-.825,7.5,7.5,0,0,0-2.43-.045,5.919,5.919,0,0,0-2.117.7"/><path class="d" d="M258.738,126.248a1.284,1.284,0,0,1-.643-1.106,1.4,1.4,0,0,1,.814-1.013,3.987,3.987,0,0,1,1.855-.52,3.366,3.366,0,0,1,1.837.409l-3.863,2.23m-.977-2.86a3.262,3.262,0,0,0-1.376,1.308,1.491,1.491,0,0,0,.024,1.434,3.536,3.536,0,0,0,1.437,1.346,6.958,6.958,0,0,0,2.331.836,7.581,7.581,0,0,0,2.5.011,6.484,6.484,0,0,0,2.245-.774,2.779,2.779,0,0,0,1.446-1.541,1.671,1.671,0,0,0-.417-1.574l-1.558.9c.321.564.09,1.065-.683,1.511a3.916,3.916,0,0,1-1.874.5,4.092,4.092,0,0,1-1.951-.417l5.331-3.078a4.779,4.779,0,0,0-.653-.439,6.461,6.461,0,0,0-2.21-.788,7.3,7.3,0,0,0-2.406,0,6.383,6.383,0,0,0-2.187.763"/><path class="d" d="M265.876,118.7a3.441,3.441,0,0,0-1.145.97,1.153,1.153,0,0,0-.221.966,1.366,1.366,0,0,0,.689.777,3.151,3.151,0,0,0,1.448.428,5.323,5.323,0,0,0,1.471-.136c.472-.111,1.026-.277,1.7-.494a14.1,14.1,0,0,1,1.6-.446,1.373,1.373,0,0,1,.96.121.443.443,0,0,1,.258.542,1.469,1.469,0,0,1-.717.679,2.959,2.959,0,0,1-1.262.39,2.241,2.241,0,0,1-1.157-.184l-1.494.862a3.9,3.9,0,0,0,1.537.428,6.361,6.361,0,0,0,3.613-.807,3.364,3.364,0,0,0,1.145-.97,1.108,1.108,0,0,0,.2-.962,1.453,1.453,0,0,0-.721-.8,3.2,3.2,0,0,0-1.443-.41,5.558,5.558,0,0,0-1.451.133c-.466.107-1.02.266-1.658.479q-.736.239-1.128.343a3.465,3.465,0,0,1-.79.111,1.224,1.224,0,0,1-.667-.151c-.235-.137-.323-.306-.271-.5a1.378,1.378,0,0,1,.665-.627,2.707,2.707,0,0,1,1.2-.376,2.187,2.187,0,0,1,1.125.21l1.443-.833a4.584,4.584,0,0,0-2.409-.5,5.655,5.655,0,0,0-2.518.763"/><path class="d" d="M271.179,113.774l-1.455.84,1.725,1-.824.476,1.168.678.823-.476,3.844,2.234a3.644,3.644,0,0,0,2,.553,4.219,4.219,0,0,0,1.945-.6l1.136-.656-1.192-.693-.888.513a1.689,1.689,0,0,1-.8.261,1.452,1.452,0,0,1-.743-.217l-3.844-2.234,1.7-.981L274.6,113.8l-1.7.981-1.726-1"/><path class="d" d="M194.536,182.12l-2.617-3.193,5.49,1.534-2.873,1.659m-3.518-4.685-1.673.965,5.606,6.912,1.507-.87-1.157-1.4,3.684-2.127,2.427.671,1.52-.878-11.914-3.269"/><path class="d" d="M199.7,174.541l-1.443.833,6.933,4.029,1.443-.833-6.933-4.029m-3.468-1.194c-.261.151-.4.331-.391.534s.125.383.385.535a2.014,2.014,0,0,0,1.846,0,.56.56,0,0,0-.007-1.062,1.772,1.772,0,0,0-.921-.225,1.8,1.8,0,0,0-.912.218"/><path class="d" d="M205.9,170.825a2.288,2.288,0,0,0-.96.892,1.141,1.141,0,0,0-.018.966l-1-.582-1.443.833,6.933,4.029,1.443-.833-3.654-2.124q-1.056-.613-1.043-1.117c.008-.335.3-.663.858-.987l.37-.214-1.484-.863"/><polyline class="d" points="216.282 162.863 210.14 166.409 211.307 167.087 213.663 165.727 221.243 170.132 222.686 169.299 215.106 164.894 217.449 163.541 216.282 162.863"/><path class="d" d="M221.882,161.731l-1.443.833,6.933,4.03,1.443-.834-6.933-4.029m-3.468-1.194a.638.638,0,0,0-.391.535c-.008.2.125.383.385.534a2,2,0,0,0,1.845,0,.613.613,0,0,0,.379-.527.632.632,0,0,0-.385-.535,2.015,2.015,0,0,0-1.833-.007"/><path class="d" d="M227.5,158.359a3.163,3.163,0,0,0-1.337,1.279,1.527,1.527,0,0,0,.042,1.423,3.578,3.578,0,0,0,1.444,1.349,6.978,6.978,0,0,0,2.324.84,7.548,7.548,0,0,0,2.463.033,6.319,6.319,0,0,0,2.219-.766,2.738,2.738,0,0,0,1.453-1.56,1.682,1.682,0,0,0-.538-1.636l-1.558.9c.462.579.274,1.113-.562,1.6a3.594,3.594,0,0,1-2.039.45,5.027,5.027,0,0,1-2.275-.715c-.748-.435-1.153-.87-1.22-1.316s.195-.833.789-1.176a3.329,3.329,0,0,1,1.345-.439,3.846,3.846,0,0,1,1.412.118l1.558-.9a6.783,6.783,0,0,0-2.83-.343,6.485,6.485,0,0,0-2.69.863"/><polyline class="d" points="232.221 153.006 230.779 153.839 240.09 159.251 241.533 158.418 238.546 156.681 244.119 156.925 246.066 155.8 239.385 155.646 239.133 151.771 237.135 152.925 237.632 156.151 232.221 153.006"/><path class="d" d="M244.925,151.72a1.267,1.267,0,0,1-.643-1.113,1.393,1.393,0,0,1,.807-1.01,3.982,3.982,0,0,1,1.855-.52,3.4,3.4,0,0,1,1.843.413l-3.862,2.23m-.977-2.861a3.344,3.344,0,0,0-1.382,1.3,1.508,1.508,0,0,0,.024,1.434,3.575,3.575,0,0,0,1.443,1.349,6.91,6.91,0,0,0,2.337.833,7.767,7.767,0,0,0,2.5.015,6.465,6.465,0,0,0,2.238-.778,2.772,2.772,0,0,0,1.447-1.541,1.639,1.639,0,0,0-.417-1.574l-1.558.9c.321.564.1,1.065-.677,1.515a3.874,3.874,0,0,1-1.867.5,4.055,4.055,0,0,1-1.965-.417l5.338-3.082a5.533,5.533,0,0,0-.653-.438,6.452,6.452,0,0,0-2.21-.782,7.332,7.332,0,0,0-2.406-.007,6.454,6.454,0,0,0-2.187.77"/><path class="d" d="M249.718,143.662l-1.456.84,1.725,1-.823.475,1.167.679.823-.476,3.838,2.23a3.624,3.624,0,0,0,2,.553,4.164,4.164,0,0,0,1.951-.6l1.136-.656-1.2-.7-.887.513a1.693,1.693,0,0,1-.8.261,1.429,1.429,0,0,1-.743-.217l-3.838-2.23,1.7-.981-1.167-.678-1.7.98-1.725-1"/><path class="d" d="M260.445,137.233a3.774,3.774,0,0,0-1.279,1.091,1.21,1.21,0,0,0-.2,1.113,1.938,1.938,0,0,0,.943.992,3.9,3.9,0,0,0,1.689.538,5.259,5.259,0,0,0,1.643-.11,19.038,19.038,0,0,0,1.861-.539c.568-.2,1.033-.339,1.39-.427a4.023,4.023,0,0,1,1.076-.122,1.928,1.928,0,0,1,.979.266c.374.217.544.479.5.774s-.308.6-.806.884a3.039,3.039,0,0,1-1.486.432,2.918,2.918,0,0,1-1.379-.277l-1.545.892a4.184,4.184,0,0,0,1.728.531,6.3,6.3,0,0,0,1.986-.133,6.836,6.836,0,0,0,1.9-.744,3.213,3.213,0,0,0,1.273-1.147,1.312,1.312,0,0,0,.1-1.161,2.041,2.041,0,0,0-.9-.936,4,4,0,0,0-1.715-.553,5.805,5.805,0,0,0-1.674.114c-.529.122-1.16.3-1.9.546-.554.188-1.013.32-1.37.409a4,4,0,0,1-1.032.125,1.827,1.827,0,0,1-.909-.239c-.393-.229-.563-.483-.511-.756a1.258,1.258,0,0,1,.692-.767,3.214,3.214,0,0,1,1.447-.438,2.521,2.521,0,0,1,1.278.21l1.59-.918a5.063,5.063,0,0,0-2.645-.494,6.29,6.29,0,0,0-2.735.844"/><path class="d" d="M276.9,136.684a3.912,3.912,0,0,1-2.058.483,4.723,4.723,0,0,1-2.307-.675,2.527,2.527,0,0,1-1-.9.928.928,0,0,1-.033-.892,1.825,1.825,0,0,1,.768-.752,3.853,3.853,0,0,1,1.307-.446,4.7,4.7,0,0,1,1.559.011,4.649,4.649,0,0,1,1.562.575,2.34,2.34,0,0,1,.981.918.976.976,0,0,1,0,.917,1.909,1.909,0,0,1-.781.76m-5.848-3.473a3.382,3.382,0,0,0-1.376,1.3,1.614,1.614,0,0,0-.021,1.467,3.321,3.321,0,0,0,1.412,1.36,6.787,6.787,0,0,0,2.337.833,7.84,7.84,0,0,0,2.507.007,6.49,6.49,0,0,0,2.232-.774,3.435,3.435,0,0,0,1.389-1.316,1.643,1.643,0,0,0,.046-1.489,3.23,3.23,0,0,0-1.4-1.367,6.7,6.7,0,0,0-2.343-.822,7.883,7.883,0,0,0-2.533.007,6.774,6.774,0,0,0-2.251.792"/><polyline class="d" points="276.11 127.667 274.66 128.504 283.972 133.916 285.421 133.079 276.11 127.667"/><path class="d" d="M287.593,123.793l-1.443.833,3.863,2.245q.923.537.948,1.106t-.788,1.029a3.353,3.353,0,0,1-1.772.449,3.932,3.932,0,0,1-1.9-.556l-3.863-2.245-1.43.825,4.072,2.367a5.84,5.84,0,0,0,1.988.719,5.962,5.962,0,0,0,2.03,0,5.529,5.529,0,0,0,1.812-.656,2.72,2.72,0,0,0,.933-.818,1.23,1.23,0,0,0,.222-.907l.818.475,1.443-.833-6.933-4.029"/><path class="d" d="M290.337,120.21l-1.456.841,1.725,1-.823.476,1.167.678.824-.475,3.837,2.23a3.665,3.665,0,0,0,1.989.556,4.188,4.188,0,0,0,1.951-.6l1.142-.66-1.2-.7-.888.512a1.692,1.692,0,0,1-.8.262,1.441,1.441,0,0,1-.743-.218l-3.838-2.23,1.7-.98-1.168-.679-1.7.981-1.725-1"/><path class="d" d="M297.419,118.12l-1.443.833,6.933,4.029,1.443-.833-6.933-4.029m-3.468-1.194a.638.638,0,0,0-.391.534c-.008.2.125.384.385.535a2,2,0,0,0,1.845,0,.615.615,0,0,0,.379-.527.631.631,0,0,0-.385-.535,1.786,1.786,0,0,0-.922-.225,1.759,1.759,0,0,0-.911.218"/><path class="d" d="M309.033,118.131a3.893,3.893,0,0,1-2.058.483,4.736,4.736,0,0,1-2.313-.671,2.5,2.5,0,0,1-.994-.9.912.912,0,0,1-.033-.892,1.837,1.837,0,0,1,.768-.752,3.875,3.875,0,0,1,1.307-.446,4.77,4.77,0,0,1,3.121.586,2.34,2.34,0,0,1,.981.918,1,1,0,0,1,0,.918,1.913,1.913,0,0,1-.781.759m-5.848-3.472a3.381,3.381,0,0,0-1.376,1.3,1.593,1.593,0,0,0-.021,1.467,3.3,3.3,0,0,0,1.4,1.364,6.825,6.825,0,0,0,2.344.829,7.7,7.7,0,0,0,2.507.008,6.5,6.5,0,0,0,2.232-.774,3.393,3.393,0,0,0,1.382-1.312,1.631,1.631,0,0,0,.053-1.493,3.226,3.226,0,0,0-1.4-1.368,6.716,6.716,0,0,0-2.343-.822,7.814,7.814,0,0,0-2.54.011,6.677,6.677,0,0,0-2.244.789"/><path class="d" d="M312.583,109.233a2.831,2.831,0,0,0-.94.814,1.286,1.286,0,0,0-.241.911l-.786-.457-1.443.833,6.933,4.029,1.443-.833-3.876-2.252c-.621-.362-.937-.73-.954-1.11s.245-.715.788-1.028a3.344,3.344,0,0,1,1.772-.45,3.935,3.935,0,0,1,1.906.56l3.876,2.252,1.43-.825L318.4,109.3a5.942,5.942,0,0,0-4-.722,5.643,5.643,0,0,0-1.811.656"/><path class="d" d="M320.583,104.614a3.575,3.575,0,0,0-1.151.966,1.153,1.153,0,0,0-.222.966,1.392,1.392,0,0,0,.69.777,3.18,3.18,0,0,0,1.455.432,5.455,5.455,0,0,0,1.47-.137c.466-.114,1.033-.28,1.7-.5a14.275,14.275,0,0,1,1.6-.439,1.357,1.357,0,0,1,.954.118.439.439,0,0,1,.258.542c-.065.221-.3.446-.711.682a2.967,2.967,0,0,1-1.268.387,2.221,2.221,0,0,1-1.157-.184l-1.494.862a4.068,4.068,0,0,0,1.544.432,6.3,6.3,0,0,0,1.839-.129,6.093,6.093,0,0,0,1.767-.682A3.375,3.375,0,0,0,329,107.74a1.109,1.109,0,0,0,.2-.962,1.436,1.436,0,0,0-.728-.807,3.235,3.235,0,0,0-1.442-.41,5.566,5.566,0,0,0-1.452.133c-.465.107-1.013.269-1.651.483-.49.158-.873.269-1.134.339a3.265,3.265,0,0,1-.79.111,1.21,1.21,0,0,1-.667-.151c-.235-.137-.323-.306-.265-.5s.283-.413.659-.63a2.711,2.711,0,0,1,1.2-.372,2.187,2.187,0,0,1,1.125.21l1.443-.833a4.508,4.508,0,0,0-2.409-.5,5.566,5.566,0,0,0-2.518.763"/></g></g><g class="f"><g class="k"><polyline class="d" points="282.411 188.242 280.968 189.076 284.717 191.254 280.573 193.646 276.825 191.468 275.382 192.301 284.129 197.384 285.572 196.551 281.747 194.328 285.891 191.936 289.715 194.159 291.158 193.326 282.411 188.242"/><path class="d" d="M295.833,189.311a3.893,3.893,0,0,1-2.058.483,4.711,4.711,0,0,1-2.307-.674,2.521,2.521,0,0,1-1-.9.967.967,0,0,1-.033-.892,1.837,1.837,0,0,1,.768-.752,3.855,3.855,0,0,1,1.307-.446,4.833,4.833,0,0,1,1.559.011,4.649,4.649,0,0,1,1.562.575,2.309,2.309,0,0,1,.988.922,1.016,1.016,0,0,1,0,.918,1.918,1.918,0,0,1-.787.755m-5.848-3.472a3.394,3.394,0,0,0-1.376,1.3,1.619,1.619,0,0,0-.014,1.471,3.289,3.289,0,0,0,1.4,1.357,6.767,6.767,0,0,0,2.337.833,7.768,7.768,0,0,0,2.514,0,6.477,6.477,0,0,0,2.232-.766,3.407,3.407,0,0,0,1.382-1.32,1.619,1.619,0,0,0,.046-1.489,3.209,3.209,0,0,0-1.392-1.371,6.685,6.685,0,0,0-2.344-.815,7.892,7.892,0,0,0-2.539,0,6.711,6.711,0,0,0-2.251.792"/><path class="d" d="M295.933,180.538l-1.455.841,1.725,1-.824.476,1.167.678.824-.475,3.838,2.23a3.639,3.639,0,0,0,1.995.553,4.167,4.167,0,0,0,1.951-.6l1.136-.656-1.2-.7-.887.512a1.683,1.683,0,0,1-.791.266,1.464,1.464,0,0,1-.75-.222l-3.837-2.23,1.7-.98-1.167-.679-1.7.981-1.726-1"/><path class="d" d="M305.442,180.339a1.276,1.276,0,0,1-.643-1.106,1.386,1.386,0,0,1,.808-1.017,4.008,4.008,0,0,1,1.861-.516,3.366,3.366,0,0,1,1.837.409l-3.863,2.23m-.983-2.857a3.3,3.3,0,0,0-1.376,1.3,1.544,1.544,0,0,0,.024,1.441,3.615,3.615,0,0,0,1.444,1.342,6.858,6.858,0,0,0,2.33.837,7.718,7.718,0,0,0,2.5.011,6.449,6.449,0,0,0,2.239-.771,2.8,2.8,0,0,0,1.453-1.544,1.682,1.682,0,0,0-.424-1.571l-1.558.9c.321.556.1,1.061-.683,1.511a3.886,3.886,0,0,1-1.867.5,4.1,4.1,0,0,1-1.952-.417l5.331-3.078a5.533,5.533,0,0,0-.653-.438,6.442,6.442,0,0,0-2.21-.789,7.34,7.34,0,0,0-2.412,0,6.505,6.505,0,0,0-2.187.77"/><polyline class="d" points="309.339 172.042 307.896 172.875 317.208 178.286 318.651 177.453 309.339 172.042"/><path class="d" d="M327.6,170.973a3.781,3.781,0,0,1-1.307.431,5.047,5.047,0,0,1-1.61-.026,4.642,4.642,0,0,1-1.563-.56,2.224,2.224,0,0,1-.936-.892.982.982,0,0,1-.014-.911,1.821,1.821,0,0,1,.761-.755,3.743,3.743,0,0,1,1.32-.439,5,5,0,0,1,1.584.018,4.526,4.526,0,0,1,1.544.55,2.3,2.3,0,0,1,.956.9,1.027,1.027,0,0,1,.033.921,1.788,1.788,0,0,1-.768.76m-6.212-3.263a2.772,2.772,0,0,0-1.223,1.221,1.579,1.579,0,0,0,.062,1.419,3.52,3.52,0,0,0,1.412,1.323,7.109,7.109,0,0,0,2.3.837,7.871,7.871,0,0,0,2.469.059,5.669,5.669,0,0,0,2.111-.682,2.816,2.816,0,0,0,1.113-1.025,1.43,1.43,0,0,0,.184-1.054l1.034.6,1.456-.841-6.934-4.029-1.455.841,1.008.586a6.874,6.874,0,0,0-1.782.1,5.376,5.376,0,0,0-1.76.641"/><path class="d" d="M331.568,161.831a2.81,2.81,0,0,0-.933.818,1.245,1.245,0,0,0-.241.911l-.793-.461-1.443.833,6.933,4.029,1.443-.833-3.876-2.252q-.932-.542-.948-1.106c-.017-.372.24-.719.782-1.032a3.364,3.364,0,0,1,1.778-.446,3.883,3.883,0,0,1,1.9.556l3.876,2.253,1.43-.826-4.091-2.378a5.8,5.8,0,0,0-1.982-.722,5.717,5.717,0,0,0-2.017,0,5.549,5.549,0,0,0-1.818.653"/><path class="d" d="M346.182,160.242a3.8,3.8,0,0,1-1.313.435,5.018,5.018,0,0,1-1.61-.026,4.623,4.623,0,0,1-1.562-.56,2.215,2.215,0,0,1-.937-.892,1,1,0,0,1-.014-.91,1.838,1.838,0,0,1,.768-.76,3.756,3.756,0,0,1,1.313-.435,4.973,4.973,0,0,1,1.585.019,4.505,4.505,0,0,1,1.543.549,2.3,2.3,0,0,1,.956.9,1.029,1.029,0,0,1,.033.922,1.768,1.768,0,0,1-.762.755m-4.607-6.812-1.456.841,3.35,1.946a6.391,6.391,0,0,0-1.847.155,5.8,5.8,0,0,0-1.645.6,2.8,2.8,0,0,0-1.235,1.228,1.55,1.55,0,0,0,.068,1.415,3.423,3.423,0,0,0,1.4,1.327,7,7,0,0,0,2.312.833,7.6,7.6,0,0,0,2.469.059,5.743,5.743,0,0,0,2.13-.693,2.739,2.739,0,0,0,1.106-1.021,1.337,1.337,0,0,0,.153-1.05l1.046.608,1.456-.84-9.312-5.412"/><polyline class="d" points="260.758 218.241 254.616 221.787 255.783 222.465 258.139 221.105 265.713 225.506 267.155 224.673 259.582 220.272 261.925 218.919 260.758 218.241"/><path class="d" d="M268.332,215.837a2.281,2.281,0,0,0-.954.889,1.12,1.12,0,0,0-.018.966l-1.008-.587-1.443.833,6.933,4.03,1.443-.834-3.648-2.119c-.7-.409-1.052-.782-1.05-1.113s.3-.664.865-.992l.364-.21-1.484-.863"/><path class="d" d="M279.575,216.2a3.749,3.749,0,0,1-1.314.428,5.047,5.047,0,0,1-1.61-.026,4.626,4.626,0,0,1-1.556-.557,2.2,2.2,0,0,1-.936-.892.98.98,0,0,1-.014-.91,1.767,1.767,0,0,1,.761-.756,3.638,3.638,0,0,1,1.32-.439,5.072,5.072,0,0,1,1.578.015,4.531,4.531,0,0,1,1.55.553,2.291,2.291,0,0,1,.949.9,1.023,1.023,0,0,1,.033.922,1.767,1.767,0,0,1-.761.763m-6.212-3.262a2.782,2.782,0,0,0-1.223,1.22,1.588,1.588,0,0,0,.056,1.415,3.533,3.533,0,0,0,1.418,1.327,7.028,7.028,0,0,0,2.3.833,7.852,7.852,0,0,0,2.475.063,5.708,5.708,0,0,0,2.1-.686,2.886,2.886,0,0,0,1.12-1.021,1.5,1.5,0,0,0,.184-1.054l1.027.6,1.456-.84-6.933-4.029-1.456.84,1.009.586a7.24,7.24,0,0,0-1.783.1,5.324,5.324,0,0,0-1.753.645"/><path class="d" d="M283.546,207.053a2.844,2.844,0,0,0-.94.815,1.241,1.241,0,0,0-.24.91l-.793-.46-1.443.833,6.933,4.029,1.443-.833-3.876-2.253q-.923-.536-.948-1.106t.788-1.028a3.342,3.342,0,0,1,1.772-.45,3.922,3.922,0,0,1,1.9.557l3.875,2.252,1.431-.825-4.085-2.374a5.767,5.767,0,0,0-1.982-.723,5.83,5.83,0,0,0-2.024,0,5.523,5.523,0,0,0-1.811.656"/><path class="d" d="M291.546,202.434a3.465,3.465,0,0,0-1.151.966,1.119,1.119,0,0,0-.215.962,1.351,1.351,0,0,0,.683.782,3.123,3.123,0,0,0,1.448.427,5.338,5.338,0,0,0,1.478-.132c.465-.115,1.032-.28,1.695-.5a14.225,14.225,0,0,1,1.6-.438,1.357,1.357,0,0,1,.954.118.438.438,0,0,1,.258.542c-.065.221-.3.446-.711.681a2.909,2.909,0,0,1-1.262.384,2.214,2.214,0,0,1-1.163-.181l-1.494.863a4,4,0,0,0,1.55.427,6.138,6.138,0,0,0,1.834-.125,6.07,6.07,0,0,0,1.766-.682,3.469,3.469,0,0,0,1.151-.966,1.13,1.13,0,0,0,.2-.962,1.44,1.44,0,0,0-.727-.807,3.182,3.182,0,0,0-1.443-.409,5.558,5.558,0,0,0-1.451.132c-.459.1-1.014.27-1.651.483-.491.151-.867.266-1.135.34a3.256,3.256,0,0,1-.79.11,1.264,1.264,0,0,1-.667-.151c-.235-.136-.323-.306-.258-.5s.276-.409.659-.63a2.608,2.608,0,0,1,1.2-.369,2.192,2.192,0,0,1,1.126.21l1.442-.833a4.518,4.518,0,0,0-2.409-.5,5.578,5.578,0,0,0-2.518.763"/><path class="d" d="M306.25,200.794a3.814,3.814,0,0,1-1.314.435,5.2,5.2,0,0,1-1.6-.018,4.561,4.561,0,0,1-1.543-.557,2.285,2.285,0,0,1-.956-.9,1.057,1.057,0,0,1-.014-.918,1.737,1.737,0,0,1,.755-.759,3.812,3.812,0,0,1,1.32-.446,4.834,4.834,0,0,1,1.578.007,4.391,4.391,0,0,1,1.531.55,2.348,2.348,0,0,1,.962.9,1.028,1.028,0,0,1,.039.933,1.761,1.761,0,0,1-.761.77m-5.593-3.62a2.831,2.831,0,0,0-1.106,1.014,1.424,1.424,0,0,0-.2,1.047l-1.022-.594-1.443.833,10.232,5.946,1.443-.833-4.3-2.5a7.673,7.673,0,0,0,1.815-.122,5.393,5.393,0,0,0,1.734-.634,2.707,2.707,0,0,0,1.21-1.227,1.59,1.59,0,0,0-.107-1.43,3.615,3.615,0,0,0-1.43-1.335,6.955,6.955,0,0,0-2.287-.826,7.723,7.723,0,0,0-2.43-.044,5.9,5.9,0,0,0-2.111.7"/><path class="d" d="M315.2,195.63a3.931,3.931,0,0,1-2.065.486,4.7,4.7,0,0,1-2.306-.674,2.481,2.481,0,0,1-.994-.9.912.912,0,0,1-.033-.892,1.816,1.816,0,0,1,.767-.752,3.806,3.806,0,0,1,1.3-.443,4.737,4.737,0,0,1,3.128.583,2.269,2.269,0,0,1,.975.921.978.978,0,0,1,0,.918,1.886,1.886,0,0,1-.774.756m-5.848-3.473a3.376,3.376,0,0,0-1.376,1.3,1.556,1.556,0,0,0-.021,1.467,3.311,3.311,0,0,0,1.405,1.364,6.77,6.77,0,0,0,2.338.825,7.653,7.653,0,0,0,2.513.011,6.426,6.426,0,0,0,2.232-.774,3.387,3.387,0,0,0,1.382-1.312,1.638,1.638,0,0,0,.047-1.5,3.2,3.2,0,0,0-1.393-1.364,6.734,6.734,0,0,0-2.344-.822,7.751,7.751,0,0,0-2.539.011,6.721,6.721,0,0,0-2.244.789"/><path class="d" d="M318.758,186.724a2.282,2.282,0,0,0-.96.892,1.12,1.12,0,0,0-.018.966L316.771,188l-1.443.833,6.933,4.029,1.443-.833-3.647-2.12q-1.056-.613-1.044-1.117c0-.332.29-.66.859-.988l.37-.214-1.484-.862"/><path class="d" d="M321.048,183.535l-1.463.844,1.719,1-.823.476,1.173.682.824-.476,3.838,2.231a3.647,3.647,0,0,0,2,.552,4.143,4.143,0,0,0,1.944-.6l1.137-.656-1.193-.693-.887.512a1.707,1.707,0,0,1-.8.262,1.416,1.416,0,0,1-.737-.222l-3.838-2.23,1.692-.977-1.174-.682-1.691.977-1.719-1"/><path class="d" d="M331.769,177.11a3.9,3.9,0,0,0-1.286,1.088,1.229,1.229,0,0,0-.19,1.117,1.942,1.942,0,0,0,.942.991,3.9,3.9,0,0,0,1.69.538,5.253,5.253,0,0,0,1.642-.11,19.023,19.023,0,0,0,1.855-.542c.574-.192,1.04-.335,1.4-.424a4.125,4.125,0,0,1,1.076-.129,2.016,2.016,0,0,1,.978.273c.375.217.545.479.5.774s-.309.6-.807.885a3.037,3.037,0,0,1-1.485.431,2.958,2.958,0,0,1-1.379-.277l-1.546.893a4.173,4.173,0,0,0,1.728.53,6.3,6.3,0,0,0,1.987-.132,6.863,6.863,0,0,0,1.9-.745,3.293,3.293,0,0,0,1.273-1.146,1.308,1.308,0,0,0,.1-1.162,1.99,1.99,0,0,0-.9-.936,4.017,4.017,0,0,0-1.715-.553,5.573,5.573,0,0,0-1.675.115c-.522.117-1.16.3-1.9.545-.561.184-1.014.321-1.371.409a4.207,4.207,0,0,1-1.031.126,1.822,1.822,0,0,1-.909-.24c-.393-.229-.564-.483-.511-.756a1.261,1.261,0,0,1,.7-.77,3.2,3.2,0,0,1,1.44-.435,2.517,2.517,0,0,1,1.278.21l1.59-.918a5.041,5.041,0,0,0-2.644-.494,6.282,6.282,0,0,0-2.735.844"/><path class="d" d="M348.223,176.561a3.9,3.9,0,0,1-2.059.483,4.717,4.717,0,0,1-2.306-.675,2.5,2.5,0,0,1-1-.9.947.947,0,0,1-.034-.892,1.843,1.843,0,0,1,.768-.752,3.883,3.883,0,0,1,1.307-.446,4.723,4.723,0,0,1,1.559.011,4.608,4.608,0,0,1,1.563.575,2.28,2.28,0,0,1,.981.918,1,1,0,0,1,0,.918,1.91,1.91,0,0,1-.78.759m-5.848-3.472a3.394,3.394,0,0,0-1.376,1.3,1.59,1.59,0,0,0-.021,1.467,3.313,3.313,0,0,0,1.411,1.36,6.749,6.749,0,0,0,2.331.83,7.8,7.8,0,0,0,2.514.011,6.546,6.546,0,0,0,2.232-.774,3.413,3.413,0,0,0,1.388-1.316,1.626,1.626,0,0,0,.04-1.493,3.187,3.187,0,0,0-1.392-1.364,6.714,6.714,0,0,0-2.344-.822,7.77,7.77,0,0,0-2.533.007,6.737,6.737,0,0,0-2.25.793"/><polyline class="d" points="347.427 167.541 345.984 168.374 355.296 173.785 356.739 172.952 347.427 167.541"/><path class="d" d="M358.91,163.667l-1.443.833,3.863,2.245c.622.361.938.73.955,1.109s-.246.715-.789,1.029a3.35,3.35,0,0,1-1.771.45,3.933,3.933,0,0,1-1.906-.561l-3.863-2.245-1.431.826,4.079,2.37a5.819,5.819,0,0,0,1.988.719,5.962,5.962,0,0,0,2.03,0,5.7,5.7,0,0,0,1.817-.659,2.809,2.809,0,0,0,.928-.815,1.255,1.255,0,0,0,.221-.907l.812.472,1.443-.833-6.933-4.029"/><path class="d" d="M361.66,160.088l-1.455.84,1.719,1-.824.475,1.174.682.823-.475,3.838,2.23a3.683,3.683,0,0,0,1.989.557,4.2,4.2,0,0,0,1.95-.6l1.137-.656-1.193-.693-.887.512a1.7,1.7,0,0,1-.8.262,1.433,1.433,0,0,1-.744-.217l-3.837-2.231,1.7-.98-1.173-.682-1.7.98-1.719-1"/><path class="d" d="M368.736,157.994l-1.443.833,6.933,4.029,1.443-.833-6.933-4.029m-3.462-1.191a.64.64,0,0,0-.391.535c-.007.2.132.379.392.53a1.765,1.765,0,0,0,.915.229,1.813,1.813,0,0,0,.924-.225.611.611,0,0,0,.378-.527.631.631,0,0,0-.385-.535,2.015,2.015,0,0,0-1.833-.007"/><path class="d" d="M380.357,158.009a3.908,3.908,0,0,1-2.059.482,4.721,4.721,0,0,1-2.312-.67,2.482,2.482,0,0,1-.994-.9.931.931,0,0,1-.034-.892,1.848,1.848,0,0,1,.768-.752,3.9,3.9,0,0,1,1.307-.446,4.75,4.75,0,0,1,1.559.011,4.629,4.629,0,0,1,1.563.575,2.346,2.346,0,0,1,.981.918,1.013,1.013,0,0,1,0,.918,1.912,1.912,0,0,1-.78.76m-5.848-3.473a3.374,3.374,0,0,0-1.376,1.3,1.59,1.59,0,0,0-.021,1.467,3.3,3.3,0,0,0,1.4,1.364,6.746,6.746,0,0,0,2.337.826,7.66,7.66,0,0,0,2.514.011,6.5,6.5,0,0,0,2.232-.774,3.426,3.426,0,0,0,1.388-1.316,1.626,1.626,0,0,0,.04-1.493,3.192,3.192,0,0,0-1.392-1.364,6.734,6.734,0,0,0-2.344-.822,7.751,7.751,0,0,0-2.539.011,6.7,6.7,0,0,0-2.244.789"/><path class="d" d="M383.907,149.11a2.834,2.834,0,0,0-.94.815,1.242,1.242,0,0,0-.241.91l-.793-.461-1.443.833,6.933,4.03,1.443-.834-3.875-2.252q-.924-.536-.949-1.106t.789-1.028a3.327,3.327,0,0,1,1.771-.45,3.919,3.919,0,0,1,1.9.557l3.876,2.252,1.43-.826-4.085-2.374a5.945,5.945,0,0,0-4-.722,5.515,5.515,0,0,0-1.811.656"/><path class="d" d="M391.907,144.491a3.465,3.465,0,0,0-1.151.966,1.153,1.153,0,0,0-.222.966,1.394,1.394,0,0,0,.689.778,3.142,3.142,0,0,0,1.449.427,5.369,5.369,0,0,0,1.477-.132c.465-.115,1.033-.281,1.7-.5a14.22,14.22,0,0,1,1.6-.438,1.351,1.351,0,0,1,.954.118.438.438,0,0,1,.258.541c-.065.222-.3.446-.71.682a2.913,2.913,0,0,1-1.262.384,2.218,2.218,0,0,1-1.164-.181l-1.494.863a4.007,4.007,0,0,0,1.551.427,6.132,6.132,0,0,0,1.833-.125,6.065,6.065,0,0,0,1.767-.682,3.49,3.49,0,0,0,1.151-.966,1.13,1.13,0,0,0,.2-.962,1.434,1.434,0,0,0-.727-.807,3.162,3.162,0,0,0-1.442-.409,5.519,5.519,0,0,0-1.452.132c-.465.107-1.013.269-1.651.483-.491.151-.873.269-1.135.339a3.25,3.25,0,0,1-.789.111,1.268,1.268,0,0,1-.668-.151c-.234-.137-.323-.306-.258-.5s.276-.409.659-.631a2.618,2.618,0,0,1,1.2-.368,2.187,2.187,0,0,1,1.125.21l1.443-.833a4.518,4.518,0,0,0-2.409-.5,5.578,5.578,0,0,0-2.518.763"/></g></g></svg>