<svg xmlns="http://www.w3.org/2000/svg" xmlns:xlink="http://www.w3.org/1999/xlink" viewBox="0 0 487.508 321.438"><defs><style>.a{fill:none;}.b{fill:#ced0d6;}.c{fill:#5e6ea3;}.d{fill:#7d93d9;}.e{fill:#fff;}.f{isolation:isolate;}.g{clip-path:url(#a);}.h{fill:#0a1330;}.i{clip-path:url(#b);}.j{clip-path:url(#c);}.k{clip-path:url(#d);}.l{clip-path:url(#e);}</style><clipPath id="a"><polygon class="a" points="61.27 214.454 61.331 192.914 173.197 257.5 173.135 279.04 61.27 214.454"/></clipPath><clipPath id="b"><polygon class="a" points="285.581 288.17 285.534 271.919 461.4 170.383 461.446 186.634 285.581 288.17"/></clipPath><clipPath id="c"><polygon class="a" points="120.234 145.059 95.952 130.948 234.41 51.009 258.691 65.12 120.234 145.059"/></clipPath><clipPath id="d"><polygon class="a" points="196.986 176.979 172.71 162.872 292.289 93.834 316.564 107.941 196.986 176.979"/></clipPath><clipPath id="e"><polygon class="a" points="252.725 227.203 225.341 211.29 375.132 124.808 402.515 140.722 252.725 227.203"/></clipPath></defs><path d="M477.185,168.721l-.032,11.307c-.015,5.278-3.485,10.549-10.417,14.578L264.661,312.039c-.512.3-1.04.581-1.575.857-.163.084-.328.164-.493.246q-.585.291-1.185.565c-.18.081-.358.163-.54.242-.453.2-.912.389-1.377.574-.116.045-.229.094-.345.139q-.87.336-1.765.638c-.156.052-.314.1-.47.152-.453.148-.91.291-1.371.426-.2.06-.4.117-.606.174-.456.128-.917.249-1.381.366-.172.043-.344.088-.517.13q-.945.226-1.905.421c-.1.021-.209.039-.313.059q-.813.159-1.638.295c-.208.034-.417.066-.626.1q-.7.108-1.413.2c-.2.027-.41.054-.616.078-.6.071-1.209.135-1.818.188l-.177.017c-.667.056-1.336.1-2.007.133-.2.01-.392.016-.588.025q-.732.03-1.465.044l-.658.009c-.523,0-1.045,0-1.568-.009-.156,0-.311,0-.467-.006q-1.006-.026-2.009-.084c-.159-.009-.317-.023-.476-.033q-.775-.051-1.547-.12c-.218-.02-.435-.042-.653-.064q-.725-.075-1.445-.166c-.133-.017-.268-.028-.4-.046l-.189-.029c-.493-.067-.982-.143-1.471-.222-.126-.021-.254-.038-.38-.06-.6-.1-1.2-.216-1.8-.337,14.1,6.485,34.637,5.961,47.613-1.579L477.1,197.925C490.961,189.867,490.967,176.839,477.185,168.721Z"/><path class="b" d="M196.445,198.06h0c-.108.039-.216.077-.326.113h0C196.229,198.137,196.337,198.1,196.445,198.06Z"/><path class="b" d="M195.249,198.423h0c-.065.016-.128.036-.194.052h0C195.122,198.459,195.185,198.439,195.249,198.423Z"/><path class="b" d="M281.041,72.105q-.322.233-.692.448Q280.718,72.337,281.041,72.105Z"/><path class="b" d="M131.925,159.256c-.055.025-.113.048-.169.072.057-.023.114-.047.169-.072Z"/><path class="b" d="M197.458,197.655h0c-.1.044-.2.084-.295.126h0C197.262,197.739,197.361,197.7,197.458,197.655Z"/><path class="b" d="M124.576,160.5c-.077,0-.152-.013-.229-.019.077.006.152.015.229.019Z"/><path class="b" d="M128.423,160.3l-.113.016.113-.016Z"/><path class="b" d="M281.64,71.627c-.123.11-.263.215-.4.32C281.377,71.842,281.517,71.737,281.64,71.627Z"/><path class="b" d="M130.913,159.661h0c-.108.038-.216.077-.326.112h0C130.7,159.738,130.805,159.7,130.913,159.661Z"/><path class="b" d="M119.924,159.543c-.135-.052-.264-.111-.4-.167.132.056.261.115.4.167Z"/><path class="b" d="M122.075,160.164l-.134-.026h0Z"/><path class="b" d="M123.422,160.389h0c-.13-.016-.259-.034-.388-.053h0C123.164,160.355,123.293,160.373,123.422,160.389Z"/><path class="b" d="M184.575,197.561c-.232-.111-.46-.226-.678-.351.218.124.446.239.677.351Z"/><path class="b" d="M282.706,70.358c.06-.1.126-.2.176-.3C282.832,70.16,282.766,70.258,282.706,70.358Z"/><path class="b" d="M281.846,71.424c.1-.1.21-.2.3-.3C282.056,71.226,281.948,71.325,281.846,71.424Z"/><path class="b" d="M282.326,70.9c.08-.1.165-.2.235-.3C282.491,70.7,282.406,70.8,282.326,70.9Z"/><path class="b" d="M120.707,159.812h0c-.2-.062-.392-.128-.583-.2h0C120.315,159.684,120.51,159.75,120.707,159.812Z"/><path class="b" d="M415.706,146.332l0,0c-.031.093-.074.185-.113.277C415.63,146.515,415.675,146.424,415.706,146.332Z"/><path class="b" d="M126.029,160.516h0c-.1,0-.2.008-.3.008h0C125.829,160.524,125.929,160.518,126.029,160.516Z"/><path class="b" d="M412.955,149.352q.369-.216.691-.448Q413.323,149.137,412.955,149.352Z"/><path class="b" d="M415.165,147.4c-.071.1-.156.2-.237.3C415.009,147.6,415.094,147.5,415.165,147.4Z"/><path class="b" d="M262.281,236.834c-.052.013-.1.029-.153.041h0C262.18,236.863,262.23,236.848,262.281,236.834Z"/><path class="b" d="M413.838,148.752c.14-.108.282-.214.407-.325C414.12,148.538,413.978,148.645,413.838,148.752Z"/><path class="b" d="M283.022,69.726h0l-.033.079C283,69.779,283.011,69.753,283.022,69.726Z"/><path class="b" d="M257.505,264.014l8.361-4.859a16.608,16.608,0,0,1-8.675-.988c.36.019.721.028,1.082.025-.385,0-.77,0-1.153-.027-.079,0-.156-.014-.234-.019-.309-.022-.615-.051-.92-.089-.054-.006-.109-.008-.162-.015-.076-.011-.15-.027-.226-.039-.226-.033-.449-.071-.671-.113-.077-.015-.157-.024-.235-.04-.063-.013-.125-.031-.189-.045-.141-.031-.281-.065-.42-.1-.091-.023-.184-.041-.274-.065s-.154-.047-.231-.069c-.1-.03-.206-.061-.309-.093-.067-.021-.137-.038-.2-.06-.129-.043-.254-.091-.381-.137-.066-.024-.134-.047-.2-.072l-.075-.027q-.3-.119-.6-.252l-.063-.031c-.051-.023-.1-.048-.148-.072-.116-.056-.233-.11-.345-.169s-.223-.12-.332-.182l-40.07-23c-.066-.038-.13-.076-.194-.115q-.258-.156-.493-.32l-.014-.011c-.02-.014-.038-.03-.059-.044-.136-.1-.27-.2-.394-.3-.035-.029-.064-.059-.1-.088-.061-.052-.118-.105-.176-.157s-.12-.1-.174-.157-.085-.094-.13-.141c-.07-.073-.138-.146-.2-.22-.034-.039-.075-.077-.107-.117-.083-.1-.161-.2-.233-.307l-.007-.01c-.068-.1-.132-.2-.191-.295-.024-.042-.04-.085-.063-.126-.05-.091-.094-.181-.136-.272s-.084-.189-.12-.285-.064-.184-.09-.277c-.015-.051-.038-.1-.05-.153s-.021-.119-.032-.178-.02-.1-.027-.149a3.427,3.427,0,0,1-.041-.515l.035-12.325-4.4,2.572c-3.85,2.251-10.11,2.317-14.14.2-.134-.013-.27-.022-.4-.038-.054-.007-.109-.009-.162-.016-.076-.01-.15-.027-.225-.038q-.339-.05-.672-.114c-.078-.015-.158-.024-.235-.04s-.125-.03-.188-.044c-.142-.031-.28-.065-.419-.1-.092-.022-.186-.041-.276-.065s-.153-.047-.23-.069c-.1-.029-.206-.06-.308-.092-.068-.021-.138-.039-.205-.061-.129-.042-.253-.09-.38-.136-.066-.025-.133-.047-.2-.072l-.076-.027q-.3-.118-.6-.252l-.064-.031-.145-.071c-.116-.056-.234-.11-.347-.17s-.222-.119-.331-.181l-40.07-23c-.066-.037-.13-.075-.194-.114q-.258-.156-.493-.321l-.013-.01-.061-.046c-.136-.1-.269-.195-.392-.3-.035-.028-.065-.059-.1-.088-.061-.052-.118-.1-.176-.157s-.12-.1-.174-.156-.085-.095-.13-.141c-.07-.073-.138-.146-.2-.22-.034-.04-.075-.078-.107-.117-.083-.1-.161-.2-.234-.308l-.006-.01c-.068-.1-.132-.2-.191-.295-.025-.041-.04-.084-.063-.126-.05-.09-.095-.181-.137-.273s-.084-.188-.119-.283-.064-.185-.091-.278c-.014-.051-.037-.1-.049-.153s-.021-.119-.032-.178-.02-.1-.027-.149a3.427,3.427,0,0,1-.041-.515l.033-11.727-3.378,1.975c-3.892,2.275-10.247,2.319-14.271.136-.048-.009-.1-.017-.145-.024q-.339-.051-.672-.114c-.078-.015-.157-.024-.234-.04s-.125-.031-.188-.044c-.142-.031-.281-.065-.421-.1-.091-.023-.185-.041-.275-.065s-.152-.047-.229-.069c-.1-.03-.207-.06-.309-.092-.068-.021-.137-.039-.2-.061-.129-.043-.253-.09-.379-.136-.067-.025-.134-.047-.2-.072l-.076-.028q-.3-.119-.6-.251l-.063-.031-.145-.071c-.117-.056-.234-.111-.347-.17s-.223-.119-.331-.182l-40.074-23c-.065-.037-.13-.076-.194-.114q-.258-.156-.492-.321l-.014-.01c-.021-.015-.038-.03-.059-.044-.136-.1-.27-.2-.394-.3-.035-.029-.064-.059-.1-.088-.061-.052-.119-.1-.177-.157s-.12-.1-.174-.156-.085-.095-.13-.142c-.07-.072-.138-.145-.2-.219-.034-.04-.075-.078-.107-.118-.083-.1-.161-.2-.233-.307l-.007-.01c-.068-.1-.132-.2-.191-.3-.024-.042-.04-.085-.063-.126-.05-.091-.094-.181-.136-.273s-.084-.188-.12-.283-.064-.185-.09-.278c-.015-.051-.038-.1-.05-.153s-.021-.119-.032-.178-.02-.1-.027-.149a3.427,3.427,0,0,1-.041-.515l.016-5.805L46.7,163.209l174.6,100.8C231.291,269.78,247.582,269.78,257.505,264.014Z"/><polygon class="b" points="188.576 198.736 188.568 198.735 188.568 198.735 188.576 198.736"/><path class="b" d="M414.446,148.228c.1-.1.212-.2.3-.3C414.658,148.027,414.55,148.127,414.446,148.228Z"/><path class="b" d="M415.486,146.859c-.052.1-.118.2-.178.3C415.368,147.061,415.434,146.961,415.486,146.859Z"/><path class="b" d="M347.863,109.293c.079-.1.163-.194.232-.294C348.026,109.1,347.942,109.2,347.863,109.293Z"/><path class="b" d="M348.24,108.755c.06-.1.125-.2.176-.3C348.365,108.558,348.3,108.656,348.24,108.755Z"/><path class="b" d="M346.779,110.342c.135-.105.274-.208.4-.316C347.053,110.134,346.914,110.237,346.779,110.342Z"/><path class="b" d="M127.184,160.45c-.095.008-.19.017-.286.024h0C126.994,160.467,127.089,160.458,127.184,160.45Z"/><path class="b" d="M264.531,236.055c-.03.013-.062.025-.092.039l.092-.039Z"/><path class="b" d="M347.681,109.523c-.091.1-.2.2-.3.3C347.483,109.723,347.59,109.625,347.681,109.523Z"/><path class="b" d="M348.522,108.2c.042-.1.089-.2.122-.3C348.611,108.005,348.564,108.1,348.522,108.2Z"/><path class="b" d="M345.885,110.951q.369-.216.691-.448Q346.254,110.736,345.885,110.951Z"/><path class="b" d="M259.876,237.242h0c-.125.012-.249.023-.374.032h0C259.627,237.265,259.751,237.254,259.876,237.242Z"/><path class="b" d="M238.363,276.369h0c-.156,0-.312,0-.468-.006h0C238.051,276.367,238.207,276.367,238.363,276.369Z"/><path class="b" d="M229.7,275.6h0c-.128-.02-.257-.038-.384-.06h0C229.451,275.561,229.578,275.578,229.7,275.6Z"/><path class="b" d="M240.549,276.37c-.207,0-.413.007-.619.008h0C240.136,276.377,240.343,276.373,240.549,276.37Z"/><path class="b" d="M235.886,276.279h0c-.159-.009-.317-.022-.476-.033h0C235.569,276.257,235.727,276.27,235.886,276.279Z"/><path class="b" d="M217.6,272.079l-.227-.1.227.1Z"/><path class="b" d="M224.35,274.455c-.254-.068-.5-.143-.755-.215.251.072.5.147.754.215Z"/><path class="b" d="M222.459,273.9c-.163-.051-.324-.1-.486-.157.162.052.323.106.486.157Z"/><path class="b" d="M225.525,274.751c-.254-.061-.506-.125-.758-.19l.008,0C225.024,274.628,225.275,274.689,225.525,274.751Z"/><path class="b" d="M231.765,275.9h0c-.2-.025-.395-.048-.591-.075h0C231.371,275.848,231.569,275.871,231.765,275.9Z"/><path class="b" d="M242.642,276.3h0c-.2.01-.392.017-.588.025h0C242.25,276.317,242.446,276.31,242.642,276.3Z"/><path class="b" d="M470.4,150.473c-.211.166-.435.328-.655.491C469.964,150.8,470.188,150.639,470.4,150.473Z"/><path class="b" d="M8.067,151.177c-.1-.073-.2-.146-.294-.219.092.068.18.137.274.2Z"/><path class="b" d="M6.963,150.342c-.1-.08-.2-.162-.293-.243.094.077.184.156.28.232Z"/><path class="b" d="M9.334,152.039c-.124-.079-.24-.162-.361-.242.119.079.233.16.355.239Z"/><path class="b" d="M468.117,152.1q-.611.393-1.262.772Q467.506,152.492,468.117,152.1Z"/><path class="b" d="M471.257,149.758h0c-.135.117-.276.231-.415.347C470.981,149.989,471.122,149.874,471.257,149.758Z"/><path class="b" d="M469.3,151.3c-.245.175-.5.344-.76.515C468.8,151.642,469.054,151.473,469.3,151.3Z"/><path class="b" d="M187.9,198.621h0c-.142-.027-.283-.053-.423-.084h0C187.613,198.568,187.755,198.594,187.9,198.621Z"/><path class="b" d="M348.778,123.563l9.534-5.573a13.68,13.68,0,0,1,5.452-1.647l-14.941-8.626Z"/><path class="b" d="M254.122,236.838h0c-.17-.042-.339-.086-.505-.134h0C253.784,236.752,253.952,236.8,254.122,236.838Z"/><path class="b" d="M258.632,237.316h0Z"/><path class="b" d="M437.93,159.162l-22.038-12.723-.043,15.316,2.132,1.224c3.014,1.729,3.784,4.291,2.3,6.439Z"/><path class="b" d="M257.179,237.3h0c-.079,0-.156-.014-.235-.019h0C257.023,237.284,257.1,237.293,257.179,237.3Z"/><path class="b" d="M190.108,198.9h0c-.078,0-.155-.013-.232-.019h0C189.953,198.883,190.03,198.892,190.108,198.9Z"/><path class="b" d="M252.525,236.342c-.2-.075-.385-.158-.574-.241.188.083.378.166.573.241Z"/><path class="b" d="M254.629,236.955c-.029-.006-.058-.011-.086-.018h0C254.571,236.944,254.6,236.949,254.629,236.955Z"/><path class="b" d="M247.121,275.9c-.159.02-.318.042-.478.061h0C246.8,275.944,246.962,275.923,247.121,275.9Z"/><path class="b" d="M261.526,271.971h0c-.179.082-.358.164-.54.243h0C261.168,272.134,261.347,272.053,261.526,271.971Z"/><path class="b" d="M253.672,274.682l-.242.061.241-.061Z"/><path class="b" d="M283.248,84.266l8-4.675a13.972,13.972,0,0,1,5.939-1.688l-13.9-8.023Z"/><path class="b" d="M259.609,272.787h0c-.116.046-.229.094-.345.139h0C259.38,272.881,259.493,272.833,259.609,272.787Z"/><path class="b" d="M262.958,271.283l-.246.123h0Z"/><path class="b" d="M219.537,272.886h0c-.135-.052-.266-.108-.4-.161h0C219.271,272.779,219.4,272.834,219.537,272.886Z"/><path class="b" d="M249.091,275.62l-.419.065h0Z"/><path class="b" d="M244.826,276.15l-.041,0,.04,0Z"/><path class="c" d="M20.517,128.257c-.09.058-.172.118-.26.177-.2.13-.393.259-.58.392-.112.081-.216.164-.325.245-.153.114-.31.227-.457.343-.111.089-.213.179-.321.269-.135.112-.273.223-.4.337-.105.092-.2.186-.3.279-.123.114-.25.227-.367.343-.1.095-.183.192-.276.288-.111.116-.226.231-.331.348-.089.1-.169.2-.254.3-.1.117-.2.233-.3.351-.081.1-.152.2-.229.306-.088.119-.18.237-.263.356s-.137.212-.206.318-.156.235-.227.354-.121.217-.181.325-.135.237-.2.357-.1.218-.152.327-.116.241-.166.363-.084.221-.125.332-.095.242-.135.364-.065.224-.1.337-.074.243-.1.365-.047.226-.07.339-.053.244-.073.367-.029.228-.043.343-.033.243-.043.365-.011.229-.015.344c-.16,3.934,2.341,7.9,7.514,10.89l17.8,10.279L219.764,54.107c.364-.212.74-.413,1.122-.61.116-.059.234-.117.351-.175q.417-.207.847-.4c.127-.058.254-.116.383-.172q.487-.213.989-.411c.081-.032.159-.066.24-.1q.621-.238,1.261-.453c.112-.038.227-.073.341-.11.322-.1.648-.207.977-.3.143-.042.287-.083.431-.123q.492-.137.992-.261c.122-.031.243-.063.366-.092.45-.107.9-.208,1.361-.3l.245-.046q.573-.111,1.153-.206l.449-.07q.5-.077,1.014-.142l.436-.055c.45-.052.9-.1,1.354-.138l.073-.007c.478-.04.957-.07,1.438-.094l.429-.018c.348-.014.7-.024,1.045-.03.156,0,.312-.006.468-.007.382,0,.763,0,1.145.007.1,0,.208,0,.312.005q.72.018,1.438.06c.12.007.239.017.359.025q.548.036,1.093.085c.155.014.31.03.465.045.351.036.7.077,1.048.121.135.017.271.033.406.051q.566.078,1.127.171l.2.03q.656.112,1.3.245c.222.045.442.095.663.144.155.034.311.066.465.1.243.057.484.119.725.181.132.034.266.065.4.1.039.01.077.022.116.033.538.146,1.068.306,1.59.475l.3.095q.728.243,1.431.515c.1.039.2.081.3.121q.546.217,1.075.454c.112.05.225.1.335.15.42.193.833.393,1.236.6.309.162.614.328.913.5L437.93,159.162l18.041-10.484c4.947-2.875,7.413-6.661,7.408-10.45,0-.122-.008-.245-.014-.368,0-.094-.006-.189-.014-.283l-.012-.143c-.009-.1-.023-.2-.036-.293s-.02-.174-.033-.261c-.006-.036-.011-.073-.017-.11-.015-.089-.037-.178-.054-.268-.027-.132-.051-.265-.084-.4-.024-.092-.053-.184-.079-.276l-.031-.106c-.031-.107-.059-.214-.094-.321s-.071-.189-.105-.284c-.013-.034-.026-.067-.038-.1-.039-.1-.076-.209-.119-.313s-.089-.193-.133-.29c-.014-.032-.03-.064-.044-.1-.047-.1-.091-.2-.143-.3s-.106-.2-.16-.293l-.021-.039c-.064-.116-.125-.232-.194-.347-.144-.239-.3-.477-.462-.713-.034-.05-.074-.1-.11-.148-.138-.191-.281-.381-.433-.57l-.011-.014c-.112-.138-.232-.275-.353-.412-.056-.066-.112-.133-.171-.2-.1-.108-.2-.215-.309-.322s-.183-.194-.28-.29l-.008-.007-.01-.011c-.2-.193-.405-.384-.619-.573l-.182-.155-.022-.019c-.157-.134-.316-.267-.481-.4-.065-.052-.132-.1-.2-.156-.12-.094-.246-.185-.37-.277-.069-.051-.136-.1-.206-.154-.051-.036-.1-.073-.151-.11l-.007,0c-.242-.17-.493-.339-.75-.5-.06-.039-.123-.077-.184-.116l-.008,0c-.252-.159-.508-.317-.775-.47L256.088,12.372q-.447-.258-.913-.5c-.4-.211-.815-.411-1.235-.6-.111-.051-.224-.1-.335-.15h0q-.53-.236-1.074-.453h0c-.1-.04-.2-.082-.3-.121h0q-.7-.271-1.43-.514h0c-.1-.033-.2-.064-.3-.1-.523-.169-1.052-.329-1.59-.475h0c-.039-.011-.077-.023-.116-.033h0c-.132-.036-.267-.067-.4-.1-.24-.062-.479-.124-.722-.181-.153-.036-.308-.068-.462-.1-.222-.05-.443-.1-.666-.145h0q-.648-.132-1.305-.245l-.093-.014-.1-.015q-.564-.093-1.134-.172c-.135-.018-.271-.034-.406-.051q-.522-.066-1.047-.12l-.166-.016-.3-.03q-.544-.049-1.091-.085l-.209-.014-.152-.011q-.717-.042-1.438-.06c-.1,0-.208,0-.312,0-.381-.008-.763-.01-1.144-.008l-.244,0c-.075,0-.15,0-.224,0q-.524.009-1.046.031l-.357.014-.072,0c-.48.025-.96.055-1.437.094l-.074.008c-.453.038-.9.085-1.353.138-.146.017-.292.036-.438.055-.338.043-.676.09-1.012.141l-.369.058-.081.012q-.579.1-1.151.206l-.167.031-.079.015q-.687.138-1.362.3l-.366.092q-.5.124-.991.261c-.145.04-.289.082-.432.124q-.494.144-.977.3c-.113.037-.228.072-.341.11-.426.144-.846.294-1.26.453l-.241.1q-.5.2-.989.41c-.129.056-.256.114-.383.172q-.429.2-.846.4l-.2.1-.156.077c-.381.2-.757.4-1.122.611L21.415,127.708Q20.952,127.978,20.517,128.257Z"/><path class="d" d="M466.855,152.87,264.78,270.3c-.513.3-1.041.582-1.576.857-.162.084-.328.164-.492.246q-.585.291-1.186.565c-.179.082-.358.163-.539.243q-.68.3-1.378.573c-.116.046-.229.094-.345.139-.579.224-1.169.436-1.765.638-.155.053-.313.1-.47.152q-.679.222-1.371.427-.3.089-.6.173-.685.192-1.382.366c-.172.043-.343.089-.517.13-.63.151-1.264.293-1.905.422-.1.021-.208.038-.312.058q-.815.159-1.639.3c-.208.035-.416.066-.625.1-.469.072-.941.139-1.413.2-.206.027-.411.054-.617.079q-.9.106-1.818.187l-.177.017c-.667.056-1.336.1-2.006.133-.2.01-.392.017-.588.025q-.734.03-1.466.044c-.219,0-.438.008-.658.009q-.783.006-1.567-.009c-.156,0-.312,0-.468-.006q-1.005-.026-2.009-.084c-.159-.009-.317-.022-.476-.033-.517-.034-1.033-.073-1.547-.12-.218-.02-.435-.042-.652-.064-.484-.049-.965-.105-1.446-.166-.2-.025-.394-.048-.59-.075-.492-.067-.982-.142-1.471-.222-.126-.021-.253-.038-.379-.059q-.918-.158-1.823-.342c-.327-.067-.651-.14-.975-.213-.2-.045-.406-.087-.607-.134-.385-.091-.765-.189-1.145-.288-.141-.037-.285-.07-.426-.108-.49-.131-.975-.271-1.457-.416-.146-.044-.289-.091-.433-.136q-.458-.143-.907-.293-1.023-.341-2.015-.724c-.134-.052-.266-.107-.4-.161q-.777-.309-1.533-.647c-.158-.07-.317-.14-.474-.212-.592-.273-1.176-.555-1.745-.853q-.655-.344-1.289-.708L10.7,152.872c-.377-.218-.739-.441-1.1-.665-.09-.057-.183-.114-.272-.171-.364-.235-.718-.472-1.06-.714-.075-.053-.147-.107-.221-.16q-.411-.3-.8-.6l-.3-.234c-.233-.186-.458-.373-.679-.562-.095-.082-.194-.164-.287-.246-.3-.267-.595-.535-.873-.807l-.04-.042q-.415-.41-.8-.826c-.09-.1-.172-.2-.259-.3-.168-.193-.336-.385-.494-.579q-.36-.444-.68-.9c-.026-.037-.056-.072-.081-.108-.237-.338-.456-.679-.661-1.022-.1-.168-.19-.337-.282-.506-.082-.149-.169-.3-.244-.447-.088-.173-.164-.347-.243-.522-.068-.148-.142-.3-.2-.446-.074-.177-.135-.355-.2-.532-.054-.149-.115-.3-.164-.446-.06-.18-.106-.361-.158-.541-.041-.148-.089-.3-.126-.444-.072-.294-.131-.589-.181-.885-.014-.081-.025-.162-.037-.243-.034-.227-.062-.455-.083-.682-.008-.087-.017-.174-.023-.261-.021-.3-.035-.6-.035-.9v0h0L0,179.828c0,.3.013.6.035.9.006.087.015.174.023.26.021.228.049.455.083.683.012.081.022.162.036.243.049.285.1.57.173.855l.009.03c.036.148.084.3.126.443.051.181.1.362.157.542.05.15.111.3.166.448.065.176.126.353.2.529.063.151.137.3.206.451.079.173.154.346.241.517.076.151.163.3.245.449s.159.3.248.453c.01.018.023.034.033.052.205.343.424.684.661,1.021.027.038.057.074.084.112.214.3.439.6.678.892.018.022.033.045.051.068.141.172.294.34.443.51.087.1.169.2.259.3q.378.414.791.821c.016.015.03.032.046.048l0,0c.278.271.57.539.87.8.094.083.192.164.288.246.141.121.277.242.423.361.082.068.171.134.255.2s.2.156.3.234q.389.3.8.6c.075.054.146.108.221.161l.074.054c.319.223.65.442.987.659.089.058.181.114.272.171.162.1.32.2.486.305q.3.183.61.361l203.4,117.433q.615.356,1.25.689l.039.019c.568.3,1.152.58,1.745.853.061.028.119.06.18.088.1.044.2.081.293.124q.756.336,1.534.647c.094.038.183.08.278.117.04.016.082.029.122.044q.99.384,2.015.724c.057.019.111.042.168.061.244.08.492.155.739.232.144.045.287.092.432.135q.711.214,1.434.411l.023.006c.146.039.3.073.442.112.375.1.75.194,1.13.283.2.048.4.089.606.135.3.066.589.135.886.2l.089.017q.906.185,1.823.341c.126.022.254.039.38.06.489.079.978.155,1.471.222l.189.029c.133.018.268.029.4.046q.72.091,1.445.166c.218.022.435.044.653.064q.771.069,1.547.12c.159.01.317.024.476.033q1,.058,2.009.084c.156,0,.311,0,.467.006.523.009,1.045.013,1.568.009l.658-.009q.734-.014,1.465-.044c.2-.009.392-.015.588-.025.671-.034,1.34-.077,2.007-.133l.177-.017c.609-.053,1.214-.117,1.818-.188.206-.024.411-.051.616-.078q.71-.091,1.413-.2c.209-.032.418-.064.626-.1q.824-.136,1.638-.295c.1-.02.209-.038.313-.059q.96-.194,1.905-.421c.173-.042.345-.087.517-.13.464-.117.925-.238,1.381-.366.2-.057.4-.114.606-.174.461-.135.918-.278,1.371-.426.156-.051.314-.1.47-.152q.894-.3,1.765-.638c.116-.045.229-.094.345-.139.465-.185.924-.375,1.377-.574.182-.079.36-.161.54-.242q.6-.274,1.185-.565c.165-.082.33-.162.493-.246.535-.276,1.063-.559,1.575-.857L466.736,194.606c6.932-4.029,10.4-9.3,10.417-14.578l.118-41.736C477.256,143.571,473.787,148.842,466.855,152.87Z"/><path class="c" d="M280.349,72.553l-147.5,86.232a10.29,10.29,0,0,1-.919.471c-.1.044-.2.084-.294.126-.234.1-.473.193-.718.279-.108.038-.216.077-.326.112q-.428.138-.872.251c-.064.016-.126.036-.191.051-.36.087-.728.159-1.1.221-.1.017-.2.029-.305.043-.28.041-.562.076-.846.1-.124.012-.249.023-.374.032q-.434.032-.869.042c-.1,0-.2.008-.3.008-.385,0-.77,0-1.153-.027-.078,0-.155-.013-.233-.019-.309-.022-.616-.051-.921-.089-.129-.016-.258-.034-.386-.053-.226-.034-.451-.072-.673-.114-.141-.027-.282-.054-.422-.084s-.281-.065-.421-.1c-.169-.042-.338-.086-.5-.134-.1-.029-.207-.06-.309-.092-.2-.062-.392-.128-.583-.2-.066-.024-.134-.047-.2-.072-.251-.1-.5-.2-.736-.31l-.145-.071c-.232-.112-.46-.227-.678-.352l-40.074-23q-.373-.214-.7-.445c-.021-.015-.039-.03-.059-.045-.175-.125-.338-.254-.493-.386-.06-.052-.117-.1-.175-.157-.108-.1-.209-.2-.305-.3q-.1-.108-.2-.219a5.244,5.244,0,0,1-.341-.425l-.006-.01a4.538,4.538,0,0,1-.255-.421c-.049-.09-.094-.181-.136-.272s-.084-.189-.12-.284-.063-.185-.09-.278c-.032-.11-.061-.221-.082-.331-.009-.05-.02-.1-.027-.149a3.563,3.563,0,0,1-.041-.515L75.2,152.443a3.427,3.427,0,0,0,.041.515c.007.05.017.1.027.149s.018.119.032.178.035.1.05.153c.026.093.056.185.09.278s.076.189.12.283.086.182.136.273c.023.041.039.084.063.126.059.1.123.2.191.3l.007.01c.072.1.15.206.233.307.032.04.073.078.107.118.064.074.132.147.2.219.045.047.083.1.13.142s.117.1.174.156.116.1.177.157c.034.029.063.059.1.088.124.1.258.2.394.3.021.014.038.029.059.044l.014.01q.234.165.492.321c.064.038.129.077.194.114l40.074,23c.108.063.219.123.331.182s.23.114.347.17l.145.071.063.031q.293.132.6.251l.076.028c.066.025.133.047.2.072.126.046.25.093.379.136.067.022.136.04.2.061.1.032.2.062.309.092.077.022.152.048.229.069s.184.042.275.065c.14.035.279.069.421.1.063.013.124.031.188.044s.156.025.234.04q.333.063.672.114c.076.011.149.028.225.038.054.007.109.009.162.015.305.038.612.067.921.089.078,0,.154.014.232.019.384.022.769.03,1.154.027.1,0,.2-.006.3-.008q.437-.01.87-.042c.125-.009.249-.02.374-.032.284-.027.566-.062.846-.1.1-.015.2-.026.305-.043.373-.062.741-.134,1.1-.221.065-.015.127-.035.191-.051q.444-.112.872-.251c.11-.036.217-.074.326-.112.245-.086.484-.18.718-.279.1-.042.2-.082.294-.126.318-.146.627-.3.919-.471L280.29,93.421a5.819,5.819,0,0,0,2.758-3.031,3.577,3.577,0,0,0,.186-1.123l.059-20.868C283.289,69.9,282.309,71.408,280.349,72.553Z"/><path class="e" d="M225.706,41.191a16.019,16.019,0,0,1,14.483-.027l40.073,23c4.006,2.3,4.047,6.074.087,8.389l-147.5,86.232a16.01,16.01,0,0,1-14.479.025l-40.074-23c-4.006-2.3-4.046-6.074-.09-8.387Z"/><path class="c" d="M345.885,110.951,198.377,197.185c-.292.17-.6.325-.919.47-.1.044-.2.084-.294.126-.235.1-.474.193-.719.279-.108.039-.216.077-.326.113q-.426.138-.87.25c-.064.016-.127.036-.193.052-.36.086-.728.159-1.1.22-.1.017-.2.029-.3.044-.28.041-.562.076-.847.1-.124.011-.248.022-.373.031-.29.022-.58.035-.871.042-.1,0-.2.008-.3.009q-.577,0-1.154-.028c-.078,0-.155-.013-.232-.019q-.463-.032-.922-.088c-.129-.016-.258-.035-.386-.054q-.339-.05-.672-.114c-.141-.027-.283-.053-.423-.084s-.281-.065-.42-.1c-.17-.042-.339-.086-.5-.134-.1-.029-.206-.06-.308-.091-.2-.062-.392-.128-.583-.2-.067-.024-.135-.047-.2-.072q-.376-.144-.735-.31c-.05-.023-.1-.048-.147-.071-.231-.112-.459-.227-.677-.351l-40.07-23q-.373-.214-.7-.446l-.06-.045c-.175-.126-.338-.254-.492-.386-.061-.051-.118-.1-.176-.157q-.161-.147-.3-.3c-.07-.072-.138-.145-.2-.219-.121-.14-.239-.281-.34-.425l-.007-.009a4.768,4.768,0,0,1-.254-.422c-.05-.09-.094-.181-.137-.272s-.084-.189-.119-.284-.064-.185-.09-.278c-.032-.11-.061-.22-.082-.331-.01-.05-.02-.1-.027-.149a3.427,3.427,0,0,1-.041-.515l-.059,20.868a3.427,3.427,0,0,0,.041.515c.007.05.017.1.027.149s.017.119.032.178.035.1.049.153c.027.093.057.185.091.278s.076.189.119.283.087.183.137.273c.023.042.038.085.063.126.059.1.123.2.191.295l.006.01c.073.1.151.206.234.308.032.039.073.077.107.117.064.074.132.147.2.22.045.046.082.095.13.141s.117.1.174.156.115.105.176.157c.034.029.064.06.1.088.123.1.256.2.392.3l.061.046.013.01q.236.165.493.321c.064.039.128.077.194.114l40.07,23c.109.062.219.123.331.181s.231.114.347.17l.145.071.064.031q.291.133.6.252l.076.027c.066.025.133.047.2.072.127.046.251.094.38.136.067.022.137.04.205.061.1.032.2.063.308.092.077.022.152.048.23.069s.184.043.276.065c.139.035.277.069.419.1.063.014.124.031.188.044s.157.025.235.04q.333.065.672.114c.075.011.149.028.225.038.053.007.108.009.162.016.305.037.611.067.92.088.078.006.155.015.233.019q.576.033,1.154.028c.1,0,.2-.007.3-.009.292-.007.582-.02.871-.042.126-.009.25-.02.375-.032.284-.027.565-.061.845-.1.1-.015.2-.027.3-.044.373-.061.741-.134,1.1-.22.066-.016.128-.036.193-.052q.444-.112.87-.251c.11-.035.218-.073.326-.112.245-.086.484-.18.719-.279.1-.042.2-.082.293-.126.318-.146.628-.3.92-.47l147.507-86.234c1.958-1.145,2.937-2.647,2.942-4.152l.059-20.868C348.822,108.3,347.842,109.806,345.885,110.951Z"/><path class="e" d="M291.245,79.591a16.01,16.01,0,0,1,14.479-.025l40.07,23c4.007,2.3,4.047,6.074.091,8.387L198.377,197.185a16.018,16.018,0,0,1-14.48.025l-40.07-23c-4.006-2.3-4.047-6.074-.09-8.388Z"/><path d="M140.782,174.979l-8,4.674c-.292.171-.6.325-.919.471-.1.044-.2.084-.294.126-.234.1-.473.193-.718.279-.109.038-.216.076-.326.112q-.427.138-.872.251c-.064.016-.126.036-.191.051-.36.087-.728.159-1.1.221-.1.017-.2.028-.305.043-.28.041-.562.076-.846.1-.125.012-.249.023-.374.032q-.434.031-.87.042c-.1,0-.2.008-.3.008-.385,0-.77,0-1.154-.027-.078,0-.154-.014-.232-.019-.309-.022-.616-.051-.921-.089-.053-.006-.108-.008-.162-.015l-.08-.014c4.024,2.183,10.379,2.139,14.271-.136l3.378-1.975Z"/><path d="M417.981,162.979l-2.132-1.224-.013,4.314c0,1.505-.983,3.007-2.94,4.151l-147.5,86.232a10.291,10.291,0,0,1-.919.47c-.1.045-.2.085-.3.127-.234.1-.472.193-.717.279-.109.038-.217.077-.327.113q-.426.138-.869.25c-.066.016-.128.036-.194.052-.361.086-.729.159-1.1.221-.1.016-.2.028-.306.043-.28.041-.561.076-.846.1-.124.012-.248.023-.373.032-.289.021-.579.034-.87.042-.1,0-.2.008-.3.008-.361,0-.722-.006-1.082-.025,4.024,1.733,9.764,1.546,13.379-.567l147.505-86.232C422.031,169.055,421.991,165.28,417.981,162.979Z"/><path class="c" d="M412.955,149.352l-147.5,86.232c-.292.171-.6.325-.919.471-.1.044-.2.084-.3.126-.234.1-.473.193-.718.279-.108.038-.217.077-.327.113q-.426.138-.869.25c-.065.016-.128.036-.194.052-.36.087-.729.159-1.1.221-.1.016-.2.028-.305.043-.28.041-.562.076-.846.1-.125.012-.249.023-.374.032q-.433.031-.87.042c-.1,0-.2.008-.3.008-.385,0-.77-.005-1.153-.027-.078,0-.156-.013-.234-.019-.308-.022-.615-.051-.92-.089-.13-.016-.259-.034-.388-.053q-.337-.051-.671-.114c-.141-.027-.283-.054-.423-.085s-.282-.065-.421-.1c-.17-.043-.338-.086-.505-.134l-.308-.092q-.3-.093-.585-.2c-.066-.024-.134-.047-.2-.072q-.377-.144-.735-.31c-.05-.023-.1-.048-.148-.072-.232-.111-.459-.226-.677-.351l-40.07-23q-.373-.214-.7-.446c-.021-.014-.039-.03-.06-.044-.174-.126-.337-.255-.492-.386-.061-.052-.118-.105-.176-.157q-.161-.147-.3-.3c-.07-.073-.138-.146-.2-.22a5.259,5.259,0,0,1-.34-.424l-.007-.01a4.9,4.9,0,0,1-.254-.421c-.049-.09-.094-.181-.136-.272s-.084-.189-.12-.285-.063-.184-.09-.277c-.032-.11-.061-.22-.082-.331-.009-.05-.02-.1-.027-.149a3.563,3.563,0,0,1-.041-.515l-.059,20.868a3.427,3.427,0,0,0,.041.515c.007.05.017.1.027.149s.018.119.032.178.035.1.05.153c.026.093.056.185.09.277s.076.19.12.285.086.181.136.272c.023.041.039.084.063.126.059.1.123.2.191.295l.007.01c.072.1.15.206.233.307.032.04.073.078.107.117.064.074.132.147.2.22.045.047.082.095.13.141s.117.1.174.157.115.1.176.157c.034.029.063.059.1.088.124.1.258.2.394.3.021.014.039.03.059.044l.014.011q.236.163.493.32c.064.039.128.077.194.115l40.07,23c.109.062.219.123.332.182s.229.113.345.169c.049.024.1.049.148.072l.063.031q.292.133.6.252l.075.027c.066.025.134.048.2.072.127.046.252.094.381.137.066.022.136.039.2.06.1.032.205.063.309.093.077.022.153.048.231.069s.183.042.274.065c.139.034.279.068.42.1.064.014.126.032.189.045.078.016.158.025.235.04.222.042.445.08.671.113.076.012.15.028.226.039.053.007.108.009.162.015.305.038.611.067.92.089.078,0,.155.014.234.019.383.022.768.03,1.153.027.1,0,.2-.006.3-.008.291-.008.581-.021.87-.042.125-.009.249-.02.373-.032.285-.027.566-.062.846-.1.1-.015.205-.027.306-.043.372-.062.74-.135,1.1-.221.066-.016.128-.036.194-.052q.443-.113.869-.25c.11-.036.218-.075.327-.113.245-.086.483-.18.717-.279.1-.042.2-.082.3-.127a10.291,10.291,0,0,0,.919-.47L412.9,170.22c1.957-1.144,2.936-2.646,2.94-4.151l.06-20.868C415.891,146.706,414.912,148.208,412.955,149.352Z"/><path class="e" d="M358.312,117.99a16.013,16.013,0,0,1,14.479-.025l40.07,23c4.01,2.3,4.05,6.076.094,8.389l-147.5,86.232a16.019,16.019,0,0,1-14.486.025l-40.07-23c-4.006-2.3-4.047-6.074-.087-8.389Z"/><path d="M207.851,212.479l-9.533,5.574c-.292.17-.6.324-.92.47-.1.044-.195.084-.293.126-.235.1-.474.193-.719.279-.108.039-.216.077-.326.112q-.426.138-.87.251c-.065.016-.127.036-.193.052-.36.086-.728.159-1.1.22-.1.017-.2.029-.3.044-.28.041-.561.075-.845.1-.125.012-.249.023-.375.032-.289.022-.579.035-.871.042-.1,0-.2.008-.3.009q-.577,0-1.154-.028c-.078,0-.155-.013-.233-.019-.174-.012-.345-.032-.517-.05,4.03,2.113,10.29,2.047,14.14-.2l4.4-2.572Z"/><path class="e" d="M466.693,123.512c14.04,8.107,14.114,21.25.162,29.358L264.78,270.3c-13.952,8.108-36.643,8.109-50.684,0L10.7,152.872c-14.039-8.105-14.113-21.25-.162-29.357L212.609,6.081c13.953-8.108,36.644-8.107,50.683,0Zm-209.188,140.5L455.971,148.678c9.925-5.768,9.872-15.2-.118-20.971L256.088,12.372c-9.99-5.768-26.282-5.768-36.206,0L21.415,127.708c-9.922,5.766-9.869,15.2.122,20.971L221.3,264.013c9.989,5.767,26.28,5.767,36.2,0"/><polygon points="75.217 146.638 75.242 138.094 39.341 158.958 46.703 163.209 75.217 146.638"/><path class="e" d="M466.693,124.024c14.04,8.107,14.114,21.25.162,29.358L264.78,270.815c-13.952,8.108-36.643,8.109-50.684,0L10.7,153.384c-14.039-8.1-14.113-21.25-.162-29.357L212.609,6.593c13.953-8.108,36.644-8.107,50.683,0Zm-209.188,140.5L455.971,149.19c9.925-5.768,9.872-15.2-.118-20.971L256.088,12.884c-9.99-5.768-26.282-5.768-36.206,0L21.415,128.22c-9.922,5.766-9.869,15.2.122,20.971L221.3,264.525c9.989,5.767,26.28,5.767,36.2,0"/><g class="f"><g class="g"><path class="h" d="M67.769,198.013a5.741,5.741,0,0,0-3.24-.915,3,3,0,0,0-2.35,1.281,5.611,5.611,0,0,0-.873,3.324,11.668,11.668,0,0,0,.851,4.313A14.8,14.8,0,0,0,64.48,210a11.833,11.833,0,0,0,3.247,2.83,5.727,5.727,0,0,0,3.591.941,2.837,2.837,0,0,0,2.289-1.9l-2.484-1.434a1.674,1.674,0,0,1-1.371.921,3.66,3.66,0,0,1-2.019-.6,7.9,7.9,0,0,1-2.226-1.947,9.42,9.42,0,0,1-1.534-2.752,9.083,9.083,0,0,1-.541-3.134,4.741,4.741,0,0,1,.557-2.5,1.93,1.93,0,0,1,1.544-.968,3.9,3.9,0,0,1,2.23.641,7.3,7.3,0,0,1,2.016,1.722,8.113,8.113,0,0,1,1.362,2.506l2.483,1.434a13.348,13.348,0,0,0-2.27-4.544,12.262,12.262,0,0,0-3.585-3.209"/><path class="h" d="M79.387,207.917l-2.069-1.194-.033,11.5,2.069,1.194.033-11.5m-1-5.157a.922.922,0,0,0-.946-.1.908.908,0,0,0-.386.864,2.863,2.863,0,0,0,1.324,2.293.8.8,0,0,0,1.306-.774,2.552,2.552,0,0,0-.373-1.3,2.59,2.59,0,0,0-.925-.975"/><path class="h" d="M85.805,208.764l-2.088-1.205-.008,2.853-1.181-.682-.006,1.945,1.181.682-.018,6.36a5.285,5.285,0,0,0,.734,2.871,6.058,6.058,0,0,0,2.143,1.994l1.635.944,0-1.988-1.27-.734a2.436,2.436,0,0,1-.9-.8,2.083,2.083,0,0,1-.259-1.083l.018-6.361,2.433,1.4,0-1.944-2.432-1.4.008-2.854"/><path class="h" d="M93.477,216.052l-2.068-1.194-.033,11.5,2.069,1.194.032-11.5m-1-5.156a.921.921,0,0,0-.946-.106.909.909,0,0,0-.386.865,2.863,2.863,0,0,0,1.324,2.293.9.9,0,0,0,.927.094.909.909,0,0,0,.386-.865,2.864,2.864,0,0,0-1.305-2.281"/><polyline class="h" points="103.846 222.039 96.912 218.035 96.907 219.98 101.466 222.612 96.885 227.595 96.88 229.539 103.814 233.542 103.819 231.598 99.28 228.977 103.841 223.983 103.846 222.039"/><path class="h" d="M108.755,229.6a1.811,1.811,0,0,1,.913-1.589,1.985,1.985,0,0,1,1.841.276,5.759,5.759,0,0,1,1.977,1.935,4.881,4.881,0,0,1,.811,2.578l-5.542-3.2m2.849-3.264a4.736,4.736,0,0,0-2.607-.778,2.174,2.174,0,0,0-1.768,1.059,5.118,5.118,0,0,0-.635,2.764,9.759,9.759,0,0,0,.636,3.49A11,11,0,0,0,109,235.978a9.255,9.255,0,0,0,2.571,2.226,3.972,3.972,0,0,0,2.953.691,2.368,2.368,0,0,0,1.648-1.65l-2.228-1.286q-.7,1.2-2.367.242a5.549,5.549,0,0,1-1.958-1.968,5.8,5.8,0,0,1-.887-2.724l7.649,4.416a8.319,8.319,0,0,0,.073-1.126,9.259,9.259,0,0,0-.611-3.314,10.429,10.429,0,0,0-1.718-2.991,9.223,9.223,0,0,0-2.52-2.16"/><path class="h" d="M124.82,233.964a4.027,4.027,0,0,0-1.68-.573,1.757,1.757,0,0,0-1.3.36l0-1.321-2.069-1.194-.033,11.5,2.069,1.195.018-6.427c0-1.035.235-1.687.69-1.975s1.069-.214,1.841.232a4.85,4.85,0,0,1,1.837,1.891,5.571,5.571,0,0,1,.663,2.757l-.018,6.426,2.049,1.184.02-6.787a8.4,8.4,0,0,0-1.974-5.482,7.9,7.9,0,0,0-2.118-1.789"/><path class="h" d="M136.3,240.592a4.946,4.946,0,0,0-2.025-.728,1.594,1.594,0,0,0-1.357.414,1.955,1.955,0,0,0-.477,1.407,4.488,4.488,0,0,0,.512,2.118,7.6,7.6,0,0,0,1.222,1.728c.472.493,1.085,1.074,1.831,1.748a19.094,19.094,0,0,1,1.7,1.67,1.924,1.924,0,0,1,.534,1.263.643.643,0,0,1-.482.721,2.073,2.073,0,0,1-1.354-.4,4.2,4.2,0,0,1-1.391-1.295,3.236,3.236,0,0,1-.6-1.568l-2.145-1.238a5.741,5.741,0,0,0,.575,2.221,8.844,8.844,0,0,0,1.478,2.19,8.7,8.7,0,0,0,2.118,1.715,4.886,4.886,0,0,0,2.025.729,1.573,1.573,0,0,0,1.338-.433,2.1,2.1,0,0,0,.478-1.481,4.556,4.556,0,0,0-.525-2.081,7.729,7.729,0,0,0-1.2-1.709q-.7-.745-1.786-1.715c-.542-.489-.957-.883-1.231-1.159a4.511,4.511,0,0,1-.707-.9,1.78,1.78,0,0,1-.292-.94c0-.389.149-.62.437-.689a1.937,1.937,0,0,1,1.259.374,3.9,3.9,0,0,1,1.32,1.218,3.164,3.164,0,0,1,.546,1.55l2.069,1.194a6.528,6.528,0,0,0-1.11-3.345,8.025,8.025,0,0,0-2.749-2.579"/><path class="h" d="M145.881,242.361l-2.069-1.194-.043,15.443,2.068,1.195.019-6.427c0-1.035.235-1.687.689-1.975s1.069-.214,1.842.232a4.827,4.827,0,0,1,1.836,1.891,5.572,5.572,0,0,1,.664,2.757l-.019,6.426,2.05,1.184.019-6.787a8.536,8.536,0,0,0-.509-2.969,8.371,8.371,0,0,0-1.413-2.483,7.4,7.4,0,0,0-2.042-1.745,4.384,4.384,0,0,0-1.769-.625,1.826,1.826,0,0,0-1.338.352l.015-5.275"/><path class="h" d="M158.927,253.839l-2.069-1.194-.033,11.5,2.069,1.194.033-11.5m-1-5.156a.921.921,0,0,0-.946-.106.909.909,0,0,0-.386.865,2.576,2.576,0,0,0,.38,1.307,2.6,2.6,0,0,0,.944.986.9.9,0,0,0,.927.094.909.909,0,0,0,.386-.865,2.864,2.864,0,0,0-1.305-2.281"/><path class="h" d="M168,268.718a5.432,5.432,0,0,1-1.479-1.318,7.17,7.17,0,0,1-1.12-1.991,6.482,6.482,0,0,1-.422-2.323,3.226,3.226,0,0,1,.433-1.822,1.466,1.466,0,0,1,1.128-.687,2.552,2.552,0,0,1,1.482.393,5.554,5.554,0,0,1,1.5,1.321,6.879,6.879,0,0,1,1.12,1.962,6.285,6.285,0,0,1,.421,2.3,3.3,3.3,0,0,1-.433,1.836,1.468,1.468,0,0,1-1.128.723,2.57,2.57,0,0,1-1.5-.4m.482-9.548a3.994,3.994,0,0,0-2.051-.64,2.091,2.091,0,0,0-1.441.506l0-1.695-2.069-1.194-.048,16.969,2.069,1.194.02-7.138a11.07,11.07,0,0,0,1.452,2.168,7.756,7.756,0,0,0,2.029,1.7,3.8,3.8,0,0,0,2.39.616,2.239,2.239,0,0,0,1.7-1.148,5.181,5.181,0,0,0,.628-2.738,9.817,9.817,0,0,0-.61-3.424,10.706,10.706,0,0,0-1.693-3.057,8.477,8.477,0,0,0-2.385-2.12"/></g></g><g class="f"><g class="i"><path class="h" d="M287.627,279.089l-.014-4.864L289.9,272.9c.785-.453,1.373-.58,1.758-.375s.59.673.592,1.429a4.137,4.137,0,0,1-.589,2.133,4.645,4.645,0,0,1-1.747,1.677l-2.292,1.324m2.273-8.125-4.361,2.518.041,14.5,2.069-1.194-.017-5.8,1.584-.914,2.921,4.126,2.471-1.427-3.146-4.2a8.287,8.287,0,0,0,2.2-2.853,7.188,7.188,0,0,0,.708-2.988,3.229,3.229,0,0,0-.5-1.906,1.753,1.753,0,0,0-1.512-.693,5.087,5.087,0,0,0-2.459.832"/><path class="h" d="M299.779,272.991a6.1,6.1,0,0,1,.9-2.636,5.254,5.254,0,0,1,1.837-1.847,2.261,2.261,0,0,1,1.981-.35c.531.222.808.768.823,1.633l-5.542,3.2m2.821-6.537a9.455,9.455,0,0,0-2.6,2.23,10.6,10.6,0,0,0-1.756,3.093,9.992,9.992,0,0,0-.617,3.487,4.914,4.914,0,0,0,.654,2.746,2.246,2.246,0,0,0,1.781,1.058,4.532,4.532,0,0,0,2.575-.744,9.113,9.113,0,0,0,2.947-2.716,10.471,10.471,0,0,0,1.633-3.544l-2.228,1.286a5.26,5.26,0,0,1-2.358,2.971,2.117,2.117,0,0,1-1.962.3,1.838,1.838,0,0,1-.9-1.7l7.648-4.416a9.863,9.863,0,0,0,.067-1.207,4.639,4.639,0,0,0-.627-2.6,2.128,2.128,0,0,0-1.73-.993,4.548,4.548,0,0,0-2.524.745"/><path class="h" d="M314.24,259.734a8.606,8.606,0,0,0-2.023,1.608,7.328,7.328,0,0,0-1.35,1.978,4.717,4.717,0,0,0-.468,1.952,1.823,1.823,0,0,0,.522,1.521,1.681,1.681,0,0,0,1.229.312,13.044,13.044,0,0,0,1.834-.368,7.257,7.257,0,0,1,1.7-.291c.358,0,.537.219.539.652a2.178,2.178,0,0,1-.476,1.266,4.247,4.247,0,0,1-1.353,1.163,1.793,1.793,0,0,1-1.393.312.886.886,0,0,1-.61-.867l-2.145,1.238a2.2,2.2,0,0,0,.586,1.55,1.919,1.919,0,0,0,1.485.488,4.96,4.96,0,0,0,2.121-.74,8.634,8.634,0,0,0,2.023-1.6,7.46,7.46,0,0,0,1.331-1.981,4.919,4.919,0,0,0,.467-2.026,1.781,1.781,0,0,0-.535-1.47,1.706,1.706,0,0,0-1.209-.316,10.5,10.5,0,0,0-1.79.358c-.543.13-.958.222-1.233.256a1.164,1.164,0,0,1-.71-.075.609.609,0,0,1-.3-.608,2.068,2.068,0,0,1,.431-1.19,3.957,3.957,0,0,1,1.257-1.078,1.68,1.68,0,0,1,1.323-.308c.333.116.513.424.552.915l2.069-1.194c-.054-1.108-.427-1.8-1.125-2.055a3.373,3.373,0,0,0-2.754.6"/><path class="h" d="M323.811,254.391l-2.069,1.2.033,11.5,2.068-1.194-.032-11.5m-1.028-3.977a2.626,2.626,0,0,0-.944.979,2.576,2.576,0,0,0-.38,1.307.908.908,0,0,0,.386.864.922.922,0,0,0,.946-.1,2.868,2.868,0,0,0,1.305-2.282.8.8,0,0,0-1.313-.763"/><path class="h" d="M332.3,259.129a2.528,2.528,0,0,1-1.483.386,1.5,1.5,0,0,1-1.134-.72,3.365,3.365,0,0,1-.433-1.836,6.4,6.4,0,0,1,.422-2.3,6.994,6.994,0,0,1,1.113-1.958,5.458,5.458,0,0,1,1.493-1.317,2.524,2.524,0,0,1,1.489-.4,1.5,1.5,0,0,1,1.121.69,3.3,3.3,0,0,1,.427,1.826,6.569,6.569,0,0,1-.415,2.319,7.184,7.184,0,0,1-1.114,1.988,5.376,5.376,0,0,1-1.486,1.321m5.082-16.521-2.094,1.209.016,5.553a1.984,1.984,0,0,0-1.517-.432,4.4,4.4,0,0,0-1.936.625,8.556,8.556,0,0,0-2.405,2.131,10.958,10.958,0,0,0-1.7,3.061,9.726,9.726,0,0,0-.617,3.427,5.111,5.111,0,0,0,.634,2.735,2.294,2.294,0,0,0,1.711,1.151,3.878,3.878,0,0,0,2.39-.623,7.666,7.666,0,0,0,2.061-1.734,9.16,9.16,0,0,0,1.4-2.183l0,1.732,2.094-1.209-.044-15.443"/><path class="h" d="M342.876,248.109a6.03,6.03,0,0,1,.9-2.636,5.252,5.252,0,0,1,1.831-1.843,2.24,2.24,0,0,1,1.981-.35c.538.218.808.768.823,1.633l-5.535,3.2m2.821-6.537a9.517,9.517,0,0,0-2.61,2.234,10.769,10.769,0,0,0-1.756,3.093,10.139,10.139,0,0,0-.617,3.487,4.982,4.982,0,0,0,.654,2.746,2.257,2.257,0,0,0,1.787,1.055,4.52,4.52,0,0,0,2.575-.745,9.127,9.127,0,0,0,2.947-2.715,10.478,10.478,0,0,0,1.634-3.545l-2.235,1.29a5.229,5.229,0,0,1-2.351,2.967,2.144,2.144,0,0,1-1.969.307,1.842,1.842,0,0,1-.894-1.7l7.643-4.412a9.009,9.009,0,0,0,.073-1.211,4.63,4.63,0,0,0-.628-2.6,2.147,2.147,0,0,0-1.729-.993,4.566,4.566,0,0,0-2.524.745"/><path class="h" d="M358.913,233.941a7.222,7.222,0,0,0-1.678,1.366,8.039,8.039,0,0,0-1.293,1.856l0-1.32-2.075,1.2.033,11.5,2.075-1.2-.018-6.427a5.526,5.526,0,0,1,.67-2.76,4.906,4.906,0,0,1,1.842-1.894c.773-.446,1.387-.522,1.835-.229s.681.944.684,1.979l.018,6.426,2.049-1.183-.019-6.786a4.425,4.425,0,0,0-.531-2.368,1.735,1.735,0,0,0-1.467-.822,4.1,4.1,0,0,0-2.121.659"/><path class="h" d="M371.133,226.886a9.17,9.17,0,0,0-2.539,2.193,10.779,10.779,0,0,0-1.724,3.076,9.989,9.989,0,0,0-.623,3.49,5.074,5.074,0,0,0,.64,2.753,2.219,2.219,0,0,0,1.737,1.084,4.367,4.367,0,0,0,2.543-.726,9.222,9.222,0,0,0,2.979-2.748,10.372,10.372,0,0,0,1.626-3.732l-2.235,1.29a5.009,5.009,0,0,1-2.376,3.188c-.843.486-1.52.532-2.027.126a3.084,3.084,0,0,1-.761-2.463,7.116,7.116,0,0,1,.745-3.325,5.189,5.189,0,0,1,2.021-2.2,2.21,2.21,0,0,1,1.508-.393,1.225,1.225,0,0,1,.878.83l2.235-1.29a2.358,2.358,0,0,0-1.617-1.9,4.191,4.191,0,0,0-3.01.746"/><path class="h" d="M380.577,226.342a6.032,6.032,0,0,1,.9-2.636,5.241,5.241,0,0,1,1.83-1.843,2.242,2.242,0,0,1,1.982-.35c.537.218.807.768.823,1.633l-5.536,3.2m2.815-6.533a9.51,9.51,0,0,0-2.6,2.23,10.746,10.746,0,0,0-1.756,3.093,10.092,10.092,0,0,0-.617,3.487,4.972,4.972,0,0,0,.653,2.746,2.257,2.257,0,0,0,1.788,1.055,4.513,4.513,0,0,0,2.568-.741,9.172,9.172,0,0,0,2.954-2.719,10.5,10.5,0,0,0,1.633-3.545l-2.235,1.29a5.232,5.232,0,0,1-2.357,2.971,2.139,2.139,0,0,1-1.963.3,1.843,1.843,0,0,1-.893-1.7l7.642-4.412a8.847,8.847,0,0,0,.073-1.211,4.7,4.7,0,0,0-.627-2.6,2.147,2.147,0,0,0-1.73-.993,4.574,4.574,0,0,0-2.53.749"/><path class="h" d="M399.639,214.294l-.014-4.74,2.293-1.323c1.557-.9,2.345-.561,2.349,1.031a3.918,3.918,0,0,1-.576,2.075,4.826,4.826,0,0,1-1.76,1.633l-2.292,1.324m2.273-8-4.361,2.518.041,14.5,2.069-1.194-.017-5.884,2.292-1.324a9.452,9.452,0,0,0,2.559-2.094,8.145,8.145,0,0,0,1.445-2.436,6.764,6.764,0,0,0,.447-2.345,3.22,3.22,0,0,0-.5-1.907,1.73,1.73,0,0,0-1.511-.685,5.289,5.289,0,0,0-2.46.847"/><path class="h" d="M411.121,208.708a6.049,6.049,0,0,1,.9-2.637,5.241,5.241,0,0,1,1.83-1.843,2.245,2.245,0,0,1,1.982-.35c.538.218.814.764.823,1.634l-5.536,3.2m2.821-6.538a9.53,9.53,0,0,0-2.609,2.234,10.65,10.65,0,0,0-1.75,3.09,10.016,10.016,0,0,0-.623,3.49,4.963,4.963,0,0,0,.654,2.746,2.272,2.272,0,0,0,1.787,1.055,4.541,4.541,0,0,0,2.575-.745,9.11,9.11,0,0,0,2.947-2.715,10.48,10.48,0,0,0,1.633-3.544l-2.234,1.29a5.237,5.237,0,0,1-2.352,2.967,2.143,2.143,0,0,1-1.969.306,1.841,1.841,0,0,1-.893-1.7l7.649-4.416a10.076,10.076,0,0,0,.066-1.207,4.636,4.636,0,0,0-.627-2.6,2.128,2.128,0,0,0-1.73-.993,4.546,4.546,0,0,0-2.524.744"/><path class="h" d="M427.178,194.529a6.383,6.383,0,0,0-1.787,1.523,7.608,7.608,0,0,0-1.2,2.062l0-1.673-2.075,1.2.032,11.5,2.075-1.2-.017-6.052a5.535,5.535,0,0,1,.619-2.826,4.936,4.936,0,0,1,1.843-1.777l.524-.3-.007-2.457"/><path class="h" d="M442.469,185.7a7.6,7.6,0,0,0-2.067,1.811,7.943,7.943,0,0,0-1.413,2.476,1.7,1.7,0,0,0-1.46-.847,3.962,3.962,0,0,0-2.141.648,7.17,7.17,0,0,0-1.671,1.362A8,8,0,0,0,432.43,193l0-1.321-2.068,1.194.032,11.5,2.069-1.194-.018-6.427a5.552,5.552,0,0,1,.676-2.764,4.865,4.865,0,0,1,1.837-1.891c.779-.45,1.392-.525,1.841-.232s.674.948.677,1.982l.018,6.427,2.05-1.183-.019-6.427a5.542,5.542,0,0,1,.677-2.764,4.876,4.876,0,0,1,1.843-1.9c.772-.446,1.386-.521,1.834-.228s.675.948.678,1.982l.018,6.427,2.056-1.187-.02-6.786a4.255,4.255,0,0,0-.544-2.361,1.748,1.748,0,0,0-1.479-.814,4.053,4.053,0,0,0-2.115.655"/><path class="h" d="M452.564,180.056,450.5,181.25l.033,11.5,2.068-1.195-.032-11.5m-1.028-3.977a2.623,2.623,0,0,0-.944.978,2.553,2.553,0,0,0-.374,1.3.8.8,0,0,0,1.326.763,2.864,2.864,0,0,0,1.305-2.281.8.8,0,0,0-1.313-.763"/><path class="h" d="M458.972,173.5l-2.088,1.206.008,2.854-1.181.682.006,1.944,1.181-.682.018,6.368c0,1.122.248,1.8.748,2.008a2.538,2.538,0,0,0,2.147-.483l1.634-.944,0-1.981-1.271.734q-.642.37-.9.234c-.179-.081-.263-.348-.264-.774l-.018-6.368,2.432-1.4,0-1.944-2.433,1.4-.008-2.854"/></g></g><g class="f"><g class="j"><path class="h" d="M101.144,128.884a4.027,4.027,0,0,0-1.651,1.6,2.06,2.06,0,0,0-.036,1.821,3.831,3.831,0,0,0,1.658,1.645,7.955,7.955,0,0,0,2.833.965,10.107,10.107,0,0,0,3.144-.014,8.121,8.121,0,0,0,2.767-.951,3.875,3.875,0,0,0,1.773-1.8,1.93,1.93,0,0,0-.345-1.99l-1.692.977a1.116,1.116,0,0,1,.083,1.12,2.444,2.444,0,0,1-1.037.981,5.331,5.331,0,0,1-1.906.652,6.443,6.443,0,0,1-2.144-.033,6.268,6.268,0,0,1-2.033-.745,3.251,3.251,0,0,1-1.279-1.179,1.32,1.32,0,0,1-.044-1.239,2.658,2.658,0,0,1,1.139-1.1,4.865,4.865,0,0,1,1.7-.6,5.36,5.36,0,0,1,1.934.051l1.692-.977a9.049,9.049,0,0,0-3.442-.21,8.379,8.379,0,0,0-3.111,1.018"/><path class="h" d="M118.122,127.811a3.777,3.777,0,0,1-2.007.468,4.558,4.558,0,0,1-2.249-.656,2.473,2.473,0,0,1-.975-.877.91.91,0,0,1-.027-.874,1.766,1.766,0,0,1,.742-.73,3.784,3.784,0,0,1,1.276-.435,4.577,4.577,0,0,1,3.045.572,2.267,2.267,0,0,1,.962.9.959.959,0,0,1,0,.892,1.878,1.878,0,0,1-.762.741m-5.7-3.388a3.288,3.288,0,0,0-1.337,1.272,1.556,1.556,0,0,0-.021,1.43,3.216,3.216,0,0,0,1.374,1.324,6.669,6.669,0,0,0,2.274.811,7.526,7.526,0,0,0,2.456.007,6.3,6.3,0,0,0,2.174-.748,3.317,3.317,0,0,0,1.35-1.287,1.608,1.608,0,0,0,.04-1.456,3.085,3.085,0,0,0-1.354-1.334,6.523,6.523,0,0,0-2.287-.8,7.6,7.6,0,0,0-2.469.007,6.6,6.6,0,0,0-2.2.77"/><path class="h" d="M126.39,116.358a2.522,2.522,0,0,0-1.049,1.025,1.122,1.122,0,0,0,.012,1.124,5.518,5.518,0,0,0-1.985-.007,5.422,5.422,0,0,0-1.8.641,2.622,2.622,0,0,0-.9.793,1.188,1.188,0,0,0-.228.881l-.774-.45-1.411.815,6.762,3.929,1.411-.815-3.78-2.2c-.6-.35-.913-.707-.924-1.076s.233-.7.763-1.006a3.286,3.286,0,0,1,1.734-.435,3.767,3.767,0,0,1,1.849.542l3.78,2.2,1.392-.8-3.78-2.2c-.6-.35-.906-.711-.924-1.076s.24-.7.763-1.007a3.259,3.259,0,0,1,1.734-.435,3.777,3.777,0,0,1,1.849.542l3.78,2.2,1.4-.807-3.989-2.319a5.658,5.658,0,0,0-1.931-.7,5.882,5.882,0,0,0-1.986.007,5.449,5.449,0,0,0-1.766.638"/><path class="h" d="M141.082,114.556a3.671,3.671,0,0,1-1.282.423,4.886,4.886,0,0,1-1.553-.014,4.463,4.463,0,0,1-1.511-.546,2.219,2.219,0,0,1-.924-.87,1.017,1.017,0,0,1-.021-.9,1.779,1.779,0,0,1,.736-.741,3.762,3.762,0,0,1,1.288-.435,4.735,4.735,0,0,1,1.534.011,4.233,4.233,0,0,1,1.5.531,2.253,2.253,0,0,1,.937.884,1.011,1.011,0,0,1,.039.9,1.683,1.683,0,0,1-.742.752m-5.46-3.528a2.769,2.769,0,0,0-1.075.988,1.427,1.427,0,0,0-.19,1.021l-1-.579-1.411.815,9.978,5.8,1.411-.815-4.2-2.44a7.482,7.482,0,0,0,1.77-.118,5.207,5.207,0,0,0,1.7-.612,2.626,2.626,0,0,0,1.178-1.2,1.571,1.571,0,0,0-.094-1.394,3.666,3.666,0,0,0-1.412-1.3,6.827,6.827,0,0,0-2.217-.807,7.455,7.455,0,0,0-2.373-.041,5.749,5.749,0,0,0-2.066.686"/><polyline class="h" points="140.285 105.779 138.874 106.593 147.951 111.868 149.362 111.054 140.285 105.779"/><path class="h" d="M149.088,106.59a1.213,1.213,0,0,1-.624-1.08,1.363,1.363,0,0,1,.788-.985,3.894,3.894,0,0,1,1.81-.508,3.269,3.269,0,0,1,1.793.4l-3.767,2.175m-.952-2.787a3.224,3.224,0,0,0-1.343,1.275,1.5,1.5,0,0,0,.017,1.4,3.54,3.54,0,0,0,1.412,1.309,6.755,6.755,0,0,0,2.267.814,7.455,7.455,0,0,0,2.444.015,6.312,6.312,0,0,0,2.187-.756,2.721,2.721,0,0,0,1.408-1.5,1.625,1.625,0,0,0-.411-1.533l-1.519.877c.315.546.1,1.04-.658,1.475a3.768,3.768,0,0,1-1.829.483,3.884,3.884,0,0,1-1.907-.406l5.2-3a5.092,5.092,0,0,0-.634-.428,6.347,6.347,0,0,0-2.159-.767,7.181,7.181,0,0,0-2.336,0,6.278,6.278,0,0,0-2.136.748"/><path class="h" d="M153.759,98.734l-1.418.819,1.681.977-.8.464,1.141.664.8-.465,3.742,2.175a3.542,3.542,0,0,0,1.938.542,4.054,4.054,0,0,0,1.9-.583l1.111-.641-1.167-.678-.862.5a1.628,1.628,0,0,1-.778.258,1.411,1.411,0,0,1-.724-.213l-3.743-2.175,1.654-.955-1.142-.663-1.654.954-1.68-.977"/><path class="h" d="M163.032,98.539a1.236,1.236,0,0,1-.63-1.076,1.375,1.375,0,0,1,.794-.988,3.868,3.868,0,0,1,1.8-.5,3.336,3.336,0,0,1,1.8.394l-3.767,2.175m-.958-2.783a3.194,3.194,0,0,0-1.337,1.272,1.476,1.476,0,0,0,.017,1.4,3.517,3.517,0,0,0,1.406,1.313,6.664,6.664,0,0,0,2.273.811,7.428,7.428,0,0,0,2.444.014,6.243,6.243,0,0,0,2.181-.752,2.746,2.746,0,0,0,1.415-1.507,1.647,1.647,0,0,0-.412-1.534l-1.519.878c.315.545.1,1.039-.664,1.478a3.82,3.82,0,0,1-1.829.483,3.934,3.934,0,0,1-1.9-.409l5.2-3a5.322,5.322,0,0,0-.634-.428,6.345,6.345,0,0,0-2.159-.766,7.135,7.135,0,0,0-2.342,0,6.22,6.22,0,0,0-2.136.748"/><path class="h" d="M173.852,86.905a3.983,3.983,0,0,0-1.644,1.6,2.086,2.086,0,0,0-.042,1.824,3.824,3.824,0,0,0,1.658,1.644,7.93,7.93,0,0,0,2.833.966,10.2,10.2,0,0,0,3.144-.015,8.134,8.134,0,0,0,2.767-.951,3.74,3.74,0,0,0,1.542-1.47,2.083,2.083,0,0,0,.168-1.633,3.047,3.047,0,0,0-1.124-1.475l-1.091-.634-4.725,2.728,1.116.649,3.225-1.862a1.749,1.749,0,0,1,.85,1.515c-.054.524-.464,1-1.23,1.445a5.437,5.437,0,0,1-1.894.66,6.392,6.392,0,0,1-2.131-.033,5.958,5.958,0,0,1-2-.727,3.009,3.009,0,0,1-1.241-1.157A1.312,1.312,0,0,1,174,88.749a2.665,2.665,0,0,1,1.139-1.1,5.053,5.053,0,0,1,1.7-.605,5.442,5.442,0,0,1,1.89.026l1.692-.977a8.992,8.992,0,0,0-3.448-.206,8.347,8.347,0,0,0-3.112,1.017"/><path class="h" d="M188.391,80.687l-1.411.814,3.768,2.19c.608.354.918.712.935,1.076s-.245.7-.775,1.007a3.266,3.266,0,0,1-1.727.438,3.783,3.783,0,0,1-1.856-.545l-3.768-2.19-1.391.8,3.977,2.311a5.734,5.734,0,0,0,3.916.693,5.406,5.406,0,0,0,1.773-.634,2.645,2.645,0,0,0,.9-.8,1.158,1.158,0,0,0,.208-.884l.8.464,1.412-.815-6.762-3.929"/><path class="h" d="M192.515,78.306l-1.411.814,6.762,3.93,1.411-.815-6.762-3.929m-3.379-1.158c-.255.148-.384.317-.385.516a.626.626,0,0,0,.379.524,1.808,1.808,0,0,0,.9.221,1.749,1.749,0,0,0,.892-.221.619.619,0,0,0,.378-.513.63.63,0,0,0-.379-.523,1.766,1.766,0,0,0-.9-.221,1.734,1.734,0,0,0-.886.217"/><path class="h" d="M203.926,78.272a3.553,3.553,0,0,1-1.288.421,5.121,5.121,0,0,1-1.565-.022,4.539,4.539,0,0,1-1.518-.55,2.175,2.175,0,0,1-.918-.866.989.989,0,0,1-.014-.888,1.764,1.764,0,0,1,.748-.741,3.746,3.746,0,0,1,1.288-.428,4.971,4.971,0,0,1,1.547.019,4.394,4.394,0,0,1,1.5.538,2.287,2.287,0,0,1,.937.877,1,1,0,0,1,.026.9,1.7,1.7,0,0,1-.742.744m-4.494-6.642-1.417.818,3.26,1.9a6.534,6.534,0,0,0-1.8.151,5.6,5.6,0,0,0-1.6.593,2.708,2.708,0,0,0-1.2,1.2,1.53,1.53,0,0,0,.056,1.378,3.424,3.424,0,0,0,1.38,1.29,6.926,6.926,0,0,0,2.248.819,7.708,7.708,0,0,0,2.412.055,5.711,5.711,0,0,0,2.078-.678,2.691,2.691,0,0,0,1.075-1,1.3,1.3,0,0,0,.152-1.021l1.015.59,1.417-.818-9.077-5.275"/><path class="h" d="M213.164,72.939a3.56,3.56,0,0,1-1.287.42,4.883,4.883,0,0,1-1.566-.022,4.547,4.547,0,0,1-1.518-.55,2.181,2.181,0,0,1-.918-.866.974.974,0,0,1-.014-.888,1.767,1.767,0,0,1,.749-.741,3.7,3.7,0,0,1,1.282-.424,4.844,4.844,0,0,1,1.546.018,4.307,4.307,0,0,1,1.505.535,2.2,2.2,0,0,1,.931.881.971.971,0,0,1,.026.9,1.688,1.688,0,0,1-.736.741M207.1,69.761a2.681,2.681,0,0,0-1.184,1.191,1.53,1.53,0,0,0,.056,1.378,3.415,3.415,0,0,0,1.374,1.294,6.95,6.95,0,0,0,2.255.815A7.761,7.761,0,0,0,212,74.5a5.584,5.584,0,0,0,2.053-.664,2.743,2.743,0,0,0,1.087-1,1.411,1.411,0,0,0,.184-1.025l1,.582,1.418-.818-6.762-3.93-1.417.819.983.571a7.046,7.046,0,0,0-1.738.1,5.255,5.255,0,0,0-1.716.63"/><path class="h" d="M217.027,64.029a2.667,2.667,0,0,0-.909.8,1.181,1.181,0,0,0-.234.885l-.774-.45-1.4.811L220.468,70l1.4-.811-3.78-2.2c-.6-.351-.913-.708-.923-1.077s.233-.7.763-1.006a3.269,3.269,0,0,1,1.733-.435,3.777,3.777,0,0,1,1.849.542l3.78,2.2,1.392-.8-3.99-2.318a5.6,5.6,0,0,0-1.924-.7,5.684,5.684,0,0,0-1.973,0,5.445,5.445,0,0,0-1.772.641"/><path class="h" d="M225.339,59.23a3.051,3.051,0,0,0-1.3,1.249,1.484,1.484,0,0,0,.043,1.386,3.446,3.446,0,0,0,1.405,1.312A6.71,6.71,0,0,0,227.75,64a7.338,7.338,0,0,0,2.405.037,6.142,6.142,0,0,0,2.168-.745,2.685,2.685,0,0,0,1.415-1.522,1.658,1.658,0,0,0-.525-1.593l-1.514.874c.443.568.262,1.084-.556,1.555a3.514,3.514,0,0,1-1.994.439,4.919,4.919,0,0,1-2.217-.7c-.73-.424-1.122-.851-1.189-1.282s.2-.815.776-1.147a3.241,3.241,0,0,1,1.307-.431,3.932,3.932,0,0,1,1.381.114l1.513-.873a6.464,6.464,0,0,0-2.754-.336,6.375,6.375,0,0,0-2.627.841"/><path class="h" d="M234.629,57.2a1.218,1.218,0,0,1-.624-1.08,1.364,1.364,0,0,1,.789-.984,3.892,3.892,0,0,1,1.81-.509,3.272,3.272,0,0,1,1.792.4L234.629,57.2m-.951-2.787a3.223,3.223,0,0,0-1.344,1.276,1.473,1.473,0,0,0,.024,1.4,3.449,3.449,0,0,0,1.406,1.312,6.727,6.727,0,0,0,2.267.815,7.455,7.455,0,0,0,2.444.015,6.326,6.326,0,0,0,2.187-.756,2.715,2.715,0,0,0,1.408-1.5,1.624,1.624,0,0,0-.411-1.533l-1.52.877c.315.545.1,1.039-.657,1.474a3.768,3.768,0,0,1-1.829.483,3.881,3.881,0,0,1-1.907-.405l5.2-3a5.208,5.208,0,0,0-.634-.427,6.352,6.352,0,0,0-2.16-.767,7.135,7.135,0,0,0-2.342,0,6.209,6.209,0,0,0-2.129.744"/><path class="h" d="M145.656,119.278q-1.331.768-1.421,1.437c-.059.446.294.9,1.075,1.349l.475.277-.8.461,1.142.663.8-.461,5.62,3.266,1.424-.822-5.62-3.266,1.258-.726-1.142-.663-1.258.726-.476-.277c-.393-.228-.583-.435-.575-.63s.238-.409.665-.656l-1.167-.678"/><path class="h" d="M153.914,117.523a2.215,2.215,0,0,0-.928.866,1.093,1.093,0,0,0-.018.944l-.983-.571-1.405.811,6.762,3.929,1.405-.811-3.559-2.068c-.685-.4-1.027-.759-1.018-1.087s.283-.649.832-.966l.358-.207-1.446-.84"/><path class="h" d="M164.794,117.921a3.76,3.76,0,0,1-2.008.468,4.564,4.564,0,0,1-2.249-.656,2.48,2.48,0,0,1-.975-.877.9.9,0,0,1-.033-.87,1.813,1.813,0,0,1,.749-.734,3.743,3.743,0,0,1,1.268-.431,4.5,4.5,0,0,1,1.521.011,4.445,4.445,0,0,1,1.531.557,2.246,2.246,0,0,1,.956.9.952.952,0,0,1,0,.888,1.875,1.875,0,0,1-.761.741m-5.7-3.387a3.277,3.277,0,0,0-1.338,1.271,1.537,1.537,0,0,0-.02,1.431,3.2,3.2,0,0,0,1.367,1.327,6.567,6.567,0,0,0,2.28.807,7.491,7.491,0,0,0,2.45.011,6.354,6.354,0,0,0,2.181-.752,3.323,3.323,0,0,0,1.35-1.287,1.611,1.611,0,0,0,.04-1.456,3.1,3.1,0,0,0-1.361-1.33,6.624,6.624,0,0,0-2.28-.8,7.534,7.534,0,0,0-2.476.011,6.5,6.5,0,0,0-2.193.767"/><path class="h" d="M173.055,106.472a2.509,2.509,0,0,0-1.043,1.021,1.107,1.107,0,0,0,.013,1.124,5.64,5.64,0,0,0-1.986-.007,5.43,5.43,0,0,0-1.8.641,2.616,2.616,0,0,0-.9.793,1.188,1.188,0,0,0-.228.881l-.773-.45-1.412.815,6.762,3.929,1.411-.814-3.78-2.2q-.9-.526-.93-1.073c-.01-.369.24-.7.77-1.01a3.29,3.29,0,0,1,1.733-.435,3.76,3.76,0,0,1,1.843.545l3.78,2.2,1.4-.807-3.78-2.2c-.6-.35-.913-.708-.923-1.076s.233-.7.763-1.007a3.29,3.29,0,0,1,1.733-.435,3.788,3.788,0,0,1,1.849.542l3.781,2.2,1.391-.8-3.989-2.319a5.637,5.637,0,0,0-1.931-.7,5.842,5.842,0,0,0-1.979,0,5.443,5.443,0,0,0-1.773.642"/><path class="h" d="M188.556,102.144,186,99.029l5.363,1.5-2.8,1.618m-3.436-4.571-1.628.94,5.46,6.739,1.469-.848-1.125-1.371,3.594-2.076,2.364.656,1.481-.855L185.12,97.573"/><path class="h" d="M196.2,91.285l-1.417.818,1.681.977-.805.464,1.142.664.8-.465,3.743,2.175a3.542,3.542,0,0,0,1.938.542,4.059,4.059,0,0,0,1.906-.586l1.111-.641-1.167-.679-.868.5a1.646,1.646,0,0,1-.778.258,1.428,1.428,0,0,1-.725-.214l-3.742-2.175,1.66-.958-1.142-.664-1.66.959-1.681-.977"/><path class="h" d="M210.31,91.642a3.777,3.777,0,0,1-2.007.468,4.558,4.558,0,0,1-2.249-.656,2.47,2.47,0,0,1-.976-.877.91.91,0,0,1-.026-.874,1.765,1.765,0,0,1,.742-.729,3.764,3.764,0,0,1,1.275-.435,4.581,4.581,0,0,1,3.045.571,2.255,2.255,0,0,1,.962.9.959.959,0,0,1,0,.892,1.869,1.869,0,0,1-.761.741m-5.7-3.387a3.286,3.286,0,0,0-1.337,1.271,1.558,1.558,0,0,0-.021,1.431,3.211,3.211,0,0,0,1.373,1.323,6.635,6.635,0,0,0,2.274.811,7.532,7.532,0,0,0,2.457.007,6.3,6.3,0,0,0,2.174-.748,3.322,3.322,0,0,0,1.35-1.286,1.611,1.611,0,0,0,.04-1.456,3.087,3.087,0,0,0-1.354-1.335,6.558,6.558,0,0,0-2.287-.8,7.6,7.6,0,0,0-2.469.007,6.581,6.581,0,0,0-2.2.771"/><polyline class="h" points="218.103 78.545 212.446 81.811 213.658 82.515 217.635 80.219 219.88 86.132 220.971 86.766 226.628 83.5 225.417 82.796 221.426 85.099 219.194 79.179 218.103 78.545"/></g></g><g class="f"><g class="k"><polyline class="h" points="181.036 159.116 176.293 161.855 184.831 166.817 189.574 164.078 188.433 163.414 185.093 165.342 182.48 163.823 185.449 162.109 184.307 161.446 181.338 163.16 178.839 161.707 182.178 159.78 181.036 159.116"/><polyline class="h" points="190.519 155.699 189.044 156.55 189.961 158.681 186.196 158.194 184.6 159.116 190.235 159.846 191.362 163.046 192.831 162.198 191.92 160.063 195.684 160.55 197.281 159.628 191.653 158.91 190.519 155.699"/><path class="h" d="M201.559,155.88a3.646,3.646,0,0,1-1.281.424,5.005,5.005,0,0,1-1.553-.015,4.469,4.469,0,0,1-1.512-.546,2.219,2.219,0,0,1-.924-.87,1,1,0,0,1-.02-.9,1.7,1.7,0,0,1,.736-.741,3.687,3.687,0,0,1,1.281-.431,4.713,4.713,0,0,1,1.54.007,4.233,4.233,0,0,1,1.5.531,2.236,2.236,0,0,1,.937.885,1,1,0,0,1,.033.906,1.686,1.686,0,0,1-.736.749m-5.459-3.528a2.762,2.762,0,0,0-1.075.988,1.422,1.422,0,0,0-.19,1.021l-1-.579-1.411.815,9.978,5.8,1.411-.814-4.2-2.441a7.292,7.292,0,0,0,1.77-.118,5.193,5.193,0,0,0,1.69-.615,2.637,2.637,0,0,0,1.184-1.2,1.536,1.536,0,0,0-.106-1.394,3.545,3.545,0,0,0-1.4-1.3,6.681,6.681,0,0,0-2.222-.8,7.319,7.319,0,0,0-2.374-.048,5.826,5.826,0,0,0-2.059.689"/><path class="h" d="M205.441,150.295a1.228,1.228,0,0,1-.631-1.076,1.383,1.383,0,0,1,.789-.992,3.916,3.916,0,0,1,1.816-.5,3.366,3.366,0,0,1,1.793.4l-3.767,2.175m-.958-2.783a3.217,3.217,0,0,0-1.344,1.268,1.5,1.5,0,0,0,.024,1.4,3.513,3.513,0,0,0,1.412,1.309,6.626,6.626,0,0,0,2.267.815,7.565,7.565,0,0,0,2.444.014,6.375,6.375,0,0,0,2.174-.755,2.742,2.742,0,0,0,1.421-1.5,1.627,1.627,0,0,0-.411-1.534l-1.519.878c.315.545.1,1.039-.664,1.478a3.768,3.768,0,0,1-1.823.479,3.914,3.914,0,0,1-1.907-.405l5.2-3a5.322,5.322,0,0,0-.634-.428,6.345,6.345,0,0,0-2.159-.766,7.027,7.027,0,0,0-2.342,0,6.22,6.22,0,0,0-2.136.748"/><path class="h" d="M213.485,142.314a2.213,2.213,0,0,0-.927.867,1.111,1.111,0,0,0-.019.943l-.983-.571-1.4.811,6.761,3.929,1.405-.811-3.558-2.067c-.686-.4-1.021-.764-1.019-1.088s.284-.649.833-.966l.357-.206-1.446-.841"/><path class="h" d="M217.162,140.317l-1.405.81,6.762,3.93,1.405-.811-6.762-3.929m-3.373-1.162c-.255.148-.383.317-.384.516a.624.624,0,0,0,.378.524,1.965,1.965,0,0,0,1.8,0,.542.542,0,0,0-.007-1.032,1.907,1.907,0,0,0-1.782-.008"/><path class="h" d="M223.656,139.778a1.226,1.226,0,0,1-.63-1.076,1.372,1.372,0,0,1,.788-.992,3.932,3.932,0,0,1,1.817-.5,3.372,3.372,0,0,1,1.792.4l-3.767,2.175M222.7,137a3.219,3.219,0,0,0-1.343,1.268,1.5,1.5,0,0,0,.024,1.405,3.492,3.492,0,0,0,1.405,1.312,6.627,6.627,0,0,0,2.274.811,7.559,7.559,0,0,0,2.443.015,6.342,6.342,0,0,0,2.175-.756,2.759,2.759,0,0,0,1.421-1.5,1.644,1.644,0,0,0-.411-1.533l-1.52.877c.315.546.1,1.039-.664,1.478a3.8,3.8,0,0,1-1.829.483,3.953,3.953,0,0,1-1.9-.409l5.2-3a5.288,5.288,0,0,0-.634-.427,6.352,6.352,0,0,0-2.16-.767,7.027,7.027,0,0,0-2.342,0A6.22,6.22,0,0,0,222.7,137"/><path class="h" d="M231.688,131.805a2.631,2.631,0,0,0-.9.793,1.162,1.162,0,0,0-.24.888l-.774-.45-1.405.811,6.762,3.93,1.405-.811-3.781-2.2c-.6-.35-.912-.708-.923-1.077s.239-.7.763-1.006a3.249,3.249,0,0,1,1.733-.435,3.774,3.774,0,0,1,1.849.542l3.781,2.2,1.4-.807-3.99-2.319a5.818,5.818,0,0,0-3.9-.7,5.442,5.442,0,0,0-1.773.641"/><path class="h" d="M240,127.006a3.072,3.072,0,0,0-1.306,1.246,1.511,1.511,0,0,0,.05,1.389,3.435,3.435,0,0,0,1.405,1.313,6.73,6.73,0,0,0,2.261.818,7.424,7.424,0,0,0,2.406.037,6.246,6.246,0,0,0,2.161-.748,2.731,2.731,0,0,0,1.421-1.519,1.656,1.656,0,0,0-.532-1.6l-1.513.873c.449.572.268,1.088-.549,1.56a3.572,3.572,0,0,1-2,.438,4.961,4.961,0,0,1-2.217-.7c-.729-.424-1.122-.852-1.189-1.283s.195-.819.77-1.15a3.252,3.252,0,0,1,1.313-.428,3.932,3.932,0,0,1,1.381.114l1.513-.873a6.462,6.462,0,0,0-2.754-.336,6.28,6.28,0,0,0-2.626.841"/><path class="h" d="M249.291,124.978a1.2,1.2,0,0,1-.624-1.08,1.353,1.353,0,0,1,.782-.988,3.925,3.925,0,0,1,1.816-.5,3.287,3.287,0,0,1,1.793.4l-3.767,2.175m-.952-2.786a3.247,3.247,0,0,0-1.35,1.271,1.5,1.5,0,0,0,.03,1.4,3.43,3.43,0,0,0,1.406,1.312,6.727,6.727,0,0,0,2.267.815,7.565,7.565,0,0,0,2.444.015,6.414,6.414,0,0,0,2.18-.76,2.72,2.72,0,0,0,1.415-1.5,1.624,1.624,0,0,0-.411-1.533l-1.52.877c.315.545.1,1.039-.657,1.474a3.757,3.757,0,0,1-1.829.483,3.909,3.909,0,0,1-1.907-.405l5.2-3a5.208,5.208,0,0,0-.634-.427,6.347,6.347,0,0,0-2.159-.767,7.027,7.027,0,0,0-2.342,0,6.2,6.2,0,0,0-2.13.745"/><path class="h" d="M262.7,120.581a3.671,3.671,0,0,1-1.288.42,5.1,5.1,0,0,1-1.566-.022,4.561,4.561,0,0,1-1.517-.549,2.176,2.176,0,0,1-.918-.867.989.989,0,0,1-.014-.888,1.759,1.759,0,0,1,.748-.741,3.581,3.581,0,0,1,1.282-.424,4.733,4.733,0,0,1,1.546.019,4.279,4.279,0,0,1,1.5.534,2.2,2.2,0,0,1,.931.881.992.992,0,0,1,.027.9,1.677,1.677,0,0,1-.736.741m-4.494-6.643-1.417.818,3.26,1.895a6.531,6.531,0,0,0-1.8.151,5.638,5.638,0,0,0-1.6.594,2.77,2.77,0,0,0-1.2,1.194,1.539,1.539,0,0,0,.062,1.382,3.422,3.422,0,0,0,1.381,1.291,6.861,6.861,0,0,0,2.241.814,7.605,7.605,0,0,0,2.418.059,5.654,5.654,0,0,0,2.066-.678,2.724,2.724,0,0,0,1.088-1,1.278,1.278,0,0,0,.145-1.025l1.022.593,1.417-.818-9.077-5.275"/><path class="h" d="M276.011,112.9a3.671,3.671,0,0,1-1.288.42,5.066,5.066,0,0,1-1.566-.022,4.54,4.54,0,0,1-1.517-.549,2.169,2.169,0,0,1-.918-.866.991.991,0,0,1-.014-.889,1.759,1.759,0,0,1,.748-.741,3.6,3.6,0,0,1,1.288-.427,4.814,4.814,0,0,1,1.54.022,4.3,4.3,0,0,1,1.5.534,2.2,2.2,0,0,1,.931.881,1,1,0,0,1,.033.892,1.7,1.7,0,0,1-.742.745m-6.066-3.178a2.763,2.763,0,0,0-1.191,1.187,1.538,1.538,0,0,0,.063,1.383,3.411,3.411,0,0,0,1.38,1.29,6.885,6.885,0,0,0,2.241.815,7.722,7.722,0,0,0,2.412.062,5.552,5.552,0,0,0,2.053-.671,2.733,2.733,0,0,0,1.087-1,1.333,1.333,0,0,0,.178-1.028l1.009.586,1.417-.819-6.762-3.929-1.417.818.983.572a6.709,6.709,0,0,0-1.738.1,5.3,5.3,0,0,0-1.715.63"/><path class="h" d="M279.873,103.985a2.641,2.641,0,0,0-.9.793,1.189,1.189,0,0,0-.24.888l-.774-.449-1.4.811,6.762,3.929,1.4-.811-3.781-2.2c-.6-.35-.906-.711-.923-1.076s.239-.7.763-1.007a3.305,3.305,0,0,1,1.74-.438,3.817,3.817,0,0,1,1.842.545l3.781,2.2,1.4-.807-3.99-2.319a5.738,5.738,0,0,0-3.9-.7,5.465,5.465,0,0,0-1.773.641"/><path class="h" d="M294.124,102.437a3.63,3.63,0,0,1-1.282.417,4.877,4.877,0,0,1-1.565-.022,4.564,4.564,0,0,1-1.524-.546,2.166,2.166,0,0,1-.912-.87.974.974,0,0,1-.014-.888,1.749,1.749,0,0,1,.743-.737,3.591,3.591,0,0,1,1.287-.428,4.766,4.766,0,0,1,1.547.018,4.41,4.41,0,0,1,1.5.539,2.281,2.281,0,0,1,.937.877.989.989,0,0,1,.026.9,1.7,1.7,0,0,1-.742.744m-4.487-6.646-1.424.822,3.26,1.895a6.476,6.476,0,0,0-1.8.147,5.649,5.649,0,0,0-1.6.594,2.758,2.758,0,0,0-1.2,1.194,1.52,1.52,0,0,0,.062,1.382,3.325,3.325,0,0,0,1.374,1.294,6.756,6.756,0,0,0,2.248.811,7.514,7.514,0,0,0,2.418.059,5.611,5.611,0,0,0,2.066-.678,2.674,2.674,0,0,0,1.081-.992,1.275,1.275,0,0,0,.146-1.024l1.021.593,1.424-.822-9.077-5.275"/><path class="h" d="M191.214,170.178a3.647,3.647,0,0,0-1.241,1.062,1.2,1.2,0,0,0-.2,1.091,1.888,1.888,0,0,0,.917.962,3.775,3.775,0,0,0,1.646.527,5.307,5.307,0,0,0,1.6-.1c.5-.118,1.1-.291,1.81-.531.561-.191,1.014-.328,1.358-.416a3.992,3.992,0,0,1,1.051-.122,1.932,1.932,0,0,1,.959.262c.368.214.526.468.493.759s-.3.579-.788.859a3,3,0,0,1-1.447.424,2.862,2.862,0,0,1-1.348-.273l-1.506.87a4.131,4.131,0,0,0,1.683.52,5.961,5.961,0,0,0,1.935-.133,6.552,6.552,0,0,0,1.863-.722,3.146,3.146,0,0,0,1.234-1.124,1.237,1.237,0,0,0,.1-1.128,1.942,1.942,0,0,0-.873-.915,3.818,3.818,0,0,0-1.671-.534,5.392,5.392,0,0,0-1.63.11c-.516.115-1.134.3-1.861.531-.542.181-.982.31-1.326.4a4.084,4.084,0,0,1-1.013.122,1.783,1.783,0,0,1-.883-.232c-.387-.225-.557-.472-.5-.737a1.25,1.25,0,0,1,.685-.749,3.089,3.089,0,0,1,1.4-.427,2.45,2.45,0,0,1,1.246.206l1.558-.9a4.9,4.9,0,0,0-2.588-.476,6.117,6.117,0,0,0-2.664.818"/><polyline class="h" points="197.742 165.902 196.337 166.713 205.414 171.988 206.819 171.177 203.914 169.489 209.341 169.721 211.243 168.623 204.728 168.475 204.481 164.693 202.528 165.821 203.013 168.966 197.742 165.902"/><path class="h" d="M207.763,162.8l-1.4.811,6.761,3.929,1.405-.811-6.762-3.929m-3.373-1.162c-.255.148-.39.321-.391.52a.629.629,0,0,0,.386.52,1.73,1.73,0,0,0,.889.221,1.793,1.793,0,0,0,.905-.221.545.545,0,0,0-.007-1.032,1.766,1.766,0,0,0-.9-.221,1.735,1.735,0,0,0-.88.213"/><polyline class="h" points="209.572 159.072 208.168 159.883 217.245 165.158 218.65 164.347 209.572 159.072"/><polyline class="h" points="213.697 156.691 212.292 157.502 221.369 162.777 222.774 161.966 213.697 156.691"/><path class="h" d="M222.5,157.5a1.242,1.242,0,0,1-.624-1.08,1.356,1.356,0,0,1,.782-.988,3.905,3.905,0,0,1,1.817-.5,3.266,3.266,0,0,1,1.792.4L222.5,157.5m-.952-2.787a3.255,3.255,0,0,0-1.35,1.272,1.493,1.493,0,0,0,.031,1.4,3.435,3.435,0,0,0,1.4,1.313,6.677,6.677,0,0,0,2.274.811,7.638,7.638,0,0,0,2.437.018,6.411,6.411,0,0,0,2.181-.759,2.725,2.725,0,0,0,1.415-1.5,1.606,1.606,0,0,0-.412-1.533l-1.519.877c.315.546.1,1.036-.658,1.475a3.814,3.814,0,0,1-1.829.483,3.963,3.963,0,0,1-1.907-.406l5.2-3a5.355,5.355,0,0,0-.641-.424,6.43,6.43,0,0,0-2.153-.77,7.027,7.027,0,0,0-2.342,0,6.259,6.259,0,0,0-2.136.748"/><path class="h" d="M235.908,153.1a3.631,3.631,0,0,1-1.281.417,4.856,4.856,0,0,1-1.566-.023,4.431,4.431,0,0,1-1.524-.545,2.108,2.108,0,0,1-.912-.87.974.974,0,0,1-.014-.888,1.745,1.745,0,0,1,.743-.738,3.6,3.6,0,0,1,1.288-.427,4.847,4.847,0,0,1,1.546.018,4.408,4.408,0,0,1,1.5.538,2.282,2.282,0,0,1,.937.878,1.009,1.009,0,0,1,.026.9,1.69,1.69,0,0,1-.742.745m-4.487-6.646L230,147.28l3.26,1.9a6.571,6.571,0,0,0-1.8.147,5.7,5.7,0,0,0-1.6.593,2.8,2.8,0,0,0-1.209,1.2,1.534,1.534,0,0,0,.068,1.379,3.332,3.332,0,0,0,1.374,1.294,6.778,6.778,0,0,0,2.248.811,7.6,7.6,0,0,0,2.412.063,5.676,5.676,0,0,0,2.072-.682,2.721,2.721,0,0,0,1.081-.992,1.277,1.277,0,0,0,.146-1.025l1.021.594,1.424-.822-9.077-5.275"/><path class="h" d="M242.565,140.53a3.994,3.994,0,0,0-1.65,1.6,2.034,2.034,0,0,0-.036,1.821,3.8,3.8,0,0,0,1.658,1.644,8,8,0,0,0,2.833.966,10.153,10.153,0,0,0,3.137-.011,8.183,8.183,0,0,0,2.774-.955,3.869,3.869,0,0,0,1.773-1.795,1.941,1.941,0,0,0-.345-1.99l-1.692.976a1.12,1.12,0,0,1,.083,1.121,2.462,2.462,0,0,1-1.037.981,5.338,5.338,0,0,1-1.906.652,6.449,6.449,0,0,1-2.145-.033,6.262,6.262,0,0,1-2.032-.745,3.251,3.251,0,0,1-1.279-1.179,1.32,1.32,0,0,1-.044-1.239,2.658,2.658,0,0,1,1.139-1.1,4.913,4.913,0,0,1,1.7-.6,5.389,5.389,0,0,1,1.935.052l1.692-.977a9.049,9.049,0,0,0-3.442-.21,8.27,8.27,0,0,0-3.112,1.017"/><path class="h" d="M259.544,139.458a3.763,3.763,0,0,1-2.007.468,4.558,4.558,0,0,1-2.249-.656,2.46,2.46,0,0,1-.975-.878.918.918,0,0,1-.034-.869,1.807,1.807,0,0,1,.749-.734,3.785,3.785,0,0,1,1.275-.435,4.581,4.581,0,0,1,3.045.571,2.237,2.237,0,0,1,.956.9.971.971,0,0,1,0,.9,1.878,1.878,0,0,1-.762.741m-5.7-3.388a3.3,3.3,0,0,0-1.344,1.268,1.585,1.585,0,0,0-.014,1.434,3.193,3.193,0,0,0,1.367,1.327,6.66,6.66,0,0,0,2.28.807,7.573,7.573,0,0,0,2.45.012,6.5,6.5,0,0,0,2.175-.756,3.4,3.4,0,0,0,1.356-1.283,1.608,1.608,0,0,0,.04-1.456,3.114,3.114,0,0,0-1.361-1.331,6.644,6.644,0,0,0-2.28-.8,7.682,7.682,0,0,0-2.482.008,6.475,6.475,0,0,0-2.187.77"/><path class="h" d="M265.844,129.265l-1.411.815,3.768,2.19c.6.35.919.711.93,1.08s-.24.7-.77,1a3.291,3.291,0,0,1-1.727.439,3.8,3.8,0,0,1-1.855-.545l-3.768-2.19-1.392.8,3.978,2.312a5.615,5.615,0,0,0,1.93.7,5.741,5.741,0,0,0,1.979,0,5.442,5.442,0,0,0,1.773-.641,2.672,2.672,0,0,0,.908-.8,1.162,1.162,0,0,0,.209-.885l.8.465,1.411-.815-6.762-3.93"/><path class="h" d="M271.885,125.653a2.648,2.648,0,0,0-.908.8,1.223,1.223,0,0,0-.241.889l-.773-.45-1.405.811,6.762,3.929,1.4-.811-3.78-2.2c-.6-.35-.906-.711-.923-1.076s.239-.7.763-1.006a3.3,3.3,0,0,1,1.74-.439,3.811,3.811,0,0,1,1.842.546l3.781,2.2,1.4-.808-3.99-2.318a5.748,5.748,0,0,0-3.9-.7,5.388,5.388,0,0,0-1.766.638"/><path class="h" d="M279.687,121.148a3.443,3.443,0,0,0-1.125.944,1.115,1.115,0,0,0-.209.944,1.337,1.337,0,0,0,.664.755,3.034,3.034,0,0,0,1.423.421,5.06,5.06,0,0,0,1.433-.137c.452-.107,1-.269,1.65-.483a13.707,13.707,0,0,1,1.562-.431,1.314,1.314,0,0,1,.929.118.435.435,0,0,1,.258.527,1.41,1.41,0,0,1-.692.664,2.809,2.809,0,0,1-1.236.376,2.147,2.147,0,0,1-1.132-.177l-1.456.84a3.743,3.743,0,0,0,1.506.417,6.1,6.1,0,0,0,3.511-.785,3.35,3.35,0,0,0,1.125-.944,1.089,1.089,0,0,0,.2-.936,1.4,1.4,0,0,0-.709-.789,3.08,3.08,0,0,0-1.4-.395,5.224,5.224,0,0,0-1.413.126c-.453.107-.988.261-1.619.472-.479.151-.848.261-1.1.328a3.314,3.314,0,0,1-.771.114,1.25,1.25,0,0,1-.655-.151c-.228-.133-.31-.3-.251-.494s.269-.4.64-.612a2.684,2.684,0,0,1,1.179-.365,2.1,2.1,0,0,1,1.087.21l1.411-.815a4.4,4.4,0,0,0-2.346-.482,5.4,5.4,0,0,0-2.454.74"/><path class="h" d="M288.671,119.3a1.226,1.226,0,0,1-.631-1.076,1.372,1.372,0,0,1,.789-.992,3.886,3.886,0,0,1,1.81-.5,3.336,3.336,0,0,1,1.8.394l-3.767,2.175m-.958-2.783a3.211,3.211,0,0,0-1.344,1.268,1.5,1.5,0,0,0,.024,1.4A3.507,3.507,0,0,0,287.8,120.5a6.677,6.677,0,0,0,2.274.811,7.565,7.565,0,0,0,2.444.014,6.336,6.336,0,0,0,2.174-.755,2.756,2.756,0,0,0,1.421-1.5,1.644,1.644,0,0,0-.411-1.534l-1.52.878q.474.817-.663,1.478a3.821,3.821,0,0,1-1.83.483,3.946,3.946,0,0,1-1.9-.409l5.2-3a5.322,5.322,0,0,0-.634-.428,6.345,6.345,0,0,0-2.159-.766,7.027,7.027,0,0,0-2.342,0,6.245,6.245,0,0,0-2.136.748"/><polyline class="h" points="292.471 111.21 291.066 112.021 300.143 117.296 301.548 116.485 292.471 111.21"/><path class="h" d="M306.114,112.571a3.813,3.813,0,0,1-2.014.472,4.623,4.623,0,0,1-2.249-.657,2.447,2.447,0,0,1-.969-.881.906.906,0,0,1-.033-.87,1.793,1.793,0,0,1,.749-.733,3.754,3.754,0,0,1,1.269-.431,4.638,4.638,0,0,1,3.051.567,2.227,2.227,0,0,1,.95.9.951.951,0,0,1,0,.9,1.837,1.837,0,0,1-.755.737m-5.7-3.388a3.3,3.3,0,0,0-1.344,1.268,1.544,1.544,0,0,0-.014,1.434,3.193,3.193,0,0,0,1.367,1.327,6.527,6.527,0,0,0,2.28.807,7.573,7.573,0,0,0,2.45.012,6.409,6.409,0,0,0,2.174-.756,3.355,3.355,0,0,0,1.35-1.279,1.6,1.6,0,0,0,.047-1.46,3.114,3.114,0,0,0-1.361-1.331,6.644,6.644,0,0,0-2.28-.8,7.682,7.682,0,0,0-2.482.008,6.516,6.516,0,0,0-2.187.77"/><path class="h" d="M309.586,103.886a2.248,2.248,0,0,0-.934.87,1.108,1.108,0,0,0-.011.94l-.983-.571-1.411.814,6.761,3.93,1.411-.815-3.558-2.068q-1.028-.6-1.025-1.084c.008-.328.284-.648.839-.969l.358-.206-1.447-.841"/></g></g><g class="f"><g class="l"><polyline class="h" points="250.804 197.654 249.297 198.524 252.982 204.142 243.282 201.997 241.763 202.874 250.294 207.832 251.706 207.017 245.863 203.622 254.336 205.499 255.306 204.938 252.082 200.032 257.924 203.427 259.335 202.612 250.804 197.654"/><path class="h" d="M256.7,196.3l-1.411.814,6.762,3.93,1.411-.815L256.7,196.3m-3.379-1.165a.631.631,0,0,0-.385.523.612.612,0,0,0,.373.52,1.957,1.957,0,0,0,1.807,0,.612.612,0,0,0,.366-.512.628.628,0,0,0-.379-.524,1.966,1.966,0,0,0-1.782-.007"/><path class="h" d="M262.732,192.685a2.777,2.777,0,0,0-.908.8,1.212,1.212,0,0,0-.228.888l-.774-.45-1.411.815,6.762,3.93,1.411-.815-3.78-2.2c-.609-.354-.919-.712-.936-1.076s.246-.7.776-1.007a3.262,3.262,0,0,1,1.727-.438,3.779,3.779,0,0,1,1.855.545l3.78,2.2,1.392-.8-3.99-2.318a5.649,5.649,0,0,0-1.93-.708,5.563,5.563,0,0,0-1.973.007,5.436,5.436,0,0,0-1.773.634"/><path class="h" d="M269.7,188.793l-1.411.815,6.762,3.929,1.411-.815-6.762-3.929m-3.385-1.161a.619.619,0,0,0-.378.519.608.608,0,0,0,.372.52,1.961,1.961,0,0,0,1.8,0,.615.615,0,0,0,.372-.516.629.629,0,0,0-.385-.52,1.733,1.733,0,0,0-.89-.221,1.756,1.756,0,0,0-.892.214"/><path class="h" d="M280.539,182.405a2.509,2.509,0,0,0-1.043,1.021,1.122,1.122,0,0,0,.013,1.124,5.677,5.677,0,0,0-1.98,0,5.345,5.345,0,0,0-1.8.638,2.705,2.705,0,0,0-.9.793,1.22,1.22,0,0,0-.221.884l-.774-.449-1.411.814,6.762,3.93,1.411-.815-3.781-2.2c-.609-.354-.919-.711-.936-1.076s.246-.7.77-1a3.275,3.275,0,0,1,1.733-.442,3.764,3.764,0,0,1,1.849.549l3.78,2.2,1.4-.807-3.781-2.2c-.609-.354-.919-.712-.936-1.077s.246-.7.776-1.006a3.274,3.274,0,0,1,1.727-.439,3.78,3.78,0,0,1,1.855.546l3.781,2.2,1.392-.8-3.99-2.318a5.757,5.757,0,0,0-3.91-.7,5.471,5.471,0,0,0-1.779.638"/><path class="h" d="M292.273,175.762l-1.4.811,3.767,2.19c.6.35.913.708.923,1.076s-.239.7-.763,1.006a3.244,3.244,0,0,1-1.733.435,3.776,3.776,0,0,1-1.849-.541l-3.768-2.19-1.4.807,3.977,2.311a5.556,5.556,0,0,0,1.937.7,5.773,5.773,0,0,0,1.98,0,5.43,5.43,0,0,0,1.766-.638,2.62,2.62,0,0,0,.9-.8,1.173,1.173,0,0,0,.221-.885l.8.465,1.405-.811-6.762-3.93"/><path class="h" d="M303.115,169.37a2.546,2.546,0,0,0-1.049,1.025,1.154,1.154,0,0,0,.012,1.124,5.631,5.631,0,0,0-1.972-.007,5.322,5.322,0,0,0-1.805.638,2.689,2.689,0,0,0-.9.792,1.21,1.21,0,0,0-.227.889l-.774-.45-1.405.811,6.762,3.929,1.4-.811-3.78-2.2c-.609-.353-.919-.711-.929-1.08s.245-.7.769-1a3.229,3.229,0,0,1,1.727-.439,3.78,3.78,0,0,1,1.855.546l3.781,2.2,1.4-.808-3.781-2.2c-.609-.353-.918-.711-.935-1.076s.245-.7.769-1a3.275,3.275,0,0,1,1.733-.442,3.824,3.824,0,0,1,1.849.549l3.781,2.2,1.4-.807-3.99-2.319a5.734,5.734,0,0,0-3.916-.693,5.436,5.436,0,0,0-1.773.634"/><polyline class="h" points="316.54 159.701 310.545 163.163 311.687 163.826 313.985 162.499 321.375 166.794 322.786 165.979 315.396 161.685 317.682 160.365 316.54 159.701"/><path class="h" d="M322,158.6l-1.411.815,6.762,3.93,1.411-.815L322,158.6m-3.385-1.161a.621.621,0,0,0-.379.52.613.613,0,0,0,.373.52,1.781,1.781,0,0,0,.9.221,1.761,1.761,0,0,0,.9-.218.614.614,0,0,0,.372-.516.623.623,0,0,0-.379-.523,1.958,1.958,0,0,0-1.788,0"/><path class="h" d="M332.836,152.211a2.521,2.521,0,0,0-1.043,1.021,1.141,1.141,0,0,0,.012,1.125,5.671,5.671,0,0,0-1.979,0,5.3,5.3,0,0,0-1.8.638,2.72,2.72,0,0,0-.9.792,1.224,1.224,0,0,0-.222.885l-.773-.45-1.411.815,6.761,3.929,1.411-.814-3.78-2.2c-.609-.354-.919-.712-.936-1.077s.246-.7.776-1.006a3.272,3.272,0,0,1,1.727-.439,3.78,3.78,0,0,1,1.855.546l3.781,2.2,1.391-.8-3.78-2.2c-.609-.354-.919-.711-.929-1.08s.239-.7.769-1a3.24,3.24,0,0,1,1.727-.439,3.79,3.79,0,0,1,1.855.545l3.781,2.2,1.391-.8-3.989-2.319a5.757,5.757,0,0,0-3.91-.7,5.494,5.494,0,0,0-1.779.638"/><path class="h" d="M342.183,150.158a1.214,1.214,0,0,1-.624-1.08,1.335,1.335,0,0,1,.782-.988,3.917,3.917,0,0,1,1.817-.5,3.274,3.274,0,0,1,1.792.4l-3.767,2.175m-.958-2.79a3.227,3.227,0,0,0-1.344,1.275,1.473,1.473,0,0,0,.024,1.4,3.476,3.476,0,0,0,1.412,1.316,6.78,6.78,0,0,0,2.268.815,7.439,7.439,0,0,0,2.437.011,6.312,6.312,0,0,0,2.187-.756,2.678,2.678,0,0,0,1.408-1.5,1.612,1.612,0,0,0-.411-1.533l-1.52.877c.322.549.1,1.039-.657,1.474a3.744,3.744,0,0,1-1.823.487,3.942,3.942,0,0,1-1.907-.405l5.2-3a5.3,5.3,0,0,0-.64-.431,6.27,6.27,0,0,0-2.153-.763,7.171,7.171,0,0,0-2.348,0,6.2,6.2,0,0,0-2.13.745"/><path class="h" d="M350.934,139.947l-1.424.822,1.681.977-.8.465,1.142.663.805-.464,3.742,2.175a3.579,3.579,0,0,0,1.938.541,4.115,4.115,0,0,0,1.906-.586l1.111-.641-1.167-.678-.868.5a1.645,1.645,0,0,1-.772.254,1.375,1.375,0,0,1-.724-.214l-3.743-2.174,1.654-.955-1.142-.664-1.653.955-1.681-.977"/><path class="h" d="M365.028,140.305a3.81,3.81,0,0,1-2,.472,4.6,4.6,0,0,1-2.249-.656,2.406,2.406,0,0,1-.975-.885.892.892,0,0,1-.027-.866,1.712,1.712,0,0,1,.742-.73,3.657,3.657,0,0,1,1.275-.435,4.644,4.644,0,0,1,1.515.007,4.477,4.477,0,0,1,1.53.564,2.237,2.237,0,0,1,.956.9.971.971,0,0,1,0,.9,1.9,1.9,0,0,1-.768.737m-5.7-3.388A3.236,3.236,0,0,0,358,138.185a1.561,1.561,0,0,0-.027,1.434,3.218,3.218,0,0,0,1.379,1.327,6.673,6.673,0,0,0,2.274.811,7.573,7.573,0,0,0,2.45,0,6.317,6.317,0,0,0,2.175-.748,3.311,3.311,0,0,0,1.35-1.287,1.584,1.584,0,0,0,.046-1.452,3.11,3.11,0,0,0-1.354-1.335,6.576,6.576,0,0,0-2.293-.8,7.693,7.693,0,0,0-2.47.008,6.582,6.582,0,0,0-2.2.77"/><path class="h" d="M245.972,219.418a3.06,3.06,0,0,0-1.3,1.249,1.5,1.5,0,0,0,.043,1.394,3.518,3.518,0,0,0,1.412,1.308,6.831,6.831,0,0,0,2.254.822,7.4,7.4,0,0,0,2.406.03,6.155,6.155,0,0,0,2.168-.745,2.689,2.689,0,0,0,1.415-1.522,1.66,1.66,0,0,0-.526-1.592l-1.52.877c.449.564.268,1.08-.549,1.552a3.551,3.551,0,0,1-1.988.442,4.942,4.942,0,0,1-2.217-.7c-.73-.424-1.122-.851-1.19-1.282s.2-.819.771-1.151a3.223,3.223,0,0,1,1.307-.423,3.674,3.674,0,0,1,1.374.11l1.519-.877a6.566,6.566,0,0,0-2.754-.336,6.366,6.366,0,0,0-2.626.841"/><path class="h" d="M260.1,217.947a3.835,3.835,0,0,1-2.008.468,4.585,4.585,0,0,1-2.249-.656,2.487,2.487,0,0,1-.981-.881.921.921,0,0,1-.021-.87,1.714,1.714,0,0,1,.743-.73,3.663,3.663,0,0,1,1.275-.435,4.638,4.638,0,0,1,1.514.008,4.578,4.578,0,0,1,1.531.564,2.247,2.247,0,0,1,.956.9.971.971,0,0,1,0,.9,1.875,1.875,0,0,1-.761.741m-5.709-3.391a3.286,3.286,0,0,0-1.337,1.271,1.561,1.561,0,0,0-.014,1.434,3.183,3.183,0,0,0,1.373,1.324,6.687,6.687,0,0,0,2.274.811,7.489,7.489,0,0,0,2.45,0,6.284,6.284,0,0,0,2.174-.748,3.322,3.322,0,0,0,1.35-1.286,1.586,1.586,0,0,0,.047-1.453,3.117,3.117,0,0,0-1.355-1.334,6.47,6.47,0,0,0-2.286-.8,7.646,7.646,0,0,0-2.476,0,6.589,6.589,0,0,0-2.2.771"/><path class="h" d="M268.363,206.49a2.448,2.448,0,0,0-1.043,1.029,1.132,1.132,0,0,0,.006,1.12,5.576,5.576,0,0,0-1.979,0,5.32,5.32,0,0,0-1.805.637,2.739,2.739,0,0,0-.9.793,1.224,1.224,0,0,0-.222.885l-.774-.45-1.411.815L267,215.245l1.411-.815-3.78-2.2c-.609-.353-.919-.711-.93-1.08s.24-.7.77-1a3.262,3.262,0,0,1,1.727-.439,3.78,3.78,0,0,1,1.855.546l3.78,2.2,1.392-.8-3.78-2.2c-.609-.354-.913-.715-.93-1.08s.246-.7.77-1a3.228,3.228,0,0,1,1.727-.438,3.779,3.779,0,0,1,1.855.545l3.78,2.2,1.4-.807-3.99-2.319a5.718,5.718,0,0,0-1.937-.7,5.837,5.837,0,0,0-1.979.011,5.474,5.474,0,0,0-1.773.634"/><path class="h" d="M283.061,204.692a3.8,3.8,0,0,1-1.282.423,4.9,4.9,0,0,1-1.559-.018,4.464,4.464,0,0,1-1.505-.542,2.241,2.241,0,0,1-.931-.873,1.013,1.013,0,0,1-.014-.9,1.728,1.728,0,0,1,.736-.741,3.769,3.769,0,0,1,1.288-.435,4.723,4.723,0,0,1,1.528.007,4.27,4.27,0,0,1,1.5.535,2.207,2.207,0,0,1,.93.881,1,1,0,0,1,.046.907,1.73,1.73,0,0,1-.742.752M277.6,201.16a2.68,2.68,0,0,0-1.068.992,1.391,1.391,0,0,0-.191,1.021l-1-.579-1.41.815L283.9,209.2l1.411-.814-4.193-2.437a7.482,7.482,0,0,0,1.77-.118,5.2,5.2,0,0,0,1.69-.615,2.585,2.585,0,0,0,1.178-1.2,1.524,1.524,0,0,0-.1-1.39,3.527,3.527,0,0,0-1.4-1.3,6.718,6.718,0,0,0-2.223-.8,7.341,7.341,0,0,0-2.373-.047,5.742,5.742,0,0,0-2.066.685"/><polyline class="h" points="282.257 195.911 280.846 196.726 289.93 202.004 291.341 201.19 282.257 195.911"/><path class="h" d="M291.067,196.726a1.2,1.2,0,0,1-.624-1.08,1.335,1.335,0,0,1,.782-.988,3.9,3.9,0,0,1,1.816-.5,3.315,3.315,0,0,1,1.793.4l-3.767,2.175m-.958-2.791a3.229,3.229,0,0,0-1.344,1.276,1.471,1.471,0,0,0,.024,1.4,3.526,3.526,0,0,0,1.412,1.309,6.8,6.8,0,0,0,2.267.814,7.391,7.391,0,0,0,2.438.011,6.31,6.31,0,0,0,2.187-.755,2.694,2.694,0,0,0,1.408-1.5,1.614,1.614,0,0,0-.411-1.534l-1.52.878c.322.549.1,1.039-.657,1.474a3.744,3.744,0,0,1-1.823.487,3.942,3.942,0,0,1-1.907-.406l5.2-3a5.2,5.2,0,0,0-.634-.428,6.29,6.29,0,0,0-2.159-.767,7.171,7.171,0,0,0-2.348,0,6.215,6.215,0,0,0-2.13.744"/><path class="h" d="M295.738,188.87l-1.418.819,1.681.977-.8.464,1.142.664.8-.465,3.742,2.175a3.583,3.583,0,0,0,1.938.542,4.121,4.121,0,0,0,1.9-.583l1.111-.641-1.167-.678-.862.5a1.7,1.7,0,0,1-.778.258,1.436,1.436,0,0,1-.724-.213l-3.743-2.175,1.654-.955-1.142-.663-1.653.954-1.681-.977"/><path class="h" d="M305.011,188.675a1.214,1.214,0,0,1-.63-1.076,1.35,1.35,0,0,1,.788-.992,3.889,3.889,0,0,1,1.81-.5,3.336,3.336,0,0,1,1.8.394l-3.767,2.175m-.964-2.787a3.209,3.209,0,0,0-1.338,1.272,1.471,1.471,0,0,0,.024,1.4,3.5,3.5,0,0,0,1.406,1.313,6.682,6.682,0,0,0,2.273.811,7.418,7.418,0,0,0,2.438.011,6.271,6.271,0,0,0,2.181-.752,2.71,2.71,0,0,0,1.414-1.508,1.629,1.629,0,0,0-.411-1.533l-1.52.877c.322.549.1,1.04-.663,1.478a3.8,3.8,0,0,1-1.823.487,3.97,3.97,0,0,1-1.9-.409l5.2-3a5.322,5.322,0,0,0-.634-.428,6.288,6.288,0,0,0-2.159-.766,7.171,7.171,0,0,0-2.348,0,6.252,6.252,0,0,0-2.136.748"/><path class="h" d="M313.755,178.468l-1.417.818,1.681.977-.805.465,1.142.663.805-.464L318.9,183.1a3.571,3.571,0,0,0,1.938.541,4.111,4.111,0,0,0,1.9-.582l1.111-.641-1.168-.679-.861.5a1.7,1.7,0,0,1-.778.258,1.432,1.432,0,0,1-.725-.214l-3.742-2.175,1.654-.954-1.142-.664-1.654.955-1.681-.977"/><path class="h" d="M318.337,175.08l-1.4.811,9.083,5.279,1.4-.811-3.781-2.2c-.609-.354-.912-.715-.929-1.08s.245-.7.769-1a3.275,3.275,0,0,1,1.733-.442,3.824,3.824,0,0,1,1.849.549l3.781,2.2,1.4-.807-3.99-2.319a5.925,5.925,0,0,0-1.924-.711,5.628,5.628,0,0,0-1.941-.011,5.148,5.148,0,0,0-1.728.608,3.063,3.063,0,0,0-.972.833,1.277,1.277,0,0,0-.241.911l-3.108-1.807"/><path class="h" d="M331.9,173.149a1.216,1.216,0,0,1-.624-1.08,1.335,1.335,0,0,1,.782-.988,3.909,3.909,0,0,1,1.817-.5,3.264,3.264,0,0,1,1.792.4l-3.767,2.175m-.958-2.791a3.219,3.219,0,0,0-1.343,1.276,1.46,1.46,0,0,0,.03,1.4,3.446,3.446,0,0,0,1.4,1.312,6.694,6.694,0,0,0,2.274.811,7.377,7.377,0,0,0,2.431.015,6.312,6.312,0,0,0,2.187-.756,2.684,2.684,0,0,0,1.409-1.5,1.593,1.593,0,0,0-.412-1.533l-1.519.877c.321.549.1,1.036-.658,1.474a3.769,3.769,0,0,1-1.823.487,4,4,0,0,1-1.907-.406l5.2-3a5.545,5.545,0,0,0-.64-.424,6.387,6.387,0,0,0-2.153-.77,7.289,7.289,0,0,0-2.349,0,6.3,6.3,0,0,0-2.136.748"/><path class="h" d="M344.255,165.305l-2.784-1.619,1.557-.9a2.812,2.812,0,0,1,2.992-.1c.438.254.653.527.625.822s-.3.59-.832.9l-1.558.9m-2.368-3.182-2.963,1.711,8.532,4.958,1.4-.811-3.463-2.013,1.558-.9a3.439,3.439,0,0,0,1.375-1.213,1.137,1.137,0,0,0,.051-1.117,2.283,2.283,0,0,0-.912-.892,4.5,4.5,0,0,0-1.632-.549,5.675,5.675,0,0,0-1.941.055,6.583,6.583,0,0,0-2.009.77"/><path class="h" d="M352.232,158.069a2.2,2.2,0,0,0-.922.87,1.05,1.05,0,0,0-.018.943l-.983-.571-1.4.811,6.761,3.929,1.405-.811-3.559-2.068c-.691-.4-1.033-.763-1.024-1.091s.29-.645.839-.962l.357-.206-1.452-.844"/><path class="h" d="M363.118,158.471a3.816,3.816,0,0,1-2.007.468,4.581,4.581,0,0,1-2.249-.657,2.491,2.491,0,0,1-.982-.881.931.931,0,0,1-.027-.866,1.748,1.748,0,0,1,.749-.733,3.657,3.657,0,0,1,1.275-.435,4.644,4.644,0,0,1,1.515.007,4.6,4.6,0,0,1,1.53.564,2.231,2.231,0,0,1,.956.9.989.989,0,0,1,0,.9,1.891,1.891,0,0,1-.762.741m-5.708-3.392a3.285,3.285,0,0,0-1.338,1.272,1.564,1.564,0,0,0-.014,1.434,3.169,3.169,0,0,0,1.367,1.327,6.592,6.592,0,0,0,2.28.807,7.454,7.454,0,0,0,2.444.008,6.394,6.394,0,0,0,2.181-.752,3.323,3.323,0,0,0,1.35-1.287,1.584,1.584,0,0,0,.046-1.452,3.125,3.125,0,0,0-1.361-1.331,6.567,6.567,0,0,0-2.28-.8,7.571,7.571,0,0,0-2.482.007,6.526,6.526,0,0,0-2.193.767"/><path class="h" d="M366,150.118a3.06,3.06,0,0,0-1.3,1.249,1.479,1.479,0,0,0,.05,1.39,3.433,3.433,0,0,0,1.4,1.312,6.771,6.771,0,0,0,2.261.819,7.327,7.327,0,0,0,2.4.033,6.148,6.148,0,0,0,2.168-.745,2.685,2.685,0,0,0,1.415-1.522,1.658,1.658,0,0,0-.525-1.593l-1.52.878c.449.564.268,1.08-.55,1.551a3.539,3.539,0,0,1-1.988.443,4.95,4.95,0,0,1-2.217-.7c-.729-.424-1.121-.851-1.189-1.283s.2-.818.77-1.15a3.282,3.282,0,0,1,1.314-.427,3.732,3.732,0,0,1,1.367.114l1.52-.877a6.55,6.55,0,0,0-2.754-.336,6.375,6.375,0,0,0-2.627.841"/><path class="h" d="M375.3,148.094a1.2,1.2,0,0,1-.624-1.08,1.333,1.333,0,0,1,.782-.988,3.9,3.9,0,0,1,1.816-.505,3.366,3.366,0,0,1,1.793.4l-3.767,2.175m-.958-2.791A3.223,3.223,0,0,0,373,146.579a1.468,1.468,0,0,0,.024,1.4,3.526,3.526,0,0,0,1.412,1.309,6.656,6.656,0,0,0,2.267.815,7.439,7.439,0,0,0,2.437.011,6.306,6.306,0,0,0,2.188-.756,2.691,2.691,0,0,0,1.408-1.5,1.612,1.612,0,0,0-.411-1.533l-1.52.877c.322.549.1,1.039-.657,1.474a3.747,3.747,0,0,1-1.823.487,3.928,3.928,0,0,1-1.907-.406l5.2-3a5.2,5.2,0,0,0-.634-.428,6.318,6.318,0,0,0-2.159-.767,7.177,7.177,0,0,0-2.349,0,6.209,6.209,0,0,0-2.129.744"/><path class="h" d="M382.252,140.736a3.353,3.353,0,0,0-1.112.944,1.078,1.078,0,0,0-.216.94,1.309,1.309,0,0,0,.664.763,3.06,3.06,0,0,0,1.417.416,5.191,5.191,0,0,0,1.439-.132c.453-.107,1-.269,1.651-.483a12.568,12.568,0,0,1,1.562-.431,1.306,1.306,0,0,1,.928.118c.235.136.323.313.252.523a1.392,1.392,0,0,1-.691.664,2.881,2.881,0,0,1-1.231.379,2.2,2.2,0,0,1-1.131-.177l-1.456.841a3.817,3.817,0,0,0,1.506.416,6.072,6.072,0,0,0,3.517-.789,3.3,3.3,0,0,0,1.113-.943,1.08,1.08,0,0,0,.2-.94,1.427,1.427,0,0,0-.708-.782,3.1,3.1,0,0,0-1.4-.4,5.518,5.518,0,0,0-1.42.129c-.453.107-.988.262-1.606.472-.479.151-.848.262-1.11.332a3.142,3.142,0,0,1-.764.111,1.253,1.253,0,0,1-.655-.151c-.228-.133-.316-.3-.258-.491a1.3,1.3,0,0,1,.646-.615,2.61,2.61,0,0,1,1.173-.362,2.132,2.132,0,0,1,1.094.207l1.405-.811a4.453,4.453,0,0,0-2.352-.487,5.473,5.473,0,0,0-2.455.741"/><path class="h" d="M389.716,136.427a3.365,3.365,0,0,0-1.119.947,1.075,1.075,0,0,0-.215.94,1.31,1.31,0,0,0,.67.76,2.991,2.991,0,0,0,1.417.416,5.055,5.055,0,0,0,1.432-.129c.459-.11,1.007-.272,1.658-.486a12.614,12.614,0,0,1,1.555-.428,1.331,1.331,0,0,1,.935.114.422.422,0,0,1,.245.528,1.391,1.391,0,0,1-.691.663,2.9,2.9,0,0,1-1.23.38,2.2,2.2,0,0,1-1.132-.177l-1.456.84a3.916,3.916,0,0,0,1.506.417,6.114,6.114,0,0,0,1.8-.126,5.9,5.9,0,0,0,1.722-.663,3.339,3.339,0,0,0,1.119-.947,1.087,1.087,0,0,0,.2-.937,1.428,1.428,0,0,0-.709-.781,3.076,3.076,0,0,0-1.4-.4,5.518,5.518,0,0,0-1.42.129c-.446.1-.988.262-1.606.472q-.717.227-1.109.332a3.42,3.42,0,0,1-.765.11,1.238,1.238,0,0,1-.654-.151c-.229-.133-.317-.295-.258-.49s.275-.4.646-.616a2.6,2.6,0,0,1,1.173-.361,2.12,2.12,0,0,1,1.093.206l1.411-.814a4.492,4.492,0,0,0-2.352-.487,5.472,5.472,0,0,0-2.454.741"/></g></g></svg>