<svg xmlns="http://www.w3.org/2000/svg" xmlns:xlink="http://www.w3.org/1999/xlink" viewBox="0 0 500 329.674"><defs><style>.a{fill:none;}.b{fill:#ced0d6;}.c{fill:#3d539a;}.d{fill:#516fcd;}.e{fill:#fff;}.f{isolation:isolate;}.g{clip-path:url(#a);}.h{fill:#0a1330;}.i{clip-path:url(#b);}.j{clip-path:url(#c);}.k{clip-path:url(#d);}.l{clip-path:url(#e);}</style><clipPath id="a"><polygon class="a" points="73.971 220.849 74.019 204.173 155.653 251.305 155.606 267.981 73.971 220.849"/></clipPath><clipPath id="b"><polygon class="a" points="302.107 290.132 302.06 273.456 458.184 183.318 458.231 199.994 302.107 290.132"/></clipPath><clipPath id="c"><polygon class="a" points="147.741 138.996 119.907 122.821 216.028 67.325 243.862 83.5 147.741 138.996"/></clipPath><clipPath id="d"><polygon class="a" points="197.279 187.882 169.198 171.563 302.867 94.389 330.948 110.708 197.279 187.882"/></clipPath><clipPath id="e"><polygon class="a" points="270.035 223.079 246.064 209.148 374.913 134.757 398.883 148.688 270.035 223.079"/></clipPath></defs><path d="M489.413,173.044l-.033,11.6c-.016,5.414-3.574,10.82-10.684,14.951L271.443,320.035c-.526.3-1.067.6-1.616.879-.166.086-.336.168-.5.252q-.6.3-1.216.579c-.184.084-.367.168-.553.249q-.7.306-1.413.588c-.119.047-.234.1-.354.143q-.891.345-1.81.654c-.16.054-.322.1-.482.156q-.7.228-1.406.438l-.621.178c-.469.131-.941.255-1.417.375-.177.044-.352.091-.53.133q-.969.233-1.954.433c-.106.021-.214.039-.32.06q-.835.162-1.681.3c-.213.035-.427.068-.642.1q-.721.111-1.449.2c-.21.027-.421.055-.632.08q-.929.109-1.864.192c-.061.006-.121.013-.182.018-.684.058-1.37.1-2.058.137-.2.01-.4.016-.6.025q-.752.032-1.5.045c-.225,0-.45.008-.675.009q-.8.006-1.608-.009c-.16,0-.32,0-.479-.006q-1.032-.027-2.061-.086c-.163-.009-.325-.023-.488-.034-.53-.035-1.059-.075-1.587-.123q-.335-.031-.669-.066c-.5-.05-.99-.108-1.482-.17-.137-.017-.275-.029-.411-.047-.065-.009-.129-.021-.194-.03-.506-.069-1.008-.146-1.509-.228-.129-.021-.26-.039-.389-.061q-.93-.157-1.847-.346c14.466,6.652,35.525,6.115,48.834-1.62L489.32,203C503.541,194.732,503.548,181.37,489.413,173.044Z"/><path class="b" d="M201.479,203.136h0c-.111.039-.222.078-.335.115h0C201.257,203.214,201.368,203.175,201.479,203.136Z"/><path class="b" d="M200.253,203.507h0c-.067.017-.131.038-.2.054h0C200.122,203.545,200.186,203.524,200.253,203.507Z"/><path class="b" d="M288.243,73.953c-.221.158-.458.312-.71.46C287.785,74.265,288.022,74.111,288.243,73.953Z"/><path class="b" d="M135.306,163.337c-.057.026-.116.049-.174.074.058-.024.117-.048.174-.074Z"/><path class="b" d="M202.517,202.72h0c-.1.045-.2.086-.3.129h0C202.317,202.806,202.419,202.765,202.517,202.72Z"/><path class="b" d="M127.768,164.61c-.078-.005-.156-.014-.234-.019.078,0,.155.014.234.019Z"/><path class="b" d="M131.714,164.4c-.038.007-.077.011-.116.017.039,0,.077-.01.116-.017Z"/><path class="b" d="M288.857,73.463c-.126.112-.27.22-.411.328C288.587,73.683,288.731,73.575,288.857,73.463Z"/><path class="b" d="M134.268,163.752h0c-.111.039-.222.079-.335.115h0C134.046,163.831,134.157,163.791,134.268,163.752Z"/><path class="b" d="M123,163.631c-.139-.053-.271-.114-.406-.171.135.057.267.118.406.171Z"/><path class="b" d="M125.2,164.269l-.137-.028h0Z"/><path class="b" d="M126.585,164.5h0c-.133-.016-.265-.035-.4-.055h0C126.32,164.464,126.452,164.483,126.585,164.5Z"/><path class="b" d="M189.3,202.623c-.237-.114-.471-.232-.695-.36.224.128.457.246.695.36Z"/><path class="b" d="M289.95,72.161c.062-.1.129-.2.181-.307C290.079,71.958,290.012,72.059,289.95,72.161Z"/><path class="b" d="M289.068,73.254c.105-.1.215-.2.309-.307C289.283,73.052,289.173,73.152,289.068,73.254Z"/><path class="b" d="M289.561,72.715c.082-.1.169-.2.24-.306C289.73,72.513,289.643,72.613,289.561,72.715Z"/><path class="b" d="M123.8,163.907h0c-.2-.063-.4-.131-.6-.2h0C123.4,163.776,123.6,163.844,123.8,163.907Z"/><path class="b" d="M426.358,150.081h0c-.032.095-.076.189-.116.284C426.28,150.27,426.327,150.176,426.358,150.081Z"/><path class="b" d="M129.258,164.629h0c-.1,0-.2.008-.307.009h0C129.054,164.637,129.156,164.631,129.258,164.629Z"/><path class="b" d="M423.536,153.179c.253-.147.489-.3.71-.459C424.025,152.878,423.789,153.032,423.536,153.179Z"/><path class="b" d="M425.8,151.177c-.072.105-.16.206-.243.309C425.643,151.383,425.731,151.282,425.8,151.177Z"/><path class="b" d="M269,242.9c-.053.013-.1.029-.157.042h0C268.9,242.932,268.95,242.917,269,242.9Z"/><path class="b" d="M424.442,152.563c.144-.11.289-.219.418-.333C424.731,152.344,424.586,152.453,424.442,152.563Z"/><path class="b" d="M290.274,71.513h0l-.033.082Z"/><path class="b" d="M264.1,270.779l8.575-4.983a17.034,17.034,0,0,1-8.9-1.014c.369.019.74.029,1.11.026-.4,0-.789,0-1.183-.028-.08,0-.159-.014-.24-.019q-.474-.033-.943-.091c-.055-.007-.111-.009-.166-.016-.079-.011-.154-.028-.232-.039-.231-.035-.46-.073-.688-.117-.08-.015-.162-.024-.241-.041s-.128-.031-.194-.046c-.145-.031-.288-.066-.431-.1-.093-.023-.189-.042-.281-.067s-.157-.047-.237-.07c-.106-.031-.211-.062-.316-.1-.069-.021-.141-.04-.209-.062-.133-.044-.261-.093-.39-.14-.069-.025-.138-.048-.2-.074l-.078-.028q-.312-.122-.612-.258l-.065-.032-.152-.074c-.118-.057-.238-.113-.353-.173s-.229-.123-.341-.187l-41.1-23.588q-.1-.057-.2-.117c-.177-.107-.345-.216-.506-.329l-.014-.01-.061-.046c-.139-.1-.276-.2-.4-.306-.035-.029-.065-.06-.1-.09-.063-.053-.122-.107-.181-.161s-.123-.106-.179-.16-.087-.1-.133-.145c-.072-.075-.141-.15-.207-.226-.035-.04-.077-.079-.11-.12-.085-.1-.165-.209-.239-.315l-.007-.01c-.069-.1-.135-.2-.2-.3-.025-.043-.041-.087-.064-.129-.051-.093-.1-.186-.14-.279s-.087-.194-.123-.292-.065-.189-.093-.284c-.015-.053-.038-.1-.051-.157s-.021-.122-.033-.183-.02-.1-.027-.153a3.469,3.469,0,0,1-.042-.528l.036-12.641-4.513,2.638c-3.949,2.309-10.37,2.377-14.5.21-.137-.014-.276-.023-.413-.04-.055-.007-.111-.009-.166-.016-.078-.01-.153-.027-.231-.039-.232-.034-.461-.073-.689-.117-.079-.015-.161-.024-.241-.04-.065-.014-.128-.032-.193-.046-.145-.032-.287-.067-.43-.1-.094-.023-.19-.042-.283-.067s-.157-.048-.236-.071c-.106-.03-.211-.061-.315-.094-.07-.022-.141-.04-.21-.063-.133-.043-.26-.093-.39-.14-.068-.024-.137-.047-.2-.073l-.078-.028q-.312-.122-.612-.258l-.065-.032c-.05-.023-.1-.049-.149-.073-.119-.057-.24-.113-.355-.174s-.229-.122-.34-.186l-41.1-23.588c-.067-.038-.134-.077-.2-.117-.176-.107-.345-.217-.5-.329l-.014-.011c-.022-.015-.041-.031-.062-.046-.14-.1-.276-.2-.4-.3-.036-.03-.066-.061-.1-.09-.063-.054-.121-.108-.181-.162s-.123-.1-.179-.16-.087-.1-.133-.145c-.071-.074-.141-.149-.206-.225-.035-.041-.077-.079-.111-.12-.085-.1-.165-.21-.239-.316l-.006-.01c-.07-.1-.136-.2-.2-.3-.026-.042-.042-.086-.065-.129-.051-.092-.1-.186-.14-.279s-.086-.194-.123-.292-.065-.189-.092-.284c-.015-.053-.039-.1-.052-.157s-.021-.122-.032-.183-.02-.1-.028-.152a3.493,3.493,0,0,1-.042-.529l.034-12.027-3.465,2.025c-3.991,2.333-10.509,2.379-14.636.14-.05-.009-.1-.018-.148-.025q-.348-.051-.69-.117c-.08-.015-.161-.024-.24-.041s-.128-.031-.193-.045c-.145-.032-.288-.067-.432-.1-.093-.023-.189-.041-.281-.066s-.157-.048-.235-.071c-.107-.03-.213-.062-.318-.094-.069-.022-.14-.04-.209-.063-.132-.043-.259-.093-.389-.14l-.2-.073c-.025-.01-.052-.018-.078-.028q-.312-.123-.611-.258c-.023-.01-.043-.022-.065-.032l-.15-.073c-.119-.057-.239-.113-.355-.174s-.228-.123-.34-.187l-41.1-23.589-.2-.117c-.176-.107-.345-.217-.5-.329l-.015-.011c-.021-.015-.039-.03-.059-.045-.14-.1-.278-.2-.405-.306-.036-.03-.066-.061-.1-.09-.062-.054-.121-.108-.181-.162s-.123-.105-.179-.16-.087-.1-.133-.145c-.071-.075-.141-.149-.207-.225-.035-.041-.076-.08-.11-.121-.085-.1-.165-.209-.239-.315l-.006-.01c-.07-.1-.136-.2-.2-.3-.026-.042-.042-.086-.065-.129-.051-.093-.1-.186-.14-.28s-.086-.193-.123-.29-.065-.19-.093-.286c-.015-.052-.038-.1-.051-.156s-.021-.122-.032-.183-.02-.1-.028-.152a3.493,3.493,0,0,1-.042-.529l.017-5.953-29.245,17L226.972,270.778C237.218,276.693,253.927,276.693,264.1,270.779Z"/><polygon class="b" points="193.408 203.829 193.4 203.828 193.4 203.828 193.408 203.829"/><path class="b" d="M425.066,152.026c.107-.1.218-.205.313-.312C425.284,151.821,425.172,151.923,425.066,152.026Z"/><path class="b" d="M426.132,150.622c-.052.1-.12.207-.182.31C426.012,150.829,426.08,150.727,426.132,150.622Z"/><path class="b" d="M356.777,112.094c.081-.1.167-.2.237-.3C356.944,111.894,356.857,111.993,356.777,112.094Z"/><path class="b" d="M357.164,111.542c.061-.1.128-.2.18-.305C357.292,111.34,357.225,111.441,357.164,111.542Z"/><path class="b" d="M355.665,113.169c.139-.107.281-.213.406-.324C355.946,112.956,355.8,113.062,355.665,113.169Z"/><path class="b" d="M130.443,164.561c-.1.009-.2.018-.293.025h0C130.248,164.579,130.345,164.57,130.443,164.561Z"/><path class="b" d="M271.309,242.1l-.094.041.094-.041Z"/><path class="b" d="M356.59,112.329c-.093.105-.2.205-.308.307C356.387,112.534,356.5,112.434,356.59,112.329Z"/><path class="b" d="M357.452,110.977c.044-.1.092-.2.126-.308C357.544,110.773,357.5,110.874,357.452,110.977Z"/><path class="b" d="M354.748,113.794q.378-.222.709-.459Q355.126,113.572,354.748,113.794Z"/><path class="b" d="M266.535,243.321h0c-.128.013-.255.024-.384.033h0Q266.343,243.341,266.535,243.321Z"/><path class="b" d="M244.471,283.451h0c-.16,0-.32,0-.48-.007h0C244.151,283.449,244.311,283.448,244.471,283.451Z"/><path class="b" d="M235.59,282.661h0c-.131-.021-.263-.039-.393-.061h0C235.33,282.622,235.461,282.64,235.59,282.661Z"/><path class="b" d="M246.713,283.451c-.212,0-.424.008-.635.009h0C246.29,283.459,246.5,283.455,246.713,283.451Z"/><path class="b" d="M241.931,283.359h0c-.164-.01-.326-.023-.489-.034h0C241.605,283.336,241.767,283.349,241.931,283.359Z"/><path class="b" d="M223.18,279.05l-.232-.1.232.1Z"/><path class="b" d="M230.1,281.488c-.26-.07-.516-.147-.774-.221.258.074.514.151.774.221Z"/><path class="b" d="M228.159,280.921c-.167-.052-.332-.107-.5-.16.166.053.331.108.5.16Z"/><path class="b" d="M231.3,281.792c-.26-.064-.519-.128-.777-.195l.008,0C230.79,281.665,231.047,281.728,231.3,281.792Z"/><path class="b" d="M237.7,282.966h0c-.2-.026-.405-.049-.606-.077h0C237.3,282.917,237.5,282.94,237.7,282.966Z"/><path class="b" d="M248.859,283.38h0c-.2.011-.4.017-.6.026h0C248.457,283.4,248.658,283.391,248.859,283.38Z"/><path class="b" d="M482.452,154.329c-.215.17-.446.336-.671.5C482.006,154.665,482.237,154.5,482.452,154.329Z"/><path class="b" d="M8.274,155.05c-.1-.074-.2-.149-.3-.224.094.07.184.14.28.209Z"/><path class="b" d="M7.142,154.194c-.1-.082-.2-.166-.3-.249.1.08.188.16.287.238Z"/><path class="b" d="M9.573,155.935c-.127-.082-.246-.166-.37-.249.122.082.239.165.364.246Z"/><path class="b" d="M480.113,156q-.627.4-1.3.791Q479.486,156.4,480.113,156Z"/><path class="b" d="M483.332,153.6h0c-.138.119-.282.237-.425.355C483.05,153.832,483.2,153.715,483.332,153.6Z"/><path class="b" d="M481.324,155.175c-.25.179-.517.353-.779.528C480.807,155.528,481.074,155.354,481.324,155.175Z"/><path class="b" d="M192.711,203.711h0c-.145-.028-.291-.055-.434-.087h0C192.42,203.656,192.566,203.683,192.711,203.711Z"/><path class="b" d="M357.716,126.729l9.777-5.716a14.064,14.064,0,0,1,5.593-1.689l-15.324-8.847Z"/><path class="b" d="M260.634,242.907h0c-.174-.044-.348-.089-.518-.138h0C260.287,242.818,260.46,242.863,260.634,242.907Z"/><path class="b" d="M265.26,243.4h0Z"/><path class="b" d="M449.152,163.241l-22.6-13.05-.044,15.709,2.187,1.255c3.09,1.774,3.881,4.4,2.36,6.6Z"/><path class="b" d="M263.769,243.378h0c-.081,0-.16-.014-.241-.02h0C263.609,243.364,263.689,243.373,263.769,243.378Z"/><path class="b" d="M194.979,203.993h0c-.08,0-.159-.014-.239-.019h0C194.821,203.979,194.9,203.988,194.979,203.993Z"/><path class="b" d="M259,242.4c-.2-.077-.395-.162-.588-.247.193.085.387.17.588.247Z"/><path class="b" d="M261.154,243.026l-.089-.017h0Z"/><path class="b" d="M253.454,282.972c-.164.02-.327.043-.491.062h0C253.127,283.015,253.29,282.993,253.454,282.972Z"/><path class="b" d="M268.227,278.94h0c-.184.084-.368.168-.554.249h0C267.86,279.108,268.044,279.024,268.227,278.94Z"/><path class="b" d="M260.172,281.72c-.083.021-.165.043-.248.063l.247-.063Z"/><path class="b" d="M290.506,86.425l8.2-4.8A14.336,14.336,0,0,1,304.8,79.9l-14.251-8.228Z"/><path class="b" d="M266.261,279.777h0c-.118.047-.234.1-.353.143h0C266.027,279.874,266.143,279.824,266.261,279.777Z"/><path class="b" d="M269.7,278.235l-.253.126h0Z"/><path class="b" d="M225.163,279.879h0c-.139-.054-.274-.111-.411-.166h0C224.89,279.768,225.025,279.825,225.163,279.879Z"/><path class="b" d="M255.474,282.682l-.43.068h0Z"/><path class="b" d="M251.1,283.226l-.041,0,.041,0Z"/><path class="c" d="M21.043,131.544c-.092.059-.177.121-.267.181-.2.133-.4.266-.594.4-.116.082-.222.167-.334.25-.157.117-.318.233-.468.353-.114.09-.219.183-.33.275-.138.115-.28.229-.413.346-.107.094-.2.19-.307.286-.126.117-.256.233-.376.351-.1.1-.189.2-.283.3-.114.119-.232.237-.34.357-.091.1-.173.2-.26.306-.1.12-.208.239-.3.36-.083.1-.156.209-.235.314-.09.121-.185.242-.27.364s-.14.218-.211.327-.16.241-.233.363-.124.222-.185.333-.139.243-.2.366-.1.224-.156.336-.118.247-.17.372-.085.227-.128.341-.1.248-.138.373-.067.23-.1.345-.075.249-.106.375-.048.232-.072.348-.055.25-.075.376-.03.234-.044.351-.034.25-.044.375-.011.235-.016.353c-.164,4.035,2.4,8.106,7.707,11.168l18.26,10.543L225.4,55.494c.374-.218.76-.425,1.151-.626.119-.061.24-.12.36-.179q.428-.213.868-.413c.131-.06.261-.119.393-.177q.5-.217,1.015-.421c.083-.032.163-.067.246-.1q.638-.245,1.293-.465c.116-.039.233-.075.35-.113q.5-.162,1-.31l.442-.127c.336-.094.676-.182,1.017-.268.126-.031.25-.064.376-.094q.692-.165,1.4-.307l.251-.046q.588-.114,1.182-.212c.153-.025.307-.048.461-.072.345-.052.692-.1,1.04-.145.149-.019.3-.039.448-.056.461-.054.924-.1,1.388-.142l.075-.007c.49-.041.982-.072,1.474-.1.147-.007.294-.012.441-.018.357-.015.714-.025,1.072-.032l.48-.006c.391,0,.782,0,1.174.007.106,0,.213,0,.32,0q.738.018,1.475.062c.123.007.245.017.368.025q.561.037,1.12.088c.16.014.319.03.478.046q.54.055,1.075.124c.138.017.277.033.416.052q.581.08,1.156.175l.2.031q.673.115,1.337.251c.228.047.454.1.681.148.158.035.318.068.476.1.25.059.5.123.744.186.136.035.273.067.408.1.04.01.079.023.119.034.552.15,1.095.314,1.631.487.1.033.2.064.3.1q.747.249,1.468.527c.105.041.207.084.311.125q.559.224,1.1.465c.115.051.231.1.345.154.43.2.854.4,1.266.619q.477.251.937.514L449.152,163.241l18.5-10.753c5.073-2.948,7.6-6.832,7.6-10.717,0-.126-.008-.252-.014-.378,0-.1-.006-.194-.014-.291,0-.049-.008-.1-.013-.147-.009-.1-.023-.2-.036-.3s-.02-.178-.034-.267c-.006-.038-.011-.076-.017-.113-.016-.092-.038-.183-.056-.275-.027-.136-.052-.272-.086-.408-.025-.095-.054-.189-.081-.283-.01-.037-.021-.073-.031-.109-.033-.11-.061-.22-.1-.329s-.073-.2-.108-.292l-.039-.1c-.04-.106-.077-.213-.122-.32s-.091-.2-.136-.3c-.015-.033-.031-.065-.045-.1-.049-.1-.094-.209-.147-.312s-.109-.2-.164-.3l-.022-.04c-.065-.119-.128-.238-.2-.356q-.22-.369-.473-.732c-.036-.051-.077-.1-.114-.151-.141-.2-.287-.392-.443-.585l-.012-.014c-.115-.142-.238-.283-.361-.423-.059-.068-.115-.136-.176-.2-.1-.111-.21-.22-.318-.33s-.187-.2-.287-.3l-.007-.007-.011-.011c-.2-.2-.415-.394-.635-.588l-.186-.159-.023-.02c-.161-.137-.324-.273-.493-.408-.067-.054-.135-.107-.2-.161-.123-.1-.252-.19-.38-.284-.071-.052-.139-.1-.211-.157-.052-.038-.1-.076-.155-.113l-.007,0q-.374-.263-.769-.518c-.062-.04-.126-.079-.189-.118l-.008-.005c-.259-.163-.521-.325-.8-.483L262.65,12.689c-.306-.177-.619-.347-.936-.514-.413-.216-.837-.421-1.267-.619-.114-.053-.229-.1-.344-.154h0q-.543-.242-1.1-.465h0l-.31-.125h0q-.721-.279-1.468-.527h0c-.1-.034-.2-.066-.305-.1-.536-.174-1.079-.338-1.631-.488h0c-.04-.011-.079-.023-.119-.033h0c-.136-.037-.274-.069-.411-.1-.246-.064-.492-.127-.741-.186-.156-.037-.315-.07-.473-.1-.228-.05-.455-.1-.684-.148h0q-.665-.136-1.338-.251l-.095-.015-.1-.015q-.579-.1-1.163-.176c-.138-.019-.278-.035-.416-.053q-.536-.067-1.074-.123l-.17-.017-.308-.03c-.372-.034-.746-.062-1.119-.087l-.214-.015-.156-.011q-.736-.042-1.475-.062l-.32,0c-.391-.007-.782-.01-1.173-.007-.084,0-.167,0-.251,0l-.23,0c-.358.007-.715.017-1.072.032l-.367.015-.073,0c-.493.025-.984.056-1.474.1l-.076.008c-.464.039-.926.088-1.387.141-.15.018-.3.038-.449.057-.348.044-.694.093-1.039.145l-.378.059-.084.013q-.593.1-1.18.211l-.172.032-.08.015q-.7.141-1.4.307c-.126.03-.25.063-.375.094q-.513.128-1.017.268c-.148.041-.3.083-.443.127q-.505.147-1,.31c-.116.038-.234.073-.349.112-.437.148-.869.3-1.293.466-.083.032-.164.067-.247.1-.343.136-.681.275-1.014.421-.133.058-.263.117-.394.177q-.44.2-.867.412l-.2.1-.16.08c-.391.2-.777.408-1.151.626L21.964,130.98Q21.489,131.258,21.043,131.544Z"/><path class="d" d="M478.818,156.787,271.564,277.23c-.525.305-1.066.6-1.615.879-.167.086-.337.168-.5.252q-.6.3-1.217.579c-.183.084-.367.168-.553.249q-.7.3-1.413.588c-.118.047-.234.1-.353.143q-.893.344-1.811.654c-.159.054-.321.1-.481.156q-.7.228-1.407.438-.309.09-.621.177c-.468.132-.941.256-1.417.375-.176.045-.352.092-.53.134q-.969.233-1.954.432c-.106.022-.213.039-.319.06q-.836.163-1.682.3c-.213.035-.427.068-.641.1q-.721.109-1.45.2c-.21.027-.42.055-.632.08q-.929.11-1.864.192c-.061,0-.121.013-.182.018-.684.058-1.37.1-2.058.136-.2.011-.4.017-.6.026-.5.02-1,.036-1.5.045-.225,0-.45.008-.675.009q-.8.006-1.607-.009c-.16,0-.32,0-.48-.007q-1.032-.026-2.06-.085c-.164-.01-.326-.023-.489-.034q-.8-.052-1.586-.124-.336-.03-.669-.065-.744-.077-1.483-.17c-.2-.026-.4-.049-.605-.077-.5-.069-1.008-.146-1.509-.228-.129-.021-.26-.039-.389-.061q-.94-.161-1.87-.35c-.335-.069-.667-.144-1-.219-.208-.046-.417-.089-.623-.137-.394-.093-.784-.194-1.174-.3-.145-.038-.293-.072-.437-.111q-.755-.2-1.5-.427c-.149-.045-.3-.094-.444-.14q-.468-.145-.93-.3-1.049-.35-2.066-.742c-.138-.054-.273-.111-.41-.165q-.8-.318-1.573-.664c-.162-.072-.326-.143-.486-.217-.608-.28-1.207-.57-1.79-.876q-.672-.351-1.322-.725L10.97,156.789c-.387-.223-.758-.452-1.124-.682-.093-.059-.187-.116-.279-.175q-.559-.361-1.087-.732c-.078-.054-.151-.11-.227-.165q-.421-.3-.821-.612c-.1-.08-.2-.16-.3-.24-.239-.19-.469-.383-.7-.577-.1-.084-.2-.167-.3-.252-.309-.273-.61-.549-.895-.828l-.041-.042q-.426-.42-.818-.848c-.092-.1-.175-.2-.265-.306-.173-.2-.345-.394-.507-.593-.246-.3-.477-.61-.7-.918-.027-.037-.057-.074-.083-.111-.243-.346-.468-.7-.679-1.048-.1-.172-.194-.346-.289-.519-.083-.153-.172-.3-.25-.458-.09-.178-.167-.357-.249-.535-.07-.153-.146-.305-.209-.458-.076-.181-.139-.364-.206-.546-.056-.152-.118-.3-.169-.457-.061-.185-.109-.37-.161-.555-.043-.152-.092-.3-.129-.455-.074-.3-.135-.6-.187-.908-.014-.083-.025-.166-.037-.249-.035-.233-.064-.467-.085-.7-.009-.089-.018-.178-.024-.267-.022-.306-.036-.613-.035-.919v0h0L0,184.436c0,.308.014.615.036.922.006.089.015.178.023.267q.033.351.085.7c.013.083.024.166.038.249.05.293.107.585.177.877l.009.031c.037.152.087.3.13.455.052.185.1.37.161.555.05.154.113.306.17.459.066.182.129.363.2.543.065.155.141.309.211.463.081.177.158.354.247.531.078.154.168.307.252.46s.163.311.254.464c.01.018.024.036.034.053.21.352.435.7.678,1.048.027.038.058.076.086.114q.329.462.7.915c.019.023.034.047.053.07.144.176.3.349.454.524.089.1.173.2.265.305q.389.424.811.842c.017.016.031.033.048.049l0,0c.285.278.584.553.893.825.1.085.2.168.295.252.144.124.284.249.433.371.085.069.176.137.262.206s.2.161.306.24c.266.207.539.41.82.612.076.055.149.111.226.165l.076.055c.327.229.666.454,1.012.677.091.059.186.117.279.175.166.1.328.21.5.313.206.124.414.247.626.37L219.461,320.037q.63.363,1.282.706l.04.02c.583.305,1.182.6,1.789.875.063.029.122.062.185.09.1.045.2.083.3.127q.775.345,1.573.664c.1.038.188.082.285.12.041.016.084.029.125.045q1.017.393,2.067.743c.058.019.114.042.172.062.251.082.5.159.758.238.148.046.295.094.444.139q.729.221,1.47.421l.023.006c.15.04.3.076.454.115.385.1.769.2,1.159.291.205.048.414.091.621.137.3.068.6.139.909.2l.092.017c.619.126,1.242.244,1.87.35.129.022.26.04.389.061.5.082,1,.159,1.509.228.065.009.129.021.194.03.136.018.274.03.411.047.492.062.986.12,1.482.17q.335.035.669.066c.528.048,1.057.088,1.587.123.163.011.325.025.488.034q1.029.06,2.061.086c.159,0,.319,0,.479.006q.8.015,1.608.009c.225,0,.45,0,.675-.009q.752-.013,1.5-.045c.2-.009.4-.015.6-.025.688-.036,1.374-.079,2.058-.137.061,0,.121-.012.182-.018q.936-.081,1.864-.192c.211-.025.422-.053.632-.08q.728-.093,1.449-.2c.215-.033.429-.066.642-.1q.846-.14,1.681-.3c.106-.021.214-.039.32-.06q.986-.2,1.954-.433c.178-.042.353-.089.53-.133.476-.12.948-.244,1.417-.375l.621-.178q.709-.21,1.406-.438c.16-.052.322-.1.482-.156q.918-.31,1.81-.654c.12-.046.235-.1.354-.143q.716-.284,1.413-.588c.186-.081.369-.165.553-.249q.616-.281,1.216-.579c.169-.084.339-.166.5-.252.549-.283,1.09-.574,1.616-.879L478.7,199.592c7.11-4.131,10.668-9.537,10.684-14.951l.121-42.8C489.486,147.25,485.927,152.656,478.818,156.787Z"/><path class="c" d="M287.533,74.413,136.248,162.854c-.3.175-.616.333-.942.483-.1.045-.2.086-.3.129-.24.1-.485.2-.736.286-.111.039-.222.079-.335.115-.292.095-.59.18-.894.257-.066.017-.129.037-.2.053-.369.089-.747.163-1.129.226-.1.018-.209.03-.313.045-.287.042-.576.078-.868.106-.127.012-.255.023-.383.032-.3.022-.594.036-.892.043-.1,0-.2.008-.307.009q-.592,0-1.183-.028c-.08-.005-.159-.014-.239-.02q-.474-.033-.944-.091c-.133-.016-.265-.035-.4-.055-.232-.034-.461-.073-.69-.117-.144-.027-.289-.054-.432-.086s-.289-.067-.432-.1c-.174-.043-.346-.088-.517-.137-.106-.031-.212-.062-.317-.095-.2-.063-.4-.131-.6-.2-.068-.025-.138-.048-.2-.074q-.387-.148-.755-.318c-.05-.023-.1-.049-.149-.073-.238-.114-.472-.232-.7-.36L80.3,139.29c-.256-.146-.5-.3-.719-.457-.021-.014-.039-.03-.06-.045-.18-.129-.347-.261-.505-.4-.063-.053-.121-.107-.181-.161-.11-.1-.213-.2-.312-.306q-.108-.111-.207-.225a5.329,5.329,0,0,1-.349-.436l-.007-.009a4.784,4.784,0,0,1-.261-.433c-.051-.092-.1-.185-.14-.279s-.086-.194-.122-.291-.065-.19-.093-.285c-.032-.113-.062-.226-.084-.34-.009-.051-.02-.1-.027-.152a3.482,3.482,0,0,1-.042-.529l-.061,21.4a3.493,3.493,0,0,0,.042.529c.008.05.018.1.028.152s.018.122.032.183.036.1.051.156c.028.1.058.191.093.286s.078.194.123.29.089.187.14.28c.023.043.039.087.065.129.06.1.126.2.2.3l.006.01c.074.106.154.211.239.315.034.041.075.08.11.121.066.076.136.15.207.225.046.048.085.1.133.145s.121.107.179.16.119.108.181.162c.035.029.065.06.1.09.127.1.265.205.405.306.02.015.038.03.059.045l.015.011c.16.112.329.222.5.329l.2.117,41.1,23.589c.112.064.225.127.34.187s.236.117.355.174l.15.073c.022.01.042.022.065.032q.3.135.611.258c.026.01.053.018.078.028l.2.073c.13.047.257.1.389.14.069.023.14.041.209.063.1.032.211.064.318.094.078.023.155.049.235.071s.188.043.281.066c.144.036.287.071.432.1.065.014.128.032.193.045s.16.026.24.041q.342.066.69.117c.077.011.152.028.23.039.055.007.111.009.166.016q.47.059.944.091c.08,0,.159.015.239.019.394.023.789.031,1.184.028.1,0,.2-.006.306-.009.3-.007.6-.02.892-.042.129-.01.256-.021.384-.033q.436-.042.868-.1c.1-.016.209-.028.312-.045.382-.063.76-.137,1.13-.226.066-.016.13-.036.2-.053q.454-.115.893-.257c.113-.037.224-.076.335-.115q.377-.133.736-.286c.1-.043.2-.084.3-.13.326-.149.643-.307.943-.482L287.472,95.815a5.968,5.968,0,0,0,2.829-3.109,3.7,3.7,0,0,0,.191-1.151l.06-21.4C290.548,71.7,289.543,73.237,287.533,74.413Z"/><path class="e" d="M231.489,42.247c4.062-2.375,10.745-2.386,14.854-.028l41.1,23.59c4.109,2.358,4.15,6.229.089,8.6L136.248,162.854c-4.058,2.373-10.741,2.384-14.85.026L80.3,139.29c-4.109-2.358-4.151-6.229-.093-8.6Z"/><path class="c" d="M354.748,113.794,203.46,202.237a10.561,10.561,0,0,1-.943.483c-.1.045-.2.086-.3.129q-.36.153-.737.287c-.111.039-.222.078-.334.115-.292.094-.59.179-.892.256-.067.017-.131.038-.2.054-.37.088-.748.163-1.13.226-.1.017-.208.029-.312.044-.287.042-.577.078-.868.106-.128.012-.255.023-.383.032q-.446.033-.894.043c-.1,0-.2.008-.3.009q-.593,0-1.184-.028c-.079,0-.158-.014-.238-.019-.316-.023-.632-.053-.945-.092-.132-.016-.264-.035-.4-.054-.232-.035-.461-.074-.689-.117-.145-.028-.291-.055-.434-.087s-.288-.066-.431-.1c-.174-.043-.347-.088-.518-.137l-.315-.094c-.2-.064-.4-.131-.6-.2-.068-.025-.138-.048-.206-.074-.257-.1-.509-.2-.754-.317-.051-.024-.1-.05-.15-.074-.238-.114-.471-.232-.695-.36l-41.1-23.587c-.256-.147-.5-.3-.719-.457-.021-.015-.04-.032-.061-.047-.179-.128-.346-.26-.5-.4-.063-.053-.122-.107-.181-.161-.11-.1-.213-.2-.312-.306q-.108-.111-.207-.225a5.493,5.493,0,0,1-.349-.435l-.007-.01a4.539,4.539,0,0,1-.26-.432c-.051-.093-.1-.186-.141-.28s-.086-.194-.122-.291-.065-.189-.093-.285c-.032-.113-.062-.226-.084-.34-.009-.05-.02-.1-.027-.152a3.482,3.482,0,0,1-.042-.529l-.061,21.4a3.493,3.493,0,0,0,.042.529c.008.051.018.1.028.152s.018.122.032.183.037.1.052.157c.027.095.057.19.092.284s.078.2.123.292.089.187.14.279c.023.043.039.087.065.129.06.1.126.2.2.3l.006.01c.074.106.154.212.239.316.034.041.076.079.111.12.065.076.135.151.206.225.046.048.085.1.133.145s.121.107.179.16.118.108.181.162c.035.029.065.06.1.09.127.1.263.2.4.3.021.015.04.031.062.046l.014.011c.16.112.329.222.5.329.065.04.132.079.2.117l41.1,23.588c.111.064.225.126.34.186s.236.117.355.174c.05.024.1.05.149.073l.065.032q.3.137.612.258l.078.028c.067.026.136.049.2.073.13.047.257.1.39.14.069.023.14.041.21.063.1.033.209.064.315.094.079.023.156.049.236.071s.189.044.283.067c.143.035.285.07.43.1.065.014.128.032.193.046.08.016.162.025.241.04.228.044.457.083.689.117.078.012.153.029.231.039.055.007.111.009.166.016.313.039.627.069.944.091.08.006.159.015.239.02q.591.033,1.184.028c.1,0,.2-.007.3-.009.3-.008.6-.021.893-.043q.192-.014.384-.033c.291-.027.58-.063.867-.1.1-.015.209-.028.313-.045.382-.063.759-.137,1.129-.226.067-.016.131-.036.2-.053.3-.077.6-.162.892-.257.113-.036.223-.076.334-.115.252-.089.5-.184.737-.286.1-.043.2-.084.3-.129.325-.15.643-.308.942-.483L354.687,135.2c2.008-1.174,3.012-2.715,3.017-4.258l.06-21.4C357.76,111.079,356.756,112.62,354.748,113.794Z"/><path class="e" d="M298.708,81.63c4.058-2.372,10.741-2.384,14.85-.026l41.1,23.588c4.109,2.358,4.151,6.23.093,8.6L203.46,202.237c-4.058,2.373-10.742,2.384-14.851.026l-41.1-23.587c-4.109-2.359-4.151-6.23-.093-8.6Z"/><path d="M144.389,179.462l-8.2,4.8c-.3.175-.617.333-.943.482-.1.046-.2.087-.3.13q-.36.153-.736.286c-.111.039-.222.078-.335.115q-.438.141-.893.257c-.066.017-.13.037-.2.053-.37.089-.748.163-1.13.226-.1.017-.208.029-.312.045q-.432.063-.868.1c-.128.012-.255.023-.384.033-.3.022-.593.035-.892.042-.1,0-.2.009-.306.009-.395,0-.79,0-1.184-.028-.08,0-.159-.014-.239-.019q-.474-.033-.944-.091c-.055-.007-.111-.009-.166-.016l-.082-.014c4.127,2.239,10.645,2.193,14.636-.14l3.465-2.025Z"/><path d="M428.692,167.155l-2.187-1.255-.013,4.425c0,1.542-1.009,3.083-3.016,4.257L272.192,263.023c-.3.175-.618.334-.944.483-.1.045-.2.087-.3.13q-.36.153-.736.286c-.112.039-.222.079-.336.115-.291.1-.588.18-.891.257-.067.017-.131.037-.2.054q-.555.132-1.129.226c-.1.017-.209.029-.313.044-.288.042-.576.078-.868.106-.128.012-.255.023-.383.033q-.446.031-.892.042c-.1,0-.2.009-.308.009-.37,0-.741-.007-1.11-.026,4.127,1.778,10.014,1.586,13.722-.581l151.285-88.442C432.846,173.387,432.8,169.515,428.692,167.155Z"/><path class="c" d="M423.536,153.179,272.252,241.621a10.555,10.555,0,0,1-.943.482c-.1.046-.2.087-.3.13-.239.1-.485.2-.736.286-.111.04-.222.079-.335.116-.291.094-.589.179-.891.256-.067.017-.132.038-.2.054-.37.089-.747.163-1.129.226-.1.017-.209.03-.314.045-.287.042-.576.078-.867.1q-.192.02-.384.033c-.3.022-.593.035-.891.043-.1,0-.2.008-.308.009q-.592,0-1.183-.028c-.08,0-.16-.014-.24-.02-.316-.022-.631-.052-.943-.091-.134-.016-.266-.035-.4-.055q-.348-.051-.688-.116c-.146-.028-.291-.056-.435-.087s-.288-.067-.431-.1c-.174-.044-.347-.089-.518-.138-.106-.03-.212-.062-.316-.094-.2-.064-.4-.131-.6-.2-.068-.025-.137-.048-.2-.074-.257-.1-.509-.2-.754-.318-.052-.023-.1-.049-.152-.074-.237-.114-.471-.232-.694-.36l-41.1-23.587q-.382-.22-.718-.457c-.022-.015-.04-.031-.061-.046-.179-.128-.346-.261-.5-.4-.062-.053-.121-.107-.18-.161q-.165-.15-.313-.305c-.071-.075-.141-.149-.206-.225-.124-.144-.246-.288-.349-.435l-.007-.011a4.77,4.77,0,0,1-.261-.432c-.051-.092-.1-.185-.14-.279s-.086-.194-.122-.291-.066-.19-.093-.285c-.032-.113-.062-.226-.084-.34-.01-.05-.02-.1-.027-.152a3.617,3.617,0,0,1-.043-.529l-.06,21.4a3.469,3.469,0,0,0,.042.528c.007.051.018.1.027.153s.019.122.033.183.036.1.051.157c.028.095.058.19.093.284s.078.195.123.292.089.186.14.279c.023.042.039.086.064.129.061.1.127.2.2.3l.007.01c.074.106.154.211.239.315.033.041.075.08.11.12.066.076.135.151.207.226.046.048.085.1.133.145s.12.106.179.16.118.108.181.161c.035.03.065.061.1.09.128.1.265.205.4.306l.061.046.014.01c.161.113.329.222.506.329q.1.06.2.117l41.1,23.588c.112.064.225.126.341.187s.235.116.353.173l.152.074.065.032q.3.137.612.258l.078.028c.067.026.136.049.2.074.129.047.257.1.39.14.068.022.14.041.209.062.105.033.21.064.316.1.08.023.157.049.237.07s.188.044.281.067c.143.036.286.071.431.1.066.015.129.033.194.046s.161.026.241.041c.228.044.457.082.688.117.078.011.153.028.232.039.055.007.111.009.166.016q.47.058.943.091c.081,0,.16.015.24.019.394.023.788.031,1.183.028.1,0,.2-.006.308-.009q.447-.01.892-.042c.128-.01.255-.021.383-.033.292-.028.58-.064.868-.106.1-.015.209-.027.313-.044q.573-.094,1.129-.226c.068-.017.132-.037.2-.054.3-.077.6-.162.891-.257.114-.036.224-.076.336-.115q.377-.134.736-.286c.1-.043.2-.085.3-.13.326-.149.644-.308.944-.483l151.284-88.441c2.007-1.174,3.012-2.715,3.016-4.257l.061-21.4C426.548,150.465,425.544,152.005,423.536,153.179Z"/><path class="e" d="M367.493,121.013c4.058-2.372,10.742-2.384,14.851-.025l41.1,23.587c4.112,2.36,4.154,6.232.1,8.6L272.252,241.621c-4.061,2.374-10.745,2.386-14.857.025l-41.1-23.587c-4.109-2.358-4.151-6.23-.089-8.6Z"/><path d="M213.177,217.924,203.4,223.64c-.3.175-.617.333-.942.483-.1.045-.2.086-.3.129-.24.1-.485.2-.737.286-.111.039-.221.079-.334.115-.292.095-.589.18-.892.257-.067.017-.131.037-.2.053-.37.089-.747.163-1.129.226-.1.017-.209.03-.313.045-.287.042-.576.078-.867.1q-.192.019-.384.033c-.3.022-.595.035-.893.043-.1,0-.2.008-.3.009q-.593,0-1.184-.028c-.08,0-.159-.014-.239-.02-.178-.012-.354-.033-.531-.051,4.133,2.167,10.554,2.1,14.5-.21l4.513-2.638Z"/><path class="e" d="M478.652,126.677c14.4,8.314,14.476,21.794.166,30.11L271.564,277.23c-14.309,8.315-37.581,8.316-51.982,0L10.97,156.789C-3.429,148.476-3.5,135,10.8,126.68L218.057,6.237c14.31-8.316,37.583-8.315,51.982,0ZM264.1,270.779,467.655,152.488c10.179-5.916,10.125-15.594-.121-21.509L262.65,12.689c-10.246-5.916-26.955-5.916-37.134,0L21.964,130.98c-10.177,5.914-10.122,15.593.124,21.508l204.884,118.29c10.246,5.915,26.955,5.915,37.131,0"/><polygon points="77.145 150.396 77.17 141.633 40.349 163.031 47.9 167.391 77.145 150.396"/><path class="e" d="M478.652,127.2c14.4,8.314,14.476,21.794.166,30.11L271.564,277.755c-14.309,8.315-37.581,8.316-51.982,0L10.97,157.314C-3.429,149-3.5,135.52,10.8,127.205L218.057,6.762c14.31-8.316,37.583-8.315,51.982,0ZM264.1,271.3,467.655,153.013c10.179-5.915,10.125-15.594-.121-21.509L262.65,13.214C252.4,7.3,235.7,7.3,225.516,13.214L21.964,131.505c-10.177,5.914-10.122,15.593.124,21.509L226.972,271.3c10.246,5.916,26.955,5.915,37.131,0"/><g class="f"><g class="g"><polyline class="h" points="83.048 210.996 74.014 205.78 74.008 207.775 77.475 209.777 77.439 222.66 79.558 223.884 79.595 211.001 83.043 212.991 83.048 210.996"/><path class="h" d="M90.91,228.505a5.735,5.735,0,0,1-2.13-2.266,6.926,6.926,0,0,1-.841-3.432,3.772,3.772,0,0,1,.415-1.943,1.394,1.394,0,0,1,1.115-.694,2.7,2.7,0,0,1,1.52.43,5.636,5.636,0,0,1,1.525,1.328,7.041,7.041,0,0,1,1.133,1.992,6.774,6.774,0,0,1,.421,2.425,3.354,3.354,0,0,1-.453,1.921,1.48,1.48,0,0,1-1.166.679,2.82,2.82,0,0,1-1.539-.44m.124-10a4.953,4.953,0,0,0-2.671-.793,2.354,2.354,0,0,0-1.883,1.059,4.84,4.84,0,0,0-.7,2.793,10.053,10.053,0,0,0,.661,3.586,11.4,11.4,0,0,0,1.84,3.2,9.527,9.527,0,0,0,2.622,2.278,4.98,4.98,0,0,0,2.69.789,2.388,2.388,0,0,0,1.934-1.037,4.683,4.683,0,0,0,.718-2.775,9.873,9.873,0,0,0-.681-3.589,11.509,11.509,0,0,0-1.871-3.226,9.885,9.885,0,0,0-2.66-2.285"/><path class="h" d="M108.968,229.047l-2.126-1.228-.019,6.574c0,1.056-.235,1.731-.7,2.026s-1.1.21-1.892-.247a4.928,4.928,0,0,1-1.881-1.931,5.715,5.715,0,0,1-.683-2.827l.019-6.573-2.107-1.217-.02,6.941a8.5,8.5,0,0,0,.548,3.057,8.636,8.636,0,0,0,1.5,2.579,8.114,8.114,0,0,0,2.169,1.833,3.983,3.983,0,0,0,1.725.577,1.757,1.757,0,0,0,1.312-.389l0,1.394,2.126,1.228.034-11.8"/><path class="h" d="M118.258,234.219a3.309,3.309,0,0,0-1.834-.551,1.608,1.608,0,0,0-1.242.686l0-1.717-2.119-1.224-.034,11.8,2.12,1.224.018-6.206c0-1.2.222-1.915.652-2.152s1.062-.122,1.892.358l.536.309.007-2.524"/><path class="h" d="M123.646,237.521l-2.126-1.227-.033,11.8,2.126,1.227.033-11.8m-1.034-5.292a.824.824,0,0,0-1.364.777,2.906,2.906,0,0,0,1.355,2.348.924.924,0,0,0,.953.1.934.934,0,0,0,.393-.89,2.942,2.942,0,0,0-1.337-2.337"/><path class="h" d="M131.3,241.75a5.14,5.14,0,0,0-2.083-.754,1.647,1.647,0,0,0-1.389.433,1.983,1.983,0,0,0-.49,1.444,4.638,4.638,0,0,0,.525,2.169,7.8,7.8,0,0,0,1.255,1.775q.726.762,1.881,1.792a21.468,21.468,0,0,1,1.741,1.711,1.988,1.988,0,0,1,.546,1.3c0,.418-.168.66-.5.732a2.109,2.109,0,0,1-1.386-.4,4.272,4.272,0,0,1-1.423-1.328,3.231,3.231,0,0,1-.622-1.608l-2.2-1.268a5.883,5.883,0,0,0,.588,2.279,9.129,9.129,0,0,0,1.516,2.242,8.888,8.888,0,0,0,2.169,1.76,5,5,0,0,0,2.077.75,1.649,1.649,0,0,0,1.369-.451,2.121,2.121,0,0,0,.491-1.517,4.706,4.706,0,0,0-.531-2.137,8.132,8.132,0,0,0-1.236-1.749c-.478-.511-1.091-1.1-1.837-1.759-.555-.5-.976-.9-1.263-1.184a4.982,4.982,0,0,1-.726-.927,1.848,1.848,0,0,1-.292-.962c0-.4.149-.634.45-.7a1.931,1.931,0,0,1,1.284.374,3.962,3.962,0,0,1,1.359,1.255,3.214,3.214,0,0,1,.552,1.583l2.126,1.227a6.692,6.692,0,0,0-1.135-3.426,8.207,8.207,0,0,0-2.819-2.649"/><path class="h" d="M151.414,253.362a3.816,3.816,0,0,0-2.122-.593,1.71,1.71,0,0,0-1.461.862,8.465,8.465,0,0,0-1.482-2.591,8.127,8.127,0,0,0-2.2-1.873,4.13,4.13,0,0,0-1.712-.584,1.8,1.8,0,0,0-1.325.374l0-1.35-2.127-1.228-.033,11.8,2.126,1.228.019-6.6c0-1.056.235-1.73.7-2.026s1.1-.21,1.892.247a4.928,4.928,0,0,1,1.881,1.931,5.715,5.715,0,0,1,.683,2.827l-.019,6.595,2.107,1.217.019-6.6c0-1.056.235-1.731.7-2.026s1.1-.21,1.893.247a4.928,4.928,0,0,1,1.881,1.931,5.712,5.712,0,0,1,.682,2.827l-.018,6.595,2.1,1.213.02-6.955a8.479,8.479,0,0,0-.541-3.061,8.636,8.636,0,0,0-1.5-2.579,8.145,8.145,0,0,0-2.169-1.833"/></g></g><g class="f"><g class="i"><polyline class="h" points="312.401 269.095 310.282 270.319 310.3 276.701 304.209 280.218 304.191 273.835 302.065 275.063 302.107 289.941 304.233 288.714 304.214 282.206 310.305 278.69 310.324 285.197 312.443 283.973 312.401 269.095"/><path class="h" d="M318.029,273.782a6.272,6.272,0,0,1,.927-2.71,5.438,5.438,0,0,1,1.881-1.894,2.313,2.313,0,0,1,2.032-.358c.551.226.828.786.843,1.681l-5.683,3.281m2.9-6.714a9.683,9.683,0,0,0-2.673,2.293,10.808,10.808,0,0,0-1.8,3.171,10.327,10.327,0,0,0-.636,3.578,5.088,5.088,0,0,0,.673,2.815,2.311,2.311,0,0,0,1.832,1.088,4.675,4.675,0,0,0,2.639-.766,9.425,9.425,0,0,0,3.024-2.782,10.926,10.926,0,0,0,1.678-3.644l-2.293,1.324a5.378,5.378,0,0,1-2.415,3.047,2.144,2.144,0,0,1-2.013.3,1.854,1.854,0,0,1-.92-1.74l7.841-4.526a9.354,9.354,0,0,0,.066-1.237,4.774,4.774,0,0,0-.64-2.665,2.182,2.182,0,0,0-1.775-1.025,4.713,4.713,0,0,0-2.587.766"/><path class="h" d="M333.916,269.643a2.6,2.6,0,0,1-1.521.4,1.527,1.527,0,0,1-1.16-.742,3.46,3.46,0,0,1-.44-1.884,6.637,6.637,0,0,1,.428-2.363,7.229,7.229,0,0,1,1.146-2.006,5.54,5.54,0,0,1,1.525-1.344,2.587,2.587,0,0,1,1.527-.411,1.517,1.517,0,0,1,1.153.708,3.385,3.385,0,0,1,.44,1.87,6.808,6.808,0,0,1-.428,2.378,7.369,7.369,0,0,1-1.145,2.043,5.482,5.482,0,0,1-1.525,1.35m-.475-9.8a8.694,8.694,0,0,0-2.45,2.179,11.4,11.4,0,0,0-1.743,3.137,10.025,10.025,0,0,0-.636,3.52,5.265,5.265,0,0,0,.654,2.8,2.375,2.375,0,0,0,1.749,1.18,3.862,3.862,0,0,0,2.422-.619,8.035,8.035,0,0,0,2.124-1.785,10.057,10.057,0,0,0,1.465-2.235l0,1.754,2.145-1.239-.033-11.8L337,257.981l0,1.716a2.109,2.109,0,0,0-1.447-.524,4.121,4.121,0,0,0-2.114.67"/><polyline class="h" points="345.35 249.109 343.224 250.337 343.269 266.176 345.395 264.949 345.35 249.109"/><path class="h" d="M351.929,246.428l-2.145,1.238.008,2.928-1.206.7,0,2,1.207-.7.018,6.522q.006,1.738.774,2.067a2.615,2.615,0,0,0,2.2-.5l1.679-.969,0-2.032-1.309.755c-.434.251-.741.332-.921.238s-.269-.352-.27-.8l-.019-6.522,2.5-1.442-.006-2-2.5,1.441-.008-2.927"/><path class="h" d="M359.805,240.764l-2.126,1.227.044,15.84,2.127-1.228-.019-6.595a5.664,5.664,0,0,1,.689-2.83,4.989,4.989,0,0,1,1.887-1.935q1.2-.691,1.886-.244c.462.3.694.974.7,2.03l.018,6.6,2.107-1.217-.019-6.955a4.5,4.5,0,0,0-.545-2.434,1.746,1.746,0,0,0-1.454-.872,3.862,3.862,0,0,0-2.095.629,7.915,7.915,0,0,0-1.819,1.462,8.394,8.394,0,0,0-1.363,1.94l-.015-5.414"/><polyline class="h" points="385.582 226.844 376.548 232.06 376.554 234.055 380.02 232.054 380.057 244.937 382.183 243.709 382.147 230.826 385.588 228.839 385.582 226.844"/><path class="h" d="M393.517,235.233a1.988,1.988,0,0,1-2.136.2c-.563-.373-.854-1.183-.857-2.452a6.9,6.9,0,0,1,.409-2.411,6.589,6.589,0,0,1,1.1-1.98,5.561,5.561,0,0,1,1.519-1.325,2.752,2.752,0,0,1,1.527-.434,1.428,1.428,0,0,1,1.14.687,3.455,3.455,0,0,1,.434,1.924,6.638,6.638,0,0,1-.441,2.437,7.058,7.058,0,0,1-1.158,2.021,5.729,5.729,0,0,1-1.537,1.336m.067-10.114a9.835,9.835,0,0,0-2.66,2.286,11.433,11.433,0,0,0-1.878,3.229,9.856,9.856,0,0,0-.68,3.59,5.02,5.02,0,0,0,.679,2.812,2.333,2.333,0,0,0,1.852,1.076,4.684,4.684,0,0,0,2.626-.759,10.063,10.063,0,0,0,2.692-2.311,11.807,11.807,0,0,0,1.922-3.27,9.712,9.712,0,0,0,.7-3.593,4.85,4.85,0,0,0-.7-2.794,2.36,2.36,0,0,0-1.889-1.055,4.945,4.945,0,0,0-2.665.789"/><path class="h" d="M411.519,214.956l-2.126,1.227.019,6.574a5.677,5.677,0,0,1-.689,2.83,4.989,4.989,0,0,1-1.888,1.934c-.8.461-1.424.544-1.886.244s-.693-.974-.7-2.03l-.019-6.574-2.1,1.213.019,6.941a4.332,4.332,0,0,0,.557,2.419,1.774,1.774,0,0,0,1.512.839,4.2,4.2,0,0,0,2.172-.673,7.288,7.288,0,0,0,1.723-1.414,8.134,8.134,0,0,0,1.305-1.9l0,1.394,2.127-1.227-.034-11.8"/><path class="h" d="M420.815,209.4a6.586,6.586,0,0,0-1.838,1.568,8.015,8.015,0,0,0-1.234,2.116l0-1.717-2.12,1.224.033,11.8,2.12-1.224-.017-6.206a5.67,5.67,0,0,1,.637-2.9,5,5,0,0,1,1.888-1.825l.543-.314-.007-2.523"/><path class="h" d="M426.2,206.481l-2.126,1.228.034,11.8,2.126-1.228-.034-11.8m-1.054-4.087a2.675,2.675,0,0,0-.969,1.015,2.627,2.627,0,0,0-.386,1.333.932.932,0,0,0,.393.89.944.944,0,0,0,.971-.113,2.606,2.606,0,0,0,.944-.993,2.653,2.653,0,0,0,.393-1.344.927.927,0,0,0-.4-.879.916.916,0,0,0-.947.091"/><path class="h" d="M433.852,201.871a8.8,8.8,0,0,0-2.074,1.645,7.683,7.683,0,0,0-1.388,2.036,4.857,4.857,0,0,0-.48,2,1.873,1.873,0,0,0,.535,1.558,1.761,1.761,0,0,0,1.261.323,13.424,13.424,0,0,0,1.885-.383,8.068,8.068,0,0,1,1.745-.3c.365,0,.551.226.552.666a2.244,2.244,0,0,1-.489,1.3,4.369,4.369,0,0,1-1.391,1.2,1.832,1.832,0,0,1-1.425.316.9.9,0,0,1-.629-.886l-2.2,1.268a2.268,2.268,0,0,0,.6,1.594,1.953,1.953,0,0,0,1.523.487,4.955,4.955,0,0,0,2.173-.747,8.671,8.671,0,0,0,2.073-1.645,7.66,7.66,0,0,0,1.37-2.033,5.086,5.086,0,0,0,.48-2.077,1.821,1.821,0,0,0-.548-1.506,1.726,1.726,0,0,0-1.242-.327,11.024,11.024,0,0,0-1.834.361c-.562.141-.984.23-1.272.279a1.271,1.271,0,0,1-.729-.086.628.628,0,0,1-.3-.623,2.08,2.08,0,0,1,.444-1.219,4.015,4.015,0,0,1,1.282-1.108,1.728,1.728,0,0,1,1.362-.316.96.96,0,0,1,.565.938l2.12-1.224c-.055-1.137-.434-1.844-1.151-2.106a3.435,3.435,0,0,0-2.825.61"/><path class="h" d="M453.964,190.259a7.874,7.874,0,0,0-2.118,1.855,8.37,8.37,0,0,0-1.451,2.542,1.747,1.747,0,0,0-1.493-.872,4.115,4.115,0,0,0-2.2.666,7.332,7.332,0,0,0-1.716,1.4,8.462,8.462,0,0,0-1.318,1.893l0-1.35-2.12,1.223.034,11.8,2.119-1.224-.018-6.6a5.7,5.7,0,0,1,.695-2.834,4.965,4.965,0,0,1,1.887-1.934c.792-.458,1.419-.54,1.88-.24s.693.973.7,2.03l.019,6.595L450.965,204l-.019-6.6a5.677,5.677,0,0,1,.689-2.83,4.991,4.991,0,0,1,1.888-1.935c.8-.46,1.424-.543,1.886-.243s.693.973.7,2.03l.019,6.595,2.107-1.216-.02-6.955a4.4,4.4,0,0,0-.557-2.427,1.8,1.8,0,0,0-1.518-.836,4.189,4.189,0,0,0-2.172.674"/></g></g><g class="f"><g class="j"><path class="h" d="M138.618,112.54a4.041,4.041,0,0,0-1.69,1.636,2.1,2.1,0,0,0-.042,1.869,3.9,3.9,0,0,0,1.7,1.689,8.163,8.163,0,0,0,2.909.988,10.053,10.053,0,0,0,3.22-.015,8.193,8.193,0,0,0,2.844-.973,4,4,0,0,0,1.818-1.836,1.987,1.987,0,0,0-.351-2.046l-1.731,1a1.17,1.17,0,0,1,.083,1.15,2.605,2.605,0,0,1-1.068,1.007,5.56,5.56,0,0,1-1.952.67,6.594,6.594,0,0,1-2.2-.036,6.378,6.378,0,0,1-2.083-.767,3.317,3.317,0,0,1-1.311-1.206,1.329,1.329,0,0,1-.05-1.271,2.725,2.725,0,0,1,1.171-1.125,5.047,5.047,0,0,1,1.741-.615,5.649,5.649,0,0,1,1.985.051l1.73-1a9.227,9.227,0,0,0-3.537-.213,8.5,8.5,0,0,0-3.181,1.043"/><path class="h" d="M156.029,111.438a3.912,3.912,0,0,1-2.058.483,4.717,4.717,0,0,1-2.306-.675,2.531,2.531,0,0,1-1-.9.969.969,0,0,1-.033-.893,1.848,1.848,0,0,1,.768-.752,3.877,3.877,0,0,1,1.307-.446,4.806,4.806,0,0,1,1.559.012,4.62,4.62,0,0,1,1.562.575,2.3,2.3,0,0,1,.988.921,1.013,1.013,0,0,1,0,.918,1.977,1.977,0,0,1-.787.756m-5.848-3.473a3.4,3.4,0,0,0-1.375,1.3,1.616,1.616,0,0,0-.015,1.471,3.289,3.289,0,0,0,1.405,1.357,6.777,6.777,0,0,0,2.337.833,7.8,7.8,0,0,0,2.514,0,6.478,6.478,0,0,0,2.232-.767,3.4,3.4,0,0,0,1.382-1.32,1.637,1.637,0,0,0,.046-1.489,3.215,3.215,0,0,0-1.392-1.371,6.7,6.7,0,0,0-2.344-.815,7.921,7.921,0,0,0-2.539,0,6.727,6.727,0,0,0-2.251.792"/><path class="h" d="M164.508,99.693a2.591,2.591,0,0,0-1.075,1.047,1.148,1.148,0,0,0,.013,1.154,5.8,5.8,0,0,0-2.036-.007,5.55,5.55,0,0,0-1.843.66,2.591,2.591,0,0,0-.921.811,1.221,1.221,0,0,0-.234.906l-.793-.46-1.443.833,6.933,4.029,1.443-.833-3.876-2.253c-.622-.361-.938-.73-.955-1.1s.246-.722.782-1.032a3.357,3.357,0,0,1,1.785-.45,3.852,3.852,0,0,1,1.893.561l3.876,2.252,1.43-.826-3.876-2.252q-.931-.541-.948-1.106c-.023-.376.24-.719.782-1.032a3.3,3.3,0,0,1,1.778-.446,3.883,3.883,0,0,1,1.9.556L173,102.956l1.43-.826-4.092-2.378a5.706,5.706,0,0,0-1.987-.718,5.943,5.943,0,0,0-2.031,0,5.667,5.667,0,0,0-1.811.656"/><path class="h" d="M179.576,97.843a3.783,3.783,0,0,1-1.307.439,5.075,5.075,0,0,1-1.6-.019,4.574,4.574,0,0,1-1.55-.56,2.265,2.265,0,0,1-.95-.892,1.006,1.006,0,0,1-.02-.922,1.791,1.791,0,0,1,.755-.759,3.826,3.826,0,0,1,1.32-.446,4.834,4.834,0,0,1,1.578.007,4.428,4.428,0,0,1,1.531.55,2.359,2.359,0,0,1,.969.9,1.033,1.033,0,0,1,.039.932,1.83,1.83,0,0,1-.768.767m-5.593-3.62a2.883,2.883,0,0,0-1.113,1.018,1.478,1.478,0,0,0-.19,1.043l-1.015-.59-1.443.833,10.225,5.942,1.443-.833-4.3-2.5a7.852,7.852,0,0,0,1.808-.118,5.368,5.368,0,0,0,1.748-.634,2.615,2.615,0,0,0,1.2-1.228,1.586,1.586,0,0,0-.094-1.43,3.677,3.677,0,0,0-1.444-1.334,6.857,6.857,0,0,0-2.273-.826,7.578,7.578,0,0,0-2.444-.044,5.825,5.825,0,0,0-2.1.7"/><polyline class="h" points="178.761 88.841 177.312 89.678 186.623 95.089 188.073 94.253 178.761 88.841"/><path class="h" d="M187.793,89.674a1.23,1.23,0,0,1-.643-1.105,1.368,1.368,0,0,1,.8-1.014,3.957,3.957,0,0,1,1.862-.516,3.394,3.394,0,0,1,1.843.405l-3.863,2.23m-.983-2.856a3.332,3.332,0,0,0-1.382,1.305,1.534,1.534,0,0,0,.03,1.437A3.549,3.549,0,0,0,186.9,90.9a6.875,6.875,0,0,0,2.33.837,7.767,7.767,0,0,0,2.5.014,6.49,6.49,0,0,0,2.244-.774,2.729,2.729,0,0,0,1.441-1.544A1.641,1.641,0,0,0,195,87.861l-1.558.9q.49.841-.677,1.515a3.864,3.864,0,0,1-1.868.5,4.031,4.031,0,0,1-1.951-.417l5.331-3.078a5.773,5.773,0,0,0-.659-.442,6.469,6.469,0,0,0-2.21-.781A7.305,7.305,0,0,0,189,86.047a6.434,6.434,0,0,0-2.187.771"/><path class="h" d="M192.586,81.616l-1.462.845,1.725,1-.823.476,1.167.678.823-.476,3.838,2.231a3.689,3.689,0,0,0,1.995.553,4.177,4.177,0,0,0,1.951-.6l1.136-.656-1.2-.7-.881.508a1.746,1.746,0,0,1-.8.269,1.435,1.435,0,0,1-.743-.225l-3.838-2.23,1.692-.977L196,81.642l-1.692.977-1.725-1"/><path class="h" d="M202.088,81.421a1.265,1.265,0,0,1-.643-1.106,1.394,1.394,0,0,1,.808-1.017,3.953,3.953,0,0,1,1.861-.516,3.364,3.364,0,0,1,1.837.409l-3.863,2.23m-.976-2.86a3.33,3.33,0,0,0-1.382,1.3,1.5,1.5,0,0,0,.03,1.438,3.523,3.523,0,0,0,1.437,1.346,6.906,6.906,0,0,0,2.337.833,7.654,7.654,0,0,0,2.5.014,6.472,6.472,0,0,0,2.244-.774,2.744,2.744,0,0,0,1.441-1.544A1.658,1.658,0,0,0,209.3,79.6l-1.558.9q.483.846-.676,1.515a3.916,3.916,0,0,1-1.874.5,4.1,4.1,0,0,1-1.952-.417l5.332-3.078a4.958,4.958,0,0,0-.66-.442,6.443,6.443,0,0,0-2.2-.785,7.233,7.233,0,0,0-2.412,0,6.344,6.344,0,0,0-2.18.767"/><polyline class="h" points="141.717 128.379 135.575 131.926 136.742 132.604 139.098 131.244 146.672 135.645 148.115 134.812 140.541 130.411 142.884 129.058 141.717 128.379"/><path class="h" d="M154.7,129.7a3.912,3.912,0,0,1-2.058.483,4.765,4.765,0,0,1-2.306-.675,2.444,2.444,0,0,1-1-.907.946.946,0,0,1-.033-.892,1.87,1.87,0,0,1,.768-.744,3.937,3.937,0,0,1,1.3-.45,4.832,4.832,0,0,1,1.559.011,4.683,4.683,0,0,1,1.575.575,2.265,2.265,0,0,1,.975.922,1,1,0,0,1,0,.918,1.894,1.894,0,0,1-.781.759m-5.854-3.476a3.338,3.338,0,0,0-1.363,1.3,1.581,1.581,0,0,0-.027,1.471,3.312,3.312,0,0,0,1.411,1.36,6.854,6.854,0,0,0,2.331.829,7.723,7.723,0,0,0,2.52.008,6.438,6.438,0,0,0,2.225-.771,3.416,3.416,0,0,0,1.389-1.316,1.63,1.63,0,0,0,.04-1.493,3.137,3.137,0,0,0-1.386-1.367,6.747,6.747,0,0,0-2.35-.818,7.662,7.662,0,0,0-2.533.007,6.771,6.771,0,0,0-2.257.789"/><path class="h" d="M161.159,119.249l-1.449.837,3.863,2.244c.621.362.944.727.955,1.1s-.246.722-.783,1.032a3.342,3.342,0,0,1-1.784.449,3.861,3.861,0,0,1-1.893-.56l-3.863-2.245-1.431.826,4.079,2.37a5.818,5.818,0,0,0,1.982.723,6,6,0,0,0,2.036-.008,5.643,5.643,0,0,0,1.811-.656,2.7,2.7,0,0,0,.928-.822,1.158,1.158,0,0,0,.215-.9l.818.476,1.449-.837-6.933-4.029"/><path class="h" d="M167.359,115.537a2.261,2.261,0,0,0-.947.892,1.1,1.1,0,0,0-.018.966l-1.008-.586-1.443.833,6.933,4.029,1.443-.833-3.647-2.12q-1.057-.614-1.044-1.117c0-.332.283-.663.852-.992l.364-.21-1.485-.862"/><path class="h" d="M177.528,112.363l-2.855-1.659,1.6-.921a2.875,2.875,0,0,1,3.068-.111c.457.266.672.546.651.844s-.315.608-.864.925l-1.6.922M175.1,109.1l-3.039,1.755,8.741,5.08,1.443-.833-3.546-2.061,1.6-.922a3.558,3.558,0,0,0,1.414-1.249,1.17,1.17,0,0,0,.057-1.143,2.388,2.388,0,0,0-.949-.914,4.727,4.727,0,0,0-1.664-.568,5.989,5.989,0,0,0-1.993.063,6.718,6.718,0,0,0-2.06.792"/><path class="h" d="M191.212,108.622a3.684,3.684,0,0,1-1.313.427,5.018,5.018,0,0,1-1.61-.026,4.631,4.631,0,0,1-1.556-.556,2.229,2.229,0,0,1-.943-.9,1.017,1.017,0,0,1-.014-.91,1.835,1.835,0,0,1,.767-.753,3.753,3.753,0,0,1,1.314-.442,5.175,5.175,0,0,1,1.584.019,4.5,4.5,0,0,1,1.55.553,2.288,2.288,0,0,1,.95.9,1.029,1.029,0,0,1,.033.922,1.775,1.775,0,0,1-.762.763m-6.218-3.266a2.767,2.767,0,0,0-1.216,1.223,1.587,1.587,0,0,0,.055,1.416,3.547,3.547,0,0,0,1.418,1.327,7.056,7.056,0,0,0,2.3.833,8,8,0,0,0,2.475.063,5.739,5.739,0,0,0,2.1-.686,2.9,2.9,0,0,0,1.119-1.021,1.5,1.5,0,0,0,.184-1.054l1.028.6,1.456-.841-6.934-4.029-1.455.841,1.008.586a7.227,7.227,0,0,0-1.782.1,5.378,5.378,0,0,0-1.76.642"/><path class="h" d="M194.59,99.815a3.118,3.118,0,0,0-1.325,1.279,1.532,1.532,0,0,0,.037,1.427,3.621,3.621,0,0,0,1.45,1.345,7.037,7.037,0,0,0,2.311.841,7.574,7.574,0,0,0,2.476.033,6.261,6.261,0,0,0,2.212-.763,2.8,2.8,0,0,0,1.46-1.563,1.7,1.7,0,0,0-.544-1.633l-1.558.9c.461.579.274,1.114-.563,1.6a3.613,3.613,0,0,1-2.039.449,5.06,5.06,0,0,1-2.274-.715c-.749-.435-1.16-.873-1.221-1.316s.2-.837.789-1.176a3.373,3.373,0,0,1,1.339-.442,3.907,3.907,0,0,1,1.413.118l1.557-.9a6.705,6.705,0,0,0-2.817-.342,6.54,6.54,0,0,0-2.7.862"/><polyline class="h" points="199.317 94.463 197.874 95.296 207.185 100.707 208.628 99.874 205.647 98.142 211.214 98.381 213.168 97.253 206.493 97.102 206.235 93.224 204.23 94.382 204.727 97.607 199.317 94.463"/><path class="h" d="M217.076,93.689a3.725,3.725,0,0,1-1.319.431,5.262,5.262,0,0,1-1.61-.026,4.613,4.613,0,0,1-1.55-.56,2.247,2.247,0,0,1-.95-.892,1.066,1.066,0,0,1-.014-.911,1.881,1.881,0,0,1,.775-.755,3.76,3.76,0,0,1,1.313-.443,5.213,5.213,0,0,1,1.585.019,4.481,4.481,0,0,1,1.543.557,2.3,2.3,0,0,1,.956.9,1.029,1.029,0,0,1,.033.922,1.782,1.782,0,0,1-.762.763m-6.218-3.266a2.74,2.74,0,0,0-1.216,1.224,1.588,1.588,0,0,0,.056,1.415,3.533,3.533,0,0,0,1.418,1.327,7.02,7.02,0,0,0,2.3.833,8,8,0,0,0,2.475.063,5.733,5.733,0,0,0,2.1-.686,2.882,2.882,0,0,0,1.119-1.021,1.447,1.447,0,0,0,.178-1.05l1.028.6,1.462-.844-6.933-4.029-1.462.844,1.008.586a7.043,7.043,0,0,0-1.776.1,5.419,5.419,0,0,0-1.76.642"/><path class="h" d="M226.551,88.219a3.743,3.743,0,0,1-1.32.431,5.047,5.047,0,0,1-1.61-.026,4.616,4.616,0,0,1-1.549-.56,2.247,2.247,0,0,1-.95-.892,1.045,1.045,0,0,1-.014-.911,1.883,1.883,0,0,1,.775-.756,3.791,3.791,0,0,1,1.313-.442,5.181,5.181,0,0,1,1.585.019,4.5,4.5,0,0,1,1.543.556,2.31,2.31,0,0,1,.956.9,1.029,1.029,0,0,1,.033.922,1.811,1.811,0,0,1-.762.763m-6.225-3.263a2.779,2.779,0,0,0-1.216,1.224,1.606,1.606,0,0,0,.062,1.412,3.478,3.478,0,0,0,1.419,1.327,6.9,6.9,0,0,0,2.3.833,8,8,0,0,0,2.475.063,5.858,5.858,0,0,0,2.123-.7,2.751,2.751,0,0,0,1.1-1.017,1.472,1.472,0,0,0,.165-1.051l1.155.671c.672.391,1.007.792,1,1.2s-.3.785-.884,1.12a4.4,4.4,0,0,1-1.62.553,3.631,3.631,0,0,1-1.577-.1l-1.43.826a5.433,5.433,0,0,0,2.861.427,7.455,7.455,0,0,0,3.015-.977,3.324,3.324,0,0,0,1.4-1.3,1.431,1.431,0,0,0,0-1.361,3.236,3.236,0,0,0-1.3-1.224l-7.047-4.095-1.456.841,1.009.586a6.721,6.721,0,0,0-1.776.1,5.515,5.515,0,0,0-1.767.645"/><path class="h" d="M230.976,82.24a1.269,1.269,0,0,1-.643-1.114,1.4,1.4,0,0,1,.808-1.01A3.985,3.985,0,0,1,233,79.6a3.428,3.428,0,0,1,1.85.409l-3.869,2.234m-.983-2.865a3.324,3.324,0,0,0-1.376,1.309,1.508,1.508,0,0,0,.024,1.434,3.542,3.542,0,0,0,1.443,1.349,6.854,6.854,0,0,0,2.331.829,7.694,7.694,0,0,0,2.5.019,6.465,6.465,0,0,0,2.238-.778A2.772,2.772,0,0,0,238.6,82a1.654,1.654,0,0,0-.417-1.574l-1.558.9q.492.84-.677,1.515a3.9,3.9,0,0,1-1.874.494,3.969,3.969,0,0,1-1.951-.417l5.331-3.078a5.655,5.655,0,0,0-.653-.439,6.549,6.549,0,0,0-2.216-.785,7.405,7.405,0,0,0-2.4,0,6.459,6.459,0,0,0-2.193.766"/></g></g><g class="f"><g class="k"><polyline class="h" points="194.328 158.142 192.783 159.034 196.563 164.796 186.616 162.595 185.058 163.494 193.805 168.578 195.248 167.745 189.26 164.265 197.949 166.185 198.945 165.61 195.645 160.579 201.633 164.058 203.075 163.225 194.328 158.142"/><path class="h" d="M207.756,159.207a3.916,3.916,0,0,1-2.064.487,4.723,4.723,0,0,1-2.307-.675,2.5,2.5,0,0,1-.994-.9.933.933,0,0,1-.033-.892,1.824,1.824,0,0,1,.774-.748,3.774,3.774,0,0,1,1.295-.446,4.722,4.722,0,0,1,1.559.011,4.538,4.538,0,0,1,1.569.571,2.291,2.291,0,0,1,.981.926,1.014,1.014,0,0,1,0,.917,1.882,1.882,0,0,1-.781.752m-5.854-3.468a3.27,3.27,0,0,0-1.363,1.3,1.581,1.581,0,0,0-.027,1.471,3.293,3.293,0,0,0,1.405,1.356,6.853,6.853,0,0,0,2.337.833,7.769,7.769,0,0,0,2.514,0,6.5,6.5,0,0,0,2.238-.77,3.38,3.38,0,0,0,1.376-1.316,1.633,1.633,0,0,0,.053-1.493,3.22,3.22,0,0,0-1.4-1.368,6.8,6.8,0,0,0-2.337-.818,7.7,7.7,0,0,0-2.54.011,6.6,6.6,0,0,0-2.257.789"/><path class="h" d="M210.2,150.947a3.409,3.409,0,0,0-1.144.969,1.112,1.112,0,0,0-.222.966,1.325,1.325,0,0,0,.683.781,3.1,3.1,0,0,0,1.455.424,5.07,5.07,0,0,0,1.47-.136c.466-.107,1.027-.277,1.7-.494a14.63,14.63,0,0,1,1.6-.446,1.384,1.384,0,0,1,.954.125.436.436,0,0,1,.258.542,1.466,1.466,0,0,1-.711.675,2.916,2.916,0,0,1-1.262.39,2.255,2.255,0,0,1-1.163-.18l-1.494.862a3.927,3.927,0,0,0,1.544.424,6.36,6.36,0,0,0,3.612-.807,3.4,3.4,0,0,0,1.145-.969,1.128,1.128,0,0,0,.2-.963,1.458,1.458,0,0,0-.728-.8,3.088,3.088,0,0,0-1.435-.413,5.519,5.519,0,0,0-1.452.132c-.465.107-1.02.266-1.664.483-.484.155-.861.269-1.128.343a3.522,3.522,0,0,1-.79.111,1.284,1.284,0,0,1-.667-.151c-.235-.137-.323-.306-.265-.509a1.365,1.365,0,0,1,.666-.627,2.7,2.7,0,0,1,1.2-.376,2.219,2.219,0,0,1,1.119.214l1.443-.833a4.534,4.534,0,0,0-2.409-.5,5.625,5.625,0,0,0-2.512.76"/><path class="h" d="M215.506,146.018l-1.456.841,1.725,1-.823.476,1.167.678.823-.475,3.844,2.233a3.679,3.679,0,0,0,1.989.557,4.212,4.212,0,0,0,1.944-.6l1.143-.66-1.192-.693-.888.513a1.686,1.686,0,0,1-.8.261,1.452,1.452,0,0,1-.743-.217L218.4,147.7l1.7-.98-1.167-.679-1.7.981-1.725-1"/><polyline class="h" points="224.955 140.459 223.512 141.292 232.26 146.376 236.678 143.825 235.523 143.154 232.548 144.872 224.955 140.459"/><path class="h" d="M240.657,140.212a3.9,3.9,0,0,1-2.059.483,4.708,4.708,0,0,1-2.306-.674,2.514,2.514,0,0,1-1-.9.949.949,0,0,1-.027-.9,1.807,1.807,0,0,1,.768-.745,3.8,3.8,0,0,1,1.3-.45,4.833,4.833,0,0,1,1.559.011,4.648,4.648,0,0,1,1.569.572,2.289,2.289,0,0,1,.981.925,1.013,1.013,0,0,1,0,.918,1.918,1.918,0,0,1-.787.755m-5.848-3.472a3.317,3.317,0,0,0-1.37,1.3,1.6,1.6,0,0,0-.021,1.467,3.292,3.292,0,0,0,1.406,1.357,6.867,6.867,0,0,0,2.337.833,7.685,7.685,0,0,0,2.514,0,6.464,6.464,0,0,0,2.231-.766,3.394,3.394,0,0,0,1.382-1.32,1.6,1.6,0,0,0,.047-1.489,3.2,3.2,0,0,0-1.393-1.372,6.705,6.705,0,0,0-2.343-.814,7.77,7.77,0,0,0-2.533.007,6.63,6.63,0,0,0-2.257.789"/><path class="h" d="M243.626,131.649a3.075,3.075,0,0,0-1.331,1.283,1.507,1.507,0,0,0,.043,1.423,3.523,3.523,0,0,0,1.437,1.346,6.95,6.95,0,0,0,2.324.84,7.386,7.386,0,0,0,2.463.033,6.308,6.308,0,0,0,2.225-.763,2.782,2.782,0,0,0,1.454-1.559,1.718,1.718,0,0,0-.538-1.637l-1.558.9c.455.582.267,1.109-.569,1.592a3.6,3.6,0,0,1-2.039.45,5.045,5.045,0,0,1-2.281-.712c-.742-.431-1.147-.873-1.208-1.316s.2-.833.789-1.176a3.34,3.34,0,0,1,1.333-.438,3.932,3.932,0,0,1,1.418.114l1.558-.9a6.8,6.8,0,0,0-2.83-.343,6.576,6.576,0,0,0-2.69.862"/><path class="h" d="M258.2,130.083a3.711,3.711,0,0,1-1.314.435,5.047,5.047,0,0,1-1.61-.026,4.626,4.626,0,0,1-1.556-.557,2.227,2.227,0,0,1-.943-.9,1.022,1.022,0,0,1-.014-.911,1.861,1.861,0,0,1,.774-.756,3.731,3.731,0,0,1,1.307-.438,5,5,0,0,1,1.585.018,4.519,4.519,0,0,1,1.543.549,2.3,2.3,0,0,1,.956.9,1,1,0,0,1,.033.921,1.772,1.772,0,0,1-.761.756m-6.219-3.259a2.779,2.779,0,0,0-1.216,1.224,1.525,1.525,0,0,0,.062,1.412,3.46,3.46,0,0,0,1.412,1.331,6.971,6.971,0,0,0,2.3.829,7.714,7.714,0,0,0,2.463.063,5.664,5.664,0,0,0,2.11-.682,2.79,2.79,0,0,0,1.113-1.025,1.4,1.4,0,0,0,.184-1.054l1.034.6,1.456-.841-6.933-4.029-1.456.84,1.009.587a6.724,6.724,0,0,0-1.783.1,5.353,5.353,0,0,0-1.76.641"/><path class="h" d="M258.717,121.07l-1.456.841,1.726,1-.824.476,1.167.678.824-.476L264,125.825a3.64,3.64,0,0,0,2,.553,4.212,4.212,0,0,0,1.944-.6l1.137-.656-1.193-.693-.887.513a1.693,1.693,0,0,1-.8.261,1.453,1.453,0,0,1-.744-.217l-3.844-2.234,1.7-.981-1.167-.678-1.7.981-1.725-1"/><path class="h" d="M265.8,118.98l-1.443.833,6.933,4.029,1.443-.833L265.8,118.98m-3.462-1.191c-.261.151-.4.325-.4.531a.65.65,0,0,0,.391.531,1.955,1.955,0,0,0,1.84,0,.658.658,0,0,0,.391-.527.667.667,0,0,0-.4-.535,1.831,1.831,0,0,0-.915-.229,1.789,1.789,0,0,0-.912.225"/><path class="h" d="M277.413,118.991a3.893,3.893,0,0,1-2.058.483,4.723,4.723,0,0,1-2.307-.675,2.519,2.519,0,0,1-1-.9.947.947,0,0,1-.033-.892,1.848,1.848,0,0,1,.774-.748,3.843,3.843,0,0,1,1.3-.45,4.8,4.8,0,0,1,1.559.011,4.649,4.649,0,0,1,1.562.575,2.364,2.364,0,0,1,.988.922,1.014,1.014,0,0,1,0,.917,1.92,1.92,0,0,1-.787.756m-5.848-3.472a3.3,3.3,0,0,0-1.369,1.3,1.59,1.59,0,0,0-.021,1.467,3.293,3.293,0,0,0,1.4,1.356,6.726,6.726,0,0,0,2.337.833,7.733,7.733,0,0,0,2.508.008,6.555,6.555,0,0,0,2.238-.771,3.418,3.418,0,0,0,1.382-1.319,1.621,1.621,0,0,0,.046-1.49,3.215,3.215,0,0,0-1.4-1.367,6.706,6.706,0,0,0-2.338-.819,7.8,7.8,0,0,0-2.533.008,6.656,6.656,0,0,0-2.257.789"/><path class="h" d="M280.963,110.093a2.8,2.8,0,0,0-.933.818,1.228,1.228,0,0,0-.235.907l-.793-.461-1.449.837,6.933,4.029,1.45-.837-3.876-2.252c-.622-.362-.944-.726-.955-1.1s.252-.719.789-1.029a3.375,3.375,0,0,1,1.778-.453,3.867,3.867,0,0,1,1.893.56l3.876,2.252,1.43-.825-4.091-2.378a5.922,5.922,0,0,0-1.976-.726,5.821,5.821,0,0,0-2.023.007,5.549,5.549,0,0,0-1.818.653"/><path class="h" d="M288.97,105.47a3.464,3.464,0,0,0-1.151.973,1.123,1.123,0,0,0-.216.962,1.332,1.332,0,0,0,.683.782,3.142,3.142,0,0,0,1.449.427,5.251,5.251,0,0,0,1.471-.136c.471-.11,1.032-.28,1.7-.5a14.4,14.4,0,0,1,1.594-.442,1.373,1.373,0,0,1,.96.122.442.442,0,0,1,.258.542,1.474,1.474,0,0,1-.716.678,2.921,2.921,0,0,1-1.256.387,2.216,2.216,0,0,1-1.164-.181l-1.494.863a3.954,3.954,0,0,0,1.544.424,6,6,0,0,0,1.834-.126,6.1,6.1,0,0,0,1.773-.678,3.407,3.407,0,0,0,1.151-.973,1.113,1.113,0,0,0,.2-.958,1.419,1.419,0,0,0-.721-.8,3.125,3.125,0,0,0-1.442-.409,5.519,5.519,0,0,0-1.452.133,16.652,16.652,0,0,0-1.657.479q-.728.232-1.129.343a3.511,3.511,0,0,1-.789.11,1.268,1.268,0,0,1-.668-.151q-.352-.2-.264-.509c.058-.195.282-.405.665-.626a2.687,2.687,0,0,1,1.192-.373,2.207,2.207,0,0,1,1.125.21l1.443-.833a4.543,4.543,0,0,0-2.409-.5,5.62,5.62,0,0,0-2.511.759"/><polyline class="h" points="197.25 176.053 195.833 176.872 199.934 180.927 192.973 178.523 191.459 179.397 195.547 183.488 188.522 181.092 187.054 181.94 196.164 184.712 197.684 183.835 193.969 180.042 200.499 182.209 202.019 181.332 197.25 176.053"/><path class="h" d="M200.66,174.085l-1.443.833,6.933,4.029,1.443-.833-6.933-4.029m-3.468-1.194a.559.559,0,0,0-.006,1.069,1.98,1.98,0,0,0,1.845,0,.63.63,0,0,0,.379-.528c0-.206-.132-.379-.392-.53a1.742,1.742,0,0,0-.915-.229,1.8,1.8,0,0,0-.911.218"/><path class="h" d="M203.4,170.5l-1.456.84,1.725,1-.823.476,1.167.678.823-.476,3.838,2.23a3.658,3.658,0,0,0,1.989.557,4.16,4.16,0,0,0,1.95-.6l1.143-.66-1.2-.7-.887.513a1.707,1.707,0,0,1-.8.262,1.387,1.387,0,0,1-.743-.218l-3.838-2.23,1.7-.981-1.167-.678-1.7.981-1.725-1"/><path class="h" d="M208.107,167.03l-1.443.833,9.312,5.411,1.443-.833-3.876-2.252c-.622-.362-.938-.73-.961-1.106s.252-.719.8-1.032a3.365,3.365,0,0,1,1.772-.45,3.935,3.935,0,0,1,1.906.56l3.875,2.253,1.43-.826-4.091-2.378a5.979,5.979,0,0,0-3.973-.741,5.3,5.3,0,0,0-1.76.627,3.058,3.058,0,0,0-1,.848,1.252,1.252,0,0,0-.253.932l-3.178-1.846"/><path class="h" d="M219.59,163.155l-1.443.833,6.933,4.03,1.443-.834-6.933-4.029m-3.468-1.194a.638.638,0,0,0-.391.535c-.008.2.125.383.385.534a2.006,2.006,0,0,0,1.846,0,.613.613,0,0,0,.378-.527.632.632,0,0,0-.385-.535,2.015,2.015,0,0,0-1.833-.007"/><path class="h" d="M225.784,159.447a2.8,2.8,0,0,0-.934.811,1.255,1.255,0,0,0-.24.911l-.787-.458-1.443.833,6.933,4.03,1.443-.834-3.875-2.252c-.622-.361-.938-.73-.961-1.106s.252-.718.794-1.032a3.376,3.376,0,0,1,1.772-.45,3.919,3.919,0,0,1,1.9.564l3.875,2.253,1.437-.83-4.091-2.377a5.928,5.928,0,0,0-1.982-.723,5.863,5.863,0,0,0-2.03,0,5.667,5.667,0,0,0-1.811.656"/><path class="h" d="M237.972,152.41a3.585,3.585,0,0,0-1.157.97,1.118,1.118,0,0,0-.215.962,1.352,1.352,0,0,0,.683.781,3.13,3.13,0,0,0,1.461.428,5.282,5.282,0,0,0,1.464-.133c.465-.114,1.033-.28,1.7-.5a14.217,14.217,0,0,1,1.6-.439,1.357,1.357,0,0,1,.954.118.437.437,0,0,1,.257.542c-.064.221-.3.446-.71.682a2.937,2.937,0,0,1-1.262.383,2.2,2.2,0,0,1-1.164-.18l-1.494.862a4.025,4.025,0,0,0,1.551.428,6.163,6.163,0,0,0,1.833-.125,6.093,6.093,0,0,0,1.767-.682,3.424,3.424,0,0,0,1.157-.97,1.113,1.113,0,0,0,.2-.958,1.44,1.44,0,0,0-.728-.808,3.174,3.174,0,0,0-1.442-.409,5.656,5.656,0,0,0-1.445.129c-.466.107-1.02.273-1.658.487-.484.155-.867.265-1.134.339a3.214,3.214,0,0,1-.79.11,1.239,1.239,0,0,1-.667-.151c-.235-.136-.323-.306-.259-.5s.276-.409.659-.63a2.712,2.712,0,0,1,1.2-.369,2.2,2.2,0,0,1,1.125.211l1.443-.834a4.517,4.517,0,0,0-2.409-.5,5.564,5.564,0,0,0-2.512.759"/><path class="h" d="M242.38,147.242l-1.443.833,9.312,5.412,1.443-.834-3.876-2.252c-.622-.361-.938-.73-.961-1.106s.252-.718.8-1.032a3.373,3.373,0,0,1,1.771-.45,3.933,3.933,0,0,1,1.906.561l3.876,2.252,1.43-.826-4.091-2.377a5.979,5.979,0,0,0-3.973-.741,5.3,5.3,0,0,0-1.76.626,3.07,3.07,0,0,0-1,.848,1.254,1.254,0,0,0-.253.933l-3.178-1.847"/><path class="h" d="M261.244,145.823a3.9,3.9,0,0,1-2.058.483,4.723,4.723,0,0,1-2.307-.675,2.527,2.527,0,0,1-1-.9.947.947,0,0,1-.033-.892,1.843,1.843,0,0,1,.768-.752,3.834,3.834,0,0,1,1.307-.446,4.7,4.7,0,0,1,1.559.011,4.649,4.649,0,0,1,1.562.575,2.284,2.284,0,0,1,.982.918.98.98,0,0,1,0,.918,1.913,1.913,0,0,1-.781.759m-5.848-3.472a3.384,3.384,0,0,0-1.375,1.3,1.608,1.608,0,0,0-.021,1.467,3.307,3.307,0,0,0,1.411,1.36,6.924,6.924,0,0,0,2.337.833,7.769,7.769,0,0,0,2.514,0,6.438,6.438,0,0,0,2.225-.771,3.421,3.421,0,0,0,1.389-1.315,1.621,1.621,0,0,0,.046-1.49,3.215,3.215,0,0,0-1.392-1.371,6.747,6.747,0,0,0-2.35-.818,7.883,7.883,0,0,0-2.533.007,6.72,6.72,0,0,0-2.251.793"/><path class="h" d="M264.807,136.917a2.27,2.27,0,0,0-.953.888,1.113,1.113,0,0,0-.018.966l-1-.582-1.443.833,6.934,4.029,1.443-.833-3.654-2.123c-.7-.41-1.052-.782-1.05-1.114s.3-.663.864-.991l.364-.21-1.484-.863"/><path class="h" d="M267.1,133.729l-1.456.84,1.726,1-.824.475,1.167.678.824-.475,3.837,2.23a3.658,3.658,0,0,0,1.989.557,4.164,4.164,0,0,0,1.951-.6l1.143-.66-1.2-.7-.888.512a1.689,1.689,0,0,1-.8.262,1.429,1.429,0,0,1-.743-.217l-3.838-2.231,1.7-.98-1.167-.678-1.7.98-1.725-1"/><path class="h" d="M286.272,131.373a3.814,3.814,0,0,1-1.314.435,5.05,5.05,0,0,1-1.6-.018,4.519,4.519,0,0,1-1.543-.557,2.259,2.259,0,0,1-.95-.892,1.05,1.05,0,0,1-.02-.922,1.8,1.8,0,0,1,.755-.759,3.826,3.826,0,0,1,1.32-.446,4.834,4.834,0,0,1,1.578.007,4.428,4.428,0,0,1,1.531.55,2.323,2.323,0,0,1,.962.9,1.014,1.014,0,0,1,.04.933,1.769,1.769,0,0,1-.762.77m-5.593-3.62a2.831,2.831,0,0,0-1.106,1.014,1.462,1.462,0,0,0-.2,1.047l-1.015-.59-1.443.833L287.143,136l1.443-.833-4.3-2.5a7.673,7.673,0,0,0,1.815-.122,5.251,5.251,0,0,0,1.734-.634,2.707,2.707,0,0,0,1.21-1.227,1.6,1.6,0,0,0-.1-1.427,3.665,3.665,0,0,0-1.437-1.338,6.958,6.958,0,0,0-2.286-.826,7.73,7.73,0,0,0-2.431-.044,5.9,5.9,0,0,0-2.111.7"/><path class="h" d="M290.256,125.648a1.286,1.286,0,0,1-.649-1.109,1.423,1.423,0,0,1,.814-1.014,4,4,0,0,1,1.855-.52,3.421,3.421,0,0,1,1.843.413l-3.863,2.23m-.977-2.86a3.328,3.328,0,0,0-1.381,1.305,1.489,1.489,0,0,0,.023,1.434,3.578,3.578,0,0,0,1.444,1.349,6.916,6.916,0,0,0,2.337.833,7.648,7.648,0,0,0,2.494.015,6.478,6.478,0,0,0,2.239-.778,2.782,2.782,0,0,0,1.446-1.541,1.639,1.639,0,0,0-.417-1.574l-1.558.9q.483.846-.677,1.515a3.911,3.911,0,0,1-1.873.5,4.1,4.1,0,0,1-1.958-.42l5.331-3.078a4.689,4.689,0,0,0-.653-.439,6.425,6.425,0,0,0-2.2-.785,7.286,7.286,0,0,0-2.412,0,6.357,6.357,0,0,0-2.181.767"/><path class="h" d="M298.512,117.458a2.282,2.282,0,0,0-.96.892,1.12,1.12,0,0,0-.018.966l-1-.583-1.443.833,6.933,4.029,1.443-.833-3.654-2.123q-1.056-.613-1.044-1.117c.009-.335.3-.663.859-.988l.37-.214-1.484-.862"/><path class="h" d="M302.284,115.412l-1.443.833,6.933,4.029,1.443-.833-6.933-4.029m-3.468-1.194a.64.64,0,0,0-.391.534c-.007.2.125.383.385.535a2.014,2.014,0,0,0,1.846,0,.622.622,0,0,0,.378-.528.63.63,0,0,0-.385-.534,2.007,2.007,0,0,0-1.833-.007"/><path class="h" d="M313.9,115.423a3.925,3.925,0,0,1-2.064.487,4.723,4.723,0,0,1-2.307-.675,2.5,2.5,0,0,1-.994-.9.915.915,0,0,1-.033-.892,1.788,1.788,0,0,1,.762-.748,3.815,3.815,0,0,1,1.307-.447,4.618,4.618,0,0,1,1.559.012,4.546,4.546,0,0,1,1.569.571,2.26,2.26,0,0,1,.974.921.978.978,0,0,1,0,.918,1.877,1.877,0,0,1-.775.756m-5.854-3.469a3.353,3.353,0,0,0-1.369,1.3,1.6,1.6,0,0,0-.028,1.471,3.321,3.321,0,0,0,1.412,1.36,6.924,6.924,0,0,0,2.337.833,7.912,7.912,0,0,0,2.514,0,6.467,6.467,0,0,0,2.232-.774,3.4,3.4,0,0,0,1.382-1.313,1.652,1.652,0,0,0,.053-1.493,3.235,3.235,0,0,0-1.4-1.367,6.847,6.847,0,0,0-2.344-.822,7.807,7.807,0,0,0-2.539.011,6.733,6.733,0,0,0-2.251.792"/><path class="h" d="M322.952,110.2a3.723,3.723,0,0,1-1.32.431,4.936,4.936,0,0,1-1.61-.026,4.561,4.561,0,0,1-1.55-.56,2.236,2.236,0,0,1-.943-.888,1,1,0,0,1-.014-.911,1.815,1.815,0,0,1,.768-.759,3.816,3.816,0,0,1,1.32-.439,5,5,0,0,1,1.585.019,4.438,4.438,0,0,1,1.536.553,2.3,2.3,0,0,1,.956.895,1,1,0,0,1,.033.922,1.8,1.8,0,0,1-.761.763m-4.608-6.812-1.455.84,3.343,1.943a6.624,6.624,0,0,0-1.84.151,5.806,5.806,0,0,0-1.646.612,2.769,2.769,0,0,0-1.228,1.224,1.585,1.585,0,0,0,.055,1.415,3.468,3.468,0,0,0,1.418,1.327,6.966,6.966,0,0,0,2.306.837,7.838,7.838,0,0,0,2.475.055,5.756,5.756,0,0,0,2.117-.693,2.876,2.876,0,0,0,1.119-1.021,1.356,1.356,0,0,0,.146-1.047l1.047.609,1.455-.841-9.312-5.411"/></g></g><g class="f"><g class="l"><path class="h" d="M255.093,212.724l-2.727-1.585,1.9-1.1a3.368,3.368,0,0,1,1.549-.46,2.616,2.616,0,0,1,1.468.335c.419.243.608.516.562.815s-.315.586-.8.866l-1.954,1.128m-3.9-2.267-2.5-1.453,1.788-1.032a3.188,3.188,0,0,1,1.44-.449,2.375,2.375,0,0,1,1.322.309c.4.232.577.491.531.767s-.322.553-.794.826l-1.788,1.032m-1.757-3.24-3.358,1.939,8.747,5.083,3.524-2.035a3.376,3.376,0,0,0,1.222-1.065,1.159,1.159,0,0,0,.158-1.069,1.766,1.766,0,0,0-.847-.9,4.325,4.325,0,0,0-1.887-.527,4.4,4.4,0,0,0-1.949.266,1.289,1.289,0,0,0,.349-1.062,1.566,1.566,0,0,0-.86-.966,3.846,3.846,0,0,0-1.461-.472,5.507,5.507,0,0,0-1.789.093,6.164,6.164,0,0,0-1.849.715"/><path class="h" d="M260.622,206.151a1.254,1.254,0,0,1-.636-1.109,1.371,1.371,0,0,1,.8-1.014,4.023,4.023,0,0,1,1.861-.516,3.373,3.373,0,0,1,1.837.409l-3.863,2.23m-.976-2.86a3.325,3.325,0,0,0-1.382,1.305,1.531,1.531,0,0,0,.03,1.437,3.523,3.523,0,0,0,1.437,1.346,6.874,6.874,0,0,0,2.337.833,7.767,7.767,0,0,0,2.5.015,6.492,6.492,0,0,0,2.244-.774,2.775,2.775,0,0,0,1.447-1.541,1.666,1.666,0,0,0-.418-1.574l-1.557.9c.315.561.1,1.062-.684,1.512a3.857,3.857,0,0,1-1.867.5,4.056,4.056,0,0,1-1.958-.413l5.338-3.081a5.614,5.614,0,0,0-.653-.439,6.5,6.5,0,0,0-2.217-.785,7.408,7.408,0,0,0-2.4-.008,6.551,6.551,0,0,0-2.187.771"/><path class="h" d="M267.76,198.606a3.445,3.445,0,0,0-1.144.969,1.081,1.081,0,0,0-.216.962,1.323,1.323,0,0,0,.677.778,3.147,3.147,0,0,0,1.455.431A5.247,5.247,0,0,0,270,201.61q.7-.171,1.7-.5a13.378,13.378,0,0,1,1.593-.442,1.357,1.357,0,0,1,.954.118.446.446,0,0,1,.264.546,1.474,1.474,0,0,1-.716.678,2.892,2.892,0,0,1-1.256.387,2.218,2.218,0,0,1-1.164-.181l-1.494.863a3.954,3.954,0,0,0,1.544.424,6,6,0,0,0,1.834-.126,6.092,6.092,0,0,0,1.773-.678,3.344,3.344,0,0,0,1.144-.969,1.106,1.106,0,0,0,.2-.962,1.428,1.428,0,0,0-.727-.808,3.124,3.124,0,0,0-1.436-.405,5.333,5.333,0,0,0-1.452.133,17.214,17.214,0,0,0-1.657.479c-.485.155-.861.269-1.135.339a3.207,3.207,0,0,1-.783.114,1.267,1.267,0,0,1-.674-.155c-.235-.136-.316-.3-.258-.505s.276-.409.659-.63a2.691,2.691,0,0,1,1.2-.369,2.213,2.213,0,0,1,1.126.21l1.443-.833a4.545,4.545,0,0,0-2.409-.5,5.574,5.574,0,0,0-2.519.763"/><path class="h" d="M273.07,193.674l-1.462.844,1.726,1-.824.476,1.167.678.824-.475,3.837,2.23a3.682,3.682,0,0,0,2,.553,4.16,4.16,0,0,0,1.951-.6l1.137-.657-1.2-.7-.881.508a1.693,1.693,0,0,1-.8.27,1.454,1.454,0,0,1-.744-.225l-3.837-2.23,1.692-.977-1.167-.679-1.692.977-1.726-1"/><polyline class="h" points="285.923 186.135 281.058 188.944 289.818 194.035 294.683 191.226 293.51 190.544 290.088 192.52 287.411 190.964 290.45 189.21 289.276 188.528 286.237 190.282 283.675 188.793 287.097 186.817 285.923 186.135"/><polyline class="h" points="295.654 182.633 294.148 183.503 295.077 185.693 291.217 185.195 289.589 186.135 295.363 186.88 296.522 190.164 298.029 189.294 297.093 187.109 300.953 187.606 302.587 186.663 296.819 185.922 295.654 182.633"/><path class="h" d="M306.975,182.814a3.783,3.783,0,0,1-1.307.439,4.938,4.938,0,0,1-1.6-.019,4.567,4.567,0,0,1-1.556-.556,2.266,2.266,0,0,1-.943-.9,1.006,1.006,0,0,1-.02-.922,1.8,1.8,0,0,1,.755-.759,3.906,3.906,0,0,1,1.314-.442,4.834,4.834,0,0,1,1.578.007,4.451,4.451,0,0,1,1.537.546,2.341,2.341,0,0,1,.962.907,1.026,1.026,0,0,1,.039.932,1.8,1.8,0,0,1-.761.763m-5.6-3.616a2.774,2.774,0,0,0-1.1,1.017,1.491,1.491,0,0,0-.2,1.044l-1.015-.59-1.443.833,10.232,5.946,1.443-.833-4.307-2.5a7.714,7.714,0,0,0,1.814-.122,5.356,5.356,0,0,0,1.741-.63,2.646,2.646,0,0,0,1.2-1.231,1.57,1.57,0,0,0-.093-1.431,3.677,3.677,0,0,0-1.444-1.334,6.857,6.857,0,0,0-2.273-.826,7.578,7.578,0,0,0-2.444-.044,5.891,5.891,0,0,0-2.11.7"/><path class="h" d="M310.959,177.089a1.238,1.238,0,0,1-.643-1.1,1.369,1.369,0,0,1,.8-1.014,4.011,4.011,0,0,1,1.861-.516,3.4,3.4,0,0,1,1.844.405l-3.863,2.23m-.983-2.856a3.293,3.293,0,0,0-1.376,1.3,1.541,1.541,0,0,0,.024,1.441,3.619,3.619,0,0,0,1.443,1.342,6.828,6.828,0,0,0,2.331.837,7.69,7.69,0,0,0,2.5.011,6.436,6.436,0,0,0,2.238-.771,2.8,2.8,0,0,0,1.454-1.544,1.685,1.685,0,0,0-.424-1.57l-1.558.9c.321.557.1,1.062-.683,1.511a3.879,3.879,0,0,1-1.868.5,4.031,4.031,0,0,1-1.951-.417l5.331-3.078a5.533,5.533,0,0,0-.653-.438,6.468,6.468,0,0,0-2.216-.785,7.331,7.331,0,0,0-2.406-.008,6.559,6.559,0,0,0-2.187.771"/><path class="h" d="M319.208,168.9a2.263,2.263,0,0,0-.947.893,1.094,1.094,0,0,0-.018.965l-1.009-.586-1.442.833,6.933,4.029,1.442-.833-3.647-2.119q-1.065-.62-1.044-1.117c0-.332.284-.664.852-.992l.364-.21-1.484-.863"/><path class="h" d="M321.5,165.714l-1.456.84,1.726,1-.824.476,1.167.678.824-.476,3.837,2.23a3.624,3.624,0,0,0,2,.553,4.16,4.16,0,0,0,1.951-.6l1.137-.656-1.2-.7-.888.513a1.688,1.688,0,0,1-.79.265,1.457,1.457,0,0,1-.75-.221l-3.838-2.23,1.7-.981-1.167-.678-1.7.981-1.725-1"/><path class="h" d="M338.522,164.557l-6.4-3.72,1.43-.826a6.192,6.192,0,0,1,3.225-.87,6.419,6.419,0,0,1,3.2.907c1,.583,1.508,1.195,1.51,1.832s-.5,1.254-1.537,1.851l-1.43.826m-6.144-5.228-2.873,1.659,8.747,5.084,2.873-1.659a5.236,5.236,0,0,0,1.944-1.725,1.9,1.9,0,0,0,.132-1.818,4.036,4.036,0,0,0-1.741-1.677,8.353,8.353,0,0,0-2.915-1.028,9.213,9.213,0,0,0-3.163.055,9.351,9.351,0,0,0-3,1.109"/><path class="h" d="M350.007,157.969a3.893,3.893,0,0,1-2.058.483,4.715,4.715,0,0,1-2.306-.674,2.434,2.434,0,0,1-.994-.9.93.93,0,0,1-.034-.892,1.811,1.811,0,0,1,.762-.748,3.822,3.822,0,0,1,1.307-.446,4.722,4.722,0,0,1,1.559.011,4.648,4.648,0,0,1,1.569.572,2.284,2.284,0,0,1,.981.925,1.013,1.013,0,0,1,0,.918,1.9,1.9,0,0,1-.787.755m-5.848-3.472a3.351,3.351,0,0,0-1.369,1.3,1.61,1.61,0,0,0-.021,1.475,3.288,3.288,0,0,0,1.4,1.356,6.853,6.853,0,0,0,2.337.833,7.741,7.741,0,0,0,2.514,0,6.457,6.457,0,0,0,2.232-.767,3.4,3.4,0,0,0,1.382-1.319,1.619,1.619,0,0,0,.046-1.489,3.158,3.158,0,0,0-1.392-1.372,6.7,6.7,0,0,0-2.344-.814,7.809,7.809,0,0,0-2.539,0,6.75,6.75,0,0,0-2.251.793"/><path class="h" d="M352.977,149.406a3.178,3.178,0,0,0-1.338,1.279,1.553,1.553,0,0,0,.05,1.427,3.516,3.516,0,0,0,1.437,1.345,6.922,6.922,0,0,0,2.324.841,7.576,7.576,0,0,0,2.463.033,6.347,6.347,0,0,0,2.225-.763,2.767,2.767,0,0,0,1.453-1.559,1.7,1.7,0,0,0-.538-1.637l-1.558.9c.455.583.268,1.11-.569,1.593a3.6,3.6,0,0,1-2.039.45,5.041,5.041,0,0,1-2.28-.712c-.742-.431-1.147-.873-1.208-1.316s.189-.837.783-1.179a3.406,3.406,0,0,1,1.345-.439,3.923,3.923,0,0,1,1.412.118l1.558-.9a6.819,6.819,0,0,0-2.83-.342,6.479,6.479,0,0,0-2.69.862"/><path class="h" d="M358.6,144.293l-1.456.841,1.726,1-.824.475,1.167.678.824-.475,3.838,2.23a3.67,3.67,0,0,0,1.988.557,4.172,4.172,0,0,0,1.951-.6l1.143-.66-1.2-.7-.887.512a1.706,1.706,0,0,1-.8.269,1.443,1.443,0,0,1-.744-.224l-3.837-2.231,1.7-.98-1.167-.678-1.7.98-1.726-1"/><path class="h" d="M373.062,144.658a3.869,3.869,0,0,1-2.058.483,4.679,4.679,0,0,1-2.313-.671,2.5,2.5,0,0,1-.994-.9.93.93,0,0,1-.033-.892,1.83,1.83,0,0,1,.768-.752,3.8,3.8,0,0,1,1.3-.442,4.616,4.616,0,0,1,1.559.011,4.546,4.546,0,0,1,1.569.571,2.291,2.291,0,0,1,.981.926.993.993,0,0,1,0,.917,1.882,1.882,0,0,1-.781.752m-5.848-3.472a3.378,3.378,0,0,0-1.375,1.3,1.6,1.6,0,0,0-.015,1.471,3.275,3.275,0,0,0,1.4,1.36,6.773,6.773,0,0,0,2.343.83,7.732,7.732,0,0,0,2.508.007,6.535,6.535,0,0,0,2.238-.77,3.38,3.38,0,0,0,1.376-1.316,1.652,1.652,0,0,0,.053-1.493,3.232,3.232,0,0,0-1.4-1.368A6.677,6.677,0,0,0,372,140.39a7.845,7.845,0,0,0-2.545.007,6.7,6.7,0,0,0-2.245.789"/><path class="h" d="M376.625,135.753a2.268,2.268,0,0,0-.953.9,1.093,1.093,0,0,0-.018.966l-1.009-.586-1.443.833,6.933,4.029,1.443-.833-3.647-2.119q-1.065-.619-1.044-1.117c0-.332.284-.664.852-.992l.371-.214-1.485-.862"/><path class="h" d="M290.557,209.79a3.651,3.651,0,0,1-1.314.427,5.171,5.171,0,0,1-1.616-.022,4.621,4.621,0,0,1-1.55-.56,2.23,2.23,0,0,1-.943-.888,1.025,1.025,0,0,1-.014-.911,1.815,1.815,0,0,1,.768-.759,3.669,3.669,0,0,1,1.32-.439,5.042,5.042,0,0,1,1.578.015,4.5,4.5,0,0,1,1.543.556,2.31,2.31,0,0,1,.956.9,1.023,1.023,0,0,1,.033.922,1.785,1.785,0,0,1-.761.763m-6.212-3.263a2.755,2.755,0,0,0-1.223,1.221,1.588,1.588,0,0,0,.056,1.415,3.533,3.533,0,0,0,1.418,1.327,7.028,7.028,0,0,0,2.3.833,7.882,7.882,0,0,0,2.475.063,5.727,5.727,0,0,0,2.1-.686,2.886,2.886,0,0,0,1.12-1.021,1.457,1.457,0,0,0,.178-1.05l1.027.6,1.462-.844-6.933-4.029-1.462.844,1.009.586a7.054,7.054,0,0,0-1.777.1,5.346,5.346,0,0,0-1.753.645"/><path class="h" d="M294.528,200.648a2.844,2.844,0,0,0-.94.815,1.218,1.218,0,0,0-.24.91l-.793-.461-1.443.833,6.933,4.03,1.443-.834-3.876-2.252q-.923-.535-.948-1.106t.788-1.028a3.367,3.367,0,0,1,1.772-.45,3.922,3.922,0,0,1,1.9.557L303,203.914l1.431-.826-4.085-2.374a5.946,5.946,0,0,0-4.006-.722,5.6,5.6,0,0,0-1.811.656"/><path class="h" d="M309.136,199.063a3.7,3.7,0,0,1-1.313.428,5.047,5.047,0,0,1-1.61-.026,4.611,4.611,0,0,1-1.556-.557,2.2,2.2,0,0,1-.937-.892.98.98,0,0,1-.014-.91,1.767,1.767,0,0,1,.761-.756,3.645,3.645,0,0,1,1.32-.439,5.072,5.072,0,0,1,1.578.015,4.523,4.523,0,0,1,1.55.553,2.294,2.294,0,0,1,.95.9,1.029,1.029,0,0,1,.033.922,1.77,1.77,0,0,1-.762.763m-4.607-6.82-1.456.841,3.349,1.946a6.677,6.677,0,0,0-1.846.155,5.756,5.756,0,0,0-1.639.608,2.8,2.8,0,0,0-1.235,1.228,1.588,1.588,0,0,0,.055,1.415,3.533,3.533,0,0,0,1.418,1.327,7.033,7.033,0,0,0,2.3.833,7.764,7.764,0,0,0,2.481.059,5.8,5.8,0,0,0,2.123-.7,2.856,2.856,0,0,0,1.113-1.018,1.368,1.368,0,0,0,.153-1.05l1.04.6,1.456-.84-9.312-5.412"/><path class="h" d="M317.53,190.058l-2.855-1.659,1.6-.922a2.893,2.893,0,0,1,3.068-.11c.456.265.671.545.644.848s-.309.6-.858.921l-1.6.922M315.1,186.8l-3.039,1.755,8.741,5.079,1.443-.833-3.546-2.06,1.6-.922a3.48,3.48,0,0,0,1.414-1.25,1.161,1.161,0,0,0,.051-1.139,2.362,2.362,0,0,0-.943-.917,4.617,4.617,0,0,0-1.671-.564,5.868,5.868,0,0,0-1.986.058,6.765,6.765,0,0,0-2.06.793"/><path class="h" d="M326.171,185.8a1.253,1.253,0,0,1-.65-1.11,1.4,1.4,0,0,1,.808-1.01,4,4,0,0,1,1.855-.52,3.407,3.407,0,0,1,1.849.41l-3.862,2.23m-.984-2.857a3.328,3.328,0,0,0-1.381,1.305,1.527,1.527,0,0,0,.023,1.434,3.565,3.565,0,0,0,1.444,1.349,6.841,6.841,0,0,0,2.33.829,7.694,7.694,0,0,0,2.5.019,6.509,6.509,0,0,0,2.239-.778,2.773,2.773,0,0,0,1.446-1.541,1.639,1.639,0,0,0-.417-1.574l-1.558.9q.492.84-.677,1.515a3.893,3.893,0,0,1-1.873.494,3.985,3.985,0,0,1-1.952-.417l5.331-3.078a5.655,5.655,0,0,0-.653-.439,6.549,6.549,0,0,0-2.216-.785,7.4,7.4,0,0,0-2.4,0,6.409,6.409,0,0,0-2.188.77"/><path class="h" d="M334.42,177.617a2.274,2.274,0,0,0-.954.888,1.12,1.12,0,0,0-.018.966l-1.008-.586-1.443.833,6.933,4.029,1.443-.833-3.648-2.12c-.7-.409-1.052-.781-1.05-1.113s.3-.663.865-.992l.364-.21-1.484-.862"/><path class="h" d="M339.055,174.941a3.464,3.464,0,0,0-1.151.965,1.153,1.153,0,0,0-.222.966,1.4,1.4,0,0,0,.689.778,3.144,3.144,0,0,0,1.449.428,5.368,5.368,0,0,0,1.477-.133c.465-.114,1.026-.277,1.7-.5a14,14,0,0,1,1.6-.439,1.358,1.358,0,0,1,.954.118.437.437,0,0,1,.257.542c-.064.221-.3.446-.71.682a2.981,2.981,0,0,1-1.268.387,2.246,2.246,0,0,1-1.158-.185l-1.494.863a3.977,3.977,0,0,0,1.544.431,6.266,6.266,0,0,0,1.84-.129,6.065,6.065,0,0,0,1.767-.682,3.506,3.506,0,0,0,1.151-.965,1.136,1.136,0,0,0,.2-.963,1.442,1.442,0,0,0-.728-.807,3.237,3.237,0,0,0-1.442-.409,5.562,5.562,0,0,0-1.452.133c-.465.107-1.013.269-1.651.483-.5.154-.873.269-1.134.339a3.214,3.214,0,0,1-.79.11,1.216,1.216,0,0,1-.668-.151c-.234-.136-.322-.306-.264-.5s.282-.413.659-.631a2.66,2.66,0,0,1,1.2-.372,2.187,2.187,0,0,1,1.125.21l1.443-.833a4.569,4.569,0,0,0-2.409-.5,5.554,5.554,0,0,0-2.518.763"/><path class="h" d="M353.229,173.606a3.931,3.931,0,0,1-2.065.487,4.717,4.717,0,0,1-2.306-.675,2.474,2.474,0,0,1-.994-.9.912.912,0,0,1-.034-.892,1.818,1.818,0,0,1,.762-.748,3.8,3.8,0,0,1,1.307-.446,4.617,4.617,0,0,1,1.559.011,4.529,4.529,0,0,1,1.569.571,2.265,2.265,0,0,1,.975.922,1,1,0,0,1,0,.918,1.884,1.884,0,0,1-.774.755m-5.848-3.472a3.374,3.374,0,0,0-1.376,1.3,1.581,1.581,0,0,0-.027,1.471,3.371,3.371,0,0,0,1.411,1.36,6.766,6.766,0,0,0,2.337.826,7.687,7.687,0,0,0,2.514.011,6.467,6.467,0,0,0,2.232-.774,3.388,3.388,0,0,0,1.382-1.313,1.633,1.633,0,0,0,.046-1.5,3.187,3.187,0,0,0-1.392-1.364,6.847,6.847,0,0,0-2.344-.822,7.724,7.724,0,0,0-2.539.011,6.677,6.677,0,0,0-2.244.789"/><path class="h" d="M356.779,164.708a2.821,2.821,0,0,0-.94.814,1.222,1.222,0,0,0-.241.911l-.793-.461-1.443.833,6.933,4.029,1.443-.833-3.875-2.252q-.924-.537-.949-1.106t.789-1.028a3.363,3.363,0,0,1,1.771-.45,3.926,3.926,0,0,1,1.9.556l3.876,2.253,1.43-.826-4.085-2.374a5.75,5.75,0,0,0-1.982-.722,5.824,5.824,0,0,0-2.023,0,5.543,5.543,0,0,0-1.811.656"/><path class="h" d="M366.343,162.61a1.287,1.287,0,0,1-.649-1.109,1.409,1.409,0,0,1,.813-1.014,4.005,4.005,0,0,1,1.855-.52,3.4,3.4,0,0,1,1.843.413l-3.862,2.23m-.983-2.857a3.3,3.3,0,0,0-1.376,1.3,1.513,1.513,0,0,0,.018,1.437,3.639,3.639,0,0,0,1.449,1.346,6.829,6.829,0,0,0,2.325.833,7.645,7.645,0,0,0,2.507.015,6.428,6.428,0,0,0,2.232-.774,2.8,2.8,0,0,0,1.453-1.545,1.655,1.655,0,0,0-.424-1.57l-1.558.9q.492.84-.676,1.515a3.9,3.9,0,0,1-1.874.494,4.047,4.047,0,0,1-1.952-.416l5.332-3.078a5.614,5.614,0,0,0-.653-.439,6.507,6.507,0,0,0-2.211-.789,7.3,7.3,0,0,0-2.4,0,6.375,6.375,0,0,0-2.187.77"/><polyline class="h" points="370.233 154.309 368.79 155.142 378.102 160.553 379.545 159.72 370.233 154.309"/></g></g></svg>